<svg xmlns="http://www.w3.org/2000/svg" width="400" height="32.391" viewBox="0 0 176.931 24.293">
    <path d="M4.24 15.147c.097-.23.202-.473.257-.723a.173.173 0 0 0-.137-.203.17.17 0 0 0-.203.133q-.005.019-.004.031c-.004.219-.105.445-.191.645a.144.144 0 0 0 .078.195.15.15 0 0 0 .2-.078m-.098-.856a.4.4 0 0 1 .011.102c0 .098.082.172.176.168a.17.17 0 0 0 .164-.129c.027-.102.055-.219.02-.32a.206.206 0 0 0-.266-.125.21.21 0 0 0-.125.265c.008.012.012.028.02.04m-.2.325c.125-.082.25-.164.387-.23a.205.205 0 0 0 .195-.216c0-.02-.007-.039-.011-.058-.07-.188-.27-.157-.414-.102-.137.05-.266.121-.395.188a.237.237 0 0 0-.105.324.24.24 0 0 0 .324.105zm-.964 1c.273-.368.578-.75.964-1a.245.245 0 0 0 .075-.336.24.24 0 0 0-.313-.082c-.473.242-.848.664-1.176 1.07a.284.284 0 0 0 .043.398c.125.098.301.078.399-.043zm-1.106 1.886c.316-.656.668-1.3 1.106-1.886a.28.28 0 0 0-.06-.395.28.28 0 0 0-.39.047c-.48.601-.87 1.273-1.218 1.96a.313.313 0 0 0 .558.282c0-.004 0-.004.004-.008m-.879 2.364c.219-.813.512-1.606.88-2.364a.31.31 0 0 0-.15-.414.31.31 0 0 0-.413.14c-.395.786-.72 1.61-.957 2.458a.333.333 0 1 0 .64.183zm-.992 1.91a.357.357 0 0 0 .363.347.357.357 0 0 0 .348-.363v-.012c-.035-.632.121-1.28.281-1.882a.336.336 0 0 0-.234-.41.33.33 0 0 0-.406.23c-.192.676-.368 1.383-.352 2.09m0 0c.012.476.125 1 .512 1.316.16.129.394.106.527-.055a.377.377 0 0 0-.055-.527s-.004 0-.004-.004c-.214-.168-.253-.508-.27-.758a.357.357 0 0 0-.374-.336.357.357 0 0 0-.336.364m.512 1.316c.304.246.68.387 1.07.418a.377.377 0 0 0 .406-.348.38.38 0 0 0-.347-.406 1.2 1.2 0 0 1-.66-.25.38.38 0 0 0-.528.063.38.38 0 0 0 .059.523m1.07.418c.41.031.82-.058 1.191-.238a.366.366 0 0 0 .168-.488c-.086-.176-.293-.254-.472-.176a1.7 1.7 0 0 1-.828.148.38.38 0 0 0-.407.348.38.38 0 0 0 .348.406m1.191-.238a5.7 5.7 0 0 0 .91-.547.334.334 0 0 0-.378-.547 5.6 5.6 0 0 1-.836.43.365.365 0 0 0 .289.672c.004-.004.012-.004.015-.008m.91-.547c.184-.14.372-.281.54-.441a.302.302 0 0 0-.395-.457 5 5 0 0 1-.523.351.335.335 0 0 0-.106.461.33.33 0 0 0 .457.105c.012-.007.02-.011.028-.02m.536-.438c.172-.16.39-.449.258-.691a.18.18 0 0 0-.243-.07s-.004 0-.004.004c-.144.086-.277.195-.406.3a.303.303 0 0 0-.043.426.3.3 0 0 0 .422.043zM7.024 16.733c.118-.121.149-.324.176-.48.051-.294.074-.594.09-.891a.15.15 0 0 0-.14-.157.15.15 0 0 0-.16.141c-.016.285-.036.57-.087.856-.015.085-.027.25-.093.32a.15.15 0 0 0 0 .21.153.153 0 0 0 .214 0m.266-1.371q.028-.511.066-1.016a.18.18 0 0 0-.16-.191.18.18 0 0 0-.191.164v.023c.02.332.004.668-.016 1.004a.155.155 0 0 0 .14.16.153.153 0 0 0 .161-.144m-.305-1.399q.007.186.02.38a.176.176 0 0 0 .352.004q.012-.194.03-.38a.2.2 0 0 0-.187-.219.2.2 0 0 0-.215.188q-.006.01 0 .027m.407.028c-.004-.047-.004-.098-.028-.141a.24.24 0 0 0-.074-.078.21.21 0 0 0-.234.02c-.07.054-.075.124-.078.199a.21.21 0 0 0 .199.214.205.205 0 0 0 .215-.195zm.054 1.375q-.024-.685-.054-1.375a.205.205 0 0 0-.215-.196.21.21 0 0 0-.2.196q-.024.69-.054 1.375a.26.26 0 0 0 .25.273.257.257 0 0 0 .273-.25.03.03 0 0 0 0-.023m.059 2.332c0-.778-.024-1.555-.059-2.332a.257.257 0 0 0-.273-.25.257.257 0 0 0-.25.25 78 78 0 0 0-.067 2.332c-.003.18.141.324.32.328s.329-.14.329-.32zm-.02 1.984q.025-.989.02-1.984a.323.323 0 1 0-.649 0q-.016.984-.039 1.968a.33.33 0 0 0 .325.34.33.33 0 0 0 .343-.324m-.03 2.078q.006-1.042.03-2.078a.336.336 0 0 0-.328-.344.333.333 0 0 0-.34.328c-.02.696-.027 1.391-.035 2.086a.34.34 0 0 0 .336.34.335.335 0 0 0 .336-.332m-.509 1.441c.082.09.219.098.309.016.004-.004.012-.008.016-.015.12-.13.128-.364.144-.528.031-.305.035-.61.04-.914a.34.34 0 0 0-.333-.34.34.34 0 0 0-.34.332c0 .305 0 .614.028.914.011.168.02.403.136.536m0 0"/>
    <path d="M5.888 17.912a.175.175 0 0 0 .234.079.175.175 0 0 0 .086-.227 3 3 0 0 1-.23-.695c-.024-.121-.04-.266.003-.387a.22.22 0 0 0-.128-.29.224.224 0 0 0-.29.134q-.003.012-.007.023c-.114.453.132.969.332 1.363m.093-1.226c.082-.203.27-.363.43-.5a.26.26 0 1 0-.336-.398q-.006 0-.012.007c-.218.207-.44.457-.507.758a.224.224 0 0 0 .168.27.225.225 0 0 0 .257-.137m.43-.5q.439-.368.906-.695a.288.288 0 1 0-.336-.469q0 .002-.007.004-.476.361-.91.77a.261.261 0 0 0 .348.39m.906-.695c.336-.243.688-.473 1.043-.688a.3.3 0 0 0 .106-.41.303.303 0 0 0-.414-.102q-.556.341-1.078.735a.29.29 0 0 0-.055.402.29.29 0 0 0 .398.063m1.043-.688c.25-.148.524-.3.813-.363a.304.304 0 0 0 .23-.36.304.304 0 0 0-.36-.23c-.35.078-.683.254-.991.441a.3.3 0 0 0 .308.512m.778-.36c.074.134.09.301.11.45.03.3.03.601.023.906a.19.19 0 0 0 .187.195.19.19 0 0 0 .191-.164c.067-.441.137-.914.075-1.363-.024-.168-.075-.34-.192-.465a.51.51 0 0 0-.488-.152.304.304 0 0 0-.23.36.3.3 0 0 0 .324.234M5.54 24.248c.211-.14.426-.273.64-.41a.186.186 0 0 0 .06-.261.19.19 0 0 0-.247-.07c-.226.112-.453.23-.683.339a.23.23 0 0 0-.114.309.236.236 0 0 0 .313.113c.008-.008.02-.012.031-.02m-.355-.113q.023.076.09.117a.24.24 0 0 0 .16.04.25.25 0 0 0 .109-.048q.008-.005.016-.011c.007-.008.02-.016.03-.024a.24.24 0 0 0 .044-.332.24.24 0 0 0-.332-.043c-.004.004-.008.004-.012.008-.086.074-.152.168-.105.293m.406.074.96-.738a.267.267 0 1 0-.327-.422l-.008.008-.926.785a.24.24 0 0 0-.027.332.24.24 0 0 0 .328.035m.96-.738c.427-.328.852-.652 1.278-.984a.293.293 0 0 0 .05-.414.293.293 0 0 0-.413-.051c-.426.332-.84.683-1.25 1.035a.263.263 0 0 0-.031.375c.093.11.253.129.367.039m1.278-.984c.5-.387.988-.793 1.473-1.2a.19.19 0 0 0 .023-.265.19.19 0 0 0-.238-.043c-.555.316-1.113.648-1.621 1.043a.293.293 0 0 0-.051.414.293.293 0 0 0 .414.05M12.872 16.752c.11-.398.176-.808.172-1.222a.174.174 0 0 0-.176-.172.177.177 0 0 0-.172.176v.015a3.1 3.1 0 0 1-.113 1.121.15.15 0 0 0 .102.188.154.154 0 0 0 .187-.106m-.367-1.644c.125.11.176.281.195.445a.17.17 0 0 0 .192.152.173.173 0 0 0 .152-.171c.004-.262-.055-.528-.223-.73a.22.22 0 0 0-.312-.036.223.223 0 0 0-.004.34m-.371-.164a.7.7 0 0 1 .37.164c.09.082.231.07.313-.02a.22.22 0 0 0 .004-.285 1.13 1.13 0 0 0-.586-.387.27.27 0 0 0-.332.188.27.27 0 0 0 .188.332q.02.007.043.008m-.41.062a.8.8 0 0 1 .41-.062.27.27 0 0 0 .102-.527 1.24 1.24 0 0 0-.735.027.3.3 0 0 0-.188.383c.051.16.223.246.383.19zm-.278.266a.6.6 0 0 1 .278-.266.3.3 0 0 0 .152-.398.3.3 0 0 0-.375-.164c-.262.086-.477.27-.621.504a.33.33 0 0 0 .11.449.325.325 0 0 0 .456-.125m-.117.566c.004-.191.027-.394.117-.566a.326.326 0 0 0-.566-.324c-.156.261-.219.57-.227.875a.34.34 0 0 0 .328.347c.184.004.34-.14.348-.328zm-.484 1.102a.347.347 0 0 0 .66-.219q-.005-.007-.004-.008c-.098-.281-.18-.578-.172-.875a.34.34 0 0 0-.332-.344.334.334 0 0 0-.344.329c-.011.379.07.757.192 1.117m0 0c.136.418.316.82.527 1.207a.355.355 0 0 0 .625-.336 8 8 0 0 1-.496-1.098.345.345 0 0 0-.445-.21.346.346 0 0 0-.211.437m.527 1.207q.33.616.707 1.203a.345.345 0 0 0 .586-.363q-.345-.58-.668-1.176a.355.355 0 0 0-.625.336m.707 1.203c.227.355.426.73.578 1.121.063.16.242.242.406.18a.315.315 0 0 0 .184-.387 5.7 5.7 0 0 0-.582-1.277.343.343 0 0 0-.473-.118.343.343 0 0 0-.117.473c0 .004.004.004.004.008m.578 1.121c.114.29.18.61.117.918-.03.152.07.3.223.332a.29.29 0 0 0 .332-.215c.094-.41.043-.844-.082-1.242a.314.314 0 1 0-.598.188q.001.009.008.019m.051 2.059c.297-.278.527-.625.621-1.024a.283.283 0 1 0-.55-.129q-.006.006-.005.012c-.054.285-.23.523-.449.707a.29.29 0 0 0 .375.441zm-.996.683c.363-.176.7-.41.996-.683a.29.29 0 0 0 .016-.41.295.295 0 0 0-.399-.024 3.6 3.6 0 0 1-.875.559.31.31 0 0 0-.156.406.31.31 0 0 0 .41.156c.004 0 .004 0 .008-.004m-1.008.239c.348.03.695-.09 1.008-.239a.308.308 0 0 0-.262-.558c-.207.093-.449.191-.683.164a.32.32 0 0 0-.348.285.32.32 0 0 0 .281.348zm-.7-.598c.083.34.352.562.7.598a.318.318 0 0 0 .063-.633c-.082-.008-.125-.035-.149-.117a.314.314 0 0 0-.383-.231.317.317 0 0 0-.23.383m0 0c.04.172.216.273.384.23a.31.31 0 0 0 .23-.382c-.031-.125.016-.266.059-.38.097-.261.254-.503.41-.734a.18.18 0 0 0-.043-.254.19.19 0 0 0-.227.012c-.242.215-.48.45-.648.73-.14.231-.23.508-.164.778M18.29 14.99c.086-.128.121-.285.145-.433a.135.135 0 0 0-.114-.148.13.13 0 0 0-.144.113.8.8 0 0 1-.102.328.13.13 0 0 0 .035.18c.063.039.141.02.18-.04m-.164-.566c.043.02.055.05.05.098-.011.07.04.133.11.144.07.008.137-.039.149-.109a.47.47 0 0 0-.122-.383c-.058-.066-.16-.066-.226-.008a.16.16 0 0 0 .039.258m-.152.262c.054-.086.113-.184.191-.25.086.02.172-.04.188-.125a.16.16 0 0 0-.04-.137c-.226-.242-.546.07-.699.242a.227.227 0 0 0 .024.317.223.223 0 0 0 .336-.047m-.52 1.277c.137-.433.277-.89.52-1.277a.227.227 0 0 0-.07-.313.23.23 0 0 0-.29.043c-.332.383-.52.899-.687 1.371a.28.28 0 0 0 .168.356.28.28 0 0 0 .355-.172s.004-.004.004-.008m-.484 2.125a14.6 14.6 0 0 1 .484-2.125.276.276 0 0 0-.18-.347.275.275 0 0 0-.347.171c-.254.711-.426 1.454-.555 2.2a.303.303 0 0 0 .246.351.3.3 0 0 0 .352-.246zm-.203 2.219c.011-.742.09-1.484.203-2.219a.3.3 0 0 0-.25-.347.3.3 0 0 0-.348.246 16 16 0 0 0-.242 2.308.315.315 0 0 0 .308.324.316.316 0 0 0 .329-.308zm-.414 1.738c.062.168.25.25.417.188a.33.33 0 0 0 .188-.422c-.184-.469-.2-1.004-.191-1.504a.32.32 0 0 0-.637-.012c-.016.582.008 1.2.223 1.75m0 0c.144.383.386.766.777.938a.325.325 0 0 0 .426-.168.33.33 0 0 0-.164-.426c-.227-.098-.352-.36-.434-.578a.324.324 0 0 0-.422-.184.32.32 0 0 0-.183.418m.777.938c.363.16.762.09 1.094-.117a.305.305 0 0 0-.305-.528c-.164.086-.352.133-.527.051a.33.33 0 0 0-.43.164c-.07.164 0 .356.164.43zm1.094-.114c.296-.18.515-.472.699-.761.246-.406.433-.844.597-1.29a.17.17 0 0 0-.101-.218.17.17 0 0 0-.211.078c-.215.39-.441.777-.719 1.125-.16.203-.344.41-.574.535a.304.304 0 0 0-.121.414c.082.149.27.203.418.125q.006-.007.012-.008M24.423 18.963c.18.004.355.028.531.059a.33.33 0 0 0 .383-.262.33.33 0 0 0-.262-.387h-.015a1 1 0 0 0-.778.203.22.22 0 0 0-.023.31c.039.05.101.077.164.077m.527.059c.18.035.36.082.54.133a.343.343 0 1 0 .18-.664c-.005 0-.009-.004-.013-.004-.199-.047-.398-.09-.601-.114a.33.33 0 0 0-.106.649m.54.133c.284.078.577.144.866.207a.347.347 0 0 0 .418-.27.353.353 0 0 0-.27-.422 30 30 0 0 1-.847-.183.345.345 0 0 0-.414.257c-.039.18.067.36.246.41m.866.207q.552.117 1.102.21a.36.36 0 0 0 .414-.292.36.36 0 0 0-.293-.414h-.004a24 24 0 0 1-1.07-.196.356.356 0 0 0-.418.274.35.35 0 0 0 .27.418m1.102.21c.406.067.813.126 1.219.169.199.02.379-.125.398-.325a.36.36 0 0 0-.324-.402c-.395-.04-.785-.086-1.176-.148a.358.358 0 0 0-.117.707m1.219.169q.72.074 1.441.113a.371.371 0 1 0 .043-.742h-.004a28 28 0 0 1-1.406-.098.365.365 0 0 0-.074.727m1.441.113c.676.043 1.356.058 2.031.062a.383.383 0 0 0 .008-.766h-.004a34 34 0 0 1-1.996-.038.377.377 0 0 0-.39.351.374.374 0 0 0 .351.39m2.031.062c.422.004.848.004 1.27-.004q.352 0 .703-.011c.238-.004.492.015.727-.024a.384.384 0 0 0 .324-.445.39.39 0 0 0-.395-.328c-.875.027-1.75.047-2.625.047a.383.383 0 0 0-.004.765m2.653-.035a71 71 0 0 0 2.87-.144.38.38 0 0 0-.046-.758q-1.424.083-2.848.125a.395.395 0 0 0-.379.402.39.39 0 0 0 .403.375m2.87-.144c.915-.067 1.829-.125 2.743-.184a.36.36 0 0 0 .34-.387.36.36 0 0 0-.383-.34l-2.746.153a.38.38 0 1 0 .043.758zm2.743-.184q1.29-.082 2.578-.144a.362.362 0 0 0-.035-.723l-2.586.14a.36.36 0 0 0-.34.383c.008.203.18.356.383.344m2.578-.144q1.28-.064 2.559-.122a.365.365 0 0 0 .351-.382.37.37 0 0 0-.383-.356q-.005-.001-.004.004c-.855.043-1.707.09-2.558.133a.366.366 0 0 0-.344.383c.012.199.18.351.38.34m2.559-.122q1.353-.057 2.707-.074a.375.375 0 0 0-.008-.75h-.004q-1.365.016-2.73.09a.365.365 0 0 0-.348.387c.008.203.18.355.383.347m2.707-.074c1.441-.015 2.883-.015 4.328-.015a.378.378 0 0 0-.004-.758c-1.445 0-2.89 0-4.336.023a.375.375 0 1 0 .012.75m4.328-.015q2.22-.006 4.441 0a.37.37 0 0 0 .375-.368.373.373 0 0 0-.367-.375c-1.484-.015-2.969-.015-4.453-.015a.38.38 0 0 0 .004.758m4.441 0q2.266.01 4.532.003a.362.362 0 1 0 0-.722c-1.508-.004-3.016-.004-4.524-.024a.37.37 0 0 0-.375.368.366.366 0 0 0 .367.375m4.532.003q2.964 0 5.93-.046a.362.362 0 0 0-.012-.723c-1.973.035-3.946.047-5.918.047a.362.362 0 1 0 0 .722m5.93-.046 4.32-.07a.363.363 0 0 0-.012-.727q-2.161.04-4.32.074a.36.36 0 0 0-.352.367c0 .2.164.36.363.356m4.32-.07q1.371-.023 2.742-.04a.376.376 0 0 0 .367-.375.37.37 0 0 0-.375-.363q-1.376.023-2.746.05a.363.363 0 1 0 .012.727m2.742-.04q1.333-.017 2.668-.023a.375.375 0 0 0-.004-.75h-.004q-1.336.012-2.668.035a.37.37 0 0 0 .008.738zm2.668-.023c2.195-.012 4.39-.004 6.59-.004.21 0 .378-.168.378-.379a.377.377 0 0 0-.378-.379c-2.2 0-4.399 0-6.598.012a.38.38 0 0 0-.371.379.38.38 0 0 0 .379.37m6.59-.004c2.23.004 4.464.027 6.695-.04a.375.375 0 0 0 .367-.39.38.38 0 0 0-.39-.37c-2.223.058-4.45.038-6.672.042a.38.38 0 0 0 0 .758m6.695-.04a321 321 0 0 0 2.742-.093.38.38 0 0 0 .363-.39.38.38 0 0 0-.39-.364c-.914.031-1.825.063-2.739.086a.38.38 0 0 0-.37.39c.003.212.179.38.39.372zm2.742-.093q1.305-.046 2.617-.082a.374.374 0 0 0 .367-.387.377.377 0 0 0-.386-.37q-1.313.04-2.625.085a.38.38 0 0 0-.367.39c.008.212.183.372.394.364m2.617-.082q1.284-.03 2.567-.035a.384.384 0 1 0-.004-.77q-1.295.012-2.582.047a.383.383 0 0 0-.371.39.38.38 0 0 0 .39.368m2.567-.035c.82-.004 1.644-.004 2.464-.004.215 0 .391-.176.391-.39a.39.39 0 0 0-.39-.391c-.825 0-1.649.008-2.47.015a.384.384 0 1 0 .005.77m2.464-.004q1.195 0 2.391-.023a.392.392 0 0 0-.015-.786c-.79.016-1.583.028-2.375.028a.386.386 0 0 0-.387.39c0 .215.172.391.387.391m2.391-.023q1.226-.023 2.445-.075a.4.4 0 0 0 .38-.41.393.393 0 0 0-.41-.375q-1.217.052-2.43.074a.392.392 0 0 0 .016.785m2.445-.075c.825-.039 1.649-.078 2.473-.125a.39.39 0 0 0 .367-.414.39.39 0 0 0-.41-.367q-1.23.063-2.46.121a.394.394 0 0 0-.38.41.4.4 0 0 0 .41.375m2.473-.125q1.244-.07 2.488-.12a.39.39 0 0 0 .375-.407.39.39 0 0 0-.406-.375c-.832.035-1.668.074-2.5.121a.39.39 0 1 0 .043.781m2.488-.12q1.236-.056 2.465-.087a.395.395 0 0 0 .383-.402.395.395 0 0 0-.402-.379q-1.24.038-2.477.086a.39.39 0 0 0-.375.406.395.395 0 0 0 .406.375m2.465-.087q1.18-.033 2.36-.054a.39.39 0 0 0 .382-.399.39.39 0 0 0-.398-.383c-.79.012-1.574.032-2.363.055a.391.391 0 0 0 .02.781m2.36-.054c.882-.016 1.77-.012 2.656-.016q2.849-.005 5.691-.004a.393.393 0 0 0 .395-.394.393.393 0 0 0-.395-.395q-2.848.001-5.691.008c-.89.004-1.781.004-2.672.02a.39.39 0 0 0-.383.398.39.39 0 0 0 .399.383m8.347-.02c2.735 0 5.473-.008 8.207.008a.398.398 0 1 0 .004-.797c-2.734-.016-5.472-.004-8.21 0a.393.393 0 0 0-.395.395c0 .218.176.394.394.394m8.207.008q.945.006 1.883 0a.398.398 0 1 0-.004-.797q-.938.006-1.875 0a.394.394 0 0 0-.398.395.395.395 0 0 0 .394.402m1.883 0c.875-.004 1.75-.078 2.621-.152a.4.4 0 0 0 .363-.43.4.4 0 0 0-.43-.363c-.85.074-1.706.144-2.558.148a.395.395 0 0 0-.394.402c0 .22.18.395.398.395m2.621-.152c.828-.07 1.66-.141 2.492-.192a.393.393 0 0 0 .371-.422.394.394 0 0 0-.417-.37c-.84.05-1.676.12-2.512.19a.398.398 0 0 0 .066.794m2.492-.192q.787-.047 1.575-.078a.398.398 0 1 0-.031-.797q-.799.035-1.59.082a.4.4 0 0 0-.375.422.4.4 0 0 0 .421.371m1.575-.078a62 62 0 0 1 2.09-.05.395.395 0 0 0 .394-.403.403.403 0 0 0-.402-.395c-.703.012-1.41.024-2.114.051a.403.403 0 0 0-.382.414c.011.219.195.39.414.383m2.09-.05q1.13-.014 2.261-.02a.403.403 0 0 0 .395-.403.395.395 0 0 0-.403-.394q-1.13.007-2.261.02a.404.404 0 0 0-.395.406.397.397 0 0 0 .402.39m2.261-.02 1.93-.012c.219 0 .394-.18.394-.398a.393.393 0 0 0-.394-.391c-.645-.004-1.29 0-1.938.004a.398.398 0 0 0 .008.797m1.93-.012c.457 0 .918-.012 1.375-.05.32-.024.64-.063.953-.145a.25.25 0 0 0 .18-.305.25.25 0 0 0-.207-.188c-.758-.105-1.536-.101-2.301-.101a.393.393 0 0 0-.395.394c0 .22.176.395.395.395M147.552 14.873q.211.079.418.157a.153.153 0 0 0 .195-.086.154.154 0 0 0-.09-.196c-.11-.043-.258-.082-.347-.168a.177.177 0 0 0-.247.012.177.177 0 0 0 .012.246q.03.024.059.035m-.078-.02q.046.015.093.028a.175.175 0 0 0 .211-.129.17.17 0 0 0-.039-.16q-.03-.035-.066-.07a.2.2 0 0 0-.285-.012.2.2 0 0 0-.012.285c.023.032.059.051.098.059m-.164-.136a.21.21 0 0 0 .253.164.21.21 0 0 0 .165-.254.16.16 0 0 0-.036-.082.1.1 0 0 0-.02-.023.2.2 0 0 0-.109-.067q-.02-.006-.043-.007-.02-.001-.043.004a.216.216 0 0 0-.167.265m0 0q.01.063.027.125c.027.137.16.219.293.192a.25.25 0 0 0 .191-.293.24.24 0 0 0-.054-.11 1 1 0 0 0-.086-.097.21.21 0 0 0-.301-.024.22.22 0 0 0-.07.207m.027.125c.043.207.25.356.41.473.129.09.305.062.398-.067a.28.28 0 0 0-.066-.394q-.006-.004-.012-.008c-.097-.062-.222-.129-.3-.215a.25.25 0 0 0-.352-.027.25.25 0 0 0-.078.238m.41.473c.258.183.55.32.84.437a.303.303 0 0 0 .387-.164.296.296 0 0 0-.164-.386h-.004a4.3 4.3 0 0 1-.739-.356.285.285 0 0 0-.394.086.29.29 0 0 0 .074.383zm.84.437q.543.217 1.105.387a.3.3 0 0 0 .375-.2.306.306 0 0 0-.199-.374q-.54-.164-1.062-.363a.296.296 0 0 0-.22.55m1.105.387q.552.17 1.102.348a.3.3 0 0 0 .375-.196.3.3 0 0 0-.195-.379c-.368-.117-.739-.23-1.106-.347a.3.3 0 0 0-.375.199c-.047.16.04.328.2.375m1.102.348c.25.078.508.16.75.273.152.07.332.004.398-.148a.303.303 0 0 0-.148-.403 9 9 0 0 0-.82-.297.301.301 0 0 0-.18.574m.75.273a1 1 0 0 1 .144.078.31.31 0 0 0 .418.114.31.31 0 0 0 .141-.352c-.059-.203-.273-.309-.453-.39a.302.302 0 0 0-.25.55m-.102.809c.192-.149.38-.297.555-.457.145-.13.313-.297.25-.512a.306.306 0 0 0-.379-.207.31.31 0 0 0-.195.168c-.184.183-.41.328-.621.476a.336.336 0 0 0-.082.461.33.33 0 0 0 .46.079c.005-.004.009-.004.012-.008m-1.297 1.02q.646-.517 1.297-1.02a.33.33 0 0 0-.39-.532q-.686.48-1.348.989a.355.355 0 0 0-.066.5.364.364 0 0 0 .504.066q-.001-.005.004-.004zm-1.16.925c.387-.309.774-.621 1.16-.926a.36.36 0 0 0 .055-.504.353.353 0 0 0-.496-.058q-.59.45-1.176.914a.37.37 0 0 0-.058.515c.125.16.355.188.515.059m-.883.75c.282-.262.583-.508.883-.75a.367.367 0 0 0-.457-.574c-.316.254-.633.508-.93.785a.37.37 0 0 0-.019.523.37.37 0 0 0 .524.016m-.312.316.07-.078q.118-.122.242-.238a.37.37 0 0 0-.503-.54c-.168.157-.383.337-.465.563a.361.361 0 0 0 .656.293m.121.118a.22.22 0 0 0 .094-.293.23.23 0 0 0-.153-.114q-.018-.001-.043-.007a.357.357 0 0 0-.46-.211.35.35 0 0 0-.211.207.401.401 0 0 0 .433.547c.117-.02.235-.075.34-.13m0 0"/>
    <path d="M26.84 16.205c.153-.02.31-.043.458-.078a.175.175 0 0 0 .129-.21.175.175 0 0 0-.211-.126.12.12 0 0 0-.067.036.67.67 0 0 1-.343.125.124.124 0 0 0-.11.144c.008.07.074.121.145.11m.438-.074q.072-.01.137-.02a.22.22 0 1 0-.055-.437.2.2 0 0 0-.132.067c-.032.03-.063.066-.094.097a.177.177 0 0 0 .004.246c.039.035.09.051.14.047m.239-.039c.07-.07.12-.152.09-.258a.14.14 0 0 0-.032-.07c-.058-.082-.164-.117-.258-.082a.4.4 0 0 0-.105.066.234.234 0 0 0-.035.325.233.233 0 0 0 .324.035q.005-.008.016-.016m-.418.402c.14-.132.277-.27.418-.402.09-.09.09-.234.003-.324a.23.23 0 0 0-.308-.02c-.152.121-.3.243-.453.364a.255.255 0 0 0-.035.359c.086.113.25.129.359.04.004-.005.012-.009.016-.017m-.88.762c.305-.238.602-.492.88-.762a.26.26 0 0 0 .007-.363.26.26 0 0 0-.347-.02q-.434.353-.89.68a.292.292 0 0 0 .343.473q.007-.004.008-.008m-1.003.754q.511-.368 1.004-.754a.292.292 0 0 0-.352-.465c-.332.243-.668.477-1.008.711a.31.31 0 0 0-.082.43c.098.14.29.176.43.082.004-.004.004-.004.008-.004m-.996.684q.504-.334.996-.684a.31.31 0 0 0 .07-.433.306.306 0 0 0-.426-.075q-.49.333-.992.649a.322.322 0 1 0 .344.547c.004 0 .004-.004.008-.004m-.809.566c.262-.195.535-.383.809-.566a.325.325 0 0 0 .09-.45.324.324 0 0 0-.442-.093c-.289.183-.578.37-.855.574a.33.33 0 0 0-.075.465.33.33 0 0 0 .465.074c.004 0 .004 0 .008-.004m-.39.379c.093-.152.25-.273.39-.379a.335.335 0 0 0 .063-.469.33.33 0 0 0-.461-.066c-.215.152-.434.332-.575.562a.34.34 0 0 0 .118.465c.16.098.367.047.464-.113m-.641.363c.078.172.277.246.445.172a.34.34 0 0 0 .172-.445c-.012-.031.008-.063.024-.09a.337.337 0 0 0-.114-.465.34.34 0 0 0-.469.113.77.77 0 0 0-.058.715m0 0c.11.246.351.41.586.532a.335.335 0 1 0 .309-.594c-.087-.047-.235-.113-.278-.211a.34.34 0 0 0-.441-.176.34.34 0 0 0-.176.445zm.586.532c.43.222.918.343 1.383.468a.33.33 0 0 0 .41-.234.333.333 0 0 0-.235-.41c-.414-.114-.863-.219-1.25-.418a.336.336 0 0 0-.453.14.334.334 0 0 0 .145.454m1.383.468c.414.114.847.215 1.242.395a.33.33 0 0 0 .281-.594c-.422-.207-.898-.32-1.348-.445a.34.34 0 0 0-.41.234.333.333 0 0 0 .235.41m1.242.395c.156.07.304.164.426.289.12.129.32.133.449.012a.316.316 0 0 0 .015-.438 1.9 1.9 0 0 0-.609-.457.327.327 0 0 0-.441.149.334.334 0 0 0 .148.44q.006-.001.012.005m.426.289c.12.125.218.27.3.426a.293.293 0 0 0 .535-.238 2 2 0 0 0-.37-.614.315.315 0 1 0-.473.418q.004.007.008.008m.296.422c.168.347.426.644.715.894a.163.163 0 0 0 .254-.199 12 12 0 0 1-.433-.934.294.294 0 0 0-.383-.164.295.295 0 0 0-.16.383c.004.008.004.012.007.02M157.603 16.662a.168.168 0 0 0 .336-.004c-.005-.574-.024-1.167.066-1.738a.203.203 0 0 0-.168-.234.21.21 0 0 0-.234.172v.015c-.051.594-.02 1.196 0 1.79m.402-1.738c.027-.148.055-.305.11-.45a.23.23 0 0 0-.141-.3.237.237 0 0 0-.305.137c-.004.012-.004.023-.008.035-.035.172-.05.352-.063.531a.207.207 0 0 0 .192.215c.105.008.2-.062.215-.168zm-.012-.316a.25.25 0 0 0 .215-.285v-.016c-.043-.2-.266-.344-.445-.184a.4.4 0 0 0-.102.223.237.237 0 0 0 .184.281q.076.014.148-.02m-.285-.219q.036.304.074.61c.02.152.16.257.313.238a.27.27 0 0 0 .238-.309v-.02q-.066-.303-.125-.601a.256.256 0 0 0-.3-.2.25.25 0 0 0-.2.282m.074.61c.059.445.082.898.102 1.35a.305.305 0 0 0 .61-.027v-.007c-.032-.469-.067-.946-.161-1.406a.279.279 0 0 0-.55.09m.102 1.35q.035.904.09 1.806a.31.31 0 0 0 .332.297.316.316 0 0 0 .3-.333v-.003q-.06-.901-.113-1.801a.305.305 0 0 0-.61.035m.09 1.806c.043.812.074 1.629.109 2.445.004.18.156.316.332.309a.317.317 0 0 0 .309-.332c-.032-.82-.063-1.641-.118-2.461a.32.32 0 0 0-.34-.297.315.315 0 0 0-.292.336m.109 2.445c.02.566.02 1.144.074 1.707a.31.31 0 0 0 .336.281.31.31 0 0 0 .281-.289c.012-.176 0-.351-.008-.527q-.018-.598-.043-1.195a.323.323 0 0 0-.332-.313.323.323 0 0 0-.308.336zm.074 1.707q.005.083.016.164c.015.164.16.281.32.266a.3.3 0 0 0 .27-.274l.011-.164a.31.31 0 1 0-.617.008m.016.184c.027.117.101.214.226.242q.075.017.145 0a.309.309 0 0 0 .2-.402.296.296 0 0 0-.57.16m-.11-.454c.036.149.07.301.11.454.039.16.195.257.355.218a.3.3 0 0 0 .223-.347l-.094-.457a.31.31 0 0 0-.36-.239.31.31 0 0 0-.237.36q.002.006.004.011zm-.187-1.113a10 10 0 0 0 .187 1.113c.04.16.204.262.368.223a.307.307 0 0 0 .226-.355 11 11 0 0 1-.156-1.055.315.315 0 0 0-.348-.277.315.315 0 0 0-.277.347zm-.125-1.535q.038.767.125 1.535a.315.315 0 0 0 .625-.074 24 24 0 0 1-.11-1.488.32.32 0 0 0-.331-.309.323.323 0 0 0-.309.336m-.05-1.812q.004.908.05 1.812c.012.18.16.313.34.305a.32.32 0 0 0 .3-.332 55 55 0 0 1-.039-1.79.323.323 0 0 0-.324-.324.324.324 0 0 0-.328.325zm0 0a.327.327 0 0 0 .652-.004c0-.618.082-1.23.23-1.832a.336.336 0 0 0-.652-.16v.003a8.5 8.5 0 0 0-.23 1.992m.882-1.836c.156-.641.398-1.262.7-1.848a.339.339 0 1 0-.602-.309 8.7 8.7 0 0 0-.75 2 .335.335 0 0 0 .652.157m.7-1.848c.28-.547.616-1.074 1.042-1.524a.335.335 0 0 0-.015-.476.34.34 0 0 0-.477.012c-.469.496-.844 1.074-1.152 1.68a.34.34 0 0 0 .144.456c.168.082.371.02.457-.148m1.042-1.524c.156-.167.324-.332.508-.468.102-.074.21-.149.332-.18a.336.336 0 0 0-.164-.652c-.465.113-.852.5-1.168.836a.343.343 0 0 0 .012.48.34.34 0 0 0 .48-.016m.84-.648c.066-.016.09.156.098.203.039.18.215.293.394.258a.336.336 0 0 0 .258-.395c-.043-.21-.121-.425-.285-.574a.68.68 0 0 0-.629-.144.337.337 0 0 0-.246.406c.043.18.223.293.406.246zm.605 1.863c.133-.574.266-1.21.145-1.797a.33.33 0 0 0-.39-.257.333.333 0 0 0-.262.39v.004c.043.192.035.399.02.594a6.6 6.6 0 0 1-.157.914c-.04.18.07.355.246.398.18.04.355-.07.398-.246m-.714 2.243c.293-.727.535-1.477.714-2.243a.332.332 0 0 0-.644-.152 14.6 14.6 0 0 1-.684 2.148.33.33 0 0 0 .184.43.325.325 0 0 0 .43-.183m-.942 2.074q.52-1.014.942-2.074a.33.33 0 0 0-.184-.43.334.334 0 0 0-.43.183c-.273.688-.574 1.36-.914 2.02a.33.33 0 0 0 .586.3m-.926 1.437c.383-.422.665-.937.926-1.437a.333.333 0 0 0-.14-.446.33.33 0 0 0-.442.141q-.005-.001-.004.004c-.234.457-.48.926-.816 1.32a.313.313 0 0 0 .035.45.314.314 0 0 0 .441-.032m-.91.453c.36.125.696-.21.91-.453a.313.313 0 0 0-.023-.449.32.32 0 0 0-.45.023c0 .004-.003.004-.003.008-.09.102-.188.223-.309.285a.31.31 0 0 0-.332.27.306.306 0 0 0 .207.316m-.468-.601c.062.258.203.515.468.601a.303.303 0 0 0 .203-.57c-.07-.023-.09-.11-.109-.176a.29.29 0 0 0-.355-.207.29.29 0 0 0-.207.352m-.11-.719q.017.365.11.719a.29.29 0 0 0 .562-.14v-.005a2.3 2.3 0 0 1-.078-.59.303.303 0 0 0-.3-.296.3.3 0 0 0-.294.3zm0 0c.008.164.145.29.309.281a.3.3 0 0 0 .285-.297c-.004-.105.004-.242.07-.328a.316.316 0 0 0-.066-.437.31.31 0 0 0-.438.066l-.015.02c-.125.207-.157.457-.145.695m.664-.344c.043-.058.117-.082.188-.09a.323.323 0 0 0 .277-.367.326.326 0 0 0-.367-.281c-.004 0-.008.004-.012.004a.87.87 0 0 0-.605.383.315.315 0 0 0 .101.43c.14.085.32.05.418-.079m.188-.09c.156-.023.32.04.46.102a.335.335 0 0 0 .27-.613c-.261-.114-.55-.184-.832-.133a.327.327 0 0 0-.265.379.33.33 0 0 0 .367.265m.46.102c.243.105.442.305.606.508a.335.335 0 0 0 .52-.422c-.235-.285-.516-.547-.856-.7a.335.335 0 0 0-.27.614m.606.508c.254.308.465.652.645 1.008.082.164.285.23.449.148a.336.336 0 0 0 .144-.453 6.4 6.4 0 0 0-.718-1.125.335.335 0 0 0-.473-.047.34.34 0 0 0-.047.469m.645 1.008c.191.375.367.754.515 1.148a.334.334 0 0 0 .426.191.333.333 0 0 0 .195-.425c-.156-.414-.34-.82-.543-1.22a.335.335 0 0 0-.449-.144.333.333 0 0 0-.144.45m.515 1.148c.102.27.207.54.305.813.063.164.246.25.41.191a.323.323 0 0 0 .195-.398c-.085-.282-.187-.56-.289-.84a.336.336 0 0 0-.425-.196.33.33 0 0 0-.196.426zm.305.813c.066.175.191.445.418.441q.072-.001.125-.043c.184-.133.121-.422.062-.605a.32.32 0 1 0-.609.19c0 .005.004.013.004.017M164.806 14.58l.058-1.02a.21.21 0 0 0-.195-.226.215.215 0 0 0-.223.2v.011c0 .34-.008.684-.011 1.024a.185.185 0 0 0 .371.012m-.36-1.03q0 .034.012.07a.215.215 0 0 0 .262.152.215.215 0 0 0 .16-.246c-.02-.114-.09-.215-.227-.211a.2.2 0 0 0-.101.027.2.2 0 0 0-.063.059.22.22 0 0 0-.043.148m.008.034.07.746c.016.133.133.23.27.22a.24.24 0 0 0 .219-.266v-.02q-.07-.369-.133-.738a.213.213 0 0 0-.25-.172.214.214 0 0 0-.176.23m.07.746c.055.536.079 1.075.094 1.614a.28.28 0 0 0 .285.27.28.28 0 0 0 .27-.286v-.004a12.4 12.4 0 0 0-.16-1.66.25.25 0 0 0-.285-.2.25.25 0 0 0-.203.266m.094 1.614c.028.863.031 1.726.031 2.586a.283.283 0 1 0 .566 0c-.003-.868-.007-1.739-.042-2.606a.28.28 0 0 0-.29-.265.28.28 0 0 0-.265.285m.246 5.168c.325-.805.356-1.727.352-2.582a.283.283 0 0 0-.566 0c0 .828-.008 1.668-.137 2.488a.18.18 0 0 0 .152.207.18.18 0 0 0 .2-.113m0 0"/>
    <path d="M163.067 16.53a.199.199 0 0 0 .348-.184c-.05-.152.117-.297.219-.383a.27.27 0 0 0 .031-.379.27.27 0 0 0-.379-.03l-.016.015c-.253.25-.44.633-.203.96m.563-.567c.285-.234.582-.457.879-.676a.296.296 0 0 0 .058-.418.3.3 0 0 0-.418-.062c0 .004-.004.004-.004.008-.3.238-.605.48-.875.754a.266.266 0 0 0 0 .379.265.265 0 0 0 .36.015m.879-.676q.651-.492 1.32-.949a.32.32 0 0 0 .082-.441.32.32 0 0 0-.441-.082q.001.005-.004.004-.675.48-1.32.996a.3.3 0 0 0-.051.418.305.305 0 0 0 .414.054zm1.32-.949a9.6 9.6 0 0 1 1.176-.719.33.33 0 0 0 .152-.445.334.334 0 0 0-.445-.152q-.007.004-.008.008c-.434.23-.84.507-1.238.789a.317.317 0 0 0 .363.52zm1.176-.719c.152-.07.336-.183.508-.187a.344.344 0 0 0 .336-.352.34.34 0 0 0-.309-.332c-.285-.03-.594.149-.836.282a.326.326 0 0 0-.137.449.33.33 0 0 0 .438.14m.207 1.305c.207-.422.418-.844.574-1.285.05-.133.098-.273.106-.418.02-.223-.11-.45-.352-.473a.342.342 0 0 0-.32.532c-.02.183-.07.367-.121.547-.086.312-.188.62-.293.93a.223.223 0 0 0 .136.277.22.22 0 0 0 .27-.11M163.313 21.237c.082-.121.204-.22.305-.317.23-.215.473-.422.711-.625a.174.174 0 0 0 .02-.246.174.174 0 0 0-.247-.02c-.367.313-.746.618-1.093.95a.2.2 0 0 0-.008.285.203.203 0 0 0 .285.004q.017-.013.027-.031zm-.125.261a.25.25 0 0 0 .262-.226.26.26 0 0 0-.117-.227v.004a.2.2 0 0 0-.262-.11.3.3 0 0 0-.054.032c-.082.07-.149.164-.137.281.02.157.164.235.308.246m0 0c.258.016.536-.12.762-.23a.265.265 0 0 0 .13-.356.27.27 0 0 0-.356-.128q-.007.002-.008.003c-.16.082-.356.207-.536.227a.24.24 0 0 0-.218.266.25.25 0 0 0 .226.218zm.762-.23c.57-.266 1.121-.586 1.668-.899a.276.276 0 1 0-.273-.48c-.54.305-1.078.617-1.63.898a.267.267 0 0 0 .235.48m1.668-.899c.547-.308 1.102-.617 1.63-.964a.158.158 0 0 0-.106-.29c-.258.036-.508.133-.746.235-.364.156-.711.344-1.051.539a.28.28 0 0 0-.106.379c.074.133.246.18.38.101M170.9 15.705c.183-.515.363-1.05.421-1.597a.174.174 0 1 0-.347-.035v.011c-.016.52-.184 1.035-.36 1.52a.15.15 0 0 0 .09.191c.078.032.164-.011.195-.09m-.063-2.066c.117.11.137.297.137.45a.174.174 0 0 0 .347.023c.035-.266.012-.555-.156-.774a.217.217 0 0 0-.312-.043.22.22 0 0 0-.047.313q.016.018.03.031m-.399-.14c.145.007.29.042.399.14.09.082.234.078.316-.016a.22.22 0 0 0 .012-.285c-.16-.215-.406-.332-.668-.375a.264.264 0 0 0-.309.223.27.27 0 0 0 .223.308c.008 0 .02.004.027.004m-.632.113c.199-.075.418-.125.632-.114a.27.27 0 0 0 .286-.254.266.266 0 0 0-.227-.28 1.9 1.9 0 0 0-.883.077.3.3 0 0 0-.203.375c.047.16.219.25.375.2.008 0 .012-.004.02-.004m-.684.382c.207-.16.438-.292.684-.382a.3.3 0 0 0 .175-.387.295.295 0 0 0-.367-.184c-.316.094-.61.243-.879.434a.32.32 0 0 0-.074.45.317.317 0 0 0 .45.077q.005-.004.011-.008m-.45.512c.106-.203.27-.37.45-.512a.323.323 0 0 0-.387-.52 2.3 2.3 0 0 0-.66.7.341.341 0 0 0 .59.344c.004-.004.004-.008.008-.012zm-.148.613c.004-.21.047-.425.149-.613a.346.346 0 0 0-.14-.46.345.345 0 0 0-.458.128 1.94 1.94 0 0 0-.25.93.347.347 0 0 0 .34.36.35.35 0 0 0 .36-.34zm-.347 1.094a.35.35 0 1 0 .59-.379c-.137-.21-.25-.457-.243-.715a.35.35 0 0 0-.343-.355.35.35 0 0 0-.356.34c-.012.398.137.781.352 1.11m0 0c.234.367.52.7.828 1.008a.351.351 0 0 0 .496-.496 5.3 5.3 0 0 1-.734-.89.35.35 0 0 0-.485-.106.35.35 0 0 0-.105.484m.828 1.008q.458.452.879.945c.117.145.332.16.472.04a.337.337 0 0 0 .047-.465 12 12 0 0 0-.902-1.016.35.35 0 0 0-.496 0 .347.347 0 0 0 0 .492zm.879.945c.238.286.433.606.554.957a.313.313 0 0 0 .399.196.31.31 0 0 0 .2-.387 3.6 3.6 0 0 0-.634-1.191.336.336 0 0 0-.472-.055.333.333 0 0 0-.047.48zm.554.957c.114.332.153.684.11 1.028a.305.305 0 0 0 .265.332c.16.02.31-.098.329-.258a3.1 3.1 0 0 0-.106-1.293.313.313 0 0 0-.39-.211.313.313 0 0 0-.211.39q.005.007.004.012m.204 2.371a2.94 2.94 0 0 0 .5-1.27.296.296 0 0 0-.258-.331.293.293 0 0 0-.332.254q.001.005-.004.004c-.04.367-.184.71-.39 1.008a.295.295 0 0 0 .484.336zm-.965.899c.39-.211.71-.535.965-.899a.296.296 0 0 0-.079-.41.293.293 0 0 0-.406.075c-.199.289-.449.546-.761.714a.296.296 0 1 0 .28.52m-1.172.172c.398.097.812.02 1.172-.172a.295.295 0 0 0 .117-.399.29.29 0 0 0-.399-.12c-.23.124-.492.183-.753.12a.29.29 0 0 0-.352.22.29.29 0 0 0 .215.35m-1.215-2.223c.086.504.203 1.02.434 1.48.16.325.41.649.78.743a.29.29 0 0 0 .352-.215.293.293 0 0 0-.21-.356h-.005c-.207-.05-.355-.261-.457-.43-.25-.398-.406-.859-.539-1.308a.19.19 0 0 0-.23-.12.186.186 0 0 0-.125.206M175.888 14.932c.156-.34.242-.711.32-1.074a.166.166 0 0 0-.125-.192.16.16 0 0 0-.187.125c-.075.34-.153.692-.297 1.008a.154.154 0 0 0 .078.211c.078.04.176.004.21-.078m.023-1.887c.043.055.043.153.047.223a2.4 2.4 0 0 1-.063.523.155.155 0 0 0 .122.188.16.16 0 0 0 .191-.121c.062-.305.16-.715.016-1.008a.185.185 0 0 0-.25-.086.18.18 0 0 0-.082.246.2.2 0 0 0 .02.035m-.289-.011c.082-.028.223-.075.29.011.062.078.179.094.257.032a.18.18 0 0 0 .055-.227c-.133-.273-.446-.328-.72-.273a.23.23 0 0 0-.187.273.235.235 0 0 0 .274.191q.016-.006.031-.007m-.754.683c.133-.172.277-.34.442-.484a.9.9 0 0 1 .312-.2.24.24 0 0 0 .152-.3.24.24 0 0 0-.27-.156c-.437.082-.792.464-1.07.785a.28.28 0 0 0 .028.394c.117.102.297.09.398-.027q.001-.006.008-.012zm-.914 1.625c.242-.57.531-1.133.914-1.625a.28.28 0 0 0-.433-.355c-.446.511-.778 1.109-1.06 1.722a.317.317 0 0 0 .157.422c.16.07.348 0 .422-.156zm-.637 2.043c.145-.7.36-1.387.637-2.043a.315.315 0 0 0-.168-.418.316.316 0 0 0-.41.16 11 11 0 0 0-.73 2.157.35.35 0 0 0 .261.41.343.343 0 0 0 .41-.258zm-.785 1.832c.031.2.219.332.414.297a.356.356 0 0 0 .297-.414v-.008c-.101-.562-.039-1.152.074-1.707a.344.344 0 0 0-.265-.406.35.35 0 0 0-.407.262c-.144.644-.222 1.32-.113 1.976m0 0c.09.54.328 1.055.754 1.41a.37.37 0 0 0 .52-.05.37.37 0 0 0-.051-.52c-.293-.238-.446-.598-.512-.965a.361.361 0 0 0-.71.125m.754 1.41c.371.305.82.504 1.305.555a.365.365 0 0 0 .078-.727c-.34-.039-.652-.18-.914-.398a.366.366 0 0 0-.516.05.37.37 0 0 0 .047.52m1.3.555c.415.047.821-.094 1.169-.305.433-.258.797-.617 1.12-.996a.223.223 0 0 0-.022-.316.22.22 0 0 0-.29-.004c-.34.281-.707.55-1.113.73-.242.11-.512.192-.781.164a.366.366 0 1 0-.082.727M35.54 16.159a89 89 0 0 0 .168-1.786.17.17 0 0 0-.16-.183.17.17 0 0 0-.184.156v.016c0 .59-.02 1.18-.082 1.77a.13.13 0 0 0 .117.14.127.127 0 0 0 .141-.113m-.176-1.797c0 .093.078.172.172.172.09 0 .164-.07.172-.16q.053-.67.113-1.34a.23.23 0 0 0-.207-.25.23.23 0 0 0-.25.207v.02c-.004.448-.004.901 0 1.35m.457-1.328c.008-.07.012-.141.024-.211a.24.24 0 0 0 .015-.172.25.25 0 0 0-.172-.184.25.25 0 0 0-.277.106c-.07.113-.043.308-.047.437a.23.23 0 0 0 .457.023m-.445-.297q.019.15.031.3a.271.271 0 0 0 .54-.054c-.005-.016-.005-.028-.009-.04-.027-.097-.05-.195-.078-.292a.25.25 0 0 0-.3-.18.25.25 0 0 0-.184.266m.031.3c.035.325.035.657.043.98a.297.297 0 1 0 .594-.015v-.008c-.016-.343-.02-.714-.106-1.05a.27.27 0 0 0-.328-.196.275.275 0 0 0-.203.29m.043.98c.024.813.04 1.622.059 2.435a.305.305 0 0 0 .61-.016 85 85 0 0 0-.075-2.442.296.296 0 0 0-.309-.28.3.3 0 0 0-.285.304m.059 2.435c.02.753.027 1.515.074 2.269a.3.3 0 0 0 .316.277.3.3 0 0 0 .278-.304c-.024-.754-.04-1.504-.059-2.258a.3.3 0 0 0-.308-.297.306.306 0 0 0-.301.313m.074 2.269c.02.277.023.602.14.86a.267.267 0 0 0 .352.136.27.27 0 0 0 .153-.305c-.051-.23-.047-.484-.051-.718a.293.293 0 0 0-.305-.285.296.296 0 0 0-.289.3zm.137.852c.058.136.187.246.343.218.118-.023.192-.113.223-.222.047-.149.059-.309.07-.465a.14.14 0 0 0-.125-.152.14.14 0 0 0-.14.082l-.082.175a.266.266 0 0 0-.29.364M29.204 5.698c.043.214.074.433.11.648.015.09.105.152.195.137a.17.17 0 0 0 .14-.172 37 37 0 0 1-.03-.66.207.207 0 0 0-.216-.203.207.207 0 0 0-.203.214q-.001.018.004.036m0 .007v.004l.012.035a.212.212 0 1 0 .414-.097v-.008c-.024-.09-.067-.168-.168-.191a.2.2 0 0 0-.121.004.21.21 0 0 0-.137.148.24.24 0 0 0 0 .105m.012.04q.112.48.23.96c.032.125.157.2.278.172a.233.233 0 0 0 .172-.281q.001-.001-.004-.008-.131-.474-.262-.949a.214.214 0 0 0-.266-.148.21.21 0 0 0-.148.253m.23.96q.225.922.438 1.844a.254.254 0 0 0 .304.188.25.25 0 0 0 .188-.301v-.004a61 61 0 0 0-.484-1.844.23.23 0 0 0-.282-.16.234.234 0 0 0-.164.277m.438 1.844q.209.887.453 1.762a.261.261 0 0 0 .504-.14v-.005a33 33 0 0 1-.465-1.734.257.257 0 0 0-.305-.184.253.253 0 0 0-.187.301m.453 1.762c.113.406.23.82.387 1.21.054.141.214.212.351.153.14-.055.211-.21.153-.351v-.008c-.16-.371-.274-.762-.387-1.149a.26.26 0 0 0-.328-.175.26.26 0 0 0-.176.32m.387 1.21c.05.134.117.278.234.36.191.137.426.043.527-.144a.28.28 0 0 0-.109-.383.25.25 0 0 0-.148-.035.27.27 0 0 0-.356-.149.274.274 0 0 0-.148.352m.761.216a1.5 1.5 0 0 0 .141-.43c.05-.227.086-.453.117-.684a.284.284 0 0 0-.246-.324.286.286 0 0 0-.324.246 7 7 0 0 1-.106.64c-.02.095-.035.2-.078.286a.28.28 0 0 0 .125.379c.133.07.301.02.371-.113m.258-1.114c.121-.863.203-1.738.29-2.605a.29.29 0 0 0-.266-.32.293.293 0 0 0-.32.261c-.079.864-.16 1.727-.274 2.586-.02.16.09.305.246.324.16.024.305-.09.324-.246m.29-2.605c.073-.785.144-1.574.245-2.36a.294.294 0 0 0-.257-.328.29.29 0 0 0-.329.254c-.101.79-.168 1.586-.246 2.375a.294.294 0 0 0 .586.059m.245-2.36c.028-.21.035-.44.098-.648a.285.285 0 0 0-.195-.36.29.29 0 0 0-.352.169c-.094.238-.105.52-.137.765a.296.296 0 1 0 .586.075m.098-.648c.016-.047.027-.094.043-.144a.28.28 0 0 0-.191-.352.28.28 0 0 0-.344.168c-.02.047-.035.094-.055.137a.29.29 0 1 0 .54.215.1.1 0 0 0 .007-.024m-.496-.129q-.001.016.004.031a.275.275 0 0 0 .293.266.28.28 0 0 0 .265-.285c-.004-.156-.02-.316-.199-.379a.3.3 0 0 0-.101-.016.294.294 0 0 0-.258.184.27.27 0 0 0-.004.2m.004.031c.015.415.09.832.148 1.247a.175.175 0 0 0 .196.152.18.18 0 0 0 .156-.164c.023-.414.07-.84.058-1.254a.28.28 0 1 0-.558.012zM33.376 11.327c-.02-.165-.027-.34-.04-.508a.169.169 0 0 0-.335 0c-.012.168-.02.343-.04.508a.206.206 0 0 0 .185.226.21.21 0 0 0 .23-.184zm-.39.12q.027.055.085.087c.028.02.063.027.094.027.113.004.191-.078.215-.176a.21.21 0 0 0-.152-.258.21.21 0 0 0-.254.153q-.005.007-.004.015c-.004.004-.004.012-.004.016v.004a.2.2 0 0 0 .02.133m.394-.062q.063-.259.133-.512a.236.236 0 0 0-.168-.285.24.24 0 0 0-.285.168q.001.01-.004.02-.044.26-.086.52a.21.21 0 0 0 .172.245c.105.016.21-.05.238-.156m.133-.512.28-1.101a.26.26 0 0 0-.187-.317.255.255 0 0 0-.316.188c-.004 0-.004.004-.004.004q-.13.561-.23 1.129a.24.24 0 0 0 .191.27.235.235 0 0 0 .266-.173m.28-1.101c.13-.5.235-1 .337-1.504a.272.272 0 0 0-.531-.11q-.145.75-.313 1.489a.26.26 0 0 0 .195.312.26.26 0 0 0 .313-.187m.337-1.504c.18-.883.324-1.774.473-2.664a.274.274 0 0 0-.54-.086c-.144.883-.289 1.766-.464 2.64a.27.27 0 0 0 .531.11m.473-2.664q.112-.687.23-1.375c.031-.188.059-.375.102-.559a.28.28 0 0 0-.207-.332.28.28 0 0 0-.333.207c-.042.196-.07.395-.101.59q-.118.691-.23 1.383a.274.274 0 0 0 .54.086m.332-1.934q.02-.1.043-.199a.277.277 0 0 0-.207-.332.276.276 0 0 0-.329.207v.004q-.022.1-.046.195a.283.283 0 0 0 .21.332.28.28 0 0 0 .329-.207m-.477-.148q.005.007.004.02c.023.148.164.25.316.226a.276.276 0 0 0 .23-.313c-.023-.148-.073-.293-.25-.324a.4.4 0 0 0-.09 0 .272.272 0 0 0-.227.219.26.26 0 0 0 .017.172m.004.02c.043.28.09.566.133.847a.276.276 0 0 0 .547-.082q-.07-.428-.133-.852a.28.28 0 0 0-.317-.23.275.275 0 0 0-.23.316m.133.847c.129.805.218 1.617.316 2.426.02.152.156.262.309.242a.275.275 0 0 0 .242-.309 72 72 0 0 0-.32-2.441.276.276 0 0 0-.547.082m.316 2.426c.113.969.238 1.933.383 2.898a.277.277 0 0 0 .547-.082c-.14-.957-.262-1.918-.38-2.883a.277.277 0 1 0-.55.066m.383 2.898c.05.324.101.649.164.969.035.18.07.367.14.535a.26.26 0 0 0 .34.137.26.26 0 0 0 .149-.313c-.047-.148-.07-.308-.098-.46-.054-.313-.101-.633-.148-.95a.276.276 0 0 0-.547.082m.305 1.504c.09.215.3.445.558.309a.235.235 0 0 0 .09-.317.22.22 0 0 0-.14-.11q-.013-.028-.02-.058a.26.26 0 1 0-.496.153q.001.01.008.023m.558.309c.168-.094.219-.285.211-.469a.206.206 0 0 0-.21-.191.2.2 0 0 0-.192.183c-.004.02-.004.043-.012.063a.227.227 0 0 0-.121.3c.05.118.187.172.305.122q.006-.004.02-.008m-.226-.864c.03.125.047.258.035.387-.012.11.07.207.183.219a.2.2 0 0 0 .22-.18v-.031a5 5 0 0 0-.052-.473.197.197 0 0 0-.226-.164.196.196 0 0 0-.164.227q.002.005.004.015m-.313-.726c.117.23.25.473.313.726a.2.2 0 0 0 .238.145.2.2 0 0 0 .148-.223c-.046-.289-.171-.57-.285-.84a.23.23 0 0 0-.3-.117.224.224 0 0 0-.118.297q.002.006.004.012m-.41-.766c.148.25.281.508.41.766a.23.23 0 0 0 .309.101c.105-.054.152-.183.105-.293-.12-.277-.242-.558-.386-.824a.25.25 0 0 0-.34-.101.25.25 0 0 0-.098.351m-.324-.441c.125.137.23.281.324.441a.25.25 0 0 0 .344.086.25.25 0 0 0 .093-.336 3 3 0 0 0-.367-.535.26.26 0 0 0-.367-.031.265.265 0 0 0-.031.37c.004 0 .004.005.004.005m-.34-.262c.133.059.246.156.34.262.097.11.265.117.37.02a.26.26 0 0 0 .024-.364 1.5 1.5 0 0 0-.511-.402.267.267 0 0 0-.356.125.267.267 0 0 0 .129.355zm-.285-.039a.43.43 0 0 1 .285.04.27.27 0 0 0 .352-.134.264.264 0 0 0-.13-.351.97.97 0 0 0-.62-.082.27.27 0 0 0-.208.32.27.27 0 0 0 .32.207m-.153.113a.21.21 0 0 1 .153-.113.27.27 0 0 0 .207-.32.27.27 0 0 0-.32-.207.75.75 0 0 0-.508.398.263.263 0 0 0 .468.242m-.535.344a.219.219 0 0 0 .426-.031.9.9 0 0 1 .11-.313.27.27 0 0 0-.106-.355.264.264 0 0 0-.36.105q-.002.007-.003.008a.83.83 0 0 0-.067.586m-.004-.016c.063.29.309.454.575.532a.132.132 0 0 0 .101-.242c-.12-.067-.254-.168-.242-.32a.219.219 0 1 0-.434.031M38.024 4.815c.024.441.032.883.051 1.324 0 .086.074.152.16.148a.15.15 0 0 0 .149-.148c.02-.441.027-.883.05-1.324a.205.205 0 1 0-.41-.02zm.41 0a.2.2 0 0 0-.007-.086.205.205 0 0 0-.258-.137.1.1 0 0 0-.047.02.3.3 0 0 0-.055.047.24.24 0 0 0-.047.132.205.205 0 0 0 .192.227.204.204 0 0 0 .222-.191zm-.015.793c.004-.266.012-.528.016-.793a.21.21 0 0 0-.204-.215.21.21 0 0 0-.21.191q-.034.397-.067.793a.234.234 0 0 0 .211.25.235.235 0 0 0 .254-.21zm-.227 2.183c.11-.722.211-1.453.227-2.183a.23.23 0 0 0-.227-.239.23.23 0 0 0-.238.215c-.058.711-.172 1.418-.285 2.125a.265.265 0 0 0 .523.086zm-.347 2.258c.125-.75.238-1.504.347-2.258a.266.266 0 0 0-.222-.304.267.267 0 0 0-.301.222q-.182 1.126-.371 2.246a.274.274 0 0 0 .226.32.275.275 0 0 0 .32-.226m0 0a.28.28 0 0 0-.227-.32.28.28 0 0 0-.32.226c-.031.176-.059.348-.098.524a.16.16 0 0 0-.047.11c0 .093.016.183.102.241.14.094.3.008.383-.113.129-.191.168-.445.207-.668m0 0"/>
    <path d="M36.438 5.534q.1.264.192.535c.023.074.11.113.183.09a.15.15 0 0 0 .09-.18c-.05-.18-.105-.363-.156-.543a.163.163 0 0 0-.2-.113.157.157 0 0 0-.109.199zm-.007-.075q-.006.037.011.075 0 .01.012.023c.004.016.012.027.016.039.039.082.136.121.218.082a.17.17 0 0 0 .083-.219l-.008-.011c-.035-.067-.078-.133-.168-.133a.16.16 0 0 0-.11.039.16.16 0 0 0-.054.105m.039.137.582 1.262c.05.11.18.156.289.11.11-.052.156-.18.105-.29q-.001-.011-.008-.016-.334-.607-.675-1.214a.165.165 0 0 0-.223-.063.165.165 0 0 0-.07.211zm.582 1.262c.328.707.66 1.414 1.008 2.11.066.136.23.19.367.12a.276.276 0 0 0 .12-.367 58 58 0 0 0-1.109-2.059.214.214 0 0 0-.292-.085.217.217 0 0 0-.094.28m1.008 2.11q.181.374.386.737c.082.141.16.29.274.407a.24.24 0 0 0 .343.007.24.24 0 0 0 .051-.28c-.183-.376-.375-.747-.566-1.118a.28.28 0 0 0-.371-.121.276.276 0 0 0-.117.367m.57.85q.019.03.031.06a.26.26 0 0 0 .05.226c.06.066.126.137.22.152a.22.22 0 0 0 .246-.172c.02-.093-.024-.18-.067-.257a.25.25 0 0 0-.195-.125 1 1 0 0 0-.043-.051.15.15 0 0 0-.21-.016.15.15 0 0 0-.032.184M60.313 14.022c.098-.465.2-.934.266-1.406a.17.17 0 0 0-.148-.192.177.177 0 0 0-.196.149v.035c.012.172-.008.351-.027.523-.035.281-.09.559-.148.836-.016.07.027.14.097.152a.13.13 0 0 0 .157-.097m-.113-1.7.035.294c.012.093.098.16.192.148a.17.17 0 0 0 .148-.14c.02-.094.035-.192.055-.286a.223.223 0 0 0-.176-.254.217.217 0 0 0-.25.176.2.2 0 0 0-.004.063m.438.004a.3.3 0 0 0-.063-.183.23.23 0 0 0-.164-.067q-.04.01-.086.02a.2.2 0 0 0-.101.094.3.3 0 0 0-.028.14c0 .121.098.22.22.223a.224.224 0 0 0 .222-.219zm.027.993c-.008-.332-.02-.664-.027-.993a.22.22 0 0 0-.227-.214.223.223 0 0 0-.215.218l-.011.993a.24.24 0 0 0 .238.242.24.24 0 0 0 .242-.239zm-.48 1.71c0 .15.12.27.27.266a.273.273 0 0 0 .265-.273v-.004q-.028-.85-.055-1.7a.24.24 0 0 0-.246-.234.24.24 0 0 0-.234.239 49 49 0 0 0 0 1.707m0 0c.004.505.019 1.005.035 1.505.008.152.133.27.285.261a.274.274 0 0 0 .265-.281c-.019-.5-.035-.996-.05-1.496a.27.27 0 0 0-.278-.258.265.265 0 0 0-.257.27m.035 1.505c.027.699.027 1.398.03 2.093 0 .153.122.278.274.278a.275.275 0 0 0 .274-.278c0-.703-.004-1.41-.028-2.113a.28.28 0 0 0-.285-.266.28.28 0 0 0-.265.286m.03 2.093v1.446a.275.275 0 1 0 .55 0c.002-.48.002-.965-.002-1.446a.27.27 0 0 0-.274-.273.274.274 0 0 0-.273.273m0 1.446a.4.4 0 0 0 .028.164c.063.136.227.199.364.136a.27.27 0 0 0 .16-.234c.004-.023 0-.043 0-.066a.27.27 0 0 0-.274-.274.275.275 0 0 0-.277.274zm.552.035c0-.137-.012-.274-.02-.41a99 99 0 0 1-.066-1.07.173.173 0 0 0-.18-.16.17.17 0 0 0-.16.155q-.045.533-.09 1.07c-.012.134-.031.274-.031.407a.273.273 0 0 0 .266.285.275.275 0 0 0 .28-.27zM57.43 4.971c.215-.254.438-.512.618-.793a.17.17 0 0 0-.055-.23.165.165 0 0 0-.226.054q-.011.018-.016.035c-.098.286-.324.54-.516.766-.047.055-.043.137.012.18a.13.13 0 0 0 .184-.012m.61-.789q.065-.088.125-.176a.2.2 0 0 0-.047-.281.205.205 0 0 0-.285.047.2.2 0 0 0-.027.066l-.059.207c-.023.09.027.18.117.203a.16.16 0 0 0 .176-.066m.129-.156c.023-.063.047-.125.027-.2a.23.23 0 0 0-.07-.097l-.328.164a.2.2 0 0 0 .207.2c.055 0 .11-.024.144-.067-.187.207-.218-.492-.336-.215q-.007.01-.008.02l-.023.054c-.04.11.012.227.121.266a.205.205 0 0 0 .266-.117zm-.54 1.566.54-1.566a.206.206 0 0 0-.125-.262.21.21 0 0 0-.262.121q-.294.774-.59 1.547a.23.23 0 0 0 .133.3.23.23 0 0 0 .301-.132q.005-.007.004-.008m-.765 2.129c.274-.703.52-1.418.766-2.129a.23.23 0 0 0-.145-.297.23.23 0 0 0-.293.137q-.404 1.051-.812 2.102a.26.26 0 0 0 .148.335.255.255 0 0 0 .336-.148m-.719 1.75c.247-.582.493-1.16.72-1.75a.255.255 0 0 0-.15-.336.263.263 0 0 0-.335.149 67 67 0 0 1-.711 1.734.26.26 0 0 0 .137.34.263.263 0 0 0 .34-.137m-.632 1.293c.11-.113.175-.285.246-.426.136-.285.261-.578.386-.867a.26.26 0 0 0-.136-.34.255.255 0 0 0-.34.137q-.187.432-.363.871c-.055.14-.121.285-.153.434a.207.207 0 0 0 .16.25.22.22 0 0 0 .2-.059m-.344.027c.035.051.09.078.148.078.09.004.153-.054.203-.117a.21.21 0 0 0 .024-.242v.004a.114.114 0 0 0-.063-.148.115.115 0 0 0-.136.039.21.21 0 0 0-.188.152c-.023.078-.039.164.012.234m0 0"/>
    <path d="M55.259 6.526q.092-.231.203-.45c.031-.058.059-.132.105-.18a.156.156 0 0 0-.008-.222.16.16 0 0 0-.222.004l-.012.016c-.055.074-.094.164-.137.246q-.106.234-.207.469a.15.15 0 0 0 .078.195c.078.035.164 0 .2-.078zm.226-.582c.082.07.203.062.274-.016a.192.192 0 0 0-.067-.309c-.129-.054-.28-.042-.367.075a.16.16 0 0 0 .035.222.16.16 0 0 0 .125.028m-.015-.02c.093.11.144.281.199.414a.24.24 0 0 0 .312.133.245.245 0 0 0 .133-.312q-.007-.01-.008-.02c-.093-.184-.21-.434-.414-.52a.19.19 0 0 0-.254.102.19.19 0 0 0 .032.203zm.199.414c.254.63.477 1.27.707 1.903a.29.29 0 0 0 .367.171.29.29 0 0 0 .168-.367s-.004-.004-.004-.008c-.254-.632-.496-1.285-.8-1.898a.243.243 0 0 0-.325-.105.24.24 0 0 0-.113.304m.707 1.903c.227.617.437 1.238.691 1.843.067.16.246.235.407.168a.31.31 0 0 0 .168-.406c-.25-.602-.489-1.207-.735-1.809a.28.28 0 0 0-.367-.156.284.284 0 0 0-.164.36m.691 1.843c.075.188.172.383.32.524a.28.28 0 0 0 .391-.016.28.28 0 0 0 .051-.293c-.062-.152-.125-.3-.187-.453a.31.31 0 0 0-.407-.168.31.31 0 0 0-.168.406m.32.524c.118.11.31.219.462.097a.204.204 0 0 0 .03-.285c.016.024 0 0-.003-.011q-.023-.052-.047-.11a.274.274 0 0 0-.36-.148.27.27 0 0 0-.148.355c.016.04.035.074.067.102zm.415.125c.16-.07.156-.254.148-.403a.115.115 0 0 0-.113-.105.12.12 0 0 0-.094.062c-.011.02-.02.04-.035.059a.201.201 0 1 0 .094.387M59.966 5.194q.293-.335.465-.746a.142.142 0 1 0-.262-.11c-.004.004-.004.012-.008.02a1.6 1.6 0 0 1-.36.687.107.107 0 0 0 .009.157c.046.039.113.035.156-.008m.465-.742c.05-.106.156-.262.101-.383a.3.3 0 0 0-.039-.055.15.15 0 0 0-.058-.035.18.18 0 0 0-.176.015.184.184 0 0 0-.07.223q-.012.072-.028.145a.146.146 0 0 0 .11.172.144.144 0 0 0 .16-.082m-.07-.004q.068-.094.144-.188a.18.18 0 0 0-.035-.258.18.18 0 0 0-.211-.008q-.1.064-.2.133a.22.22 0 0 0-.062.309.224.224 0 0 0 .363.012m-.255.629c.047-.145.094-.293.153-.434.027-.066.054-.137.101-.195a.224.224 0 0 0-.043-.313.22.22 0 0 0-.257-.008c-.247.16-.364.516-.461.774a.27.27 0 0 0 .504.188q.002-.008.004-.012m-.328 1.347c.086-.453.188-.906.328-1.347A.27.27 0 0 0 59.6 4.9c-.168.457-.286.93-.391 1.406a.29.29 0 0 0 .223.344.285.285 0 0 0 .343-.223q.005-.002.004-.004m-.215 1.625c.04-.543.11-1.09.215-1.625a.29.29 0 0 0-.23-.34.29.29 0 0 0-.34.223 14 14 0 0 0-.258 1.695c-.015.168.11.32.278.332.171.016.32-.11.335-.277zm-.593 1.438a.32.32 0 0 0 .363.261.32.32 0 0 0 .262-.363c-.074-.441-.063-.89-.031-1.336a.31.31 0 0 0-.286-.328.31.31 0 0 0-.328.281c-.043.492-.058.996.02 1.485m0 0c.062.379.222.777.586.957a.315.315 0 1 0 .277-.566c-.164-.083-.21-.333-.238-.493a.32.32 0 0 0-.364-.262.32.32 0 0 0-.261.364m.586.957c.379.183.765.004 1.039-.278a.3.3 0 0 0-.008-.425.3.3 0 0 0-.414-.004c-.082.074-.22.199-.34.14a.315.315 0 1 0-.278.567zm1.039-.278c.277-.285.468-.64.582-1.02a.267.267 0 0 0-.18-.331.27.27 0 0 0-.328.16c-.106.289-.273.55-.496.762a.302.302 0 0 0 .41.441zm.582-1.02a4 4 0 0 0 .183-1.007.235.235 0 0 0-.468-.027 3.3 3.3 0 0 1-.223.863c-.05.14.02.293.156.348.14.05.293-.02.348-.157q.002-.008.004-.02m-.383-1.491c.11.12.113.304.098.457a.233.233 0 0 0 .21.254.24.24 0 0 0 .258-.211v-.016c.008-.27-.035-.555-.199-.781a.23.23 0 0 0-.328-.051.236.236 0 0 0-.04.348m-.324-.16a.5.5 0 0 1 .324.16.24.24 0 0 0 .336.02.24.24 0 0 0 .031-.317.96.96 0 0 0-.621-.383.261.261 0 0 0-.086.516c.004.003.012.003.016.003m-.453.09a.87.87 0 0 1 .453-.09.257.257 0 0 0 .285-.235.26.26 0 0 0-.215-.285 1.3 1.3 0 0 0-.758.121.27.27 0 0 0-.129.363.276.276 0 0 0 .364.13zm-.461.324c.132-.133.293-.239.46-.325a.273.273 0 0 0 .13-.363.27.27 0 0 0-.364-.125c-.222.105-.43.246-.61.418a.273.273 0 0 0-.007.387c.105.11.281.113.39.008zm-.243.324a.9.9 0 0 1 .243-.324.277.277 0 0 0 .004-.391.27.27 0 0 0-.387-.004c-.156.148-.3.328-.371.54a.27.27 0 0 0 .172.339.27.27 0 0 0 .34-.16zm.09.86c.07.054.176.038.227-.036a.16.16 0 0 0 0-.195 2 2 0 0 1-.29-.461c-.015-.047-.046-.117-.027-.168a.27.27 0 1 0-.507-.188s0 .004-.004.004c-.149.438.293.817.601 1.043M62.415 5.608c.059.226.012.5-.012.73a.147.147 0 0 0 .133.164.15.15 0 0 0 .164-.133c.024-.218.043-.437.043-.656 0-.133-.004-.312-.133-.39a.17.17 0 0 0-.238.054.176.176 0 0 0 .043.23m.07.074a.2.2 0 0 1 .04-.04.174.174 0 0 0 .167-.179.17.17 0 0 0-.07-.133c-.133-.097-.3-.054-.426.032a.22.22 0 0 0-.054.3.21.21 0 0 0 .3.055.1.1 0 0 0 .043-.035m-.183.348c.047-.118.097-.25.183-.348a.217.217 0 0 0-.023-.305.22.22 0 0 0-.266-.015c-.16.113-.261.3-.343.472a.245.245 0 0 0 .117.328c.12.059.27.004.328-.117q.002-.005.004-.015zm-.188.601q.07-.306.188-.601a.24.24 0 0 0-.137-.317.24.24 0 0 0-.312.121 4 4 0 0 0-.247.664c-.043.141.04.286.18.325.14.043.285-.04.324-.18q.005-.006.004-.012m-.086.762c.008-.254.028-.512.086-.762a.26.26 0 0 0-.195-.316.257.257 0 0 0-.313.183 4 4 0 0 0-.132.875.275.275 0 0 0 .261.29.277.277 0 0 0 .293-.262zm-.406.77a.28.28 0 0 0 .398.023.29.29 0 0 0 .047-.371c-.027-.04-.027-.098-.035-.145-.008-.09-.004-.183-.004-.277a.278.278 0 0 0-.555-.02c-.011.25-.035.586.149.79zm0 0c.184.206.531.214.785.222a.276.276 0 0 0 .285-.27.28.28 0 0 0-.261-.285c-.11-.003-.348-.011-.414-.07a.284.284 0 0 0-.399.027.28.28 0 0 0 .004.375m.785.222c.258.008.528.016.781-.043a.254.254 0 0 0 .192-.3.25.25 0 0 0-.262-.196c-.226.012-.46 0-.687-.016a.28.28 0 0 0-.293.262.28.28 0 0 0 .261.293zm.781-.043c.207-.047.399-.152.567-.277a.224.224 0 0 0 .047-.313.226.226 0 0 0-.301-.054.8.8 0 0 1-.383.148.253.253 0 0 0-.238.266.253.253 0 0 0 .27.234q.016.001.039-.004m.567-.277c.176-.13.328-.297.398-.504a.22.22 0 0 0-.136-.281.22.22 0 0 0-.286.136c0 .008-.004.012-.004.02-.027.113-.128.2-.226.262a.226.226 0 0 0-.067.308c.07.102.208.133.31.067q.005-.007.01-.008m.398-.504c.106-.3.098-.652.106-.969a.257.257 0 0 0-.25-.262.257.257 0 0 0-.262.25v.02c.012.266.047.57-.02.836a.223.223 0 0 0 .16.27.223.223 0 0 0 .266-.145m-.46-1.66c-.012-.024.003.027.003.031q.011.07.016.14c.02.176.027.352.035.528.004.14.125.25.266.242a.256.256 0 0 0 .246-.25q.008-.275.004-.55c-.004-.114-.004-.231-.04-.34a.286.286 0 0 0-.359-.184.29.29 0 0 0-.183.36zm.202.168a.285.285 0 0 0 .328-.367c-.035-.102-.09-.2-.199-.243-.207-.082-.386.082-.414.278-.023.16.09.308.25.328q.018.005.036.004m.247.242.046-.508a.29.29 0 0 0-.261-.316.29.29 0 0 0-.317.25l-.07.504a.3.3 0 0 0 .258.34.304.304 0 0 0 .344-.258zM64.095 8.1c.004-.594-.008-1.195.047-1.79a.303.303 0 0 0-.274-.331.305.305 0 0 0-.328.262c-.082.609-.062 1.242-.066 1.855a.31.31 0 0 0 .308.313.315.315 0 0 0 .313-.31m-.414 2.043a.19.19 0 0 0 .242.11.2.2 0 0 0 .12-.165c.044-.66.044-1.324.052-1.988a.31.31 0 1 0-.621-.004c-.004.41.004.824.043 1.23.027.278.066.56.164.817M93.58 11.862c.019.64.03 1.277.042 1.918a.195.195 0 0 0 .2.187.193.193 0 0 0 .187-.187c.015-.641.023-1.278.043-1.918a.233.233 0 0 0-.227-.243.236.236 0 0 0-.246.227zm0 .035c0 .133.112.238.245.234.133 0 .238-.11.235-.242v-.008a.33.33 0 0 0-.043-.172.24.24 0 0 0-.118-.097.237.237 0 0 0-.3.132c-.024.051-.02.102-.02.153m0 0q.012.862.03 1.73a.26.26 0 0 0 .266.258.266.266 0 0 0 .262-.27v-.007c-.028-.574-.051-1.149-.078-1.727a.243.243 0 0 0-.25-.23.24.24 0 0 0-.23.246m.03 1.73q.025 1.494.04 2.989a.285.285 0 1 0 .57-.004c-.008-1-.04-2.004-.082-3.004a.266.266 0 0 0-.278-.25.26.26 0 0 0-.25.27m.04 2.989c.003.546-.009 1.101.03 1.648a.284.284 0 0 0 .305.262.28.28 0 0 0 .258-.293c-.023-.54-.016-1.082-.023-1.621a.285.285 0 1 0-.57.004m.03 1.648c.012.16.005.36.169.45.062.03.136.038.203.023a.3.3 0 0 0 .156-.106.3.3 0 0 0 .055-.16q-.001-.046-.008-.086l-.012-.152a.28.28 0 0 0-.293-.27.28.28 0 0 0-.27.293zm.583.207c.011-.215-.028-.441-.051-.656a.174.174 0 0 0-.192-.153.17.17 0 0 0-.148.122c-.059.207-.137.425-.16.64a.277.277 0 0 0 .242.305.277.277 0 0 0 .305-.246q.002-.006.004-.012M85.767 2.803c.082.305.156.61.234.914.023.098.125.16.227.133a.184.184 0 0 0 .136-.211c-.054-.309-.11-.617-.16-.93a.226.226 0 0 0-.258-.187.23.23 0 0 0-.187.258q.004.01.008.023zm-.016-.066q.001.059.031.105a.22.22 0 0 0 .297.106.22.22 0 0 0 .125-.23c-.008-.063-.023-.118-.078-.165a.23.23 0 0 0-.297 0 .23.23 0 0 0-.078.184m0 0q.004.11.008.215c.004.128.113.23.246.226a.235.235 0 0 0 .223-.246v-.016l-.024-.214a.23.23 0 0 0-.254-.2.23.23 0 0 0-.199.235zm.008.215c.008.156.04.312.062.464q.076.458.165.914a.25.25 0 0 0 .293.2.255.255 0 0 0 .199-.293h-.004c-.086-.438-.196-.88-.246-1.32a.237.237 0 0 0-.262-.208.23.23 0 0 0-.207.243zm.227 1.378q.157.832.308 1.668a.257.257 0 0 0 .508-.09v-.003a80 80 0 0 0-.328-1.668.25.25 0 0 0-.293-.2.25.25 0 0 0-.196.293zm.308 1.668q.087.511.168 1.028c.02.144.152.242.297.218a.26.26 0 0 0 .219-.296 49 49 0 0 0-.176-1.043.257.257 0 0 0-.3-.207.257.257 0 0 0-.208.3m.168 1.028.082.543c.02.14.152.238.297.218a.266.266 0 0 0 .219-.296l-.082-.543a.26.26 0 0 0-.297-.215.254.254 0 0 0-.219.293m.078.511q-.001.012.004.024v.008q.001.02.008.043a.264.264 0 0 0 .418.129.3.3 0 0 0 .074-.102.3.3 0 0 0 .012-.168.26.26 0 0 0-.516.063zM86.4 6.51l.14 1.027c.02.141.152.243.293.223a.26.26 0 0 0 .223-.289l-.118-1.031a.274.274 0 0 0-.3-.238.274.274 0 0 0-.239.3zm-.196-1.516c.059.504.129 1.008.195 1.516a.27.27 0 0 0 .305.23.27.27 0 0 0 .234-.3c-.058-.5-.117-1.004-.16-1.508a.29.29 0 0 0-.312-.258.284.284 0 0 0-.262.313zm-.074-1.082q.01.542.074 1.082c.02.157.16.27.32.25a.29.29 0 0 0 .254-.312q-.046-.511-.054-1.027a.293.293 0 0 0-.297-.293.297.297 0 0 0-.297.297zm0 0c.004.165.14.293.3.293a.297.297 0 0 0 .294-.3c0-.305.015-.614.062-.918a.304.304 0 0 0-.254-.34.3.3 0 0 0-.34.254c-.05.336-.066.672-.062 1.011m.656-.925c.035-.239.125-.461.277-.653a.295.295 0 0 0-.05-.418.294.294 0 0 0-.418.047c-.215.27-.352.598-.403.938a.3.3 0 1 0 .594.086m.277-.653c.13-.16.286-.308.477-.39a.3.3 0 0 0 .152-.39.293.293 0 0 0-.382-.157c-.29.117-.524.324-.715.566a.3.3 0 0 0 .047.422c.129.102.32.078.421-.05m.477-.39a.64.64 0 0 1 .398-.059.286.286 0 0 0 .348-.21.29.29 0 0 0-.203-.348 1.2 1.2 0 0 0-.773.07.296.296 0 0 0-.165.387.3.3 0 0 0 .387.16zm.398-.059c.102.027.16.125.2.219a.28.28 0 0 0 .363.156.283.283 0 0 0 .16-.363c-.101-.266-.297-.492-.578-.57a.287.287 0 1 0-.156.555q.006.004.011.003m.2.219c.082.207.125.433.144.656a.274.274 0 0 0 .293.25.27.27 0 0 0 .25-.289 2.7 2.7 0 0 0-.164-.824.28.28 0 0 0-.363-.16.283.283 0 0 0-.164.363s.004 0 .004.004m.656 1.492q.059-.435.031-.875a.275.275 0 0 0-.289-.258.277.277 0 0 0-.254.29v.007c.02.254.016.512-.02.766a.268.268 0 1 0 .532.07m-.223.832c.11-.266.184-.547.223-.832a.268.268 0 1 0-.531-.07 2.9 2.9 0 0 1-.184.695.267.267 0 1 0 .492.207m-.406.676c.176-.2.309-.434.406-.676a.27.27 0 0 0-.144-.351.27.27 0 0 0-.348.144 2 2 0 0 1-.32.527.275.275 0 0 0 .023.383.27.27 0 0 0 .383-.027m-.57.422c.222-.09.414-.242.57-.422a.27.27 0 0 0-.023-.38.27.27 0 0 0-.383.024 1.1 1.1 0 0 1-.371.286.267.267 0 0 0-.14.351c.058.133.21.2.347.14m-.586.133c.203-.004.402-.055.586-.133a.267.267 0 0 0 .144-.352.266.266 0 0 0-.347-.144q-.005.002-.004.004a1.3 1.3 0 0 1-.403.105.26.26 0 0 0-.242.277.267.267 0 0 0 .266.243zm-.508-.11c.152.086.332.11.508.11a.26.26 0 0 0 .254-.266.26.26 0 0 0-.266-.258q-.006.005-.012.004a.6.6 0 0 1-.261-.031.248.248 0 0 0-.223.441m-.188-.105.188.105c.117.067.27.024.336-.097a.246.246 0 0 0-.113-.344c-.063-.031-.13-.059-.192-.09a.24.24 0 0 0-.219.426m0 0a.24.24 0 1 0 .235-.418c-.004 0-.004-.004-.008-.004s-.004-.004-.008-.004q-.01-.007-.02-.008a.23.23 0 0 0-.175-.016.26.26 0 0 0-.145.125c-.058.13.008.262.121.325zm.094.008c.102.007.207-.028.305-.051.07-.02.113-.09.098-.16a.13.13 0 0 0-.051-.07c-.078-.063-.164-.134-.258-.169a.232.232 0 1 0-.094.45M89.18 5.631c.165-.07.329-.144.485-.234.133-.074.29-.156.395-.27a.15.15 0 0 0-.008-.21.154.154 0 0 0-.2-.008c-.23.19-.507.328-.789.44a.153.153 0 0 0-.082.196.154.154 0 0 0 .2.086zm.864-.488c.14-.117.262-.262.328-.434a.153.153 0 0 0-.09-.199.15.15 0 0 0-.199.09c-.004.004-.004.004-.004.008a.66.66 0 0 1-.227.3.16.16 0 0 0-.019.215c.055.063.148.07.21.02m.328-.434a1.3 1.3 0 0 0 .09-.418.18.18 0 0 0-.176-.187.184.184 0 0 0-.191.176q.001.022.008.047a.6.6 0 0 1-.024.28.155.155 0 0 0 .102.196.15.15 0 0 0 .191-.094zm-.328-.43c.031.005.05.016.059.048a.18.18 0 0 0 .218.136c.082-.02.14-.09.14-.172a.46.46 0 0 0-.269-.437.23.23 0 0 0-.304.105.225.225 0 0 0 .105.301.3.3 0 0 0 .051.02m-.285.036c.09-.028.191-.059.285-.035a.23.23 0 0 0 .27-.176.22.22 0 0 0-.122-.25.87.87 0 0 0-.57-.043.26.26 0 0 0-.207.308.27.27 0 0 0 .313.208q.018-.006.03-.012m-.34.281c.09-.113.2-.23.34-.281a.26.26 0 0 0 .164-.332.26.26 0 0 0-.3-.172c-.263.05-.478.219-.65.414a.287.287 0 0 0 .024.41c.121.11.305.098.41-.023zm-.29.547c.063-.2.165-.383.29-.547a.284.284 0 0 0-.05-.406.287.287 0 0 0-.395.035c-.188.207-.332.45-.43.707a.31.31 0 0 0 .176.402.31.31 0 0 0 .402-.175q.004-.011.008-.016zm-.132.637q.029-.328.133-.637a.312.312 0 0 0-.586-.211 3.2 3.2 0 0 0-.195.777c-.02.18.109.34.285.364.18.02.34-.11.363-.286zm-.613.707a.331.331 0 0 0 .644-.153 1.7 1.7 0 0 1-.03-.554.33.33 0 0 0-.298-.356.325.325 0 0 0-.351.285c-.028.258-.024.524.035.778m0 0c.074.3.281.535.566.648a.326.326 0 0 0 .418-.183.32.32 0 0 0-.168-.41.3.3 0 0 1-.172-.208.335.335 0 0 0-.398-.246.335.335 0 0 0-.246.399m.566.648c.25.094.516.121.778.078a.297.297 0 0 0 .246-.344.296.296 0 0 0-.317-.25 1 1 0 0 1-.457-.078.323.323 0 0 0-.426.16c-.07.165 0 .352.164.426q.006.004.012.008m.778.078a.97.97 0 0 0 .687-.476.27.27 0 0 0-.094-.368.27.27 0 0 0-.355.075.4.4 0 0 1-.309.175.3.3 0 0 0-.273.32c.012.165.152.29.316.278.012 0 .02-.004.028-.004m.687-.476c.133-.227.211-.48.23-.746a.25.25 0 0 0-.23-.274.255.255 0 0 0-.277.23v.008a.9.9 0 0 1-.172.489.268.268 0 1 0 .434.316q.01-.012.015-.023m-.367-1.36c.07.184.101.38.09.578a.25.25 0 0 0 .238.27.253.253 0 0 0 .27-.234c.023-.27-.012-.54-.098-.793a.266.266 0 0 0-.504.172q.005.006.004.007m-.25-.484c.11.148.187.316.25.484a.265.265 0 0 0 .344.153c.132-.051.203-.2.156-.332a2.6 2.6 0 0 0-.305-.621.27.27 0 0 0-.379-.07.276.276 0 0 0-.07.382q.002-.001.004.004zm-.149-.18c.032.02.114.13.149.18.09.121.262.148.383.059a.27.27 0 0 0 .062-.375c-.09-.133-.195-.282-.34-.356a.28.28 0 0 0-.375.121c-.07.133-.015.3.121.371m.067.34c.05.082.156.106.238.059a.18.18 0 0 0 .078-.18 2 2 0 0 1-.043-.29.27.27 0 0 0-.039-.386c-.012-.015-.031-.023-.047-.035-.183-.094-.418.016-.437.227a.5.5 0 0 0 .035.207c.058.14.14.27.215.398M91.231 4.737c.079-.16.153-.325.23-.48a.183.183 0 0 0-.081-.25.187.187 0 0 0-.246.081.1.1 0 0 0-.008.028q-.09.252-.18.503a.15.15 0 0 0 .094.196.155.155 0 0 0 .191-.078zm-.101-.493a.19.19 0 0 0 .219.157.19.19 0 0 0 .16-.207c-.012-.102-.059-.203-.176-.22h-.04q-.016.002-.034.009a.193.193 0 0 0-.129.261m-.004-.027q.005.287.015.578c0 .117.098.211.215.207a.213.213 0 0 0 .207-.218v-.016q-.03-.287-.054-.574a.194.194 0 0 0-.207-.172.195.195 0 0 0-.176.195m.015.578c.004.297.028.598.102.89a.23.23 0 0 0 .281.169c.125-.035.2-.16.168-.285a5 5 0 0 1-.129-.801.213.213 0 0 0-.23-.188.205.205 0 0 0-.191.215zm.102.89c.05.204.117.407.207.599a.236.236 0 1 0 .426-.207q-.005.001-.004-.004a2.3 2.3 0 0 1-.18-.504.227.227 0 0 0-.281-.164.23.23 0 0 0-.168.28m.207.599c.078.16.188.312.352.394a.243.243 0 0 0 .324-.11.245.245 0 0 0-.11-.324q-.006-.002-.011-.003c-.063-.028-.106-.114-.133-.168a.237.237 0 0 0-.316-.102.24.24 0 0 0-.106.313m.352.394c.222.11.445-.012.582-.195a.25.25 0 0 0-.051-.352.25.25 0 0 0-.352.047c-.004.004-.004.008-.008.012l-.023.035a.24.24 0 0 0-.149.453zm.582-.195c.156-.211.234-.477.297-.727a.26.26 0 0 0-.192-.312.256.256 0 0 0-.312.187v.004c-.047.184-.094.395-.203.555a.256.256 0 0 0 .066.351.256.256 0 0 0 .344-.058m.297-.727q.117-.492.199-.984a.26.26 0 0 0-.211-.305.265.265 0 0 0-.305.215q-.082.48-.187.953c-.036.14.05.277.191.313a.265.265 0 0 0 .313-.192m.199-.984q.053-.292.101-.586a.264.264 0 0 0-.21-.305.263.263 0 0 0-.305.215c-.036.195-.067.39-.102.586a.264.264 0 0 0 .215.3c.14.024.277-.07.3-.21m.05-.469a.26.26 0 0 0 .07-.215.28.28 0 0 0-.179-.23q-.036-.011-.066-.016-.036-.001-.07.004c-.13.027-.2.133-.22.25a.26.26 0 0 0 .216.305.26.26 0 0 0 .25-.098m-.449-.144q.025.198.055.398c.02.145.152.246.297.227a.27.27 0 0 0 .223-.297q-.028-.2-.055-.399a.264.264 0 0 0-.297-.226.26.26 0 0 0-.223.297m.055.398c.031.23.074.46.137.687.035.141.18.223.32.184a.263.263 0 0 0 .184-.316 6 6 0 0 1-.121-.625.264.264 0 0 0-.297-.227.26.26 0 0 0-.223.297m.137.687c.05.188.117.375.23.536a.256.256 0 0 0 .356.054.26.26 0 0 0 .062-.347 1.2 1.2 0 0 1-.144-.375.26.26 0 0 0-.317-.188.26.26 0 0 0-.191.317q.005.002.004.003m.23.536a.74.74 0 0 0 .387.28.254.254 0 0 0 .125-.492h-.008c-.035-.007-.066-.05-.086-.081a.25.25 0 0 0-.352-.07.25.25 0 0 0-.07.35q.002.007.004.013m.387.28c.21.052.402-.058.539-.206a.26.26 0 0 0-.012-.371.265.265 0 0 0-.375.011q-.006.011-.011.016a.3.3 0 0 1-.051.055.25.25 0 0 0-.278.222.256.256 0 0 0 .188.274m.539-.206c.102-.106.168-.238.23-.367a8 8 0 0 0 .254-.602.277.277 0 0 0-.16-.36.277.277 0 0 0-.36.16v.005q-.104.286-.226.566c-.039.086-.078.18-.136.254a.265.265 0 0 0 .043.371.26.26 0 0 0 .355-.027m.484-.969q.187-.48.368-.957a.266.266 0 0 0-.157-.348.265.265 0 0 0-.336.13c-.156.312-.273.652-.394.98a.273.273 0 0 0 .164.355c.145.055.3-.02.355-.16m.196-.797a.235.235 0 0 0 .39-.242c-.046-.125-.109-.262-.23-.332-.195-.105-.39.02-.48.195a.27.27 0 0 0 .12.36c.063.035.133.039.2.02m-.04-.054q.166.323.383.613c.067.09.196.11.282.039a.2.2 0 0 0 .047-.27 2.6 2.6 0 0 1-.282-.57.23.23 0 0 0-.3-.137.227.227 0 0 0-.137.297q.001.017.008.028zm.383.613c.106.137.215.285.36.383.098.062.23.035.293-.059a.213.213 0 0 0-.059-.293c-.015-.008-.035-.02-.05-.023-.09-.028-.169-.168-.215-.239a.2.2 0 0 0-.278-.058.206.206 0 0 0-.058.281zm.36.383a.9.9 0 0 0 .398.132.23.23 0 0 0 .258-.207.23.23 0 0 0-.207-.257q-.006.001-.012-.004a1 1 0 0 1-.254-.04.21.21 0 0 0-.265.133.22.22 0 0 0 .082.243m.398.132c.196.024.391-.05.555-.156.11-.07.14-.219.07-.332a.24.24 0 0 0-.332-.07c-.074.047-.164.098-.254.09a.233.233 0 0 0-.246.222.23.23 0 0 0 .207.246m.555-.156a1.8 1.8 0 0 0 .473-.476.244.244 0 0 0-.063-.336.24.24 0 0 0-.332.062 1.3 1.3 0 0 1-.34.348.235.235 0 0 0-.07.328.24.24 0 0 0 .332.074m.473-.476c.136-.203.242-.422.304-.66a.24.24 0 0 0-.175-.297.25.25 0 0 0-.297.175v.004c-.043.18-.121.352-.227.504a.24.24 0 0 0 .063.332c.105.074.257.051.332-.058m-.168-1.157c.047.121.027.258 0 .38a.243.243 0 0 0 .472.116c.055-.21.082-.433.036-.648a.27.27 0 0 0-.317-.207.27.27 0 0 0-.207.316.2.2 0 0 0 .016.043m-.11-.039c.04 0 .09 0 .11.04a.265.265 0 0 0 .508-.153c-.06-.281-.293-.453-.57-.488a.3.3 0 0 0-.34.258.3.3 0 0 0 .257.34q.018.004.035.003m-.34.207c.082-.09.208-.21.34-.207a.302.302 0 0 0 .047-.601c-.324-.047-.625.125-.855.347a.328.328 0 0 0 .457.47q.006-.001.011-.009zm-.44.649q.167-.359.44-.649a.33.33 0 0 0-.469-.46 3 3 0 0 0-.581.812.334.334 0 0 0 .152.453.34.34 0 0 0 .457-.152zm-.227.715c.035-.25.12-.489.226-.715a.34.34 0 0 0-.61-.297 3 3 0 0 0-.296.918.34.34 0 0 0 .293.387.34.34 0 0 0 .387-.293m-.622.718a.33.33 0 0 0 .43.196.34.34 0 0 0 .207-.414c-.05-.16-.035-.336-.015-.5a.347.347 0 0 0-.293-.391.347.347 0 0 0-.387.297c-.04.27-.04.555.058.812m0 0c.106.29.372.465.676.489a.31.31 0 0 0 .086-.613c-.058-.012-.11-.032-.125-.09v-.004a.34.34 0 0 0-.422-.223.34.34 0 0 0-.222.422c.004.004.004.012.008.02zm.676.489c.29.023.567-.075.805-.235a.264.264 0 0 0 .07-.367.265.265 0 0 0-.332-.094c-.14.067-.3.114-.457.082a.31.31 0 0 0-.367.243.317.317 0 0 0 .246.367q.017.005.035.004m.805-.235a2.2 2.2 0 0 0 .613-.629.207.207 0 0 0-.328-.25c-.152.172-.336.32-.547.418a.267.267 0 0 0-.125.356.26.26 0 0 0 .352.125q.017-.007.035-.02m.613-.629a8 8 0 0 0 .512-.933.18.18 0 0 0-.086-.238.176.176 0 0 0-.234.085c-.141.297-.301.59-.52.836a.213.213 0 0 0 .016.293.21.21 0 0 0 .293-.02c.008-.007.011-.015.02-.023m.512-.933q.045-.105.11-.203a.206.206 0 0 0 .285-.277c-.098-.173-.301-.231-.454-.09-.12.109-.195.273-.261.417a.18.18 0 0 0 .082.239c.09.039.195.004.238-.086m.016-.317c.066.211.097.438.12.66a.236.236 0 0 0 .258.211.24.24 0 0 0 .211-.261c-.027-.266-.082-.54-.21-.774a.208.208 0 0 0-.38.164m.12.66q.043.412.102.825c.02.129.137.219.27.199a.23.23 0 0 0 .199-.266c-.04-.27-.07-.539-.102-.808a.24.24 0 0 0-.261-.211.237.237 0 0 0-.207.262m.102.825c.027.203.059.406.113.605.032.13.16.207.29.176a.244.244 0 0 0 .175-.293q-.005-.004-.004-.008c-.05-.18-.078-.363-.105-.547a.24.24 0 0 0-.27-.203.24.24 0 0 0-.199.27m.113.605c.036.145.082.309.254.336q.03.006.059 0a.2.2 0 0 0 .055-.012.25.25 0 0 0 .172-.191.26.26 0 0 0-.07-.238c-.005-.004-.005-.012-.009-.02a.24.24 0 0 0-.297-.164.235.235 0 0 0-.164.29zm.54.133.082-.352a.263.263 0 0 0-.196-.316.26.26 0 0 0-.312.195q-.002.012-.004.024-.024.177-.055.355a.25.25 0 0 0 .207.282.25.25 0 0 0 .277-.188zm.082-.352c.066-.289.085-.585.105-.878a.287.287 0 0 0-.27-.301.286.286 0 0 0-.3.265v.016c-.004.266-.008.535-.047.8a.26.26 0 0 0 .219.294.255.255 0 0 0 .293-.196m.105-.878c.02-.38.055-.754.094-1.133a.308.308 0 1 0-.613-.066v.011q-.044.583-.051 1.168a.29.29 0 0 0 .28.29.287.287 0 0 0 .29-.27m.094-1.133c.039-.364.105-.727.21-1.082a.324.324 0 0 0-.621-.18V2.6a6 6 0 0 0-.203 1.203.31.31 0 0 0 .286.332.313.313 0 0 0 .328-.277m.21-1.082c.083-.285.192-.567.356-.817a.322.322 0 1 0-.539-.355c-.203.3-.34.644-.437.996a.325.325 0 0 0 .222.398.325.325 0 0 0 .399-.222m.356-.817c.106-.156.238-.304.41-.386a.319.319 0 0 0-.258-.582c-.289.12-.52.351-.691.613a.323.323 0 1 0 .54.355m.41-.386c.164-.079.34-.133.52-.16a.299.299 0 0 0-.063-.594 2.1 2.1 0 0 0-.715.172.32.32 0 0 0-.168.418c.07.16.254.234.418.168.004 0 .008-.004.008-.004zm.516-.16c.066-.012.125.019.176.062.14.113.234.285.312.445.043.082.14.114.219.074a.17.17 0 0 0 .09-.175c-.043-.239-.106-.489-.25-.688a.7.7 0 0 0-.61-.312.297.297 0 1 0 .04.594zm0 0"/>
    <path d="M96.228 8.162q.03-.045.066-.085a.173.173 0 0 0 .242-.051.18.18 0 0 0-.015-.211.24.24 0 0 0-.336-.043.7.7 0 0 0-.196.242.14.14 0 0 0 .055.191c.062.04.144.02.184-.043m-.004-.171c.066.175.085.375.117.558a.217.217 0 0 0 .246.172.213.213 0 0 0 .172-.25v-.008c-.051-.207-.09-.492-.243-.652a.18.18 0 0 0-.25-.008.18.18 0 0 0-.043.188m.117.558c.09.492.156.992.226 1.488a.23.23 0 0 0 .266.204.237.237 0 0 0 .203-.266V9.97c-.082-.504-.16-1.012-.277-1.508a.21.21 0 0 0-.258-.16.215.215 0 0 0-.16.246m.226 1.488c.055.41.102.825.18 1.23a.246.246 0 0 0 .29.196.25.25 0 0 0 .198-.289v-.004c-.082-.398-.136-.8-.199-1.199a.244.244 0 0 0-.273-.2.24.24 0 0 0-.196.266m.18 1.23q.016.1.04.204a.25.25 0 0 0 .288.2.255.255 0 0 0 .203-.294q-.005.001-.004-.004c-.011-.066-.027-.136-.039-.203a.25.25 0 0 0-.293-.195.25.25 0 0 0-.195.293m.04.208q.005.032.019.062c.058.125.21.176.336.118a.4.4 0 0 0 .074-.059.2.2 0 0 0 .047-.07.3.3 0 0 0 .02-.13.255.255 0 0 0-.274-.226.245.245 0 0 0-.227.274c0 .007 0 .02.004.03m-.067-.293.066.293a.253.253 0 0 0 .297.191.26.26 0 0 0 .2-.27q-.017-.147-.028-.296a.274.274 0 0 0-.293-.246.274.274 0 0 0-.246.293c0 .012.004.023.004.035zm-.168-.742q.086.368.168.742a.275.275 0 0 0 .324.207.27.27 0 0 0 .21-.29 7 7 0 0 0-.132-.788.295.295 0 0 0-.348-.227.3.3 0 0 0-.226.348q.005.004.004.008m-.188-1.04c.047.348.106.696.188 1.04a.293.293 0 0 0 .57-.129 12 12 0 0 1-.16-.984.297.297 0 0 0-.336-.262.3.3 0 0 0-.262.332zm-.093-1.136c.011.379.043.762.093 1.137a.303.303 0 0 0 .34.261.305.305 0 0 0 .258-.335q-.065-.54-.078-1.083a.305.305 0 0 0-.313-.296.31.31 0 0 0-.3.312zm0 0c.008.168.148.3.316.297a.31.31 0 0 0 .297-.317 4 4 0 0 1 .078-.94.303.303 0 0 0-.234-.368.307.307 0 0 0-.368.234 4.7 4.7 0 0 0-.09 1.094m.691-.96c.04-.18.105-.376.25-.497.129-.11.14-.3.031-.43a.303.303 0 0 0-.426-.039c-.25.211-.386.52-.457.832a.313.313 0 0 0 .235.367.31.31 0 0 0 .367-.234m.25-.497a.83.83 0 0 1 .383-.195.3.3 0 0 0-.098-.59c-.254.039-.484.156-.68.316a.31.31 0 0 0-.039.434c.106.129.301.148.43.039zm.383-.195c.074-.016.148-.012.207.043a.284.284 0 0 0 .402-.02.29.29 0 0 0-.008-.394.8.8 0 0 0-.699-.22.3.3 0 0 0-.254.34.294.294 0 0 0 .34.25zm.207.043a.5.5 0 0 1 .125.304c.02.153.156.262.308.246a.277.277 0 0 0 .247-.304c-.028-.242-.11-.485-.286-.66a.285.285 0 1 0-.406.402zm.652 1.035c.04-.262.055-.528.027-.79a.28.28 0 0 0-.304-.25.28.28 0 0 0-.25.31c.027.214.008.433-.031.644-.028.152.078.3.23.328.156.027.3-.078.328-.23zm-.238.879c.117-.282.2-.578.238-.88a.28.28 0 0 0-.238-.316.284.284 0 0 0-.32.23 3.5 3.5 0 0 1-.215.743.29.29 0 0 0 .156.379.29.29 0 0 0 .379-.156m-.352.715c.137-.227.25-.47.352-.715a.287.287 0 0 0-.156-.38.287.287 0 0 0-.38.157 5 5 0 0 1-.316.645.293.293 0 0 0 .106.398.29.29 0 0 0 .394-.105m-.355.48c.144-.137.254-.309.355-.48a.284.284 0 0 0-.101-.395.29.29 0 0 0-.399.102 1.7 1.7 0 0 1-.257.355.294.294 0 0 0-.008.41.294.294 0 0 0 .41.008zm-.774.023c.22.227.559.184.774-.023a.294.294 0 0 0 .008-.41.294.294 0 0 0-.41-.008c-.07.07-.149.129-.25.133a.18.18 0 0 0-.168.195c0 .043.02.082.047.113zM100.466 7.96c.164-.208.347-.434.418-.692a.164.164 0 0 0-.117-.203.17.17 0 0 0-.204.113q.001.013-.004.02c-.03.21-.199.41-.328.57a.15.15 0 0 0 .024.21.15.15 0 0 0 .21-.019zm.094-.758c-.012.09.05.171.14.183a.16.16 0 0 0 .18-.113c.05-.16.027-.332-.125-.43a.207.207 0 0 0-.281.063.207.207 0 0 0 .062.285zm-.176.164c.058-.043.207-.149.25-.145a.2.2 0 0 0 .215-.191.2.2 0 0 0-.094-.188c-.195-.125-.461 0-.64.102a.249.249 0 1 0 .246.434q.01-.008.023-.012m-.547.562c.156-.207.332-.414.547-.562a.254.254 0 0 0 .058-.348.25.25 0 0 0-.328-.074c-.277.156-.508.39-.715.633a.28.28 0 0 0 .036.394.274.274 0 0 0 .39-.031zm-.52.86q.21-.46.52-.86a.277.277 0 0 0-.055-.39.28.28 0 0 0-.383.039c-.242.289-.453.609-.625.945a.3.3 0 0 0 .13.406c.148.078.331.02.406-.129q.004-.006.008-.012zm-.285.859c.051-.301.156-.586.285-.86a.303.303 0 0 0-.543-.265 3.9 3.9 0 0 0-.367 1.008.314.314 0 0 0 .25.37.31.31 0 0 0 .371-.25zm-.594.808a.323.323 0 0 0 .61-.21c-.063-.192-.051-.403-.016-.598a.317.317 0 0 0-.258-.367.313.313 0 0 0-.367.25c-.062.304-.07.625.031.925m0 0c.106.309.348.536.645.66a.32.32 0 0 0 .418-.175.317.317 0 0 0-.172-.418.48.48 0 0 1-.281-.278.317.317 0 0 0-.406-.199.32.32 0 0 0-.204.41m.645.66c.277.114.574.172.875.176a.318.318 0 0 0 .012-.636 1.7 1.7 0 0 1-.64-.133.324.324 0 0 0-.423.168.323.323 0 0 0 .172.422q-.001.005.004.004m.875.176c.324 0 .64-.093.91-.277a.295.295 0 0 0-.305-.504 1.2 1.2 0 0 1-.593.145.319.319 0 1 0-.016.636zm.906-.273c.477-.313.817-.816 1.106-1.297a.16.16 0 0 0-.059-.223.16.16 0 0 0-.2.028c-.343.363-.714.742-1.151.988a.29.29 0 0 0-.114.402c.078.141.262.192.403.114zM114.013 17.498c.066.145.148.325.304.391.254.105.422-.145.465-.36a.263.263 0 0 0-.203-.312.26.26 0 0 0-.258.09.18.18 0 0 0-.258-.027.18.18 0 0 0-.05.218m.77.04c.042-.188.054-.383.066-.575.02-.328.027-.656.035-.984a.31.31 0 0 0-.305-.313.304.304 0 0 0-.312.305v.008c.004.492.027.988-.008 1.48a.266.266 0 0 0 .523.078zm-.552-4.376.036 2.817c0 .172.14.308.312.305a.313.313 0 0 0 .305-.305q.018-1.413 0-2.824a.327.327 0 0 0-.328-.325.333.333 0 0 0-.325.332m-.015-1.714c.004.57.012 1.14.015 1.714a.33.33 0 0 0 .332.32.323.323 0 0 0 .32-.327c-.007-.575-.01-1.145-.019-1.715a.327.327 0 0 0-.328-.324.327.327 0 0 0-.32.332m0 0c0 .18.148.324.328.32.18 0 .324-.149.32-.328q.002-.06-.008-.117a.325.325 0 0 0-.625-.04l-.011.051c-.008.035-.004.075-.004.114zm0-.032c.008.168.027.34.043.508.043.445.082.89.125 1.34a.187.187 0 0 0 .207.172.19.19 0 0 0 .176-.18c.023-.449.05-.894.074-1.344.008-.168.023-.34.023-.507a.323.323 0 1 0-.648 0zM109.556 10.588c.12-.21.25-.414.379-.62a.187.187 0 0 0-.063-.255.18.18 0 0 0-.242.047c-.149.191-.29.39-.438.582a.22.22 0 0 0 .036.309.22.22 0 0 0 .308-.04q.01-.01.02-.023m-.364.035q.03.04.082.063a.22.22 0 0 0 .211-.02.3.3 0 0 0 .075-.09.224.224 0 0 0-.082-.304.22.22 0 0 0-.305.086.1.1 0 0 0-.016.027c-.031.078-.027.172.035.238m.368-.046q.137-.24.273-.481a.26.26 0 0 0-.098-.355.265.265 0 0 0-.36.097q-.006.02-.015.031-.098.258-.203.516a.227.227 0 0 0 .125.29.22.22 0 0 0 .278-.098m.273-.481c.219-.387.398-.797.57-1.21a.3.3 0 0 0-.168-.392.297.297 0 0 0-.39.165q-.245.608-.485 1.21a.26.26 0 0 0 .149.34.26.26 0 0 0 .324-.113m.57-1.21a96 96 0 0 0 .692-1.755.303.303 0 0 0-.172-.394.307.307 0 0 0-.399.172v.003c-.222.582-.449 1.168-.68 1.747a.296.296 0 0 0 .169.39.3.3 0 0 0 .39-.164m.692-1.755c.289-.742.547-1.492.785-2.25a.306.306 0 1 0-.582-.187 40 40 0 0 1-.774 2.218.31.31 0 0 0 .176.395c.16.059.336-.02.395-.176m.785-2.25c.219-.687.418-1.383.55-2.094a.3.3 0 0 0-.242-.351.3.3 0 0 0-.351.238 18 18 0 0 1-.54 2.02.305.305 0 1 0 .583.187m.55-2.094c.067-.351.15-.714.18-1.074a.29.29 0 0 0-.265-.312.29.29 0 0 0-.313.242c-.054.344-.129.687-.195 1.031a.303.303 0 0 0 .594.117zm.18-1.074q.008-.1.016-.203a.28.28 0 0 0-.258-.305.28.28 0 0 0-.3.239l-.036.199a.29.29 0 0 0 .242.332.29.29 0 0 0 .332-.238q.005-.012.004-.024m-.547-.21a.28.28 0 0 0 .282.28.28.28 0 0 0 .281-.265.3.3 0 0 0-.023-.149c-.063-.144-.23-.207-.372-.144l-.027.012a.3.3 0 0 0-.094.093.24.24 0 0 0-.043.114q-.005.017-.004.035v.023m.532.452q.018-.215.03-.437a.283.283 0 0 0-.26-.3.283.283 0 0 0-.302.26l-.035.438a.284.284 0 0 0 .567.043zm-.051 1.028q.017-.514.05-1.028a.28.28 0 0 0-.261-.3.284.284 0 0 0-.305.261 30 30 0 0 0-.062 1.04.286.286 0 0 0 .277.3.29.29 0 0 0 .3-.273m-.078 1.523q.042-.761.078-1.523a.29.29 0 0 0-.277-.301.29.29 0 0 0-.301.273c-.024.508-.051 1.012-.082 1.52a.295.295 0 0 0 .273.309c.16.007.301-.114.309-.274zm-.082 1.922q.03-.96.082-1.922a.292.292 0 0 0-.582-.031q-.059.966-.086 1.934a.295.295 0 0 0 .285.3.287.287 0 0 0 .3-.28m-.035 1.816c.004-.605.02-1.21.035-1.816a.29.29 0 0 0-.281-.305.3.3 0 0 0-.305.286 72 72 0 0 0-.031 1.832c0 .164.133.293.293.293s.289-.13.289-.29zm-.47 1.325c.032.156.184.25.34.215a.28.28 0 0 0 .216-.332c-.082-.395-.086-.805-.086-1.208a.29.29 0 0 0-.29-.292.29.29 0 0 0-.292.289c0 .445.011.894.113 1.328m0 0c.052.23.099.504.247.691a.277.277 0 0 0 .383.047.273.273 0 0 0 .062-.36c-.086-.136-.105-.343-.136-.496a.284.284 0 1 0-.559.114q-.001.002.004.004m.247.691c.105.133.285.192.437.094.094-.063.137-.168.16-.274a.245.245 0 0 0-.187-.296.24.24 0 0 0-.195.035.274.274 0 0 0-.274.273c0 .063.024.121.059.168m.598-.18c.03-.136.047-.277.03-.418a.22.22 0 0 0-.437 0 1 1 0 0 1-.07.274.254.254 0 0 0 .145.324.256.256 0 0 0 .324-.148.1.1 0 0 0 .008-.032zm-.47-.664c.036.075.075.164.063.246a.22.22 0 1 0 .438.047v-.047a1.5 1.5 0 0 0-.117-.414.204.204 0 0 0-.274-.113.207.207 0 0 0-.113.27q.005.006.004.011m-.487-.652c.171.2.375.414.488.652a.21.21 0 0 0 .383-.168c-.114-.28-.313-.539-.493-.78a.24.24 0 0 0-.335-.056.243.243 0 0 0-.055.336q.006.011.012.016m-.68-.777c.234.254.457.515.68.777a.241.241 0 0 0 .379-.297c-.207-.289-.422-.574-.657-.844a.275.275 0 0 0-.383-.023.27.27 0 0 0-.019.387zm-.469-.47c.164.15.32.31.469.47.101.109.273.117.383.015a.274.274 0 0 0 .02-.379 6 6 0 0 0-.505-.511.273.273 0 0 0-.386.02.273.273 0 0 0 .02.386m-.293-.265c.094.09.195.18.293.266.113.101.29.094.39-.02a.273.273 0 0 0-.023-.386c-.125-.114-.277-.25-.449-.282a.253.253 0 0 0-.285.204.25.25 0 0 0 .074.218m.082.16c.051.07.153.082.219.028a.15.15 0 0 0 .055-.172.1.1 0 0 0-.008-.024.246.246 0 0 0-.008-.347.24.24 0 0 0-.11-.063c-.222-.054-.41.168-.297.375.043.07.098.137.149.203zM113.79 5.565c.148-.36.285-.73.344-1.113a.17.17 0 0 0-.145-.196.17.17 0 0 0-.195.14c0 .013-.004.024 0 .036.016.352-.113.71-.242 1.035a.13.13 0 0 0 .07.168.13.13 0 0 0 .168-.07m-.023-1.434q.01.154.027.309a.172.172 0 0 0 .34.02q.029-.153.062-.305a.22.22 0 0 0-.172-.258.223.223 0 0 0-.257.172.2.2 0 0 0 0 .062m0 0v.02c0 .004.004.011.004.015.011.125.12.211.246.196a.214.214 0 0 0 .191-.243v-.011c-.015-.102-.066-.192-.176-.215a.3.3 0 0 0-.109 0 .27.27 0 0 0-.121.086.2.2 0 0 0-.035.152m.004.035.093.825a.244.244 0 0 0 .266.21.243.243 0 0 0 .21-.265q0-.006-.003-.012l-.129-.816a.221.221 0 0 0-.437.058zm.093.825c.07.62.125 1.242.176 1.867.012.144.14.254.285.242a.266.266 0 0 0 .242-.285V6.81a28 28 0 0 0-.23-1.887.237.237 0 0 0-.273-.2.24.24 0 0 0-.2.267m.176 1.867c.043.539.09 1.078.102 1.617a.27.27 0 1 0 .543-.012c-.016-.55-.067-1.101-.118-1.652a.27.27 0 0 0-.289-.238.263.263 0 0 0-.238.285m.102 1.617.015.555a.27.27 0 1 0 .54-.012l-.012-.555a.27.27 0 1 0-.543.012m.008.535a.35.35 0 0 0 .058.184.25.25 0 0 0 .133.093.267.267 0 0 0 .355-.27q0-.022-.003-.046v-.012a.275.275 0 0 0-.297-.25.275.275 0 0 0-.246.297zm-.145-1.34c.047.446.098.895.145 1.34a.273.273 0 0 0 .543-.05q-.058-.675-.121-1.348a.28.28 0 0 0-.309-.258.28.28 0 0 0-.258.308zm-.16-2.027c.02.68.086 1.351.16 2.027a.28.28 0 0 0 .317.25.28.28 0 0 0 .25-.308 28 28 0 0 1-.118-1.98.31.31 0 0 0-.308-.302.305.305 0 0 0-.301.309zm0 0a.305.305 0 0 0 .61-.012q-.012-.727.066-1.449a.317.317 0 0 0-.281-.344.317.317 0 0 0-.344.281 12 12 0 0 0-.051 1.524m.676-1.461c.043-.422.133-.844.3-1.238a.314.314 0 0 0-.164-.414.32.32 0 0 0-.417.164 4.7 4.7 0 0 0-.344 1.425.313.313 0 0 0 .285.344c.168.016.32-.11.34-.281m.3-1.238c.11-.246.235-.524.442-.703a.31.31 0 0 0 .027-.446.314.314 0 0 0-.441-.031c-.281.246-.461.594-.61.93-.07.16.004.347.165.418a.32.32 0 0 0 .418-.168m.442-.703c.09-.082.207-.172.332-.176a.31.31 0 1 0-.02-.621c-.273.008-.523.144-.726.32a.315.315 0 1 0 .414.477m.328-.176c.05.039.078.117.102.176a.306.306 0 0 0 .574-.215c-.113-.305-.336-.59-.692-.582a.31.31 0 0 0 .016.62m.102.176c.113.296.14.632.156.949a.3.3 0 0 0 .316.289.304.304 0 0 0 .29-.317c-.02-.382-.06-.777-.188-1.136a.307.307 0 0 0-.578.207c.004.004.004.004.004.008m.699 2.406c.058-.492.086-.988.062-1.485a.3.3 0 0 0-.316-.289.3.3 0 0 0-.29.317c.024.46-.003.926-.054 1.387a.3.3 0 1 0 .598.07m-.324 1.594c.152-.52.265-1.055.324-1.594a.3.3 0 1 0-.598-.07 8.7 8.7 0 0 1-.304 1.492.304.304 0 0 0 .203.375.304.304 0 0 0 .375-.203m-.563 1.398c.242-.441.418-.918.563-1.398a.301.301 0 1 0-.578-.172c-.13.445-.29.883-.504 1.293a.296.296 0 0 0 .125.398.29.29 0 0 0 .394-.121m-.668.89c.29-.23.496-.566.668-.89a.293.293 0 1 0-.516-.281l-.003.004c-.133.257-.286.539-.512.73a.29.29 0 0 0-.031.402.283.283 0 0 0 .394.036m-.742.184c.262.125.539-.02.742-.183a.28.28 0 0 0 .043-.399.285.285 0 0 0-.398-.043q-.001.002-.008.004a.6.6 0 0 1-.168.113.27.27 0 0 0-.348.172.273.273 0 0 0 .137.336zm-.336-.656c.02.25.094.535.336.656a.28.28 0 0 0 .371-.125.28.28 0 0 0-.105-.36c-.024-.01-.008.009-.024-.026-.023-.055-.027-.122-.031-.18a.27.27 0 0 0-.293-.254.27.27 0 0 0-.254.289m0 0c.012.152.14.266.293.254a.277.277 0 0 0 .254-.29q-.025-.298.05-.585a.279.279 0 1 0-.54-.145l.002.008q-.088.376-.059.758m.598-.621a.67.67 0 0 1 .207-.36.295.295 0 0 0 .035-.41.29.29 0 0 0-.41-.03q-.001.002-.008.003c-.192.176-.309.41-.364.66a.28.28 0 0 0 .208.336.277.277 0 0 0 .332-.2zm.207-.36c.09-.078.199-.132.32-.148a.3.3 0 0 0 .254-.34.3.3 0 0 0-.34-.258q-.011-.001-.015.004c-.227.043-.43.153-.602.305a.294.294 0 0 0-.02.41.29.29 0 0 0 .403.027m.32-.148a.7.7 0 0 1 .348.043.31.31 0 1 0 .226-.578l-.004-.004a1.23 1.23 0 0 0-.672-.055.3.3 0 0 0 .102.594m.348.043c.133.05.246.14.343.242a.31.31 0 1 0 .457-.422 1.5 1.5 0 0 0-.578-.402.317.317 0 0 0-.402.184.314.314 0 0 0 .18.398m.343.242c.114.13.223.262.317.406.09.141.281.184.426.09a.303.303 0 0 0 .097-.414 3 3 0 0 0-.382-.504.31.31 0 1 0-.457.422m.317.403c.238.382.43.8.625 1.207a.184.184 0 0 0 .25.086.185.185 0 0 0 .105-.211 10 10 0 0 0-.226-.848 2.6 2.6 0 0 0-.23-.559.314.314 0 0 0-.426-.105.31.31 0 0 0-.098.43M117.18 9.256c.02.18.196.309.368.219a.7.7 0 0 0 .207-.195.163.163 0 0 0-.027-.235.165.165 0 0 0-.207-.004q-.001.004-.008.008a.218.218 0 0 0-.332.207m0 .008a.22.22 0 0 0 .247.187.22.22 0 0 0 .187-.199c.012-.148.094-.304.149-.437a.244.244 0 1 0-.453-.18q-.005.006-.004.012c-.063.187-.153.414-.125.617zm.583-.45c.136-.347.258-.702.375-1.058a.27.27 0 0 0-.172-.336.267.267 0 0 0-.336.168q.001.007-.004.008-.155.529-.32 1.05a.244.244 0 0 0 .457.169m.375-1.058c.164-.504.3-1.02.422-1.539a.283.283 0 1 0-.551-.129v.004c-.11.504-.235 1.008-.383 1.504a.268.268 0 0 0 .512.16m.422-1.539q.194-.824.336-1.656a.292.292 0 1 0-.574-.102v.004q-.136.82-.313 1.63c-.031.151.062.3.215.335.152.035.3-.062.336-.21m.336-1.656c.062-.356.12-.707.19-1.059a.3.3 0 0 0-.237-.351.297.297 0 0 0-.352.234v.004c-.066.355-.121.715-.176 1.074a.29.29 0 0 0 .242.336.293.293 0 0 0 .332-.238m.19-1.059c.02-.11.044-.218.063-.328a.3.3 0 1 0-.59-.117v.004q-.03.165-.062.328a.303.303 0 0 0 .242.348.297.297 0 0 0 .348-.235m.017-.215a.31.31 0 0 0-.247-.5c-.02.004-.043.004-.062.008a.32.32 0 0 0-.234.266.3.3 0 0 0 .242.351c.113.02.23-.027.3-.125m-.532-.125q.023.093.04.184a.3.3 0 0 0 .359.23.3.3 0 0 0 .23-.359q-.02-.088-.039-.183a.304.304 0 0 0-.36-.23.304.304 0 0 0-.23.358m.04.184c.054.242.05.504.062.75a.3.3 0 0 0 .598-.027c-.012-.282-.012-.575-.07-.852a.301.301 0 0 0-.59.129m.062.75c.027.547.031 1.098.035 1.648a.293.293 0 0 0 .586-.003c0-.559 0-1.118-.023-1.672a.304.304 0 0 0-.313-.29.3.3 0 0 0-.285.313zm.035 1.648c.004.465.004.93.008 1.395 0 .16.129.29.29.29a.294.294 0 0 0 .288-.29V5.741a.293.293 0 1 0-.586 0zm.008 1.395c0 .195-.012.46.215.543a.2.2 0 0 0 .074.02c.027 0 .05 0 .078-.004.117-.02.2-.106.238-.211a.27.27 0 0 0-.027-.262v-.086c0-.16-.129-.29-.289-.29a.286.286 0 0 0-.289.29m.606.348.187-.47a.285.285 0 0 0-.164-.37.285.285 0 0 0-.371.16l-.188.469a.288.288 0 0 0 .535.215zm.187-.47c.137-.355.238-.722.336-1.089a.28.28 0 0 0-.203-.348.28.28 0 0 0-.348.2 9 9 0 0 1-.32 1.027.288.288 0 0 0 .535.21m.336-1.089c.133-.488.246-.98.348-1.473a.285.285 0 0 0-.559-.117q-.146.727-.34 1.442a.285.285 0 1 0 .551.148m.348-1.473c.09-.453.18-.906.261-1.359a.285.285 0 0 0-.23-.332.28.28 0 0 0-.332.23q-.117.676-.258 1.344a.283.283 0 0 0 .223.336.285.285 0 0 0 .336-.219m.261-1.359c.047-.258.086-.516.149-.77a.29.29 0 0 0-.219-.347.285.285 0 0 0-.348.215q-.005.006-.004.011c-.05.262-.094.528-.14.79a.29.29 0 0 0 .23.332.29.29 0 0 0 .332-.231zm.149-.77.047-.199a.3.3 0 0 0-.22-.355.297.297 0 0 0-.355.219q.001.005-.004.011c-.011.067-.027.133-.039.203a.292.292 0 0 0 .57.121zm-.524-.187c.008.164.153.29.313.277a.297.297 0 0 0 .277-.316v-.008c-.012-.14-.062-.277-.222-.324q-.053-.013-.106-.008a.3.3 0 0 0-.101.024.32.32 0 0 0-.168.218.3.3 0 0 0 .008.137zm0 0 .036.648c.011.172.156.301.328.293a.31.31 0 0 0 .289-.328v-.011q-.032-.321-.063-.649a.295.295 0 0 0-.324-.265.29.29 0 0 0-.266.312m.035.648q.034.611.04 1.227a.325.325 0 0 0 .327.316.324.324 0 0 0 .317-.324v-.004a17 17 0 0 0-.067-1.261.31.31 0 0 0-.617.046m.04 1.227c.011.695.011 1.39.011 2.086a.323.323 0 1 0 .645 0c0-.7 0-1.398-.012-2.098a.325.325 0 0 0-.328-.316.325.325 0 0 0-.317.328m.011 2.086c0 .613-.008 1.227.02 1.84a.312.312 0 0 0 .625-.012c.004-.61 0-1.219 0-1.828a.323.323 0 0 0-.325-.324.33.33 0 0 0-.32.324m.02 1.84c.011.242.035.543.226.719.121.105.3.097.41-.02a.29.29 0 0 0 .031-.348c-.058-.097-.043-.254-.043-.363a.312.312 0 1 0-.625-.004zm.222.715c.207.195.496.078.582-.168.055-.157.067-.332.078-.496a.167.167 0 0 0-.152-.172.16.16 0 0 0-.156.093q-.059.124-.13.243a.29.29 0 0 0-.222.5M136.95 17.002c.059.094.117.203.113.313a.19.19 0 0 0 .188.199.193.193 0 0 0 .2-.187.2.2 0 0 0-.016-.079 1.6 1.6 0 0 0-.254-.41.143.143 0 0 0-.2-.023.14.14 0 0 0-.03.187m.535.344-.058-.113a.195.195 0 0 0-.262-.082.19.19 0 0 0-.102.148q-.007.064-.015.13a.236.236 0 0 0 .203.26.234.234 0 0 0 .234-.343m-.441.102a.27.27 0 0 0 .047.152c.05.066.129.102.215.094a.3.3 0 0 0 .09-.032c.081-.046.117-.128.124-.214a.239.239 0 0 0-.477-.031zm-.031-.54q.014.27.03.54c.009.129.122.23.25.222a.24.24 0 0 0 .227-.222q.016-.27.032-.54a.27.27 0 0 0-.254-.285.265.265 0 0 0-.285.254.04.04 0 0 0 0 .032m0 0a.27.27 0 0 0 .539 0q.039-.626.054-1.253a.31.31 0 0 0-.296-.32.313.313 0 0 0-.32.3v.004c-.005.426-.005.848.023 1.27m.593-1.253c.02-.61.06-1.22.106-1.828a.323.323 0 0 0-.297-.344.323.323 0 0 0-.344.297v.004c-.039.617-.074 1.238-.082 1.855 0 .172.133.312.305.312a.305.305 0 0 0 .313-.296m.106-1.828q.081-1.085.18-2.168a.32.32 0 0 0-.293-.356.33.33 0 0 0-.356.297 81 81 0 0 0-.172 2.184.32.32 0 0 0 .301.34.32.32 0 0 0 .34-.297m.18-2.168c.047-.47.086-.938.14-1.403a.323.323 0 0 0-.277-.355.32.32 0 0 0-.352.265c-.082.473-.117.957-.16 1.434a.325.325 0 1 0 .649.059m.14-1.403q.022-.176.043-.36a.31.31 0 0 0-.27-.343.31.31 0 0 0-.343.258q-.03.175-.059.355a.32.32 0 0 0 .258.368.32.32 0 0 0 .367-.262c.004-.004.004-.012.004-.016zm-.574-.39a.307.307 0 0 0 .559.18q.002-.006.004-.005a.03.03 0 0 0 .008-.015.26.26 0 0 0 .047-.13.4.4 0 0 0-.008-.128.31.31 0 0 0-.605.043c0 .008-.005.016-.005.023v.032m.34.91c.062-.2.129-.395.191-.594.028-.082.063-.168.078-.254a.305.305 0 0 0-.242-.363.307.307 0 0 0-.363.242v.012c-.016.086-.012.18-.016.27l-.023.616a.19.19 0 0 0 .184.2.195.195 0 0 0 .19-.13M132.56 8.924c.277-.14.515-.367.742-.578a.18.18 0 0 0 .008-.254.18.18 0 0 0-.239-.02c-.199.153-.43.348-.68.415a.23.23 0 0 0-.163.289c.03.125.16.199.289.164a.1.1 0 0 0 .043-.016zm-.547-.383c.008.133.047.27.152.356.117.097.277.094.406.02a.23.23 0 0 0 .086-.321.2.2 0 0 0-.105-.098.27.27 0 0 0-.297-.238.265.265 0 0 0-.242.281m0 0a.274.274 0 0 0 .285.258.273.273 0 0 0 .258-.27c0-.277.113-.57.195-.831a.283.283 0 0 0-.188-.356.28.28 0 0 0-.355.188q-.005-.001-.004.004c-.094.316-.207.671-.191 1.007m.738-.843a35 35 0 0 1 .61-1.782.297.297 0 0 0-.176-.382.297.297 0 0 0-.383.175c0 .004-.004.004-.004.004-.207.606-.414 1.207-.594 1.82a.285.285 0 0 0 .195.352.285.285 0 0 0 .352-.187m.61-1.782.855-2.332a.308.308 0 0 0-.578-.215q-.429 1.173-.84 2.344a.3.3 0 0 0 .183.383.297.297 0 0 0 .38-.18m.855-2.332q.35-.967.715-1.93a.31.31 0 0 0-.176-.398.31.31 0 0 0-.399.18 115 115 0 0 0-.718 1.933.307.307 0 0 0 .183.395.31.31 0 0 0 .395-.18m.715-1.93c.062-.167.125-.34.203-.5a.3.3 0 0 0 .105-.288c-.047-.278-.402-.348-.57-.13a1 1 0 0 0-.09.157c-.082.176-.152.36-.223.543a.306.306 0 0 0 .18.394.306.306 0 0 0 .395-.175m-.29-.68q.047.26.098.513c.031.164.188.27.352.238a.297.297 0 0 0 .238-.344q-.041-.258-.09-.515a.3.3 0 0 0-.351-.247.306.306 0 0 0-.25.352q.005.002.004.004zm.098.513c.074.394.067.808.067 1.207-.004.168.129.3.293.3.164.004.3-.128.3-.292v-.004c.004-.438.004-.883-.07-1.317a.301.301 0 1 0-.594.102c.004 0 .004.004.004.004m.602 3.05c.035-.613.055-1.222.058-1.84a.297.297 0 0 0-.296-.296.293.293 0 0 0-.297.293 35 35 0 0 1-.07 1.808.3.3 0 0 0 .28.32.305.305 0 0 0 .325-.28zm-.063 1.036q.03-.515.063-1.036a.307.307 0 0 0-.285-.32.305.305 0 0 0-.32.285c-.024.344-.048.692-.067 1.035a.306.306 0 0 0 .61.04zm-.465.296q.065.042.141.043a.3.3 0 0 0 .137-.02.31.31 0 0 0 .18-.21.26.26 0 0 0 .008-.121.303.303 0 0 0-.301-.309.3.3 0 0 0-.309.285c-.008.133.02.258.145.332zm.458-.187c.035-.121.066-.238.097-.36a.3.3 0 0 0-.215-.374.3.3 0 0 0-.375.214c-.03.122-.066.239-.097.36a.305.305 0 0 0 .214.375.3.3 0 0 0 .375-.215m.097-.36c.16-.585.352-1.163.531-1.745a.296.296 0 0 0-.199-.372.295.295 0 0 0-.37.192c-.188.586-.391 1.172-.552 1.765a.305.305 0 0 0 .215.375.305.305 0 0 0 .375-.214m.531-1.745q.288-.937.586-1.875a.28.28 0 0 0-.18-.352.28.28 0 0 0-.347.172c-.227.617-.426 1.25-.629 1.875a.298.298 0 0 0 .567.183q.005 0 .004-.003m.586-1.875c.028-.083.051-.16.082-.243a.28.28 0 0 0 .09-.246.3.3 0 0 0-.152-.215.3.3 0 0 0-.078-.023.3.3 0 0 0-.078-.004c-.243.031-.32.36-.391.55a.28.28 0 0 0 .164.36.284.284 0 0 0 .36-.168q.001-.006.003-.011m-.367-.415q.029.234.051.473a.29.29 0 0 0 .312.25.284.284 0 0 0 .25-.312v-.016q-.04-.235-.074-.469a.27.27 0 0 0-.312-.222.27.27 0 0 0-.227.296m.57 1.739c.051-.438.11-.903.043-1.344a.29.29 0 0 0-.324-.234.286.286 0 0 0-.238.312c.047.39-.02.805-.07 1.195a.296.296 0 0 0 .257.332.296.296 0 0 0 .333-.257zm-.19 1.789c.058-.594.124-1.192.19-1.79a.297.297 0 0 0-.59-.07c-.074.598-.144 1.2-.21 1.797a.307.307 0 0 0 .61.067zM136.38 6.4c.02-.532.062-1.059.117-1.586a.303.303 0 0 0-.273-.332.303.303 0 0 0-.336.27 25 25 0 0 0-.125 1.624.309.309 0 0 0 .617.024m-.621 1.015a.3.3 0 0 0 .32.282.3.3 0 0 0 .281-.309c-.008-.328.008-.66.02-.988a.31.31 0 0 0-.297-.32.315.315 0 0 0-.32.296c-.012.344-.028.696-.004 1.04zm0 0c.015.239.117.598.422.582a.23.23 0 0 0 .218-.246.2.2 0 0 0-.02-.086c.009.02-.003-.043-.007-.05-.008-.075-.008-.149-.012-.227a.301.301 0 0 0-.601.016zm.379.582c.07.008.136 0 .195-.043a.2.2 0 0 0 .078-.132.26.26 0 0 0-.05-.192.237.237 0 0 0-.329-.058q-.001.004-.008.007a.14.14 0 0 0-.09.149.24.24 0 0 0 .196.27zM138.18 1.108q.12-.275.239-.543a.11.11 0 0 0-.055-.145.107.107 0 0 0-.144.055q-.121.27-.242.543a.11.11 0 0 0 .054.144c.059.024.121 0 .149-.054m.044-.535q-.005.032-.004.062a.12.12 0 0 0 .113.125.12.12 0 0 0 .125-.113V.635c-.004-.078-.004-.191-.09-.226-.012-.004-.02-.004-.027-.008h-.031a.12.12 0 0 0-.09.074.11.11 0 0 0 0 .098zm.308 1.21q-.04-.573-.074-1.148a.12.12 0 0 0-.129-.113.12.12 0 0 0-.11.113c-.019.383-.034.766-.054 1.152a.19.19 0 0 0 .176.192.186.186 0 0 0 .191-.176zm.02 1.872c.031-.625.02-1.25-.02-1.871a.184.184 0 0 0-.367.003q-.042.92-.09 1.844a.24.24 0 0 0 .227.246.234.234 0 0 0 .25-.222m-.137 1.691c.066-.562.11-1.129.137-1.691a.235.235 0 0 0-.227-.25.24.24 0 0 0-.25.226q-.036.832-.133 1.656a.238.238 0 1 0 .473.059m-.902 2.164c.523-.605.808-1.375.902-2.164a.238.238 0 0 0-.473-.059c-.086.72-.293 1.426-.671 2.047a.15.15 0 0 0 .05.207c.063.04.145.028.192-.03m0 0"/>
    <path d="M137.228 4.186c.101-.195.183-.402.226-.621a.183.183 0 0 0-.36-.066l-.003.027c-.004.18-.063.351-.145.508a.16.16 0 0 0 .067.218.16.16 0 0 0 .214-.066zm-.137-.652c0 .101.082.18.183.18a.18.18 0 0 0 .176-.141 1.6 1.6 0 0 1 .153-.371.22.22 0 0 0-.094-.297.216.216 0 0 0-.309.117 1.4 1.4 0 0 0-.11.512m.512-.332c.09-.168.226-.313.367-.446a.252.252 0 0 0-.347-.367l-.012.012c-.168.183-.325.386-.41.62a.221.221 0 0 0 .402.18zm.367-.446c.191-.183.402-.344.62-.492a.27.27 0 0 0 .079-.379.275.275 0 0 0-.379-.078c0 .004-.004.004-.008.008a4.2 4.2 0 0 0-.672.586.25.25 0 0 0 .012.355c.098.09.25.09.347 0zm.62-.492q.36-.235.747-.418a.281.281 0 1 0-.242-.508 5 5 0 0 0-.813.477.27.27 0 0 0-.062.379.27.27 0 0 0 .37.07m.747-.418c.21-.102.43-.195.656-.266.145-.043.23-.199.184-.347a.28.28 0 0 0-.344-.188c-.254.074-.5.18-.738.293a.281.281 0 1 0 .242.508m.656-.266c.098-.027.219-.07.324-.062a.274.274 0 0 0 .293-.25.274.274 0 0 0-.23-.293c-.18-.027-.371.02-.547.07a.281.281 0 0 0 .156.54zm.274 1.211c.132-.363.265-.73.347-1.109.028-.113.051-.234.047-.355-.008-.168-.105-.325-.281-.352a.274.274 0 0 0-.238.46c.008.145-.012.294-.032.442-.039.278-.093.555-.148.828a.157.157 0 0 0 .121.188.16.16 0 0 0 .184-.102M137.196 8.092c.367-.226.7-.5.996-.808a.265.265 0 0 0-.008-.375.26.26 0 0 0-.375.007q-.425.44-.851.875c-.074.078-.07.2.004.274.062.062.16.07.234.027m.996-.808c.336-.348.676-.692.977-1.07a.16.16 0 0 0-.023-.231.16.16 0 0 0-.168-.02c-.192.082-.364.211-.52.34-.23.188-.445.399-.648.613a.26.26 0 0 0 .004.375c.109.102.277.102.379-.007zm0 0"/>
    <path d="m140.2 3.37.024.64a.174.174 0 0 0 .18.168.174.174 0 0 0 .163-.168l.024-.64a.194.194 0 0 0-.184-.208.194.194 0 0 0-.207.184zm-.004-.004c.004.109.094.199.203.199s.2-.09.196-.203v-.016a.197.197 0 0 0-.215-.191.2.2 0 0 0-.133.066.2.2 0 0 0-.05.145m0 0q.005.236.004.472a.224.224 0 0 0 .223.219.22.22 0 0 0 .219-.223v-.02l-.047-.468a.2.2 0 0 0-.22-.18.2.2 0 0 0-.179.2m.508 2.109c-.008-.555-.008-1.11-.062-1.66a.223.223 0 0 0-.243-.2.224.224 0 0 0-.199.223c.008.547 0 1.09-.008 1.637 0 .14.113.258.254.258.14.004.258-.11.258-.254zm.02 1.254c-.008-.418-.012-.836-.02-1.254a.26.26 0 0 0-.258-.254.26.26 0 0 0-.254.254l-.011 1.258a.27.27 0 0 0 .265.273.274.274 0 0 0 .278-.27zm-.547.066c.011.09.054.172.14.215.051.031.114.043.176.031a.28.28 0 0 0 .156-.082c.063-.07.074-.144.074-.23a.27.27 0 0 0-.277-.266.27.27 0 0 0-.262.219.3.3 0 0 0-.008.113zm-.102-.781c.035.262.066.52.102.781.02.149.156.254.304.235a.276.276 0 0 0 .239-.297q-.04-.391-.075-.781a.29.29 0 0 0-.312-.258.285.285 0 0 0-.258.312zm-.105-1.379c.008.461.046.922.105 1.379.02.156.164.27.32.25a.295.295 0 0 0 .25-.312q-.066-.658-.074-1.32a.3.3 0 1 0-.602 0zm0 0a.3.3 0 0 0 .601-.004q.001-.596.067-1.187a.313.313 0 0 0-.274-.34.31.31 0 0 0-.336.273c-.043.418-.062.84-.058 1.258m.668-1.191c.035-.328.105-.66.25-.953a.305.305 0 0 0-.137-.41.305.305 0 0 0-.41.136c-.18.363-.27.762-.313 1.16a.31.31 0 0 0 .274.336.31.31 0 0 0 .336-.27m.25-.953c.101-.207.226-.41.402-.559.125-.11.144-.3.035-.43a.306.306 0 0 0-.426-.039c-.242.2-.422.473-.558.754a.31.31 0 0 0 .136.41.31.31 0 0 0 .41-.136m.402-.559c.094-.082.21-.172.34-.191a.295.295 0 0 0 .246-.336.3.3 0 0 0-.324-.25c-.243.027-.465.156-.653.308a.303.303 0 0 0-.043.426c.11.133.297.152.43.043zm.34-.191c.05-.008.086.02.117.058a.284.284 0 0 0 .398.035.287.287 0 0 0 .047-.39.72.72 0 0 0-.64-.29.297.297 0 0 0 .063.59zm.117.058c.098.117.14.274.172.422.031.152.18.254.332.223a.283.283 0 0 0 .223-.332c0-.004 0-.004-.004-.008a1.7 1.7 0 0 0-.278-.66.286.286 0 0 0-.398-.055.286.286 0 0 0-.055.398c.004.004.004.008.008.012m.172.422c.05.246.066.496.07.746a.288.288 0 0 0 .574-.008v-.004a4.2 4.2 0 0 0-.093-.851.282.282 0 0 0-.551.117m.512 1.703c.093-.312.14-.64.132-.969a.29.29 0 0 0-.293-.28.29.29 0 0 0-.28.292q.004.4-.114.79a.285.285 0 0 0 .191.362.29.29 0 0 0 .364-.19zm-.383.871c.164-.273.289-.566.383-.87a.29.29 0 0 0-.196-.36.287.287 0 0 0-.36.191 3.6 3.6 0 0 1-.327.738.292.292 0 1 0 .5.3m-.547.649c.223-.176.398-.407.547-.649a.29.29 0 0 0-.102-.398.29.29 0 0 0-.398.097c-.11.184-.242.36-.41.497a.29.29 0 1 0 .363.453m-.656.285c.242-.02.465-.133.656-.285a.287.287 0 0 0 .047-.407.29.29 0 0 0-.41-.046.8.8 0 0 1-.36.18.28.28 0 0 0-.234.32c.02.148.152.25.3.238m-.61-.305a.62.62 0 0 0 .61.305.28.28 0 0 0 .258-.305.28.28 0 0 0-.305-.254h-.02c-.039.008-.078.008-.105-.027a.26.26 0 0 0-.363-.055.26.26 0 0 0-.075.336m.004.004a.26.26 0 1 0 .45-.262q-.006-.008-.012-.02c-.043-.058-.031-.175-.027-.241a3.4 3.4 0 0 1 .136-.68.14.14 0 0 0-.098-.172.15.15 0 0 0-.16.066c-.125.227-.246.461-.316.711-.055.196-.078.418.027.598zm0 0"/>
    <path d="M145.388 2.346a7 7 0 0 0 .113-1.125.175.175 0 0 0-.176-.176.18.18 0 0 0-.176.176v.016c.036.351.004.707-.058 1.054a.15.15 0 0 0 .12.176c.083.012.161-.039.177-.121m-.426-1.547a.77.77 0 0 1 .191.442.17.17 0 0 0 .192.152.173.173 0 0 0 .156-.168 1.2 1.2 0 0 0-.188-.703.227.227 0 0 0-.312-.067.23.23 0 0 0-.063.313q.012.016.024.031m-.371-.21c.14.03.27.1.37.21.087.09.227.094.317.008a.22.22 0 0 0 .036-.285 1.14 1.14 0 0 0-.579-.445.27.27 0 0 0-.34.164c-.05.14.024.293.165.34q.016.006.03.007m-.54.023c.177-.043.36-.059.54-.024a.265.265 0 0 0 .316-.203.265.265 0 0 0-.172-.308 1.6 1.6 0 0 0-.804-.047.297.297 0 0 0 .102.586c.003 0 .01-.004.019-.004m-.577.316c.168-.144.359-.266.578-.316.16-.04.258-.2.218-.36a.295.295 0 0 0-.34-.222c-.32.05-.613.207-.867.41a.32.32 0 0 0-.046.449c.109.137.312.156.449.047.004-.004.008-.004.008-.008zm-.457.582c.113-.223.27-.418.457-.582a.319.319 0 0 0-.41-.488 2.6 2.6 0 0 0-.641.754.338.338 0 0 0 .59.328c0-.004.004-.008.004-.012m-.157.629c0-.219.059-.434.157-.629a.334.334 0 0 0-.149-.453.34.34 0 0 0-.445.137c-.16.289-.25.61-.258.941 0 .192.152.348.344.352a.345.345 0 0 0 .351-.34zm-.304 1.012a.35.35 0 0 0 .492.043.347.347 0 0 0 .047-.489c-.133-.16-.235-.351-.235-.566a.348.348 0 0 0-.695-.004c-.004.375.156.727.39 1.016m0 0c.242.289.523.547.824.777a.346.346 0 0 0 .426-.547 4.3 4.3 0 0 1-.711-.676.35.35 0 0 0-.492-.046.35.35 0 0 0-.047.492m.824.777c.273.211.535.43.781.668a.33.33 0 0 0 .469-.004.334.334 0 0 0 .004-.46 7.6 7.6 0 0 0-.828-.75.35.35 0 0 0-.489.062.344.344 0 0 0 .063.484m.781.668c.18.176.328.383.399.621.05.164.222.258.386.211a.31.31 0 0 0 .211-.371 2.05 2.05 0 0 0-.523-.926.333.333 0 0 0-.469-.012.33.33 0 0 0-.012.47q.001.006.008.007zm.926 1.48c.121-.324.152-.68.07-1.019a.306.306 0 0 0-.37-.227.31.31 0 0 0-.231.372c0 .007.004.011.004.015a.96.96 0 0 1-.04.645.307.307 0 0 0 .172.394.307.307 0 0 0 .395-.172zm-.66.88c.297-.227.531-.528.66-.88a.303.303 0 0 0-.566-.215 1.4 1.4 0 0 1-.465.598.308.308 0 1 0 .367.496zm-.989.433c.364-.059.7-.215.989-.434a.31.31 0 0 0 .058-.437.31.31 0 0 0-.43-.059c-.21.157-.452.27-.714.313a.312.312 0 0 0 .098.617m-1.882-.598c.539.348 1.214.707 1.882.598a.314.314 0 0 0 .262-.36.314.314 0 0 0-.36-.257c-.534.086-1.116-.133-1.605-.332a.2.2 0 0 0-.257.11.2.2 0 0 0 .078.241m0 0"/>
</svg>