<svg xmlns="http://www.w3.org/2000/svg" width="400" height="18.167" viewBox="0 0 80.364 13.625">
    <path d="M.359 3.033c.066-.398.199-.789.422-1.125a.175.175 0 0 0-.047-.242.18.18 0 0 0-.246.047l-.012.023c-.184.399-.297.82-.375 1.25a.135.135 0 0 0 .105.153c.07.011.141-.035.153-.106m.418-1.12c.093-.13.191-.263.285-.391a.235.235 0 0 0-.05-.325.23.23 0 0 0-.325.051.3.3 0 0 0-.027.047q-.094.224-.188.45a.18.18 0 0 0 .098.23c.074.03.16.004.207-.063m-.098-.4a.25.25 0 0 0 .285.208.244.244 0 0 0 .207-.258.4.4 0 0 0-.07-.242c-.129-.172-.367-.106-.441.074a.23.23 0 0 0 .019.219m0-.034q.002.445.004.898a.27.27 0 0 0 .27.266.266.266 0 0 0 .261-.27v-.012a73 73 0 0 0-.043-.898.243.243 0 0 0-.258-.234.246.246 0 0 0-.234.25m.55 2.898c.013-.672.016-1.344-.015-2.016a.27.27 0 0 0-.277-.254.267.267 0 0 0-.254.27c.004.66-.016 1.324-.04 1.988a.295.295 0 0 0 .286.301.29.29 0 0 0 .3-.281zm-.1 2.688c.054-.895.09-1.79.1-2.688a.293.293 0 0 0-.288-.297.3.3 0 0 0-.297.285 76 76 0 0 1-.129 2.66.307.307 0 1 0 .613.04M.951 9.678c.07-.871.125-1.742.176-2.613A.304.304 0 0 0 .84 6.74a.306.306 0 0 0-.324.285Q.434 8.333.324 9.627a.316.316 0 0 0 .628.055zm-.12 1.918c.023-.64.07-1.278.12-1.918a.31.31 0 0 0-.289-.336.315.315 0 0 0-.34.285c-.05.648-.101 1.297-.128 1.945a.323.323 0 0 0 .304.328.32.32 0 0 0 .332-.304m-.446.965a.21.21 0 0 0 .176.007c.16-.062.195-.265.223-.414.027-.183.039-.37.046-.558a.318.318 0 0 0-.636-.024c-.008.192-.012.387.007.578.012.145.04.34.184.41m0 0"/>
    <path d="M.132 3.272c.047.039.082.09.063.148a.15.15 0 0 0 .09.195.15.15 0 0 0 .19-.093.66.66 0 0 0-.023-.48.2.2 0 0 0-.261-.11.207.207 0 0 0-.114.261.3.3 0 0 0 .055.079m.02.011a.2.2 0 0 0 .25-.015.286.286 0 0 0 .254-.317.28.28 0 0 0-.313-.25Q.325 2.7.308 2.705c-.14.031-.281.125-.305.281-.02.125.051.23.149.297m.191-.015c.262.027.535-.082.77-.184a.327.327 0 0 0 .175-.43.327.327 0 0 0-.43-.175q-.005.003-.011.007c-.172.082-.352.176-.539.22a.287.287 0 0 0-.215.343.29.29 0 0 0 .25.219m.77-.184c.609-.254 1.187-.59 1.761-.902.168-.094.23-.301.141-.469a.343.343 0 0 0-.469-.137h-.004c-.558.313-1.117.633-1.695.91a.33.33 0 0 0-.156.438c.074.156.261.23.422.16m1.761-.902a40 40 0 0 0 1.782-1.024c.382-.234.77-.48 1.12-.761a.22.22 0 0 0 .036-.313.225.225 0 0 0-.262-.066C4.515.467 3.527 1.029 2.542 1.576a.34.34 0 0 0-.132.469c.09.168.3.227.464.137M.277 8.33a.3.3 0 0 0 .136.223.27.27 0 0 0 .332-.035c.16-.02.329-.024.493-.032a.201.201 0 0 0 0-.402A33 33 0 0 1 .6 8.057c-.016 0-.027-.004-.043-.004q-.033.001-.066.008a.25.25 0 0 0-.157.093.25.25 0 0 0-.058.176m.11.203c.198.164.53.067.75.004a.319.319 0 1 0-.173-.613Q.96 7.923.95 7.928c-.133.043-.286.113-.422.129a.27.27 0 0 0-.239.3.27.27 0 0 0 .098.176m.75.004a6 6 0 0 0 1.007-.41.337.337 0 0 0 .144-.453.33.33 0 0 0-.449-.149c-.004 0-.008.004-.008.004a5.6 5.6 0 0 1-.882.399.316.316 0 0 0-.2.402.314.314 0 0 0 .387.207m1.007-.41c.387-.2.766-.422 1.129-.66a.34.34 0 0 0 .097-.477.34.34 0 0 0-.476-.097c-.344.226-.7.441-1.063.636a.338.338 0 0 0 .313.598m1.129-.66c.312-.207.625-.414.93-.629a.34.34 0 0 0 .081-.477.34.34 0 0 0-.476-.086q-.451.315-.914.618a.344.344 0 0 0 .379.574m.93-.629c.148-.102.3-.219.464-.297a.34.34 0 0 0-.273-.621c-.211.086-.402.227-.586.355a.344.344 0 1 0 .395.562m.187-.293q.005.084.004.168c0 .11.086.2.195.203a.2.2 0 0 0 .18-.11c.074-.14.152-.292.176-.452a.397.397 0 0 0-.551-.434.344.344 0 0 0-.184.445.35.35 0 0 0 .18.18M.523 13.252c.265-.203.539-.395.808-.59a.176.176 0 0 0 .04-.246.17.17 0 0 0-.227-.05q-.437.245-.875.488a.237.237 0 0 0-.094.32.23.23 0 0 0 .317.094c.011-.004.023-.012.03-.016m-.469-.074q.007.03.02.058c.035.075.109.13.191.141.11.02.219-.035.266-.133a.233.233 0 0 0 .03-.332.235.235 0 0 0-.284-.062c-.114.058-.223.12-.227.27-.004.019 0 .038.004.058m.211.199.129.023a.27.27 0 1 0 .09-.535q-.038-.005-.074-.004a2 2 0 0 1-.13.016.253.253 0 0 0-.226.277.25.25 0 0 0 .211.223m.129.023c.195.032.41-.039.594-.09a.3.3 0 0 0 .21-.367.3.3 0 0 0-.367-.21q-.012.003-.02.007c-.128.043-.269.11-.401.121a.27.27 0 0 0-.239.301.27.27 0 0 0 .223.238m.594-.09c.53-.144 1.043-.406 1.539-.632a.323.323 0 0 0 .16-.43.325.325 0 0 0-.43-.156h-.004c-.472.226-.949.473-1.441.648a.3.3 0 0 0 .176.57m1.539-.632c.656-.301 1.304-.649 1.867-1.102a.21.21 0 0 0 .031-.3.21.21 0 0 0-.246-.063c-.648.277-1.29.574-1.926.879a.323.323 0 0 0 .273.586M8.202 7.022c.231.054.458.12.684.18.098.027.2-.032.227-.13a.19.19 0 0 0-.102-.215c-.215-.097-.434-.19-.644-.292a.243.243 0 0 0-.329.109.247.247 0 0 0 .165.348m.012.003a.26.26 0 0 0 .2-.05.263.263 0 0 0 .105-.352.26.26 0 0 0-.293-.129.3.3 0 0 0-.219.172c-.07.164.047.328.207.36m.113-.023c.192-.027.38-.059.57-.086a.286.286 0 1 0-.085-.566q-.011.004-.027.007-.277.066-.56.137a.26.26 0 0 0-.187.317c.032.129.157.21.29.191m.57-.086q.506-.075 1.005-.2a.31.31 0 0 0 .226-.378.314.314 0 0 0-.379-.227l-.965.246a.28.28 0 0 0-.207.344.285.285 0 0 0 .32.215m1.005-.2q.42-.107.843-.19a.313.313 0 1 0-.117-.613c-.293.054-.586.124-.879.198a.31.31 0 0 0-.222.38c.039.163.21.265.375.226m.843-.19c.196-.036.399-.07.579-.153a.26.26 0 0 0 .128-.344.26.26 0 0 0-.175-.148c-.207-.05-.442-.008-.649.031a.313.313 0 0 0 .117.613m.348-.165a2 2 0 0 1-.082.243.155.155 0 0 0 .086.203.155.155 0 0 0 .195-.063c.086-.133.172-.273.223-.426.062-.203-.04-.41-.262-.441a.26.26 0 0 0-.293.223.26.26 0 0 0 .133.265zM8.804 9.502c.168-.145.434-.18.64-.203a.155.155 0 0 0 .133-.168.155.155 0 0 0-.167-.133c-.27.031-.543.067-.805.152a.21.21 0 0 0-.133.258c.035.11.152.168.262.133a.16.16 0 0 0 .07-.039m-.144.156a3 3 0 0 1 .16-.168.21.21 0 0 0-.008-.293.22.22 0 0 0-.188-.054q-.113.029-.226.05a.277.277 0 0 0-.211.332.27.27 0 0 0 .328.211.3.3 0 0 0 .144-.078zm-.188.13c.164.007.3-.122.309-.282a.295.295 0 0 0-.235-.3V9.2a.3.3 0 0 0-.148-.008c-.176.04-.297.22-.227.399.051.125.172.191.301.195m0 0q.175.004.352.015a.305.305 0 0 0 .316-.293.306.306 0 0 0-.293-.32h-.02q-.174.003-.347.007a.295.295 0 0 0-.008.59m.352.015c.28.012.566-.02.847-.047a.316.316 0 1 0-.066-.629c-.258.027-.516.059-.778.063a.307.307 0 0 0-.004.613m.847-.047c.79-.086 1.567-.332 2.32-.57a.21.21 0 0 0 .133-.258.203.203 0 0 0-.23-.14c-.762.128-1.524.257-2.29.339a.316.316 0 1 0 .066.629M22.113 3.686c.03-.836.058-1.672.097-2.508a.24.24 0 0 0-.222-.246.24.24 0 0 0-.246.222v.012c.004.836-.008 1.676-.008 2.512a.186.186 0 0 0 .187.191.19.19 0 0 0 .192-.183zm.101-2.528a.3.3 0 0 0-.02-.117.3.3 0 0 0-.042-.07.24.24 0 0 0-.336-.012.2.2 0 0 0-.047.059c-.024.043-.027.09-.031.136a.24.24 0 0 0 .23.246.237.237 0 0 0 .246-.23zm.031 1.223-.03-1.223a.24.24 0 0 0-.243-.234.245.245 0 0 0-.234.23q-.022.61-.043 1.223a.275.275 0 1 0 .55.02zm-.02 2.305q.049-1.156.02-2.305a.28.28 0 0 0-.285-.27.27.27 0 0 0-.265.266c-.032.758-.067 1.516-.114 2.273a.32.32 0 0 0 .301.34.315.315 0 0 0 .34-.3c.004 0 .004-.004.004-.004m-.105 2.12q.06-1.06.106-2.12a.323.323 0 0 0-.645-.036q-.063 1.06-.136 2.114a.335.335 0 0 0 .312.363.335.335 0 0 0 .363-.312zm-.144 1.938q.093-.966.144-1.937a.34.34 0 0 0-.675-.043q-.072.96-.16 1.914a.35.35 0 0 0 .312.383.35.35 0 0 0 .379-.317m-.18 1.715q.099-.854.18-1.715a.347.347 0 0 0-.313-.379.344.344 0 0 0-.379.313 81 81 0 0 1-.18 1.699.345.345 0 0 0 .305.387.345.345 0 0 0 .387-.305m-.672 2.031c.02.121.133.196.25.176a.22.22 0 0 0 .176-.187c.09-.672.168-1.344.246-2.02a.347.347 0 1 0-.691-.082c-.082.7-.113 1.422.02 2.113m0 0"/>
    <path d="M19.202 5.053a.197.197 0 0 0 .184-.211.19.19 0 0 0-.195-.184c-.176-.004-.352 0-.528-.02a.226.226 0 0 0-.296.016c-.157.145-.055.383.14.414a1 1 0 0 0 .149.008c.183 0 .367-.011.546-.023m-.554-.035q.133-.088.265-.168a.27.27 0 0 0 .082-.371.265.265 0 0 0-.414-.043l-.222.222a.233.233 0 0 0 .004.328.236.236 0 0 0 .285.032m.265-.168c.25-.16.5-.313.75-.47a.31.31 0 0 0 .102-.425.31.31 0 0 0-.426-.098q-.007.002-.008.004c-.258.176-.531.352-.75.575a.266.266 0 0 0 .332.414zm.75-.47q.622-.38 1.25-.75a.33.33 0 0 0 .118-.452.334.334 0 0 0-.454-.117c0 .004-.004.004-.004.004-.417.257-.835.523-1.242.796a.31.31 0 0 0-.086.43.31.31 0 0 0 .418.09m1.25-.75c.48-.28.97-.554 1.461-.812a.34.34 0 0 0 .145-.46.34.34 0 0 0-.461-.145h-.004q-.755.406-1.48.852a.331.331 0 0 0 .34.566m1.461-.812c.403-.21.82-.406 1.258-.535a.346.346 0 0 0 .235-.43.35.35 0 0 0-.43-.238c-.485.14-.942.36-1.383.598-.168.09-.23.3-.14.465.09.168.292.23.46.14m1.258-.535c.094-.027.117-.015.16.07a1.2 1.2 0 0 1 .106.419 4.4 4.4 0 0 1 .02.68.22.22 0 0 0 .21.222c.106.004.2-.07.219-.176.082-.437.164-.941.031-1.379a.77.77 0 0 0-.37-.469.78.78 0 0 0-.571-.035.353.353 0 0 0-.239.434.35.35 0 0 0 .434.234M19.812 12.658c.012-.062.078-.12.117-.16.113-.113.242-.21.375-.3a.154.154 0 0 0 .04-.212.155.155 0 0 0-.212-.035c-.226.156-.5.324-.66.555a.188.188 0 1 0 .309.215.2.2 0 0 0 .03-.063m-.324.32a.257.257 0 0 0 .359-.015.25.25 0 0 0-.016-.36q-.006-.009-.02-.019a.185.185 0 0 0-.21-.156.17.17 0 0 0-.117.066c-.121.145-.145.344.004.485zm0 0c.164.149.433.126.636.11a.298.298 0 1 0-.054-.594q-.007-.001-.02.004c-.101.016-.254.055-.344.04a.257.257 0 0 0-.218.44m.636.11c.336-.031.66-.164.957-.316a.32.32 0 0 0 .141-.426.32.32 0 0 0-.43-.145q-.001.004-.008.008c-.23.121-.476.246-.734.29a.297.297 0 0 0-.246.343.3.3 0 0 0 .32.246zm.957-.316c.465-.235.903-.52 1.336-.813a.33.33 0 0 0 .086-.457.33.33 0 0 0-.457-.086c-.41.277-.824.555-1.262.793a.317.317 0 0 0-.128.43.32.32 0 0 0 .425.133m1.336-.813c.22-.148.438-.3.637-.469.121-.101.3-.238.313-.41a.216.216 0 0 0-.149-.223c-.164-.05-.36.063-.496.141a8 8 0 0 0-.676.418.326.326 0 0 0-.086.453.33.33 0 0 0 .457.09M26.714 7.025c.2-.472.438-.925.68-1.375a.14.14 0 0 0-.059-.195.143.143 0 0 0-.195.059c-.234.465-.465.93-.664 1.41-.031.066 0 .14.066.168.067.031.145 0 .172-.067m.68-1.375q.298-.538.613-1.066a.184.184 0 0 0-.062-.25.184.184 0 0 0-.25.063q-.001.005-.008.011-.276.555-.547 1.11a.14.14 0 0 0 .066.191.14.14 0 0 0 .188-.059zm.613-1.066c.172-.285.34-.574.477-.879a.225.225 0 1 0-.41-.183c-.004.007-.004.011-.008.02-.102.3-.239.585-.38.866-.042.09-.007.2.083.246a.18.18 0 0 0 .238-.07zm.477-.879c.086-.195.207-.457.078-.66a.265.265 0 0 0-.367-.082.27.27 0 0 0-.082.371l.004.004a1 1 0 0 1-.051.203.226.226 0 0 0 .14.285c.11.035.231-.015.278-.12m-.395-.058c.078-.067.156-.137.246-.192a.26.26 0 0 0 .27-.262.3.3 0 0 0-.043-.148c-.106-.164-.313-.172-.477-.11-.14.051-.261.133-.383.22a.313.313 0 0 0-.07.437c.098.14.293.172.434.07.008-.004.015-.012.023-.015m-.719 1.007c.192-.351.407-.742.72-1.007a.314.314 0 0 0-.388-.493c-.402.29-.691.73-.945 1.149a.355.355 0 1 0 .613.352zm-.75 1.684c.211-.578.457-1.14.75-1.684a.35.35 0 0 0-.14-.476.35.35 0 0 0-.473.125 12 12 0 0 0-.86 1.762c-.077.199.016.421.216.503a.39.39 0 0 0 .504-.218c0-.004.004-.008.004-.012M26.152 8.1a10 10 0 0 1 .468-1.762.39.39 0 0 0-.23-.496.39.39 0 0 0-.492.223c-.242.609-.438 1.242-.563 1.89a.413.413 0 1 0 .813.156c0-.003.004-.007.004-.011m-.918 1.691c.02.234.226.41.46.387a.423.423 0 0 0 .387-.461 6.4 6.4 0 0 1 .07-1.617.415.415 0 0 0-.816-.145 6.6 6.6 0 0 0-.101 1.836m0 0c.05.563.23 1.133.64 1.54a.424.424 0 0 0 .602-.598c-.266-.27-.36-.657-.395-1.016a.426.426 0 1 0-.847.074m.64 1.54c.364.362.848.558 1.36.519a.415.415 0 0 0-.051-.828.92.92 0 0 1-.707-.29.426.426 0 0 0-.606.598zm1.36.519c.511-.043.972-.293 1.336-.645a.383.383 0 0 0 .011-.543.387.387 0 0 0-.527-.027c-.246.215-.543.37-.871.387a.415.415 0 0 0 .039.828zm1.336-.645c.328-.312.625-.66.867-1.047a.343.343 0 0 0-.11-.472.35.35 0 0 0-.464.09c-.23.32-.508.605-.809.859a.39.39 0 0 0-.043.543c.14.16.383.18.543.043zm.863-1.043a2.6 2.6 0 0 0 .36-.762c.054-.203.074-.44-.04-.628a.2.2 0 0 0-.27-.067.22.22 0 0 0-.09.13 1.2 1.2 0 0 1-.148.347 7 7 0 0 1-.382.597.344.344 0 1 0 .562.395q.007-.006.008-.012zM33.812 8.13c.031-.155.058-.312.094-.468q.007-.017.008-.035v-.023a.205.205 0 0 0-.2-.211q-.006-.001-.011.004a.2.2 0 0 0-.094.023l-.043.031a.21.21 0 0 0-.05.227c0 .137-.013.273-.024.406a.165.165 0 0 0 .148.176.166.166 0 0 0 .172-.13zm.105-.398q.001-.07-.004-.136a.205.205 0 0 0-.21-.2.2.2 0 0 0-.114.036c-.035.027-.074.05-.11.078a.28.28 0 0 0-.07.39c.09.125.262.157.391.07a.28.28 0 0 0 .117-.237m-.476.532a.22.22 0 0 0 .308-.004.2.2 0 0 0 .047-.063c.059-.132.102-.273.121-.418a.28.28 0 0 0-.242-.316.28.28 0 0 0-.234.078.515.515 0 0 0 0 .723M41.843 4.342c.414-.496.688-1.11.906-1.719a.16.16 0 0 0-.097-.207.164.164 0 0 0-.211.098c0 .004 0 .004-.004.008-.172.585-.399 1.183-.793 1.656a.13.13 0 0 0 .015.183.13.13 0 0 0 .184-.02zm.906-1.719c.102-.277.203-.566.254-.86.031-.206.031-.48-.207-.562a.23.23 0 0 0-.289.14.23.23 0 0 0 .102.27c.011.11-.008.223-.028.329q-.054.293-.144.582c-.023.09.023.18.113.203a.16.16 0 0 0 .2-.102m-.488-.504a2.6 2.6 0 0 1 .297-.363c.047-.05.102-.113.176-.113a.23.23 0 0 0 .215-.239.23.23 0 0 0-.153-.203c-.18-.058-.363.016-.508.121-.18.13-.328.297-.464.47a.277.277 0 0 0 .043.386.28.28 0 0 0 .386-.043.03.03 0 0 1 .008-.016zm-.875 1.688c.246-.582.512-1.168.875-1.688a.27.27 0 0 0-.066-.379.27.27 0 0 0-.371.051c-.422.531-.73 1.152-1.008 1.77a.31.31 0 0 0 .156.41c.156.07.34 0 .414-.156zm-.84 2.445c.235-.828.508-1.648.84-2.445a.311.311 0 0 0-.57-.246 20 20 0 0 0-.922 2.5.342.342 0 0 0 .652.199zm-.52 2.645c.102-.895.278-1.782.52-2.645a.344.344 0 0 0-.234-.422.34.34 0 0 0-.418.23 17 17 0 0 0-.59 2.747c-.027.199.113.383.313.41a.37.37 0 0 0 .41-.317zm-.741 2.12a.38.38 0 0 0 .449.294.38.38 0 0 0 .297-.446q.001-.005-.004-.004c-.137-.64-.075-1.324 0-1.964a.365.365 0 0 0-.32-.407.367.367 0 0 0-.403.317c-.094.722-.164 1.488-.02 2.21m0 0c.093.45.273.965.71 1.192a.387.387 0 0 0 .52-.16.387.387 0 0 0-.164-.52.4.4 0 0 1-.152-.175 1.8 1.8 0 0 1-.172-.493.38.38 0 0 0-.45-.293.387.387 0 0 0-.292.45m.71 1.192c.329.172.704.2 1.055.082a.382.382 0 0 0-.234-.727.59.59 0 0 1-.465-.035.38.38 0 0 0-.516.16.38.38 0 0 0 .16.52m1.055.082c.344-.113.645-.328.89-.59a.363.363 0 0 0-.51-.515 1.6 1.6 0 0 1-.614.379.387.387 0 0 0-.25.48.38.38 0 0 0 .48.246zm.89-.59c.243-.254.462-.535.653-.832a.33.33 0 0 0-.098-.453.33.33 0 0 0-.437.078c-.188.246-.399.48-.629.692a.363.363 0 1 0 .496.531c.004-.004.012-.008.016-.016m.653-.828c.367-.555.594-1.207.777-1.844a.184.184 0 0 0-.125-.226.186.186 0 0 0-.21.09c-.293.55-.606 1.101-.98 1.605a.326.326 0 0 0 .07.457c.144.11.347.078.456-.066zM44.671 5.158a.177.177 0 0 0 .18.168.175.175 0 0 0 .164-.172c.004-.21.004-.425.012-.636a.19.19 0 0 0 .047-.157c-.012-.078-.028-.16-.094-.214a.19.19 0 0 0-.156-.043V4.1a.2.2 0 0 0-.149.11c-.047.089-.023.226-.023.327q.006.31.02.621m-.008-.754.094 1.336c.012.145.133.25.273.239a.257.257 0 0 0 .239-.274q.001-.007-.004-.02c-.063-.44-.13-.882-.192-1.324a.21.21 0 0 0-.234-.175.21.21 0 0 0-.176.218zm.094 1.336c.066.965.117 1.93.164 2.895a.314.314 0 0 0 .328.297.314.314 0 0 0 .297-.328V8.6c-.066-.973-.14-1.95-.281-2.914a.253.253 0 0 0-.29-.215.256.256 0 0 0-.218.27m.164 2.895q.06 1.27.125 2.543a.335.335 0 0 0 .355.324.335.335 0 0 0 .325-.355v-.012c-.067-.844-.121-1.692-.18-2.535a.313.313 0 0 0-.625.035m.125 2.543.035.754a.36.36 0 0 0 .371.34.354.354 0 0 0 .336-.372v-.011q-.029-.38-.062-.754a.341.341 0 0 0-.68.043m.035.754q.005.07.027.133a.4.4 0 0 0 .11.144.36.36 0 0 0 .406.02c.14-.086.168-.215.168-.356a.353.353 0 1 0-.707 0v.008h-.004zm0-1.614q-.001.781.004 1.555a.353.353 0 1 0 .707 0q.005-.775.004-1.555a.357.357 0 0 0-.355-.355c-.2 0-.36.156-.36.355zm-.066-2.488c.055.828.066 1.66.066 2.488 0 .2.16.36.36.36a.36.36 0 0 0 .355-.36 37 37 0 0 0-.062-2.535.36.36 0 0 0-.38-.34.365.365 0 0 0-.34.383Zm-.11-2.035q.044 1.015.11 2.035a.36.36 0 0 0 .383.336.357.357 0 0 0 .336-.383 88 88 0 0 1-.098-2.02.364.364 0 0 0-.38-.35.364.364 0 0 0-.35.378zm0 0a.366.366 0 0 0 .73-.031 40 40 0 0 1-.03-1.676.37.37 0 1 0-.742-.008v.004c0 .57.019 1.14.042 1.711m.7-1.707c.004-.328.047-.68.207-.973a.37.37 0 0 0-.145-.508.37.37 0 0 0-.508.145c-.222.406-.293.875-.297 1.332 0 .203.168.371.372.371a.37.37 0 0 0 .37-.367m.207-.973c.11-.199.261-.37.472-.46a.375.375 0 0 0-.3-.688c-.36.16-.637.445-.825.785a.37.37 0 0 0 .145.508c.183.101.41.035.508-.145m.472-.46a.9.9 0 0 1 .559-.063c.2.047.398-.078.445-.274a.373.373 0 0 0-.265-.441 1.6 1.6 0 0 0-1.04.09.38.38 0 0 0-.19.496c.081.187.3.273.491.191m.559-.063c.184.043.305.191.39.348a.356.356 0 0 0 .637-.325c-.176-.351-.465-.64-.847-.738a.373.373 0 0 0-.454.262c-.05.199.07.398.266.449zm.39.348c.157.292.211.632.227.96.012.192.176.34.367.329a.346.346 0 0 0 .325-.36c-.016-.43-.09-.867-.282-1.254a.36.36 0 0 0-.48-.16.353.353 0 0 0-.156.485m.782 2.347a5.3 5.3 0 0 0 .137-1.418.345.345 0 1 0-.692.028V3.9c.024.41-.02.82-.117 1.22a.35.35 0 0 0 .25.421.35.35 0 0 0 .422-.25zm-.43 1.301q.27-.633.43-1.3a.346.346 0 0 0-.672-.169 8 8 0 0 1-.402 1.192.347.347 0 0 0 .183.46.35.35 0 0 0 .461-.18zm-.637 1.094c.266-.332.473-.703.637-1.094a.35.35 0 0 0-.183-.461.35.35 0 0 0-.461.184c-.145.328-.32.648-.543.925a.353.353 0 0 0 .054.496.35.35 0 0 0 .496-.05m-.886.652c.36-.113.652-.363.886-.652a.353.353 0 0 0-.054-.496.35.35 0 0 0-.496.05c-.149.184-.329.36-.555.438a.347.347 0 0 0 .219.66m-.95-.14c.274.214.625.242.95.14a.35.35 0 0 0 .226-.437.34.34 0 0 0-.433-.227q-.006-.001-.012.004c-.106.035-.23.055-.332-.016a.333.333 0 0 0-.399.535m-.398-.762c.023.3.164.578.398.761.145.118.356.09.47-.054a.335.335 0 0 0-.056-.469l-.015-.012a.46.46 0 0 1-.192-.304.305.305 0 0 0-.605.078m0 .008c.016.167.164.289.332.277a.306.306 0 0 0 .277-.332q-.002-.012-.004-.024c-.047-.28.204-.527.399-.687a.177.177 0 0 0 .02-.242.165.165 0 0 0-.196-.047c-.441.18-.875.527-.828 1.055zM49.855 4.71c.086-.126.09-.317.11-.466.038-.308.058-.62.077-.933a.16.16 0 0 0-.152-.172.16.16 0 0 0-.172.152v.004c-.016.305-.027.613-.059.918-.008.082-.015.266-.054.324a.154.154 0 0 0 .039.211c.07.047.164.027.21-.039m.187-1.4c.024-.32.043-.648.09-.968a.196.196 0 0 0-.168-.227.197.197 0 0 0-.222.168c-.004.012-.004.02-.004.032 0 .328-.012.652-.02.98a.16.16 0 0 0 .156.168.163.163 0 0 0 .168-.152zm-.304-1.39v.395a.198.198 0 0 0 .395.027l.058-.39a.224.224 0 0 0-.192-.259.23.23 0 0 0-.261.192zm0 0c0 .125.101.227.226.227a.23.23 0 0 0 .223-.176.24.24 0 0 0-.078-.324.25.25 0 0 0-.176-.032q-.023.005-.047.016a.2.2 0 0 0-.039.02c-.098.066-.11.164-.11.269m.027.031q.016.036.031.07a.263.263 0 0 0 .348.126.26.26 0 0 0 .027-.457q-.032-.022-.062-.043a.236.236 0 0 0-.329.078.22.22 0 0 0-.015.226m.012.008c.047.25.05.516.066.773.008.165.148.29.313.278a.294.294 0 0 0 .277-.313v-.011c-.024-.204-.043-.403-.078-.598-.024-.14-.051-.316-.184-.398a.257.257 0 0 0-.36.082c-.034.054-.046.12-.034.187m.066.773c.035.614.043 1.227.043 1.84a.328.328 0 1 0 .656 0v-.007a23 23 0 0 0-.11-1.88.3.3 0 0 0-.327-.265.294.294 0 0 0-.262.313m.73 4.032q0-1.103-.03-2.2a.329.329 0 0 0-.656.008q0 1.093-.017 2.188a.35.35 0 0 0 .348.355.353.353 0 0 0 .356-.347zm-.03 2.066a52 52 0 0 0 .03-2.066.352.352 0 0 0-.703-.004c-.011.68-.03 1.36-.066 2.039a.373.373 0 0 0 .352.387.373.373 0 0 0 .386-.352zm-.067 1.727q.033-.864.066-1.727a.37.37 0 0 0-.355-.383.37.37 0 0 0-.383.352c-.027.574-.055 1.152-.074 1.73a.37.37 0 0 0 .36.387.37.37 0 0 0 .386-.36m-.774 1.234a.37.37 0 0 0 .372.367.374.374 0 0 0 .367-.363c.008-.414.02-.824.035-1.238a.37.37 0 0 0-.36-.387.37.37 0 0 0-.386.36c-.016.421-.031.84-.027 1.261m0 0q.002.253.004.5a.363.363 0 0 0 .727.004q.001-.247.008-.5a.37.37 0 0 0-.738-.012zm.004.5q-.001.034.004.063c.008.054.028.109.06.152q.044.047.089.09a.36.36 0 0 0 .457-.031.37.37 0 0 0 .05-.48.363.363 0 0 0-.5-.103.37.37 0 0 0-.156.262q-.005.014-.004.028v.019m.72-.039q-.028-.304-.055-.61a.334.334 0 0 0-.36-.296.327.327 0 0 0-.297.324c-.004.203-.004.406-.008.61-.004.199.157.363.356.367.199 0 .363-.16.367-.36q.001-.018-.004-.035zm-.821-2.016c.062.473.113.954.11 1.434a.328.328 0 1 0 .656.008v-.035c-.047-.508-.172-1.012-.31-1.5a.235.235 0 0 0-.288-.164.233.233 0 0 0-.168.257m-.375-1.652c.18.535.3 1.09.375 1.652a.234.234 0 0 0 .262.2.23.23 0 0 0 .199-.262c0-.012-.004-.024-.004-.031a34 34 0 0 0-.516-1.668.164.164 0 0 0-.21-.102.17.17 0 0 0-.106.211m-.512-1.36c.196.446.36.9.512 1.36a.17.17 0 0 0 .21.106.165.165 0 0 0 .106-.211v-.004a17 17 0 0 0-.527-1.383.16.16 0 0 0-.215-.082.16.16 0 0 0-.086.215m-.426-1.054q.197.533.426 1.055a.165.165 0 0 0 .215.086.16.16 0 0 0 .086-.22 19 19 0 0 1-.418-1.034.16.16 0 0 0-.207-.098.166.166 0 0 0-.102.211m-.191-.773c.02.265.102.527.191.773a.164.164 0 0 0 .211.098.164.164 0 0 0 .098-.211c-.078-.215-.156-.446-.172-.68a.16.16 0 0 0-.172-.152.165.165 0 0 0-.156.172m0 0c.008.09.086.16.176.156a.165.165 0 0 0 .152-.176c0-.027.059-.05.078-.059a1.2 1.2 0 0 1 .442-.097.273.273 0 0 0 .242-.293.273.273 0 0 0-.293-.242 1 1 0 0 0-.078.02c-.282.116-.742.32-.719.69m.848-.176a5.7 5.7 0 0 0 1.297-.266c.199-.07.304-.289.234-.492a.383.383 0 0 0-.488-.234q-.005.003-.016.007-.581.229-1.156.47a.268.268 0 0 0 .129.515m1.297-.266c.398-.14.789-.305 1.171-.48.2-.09.29-.328.196-.528a.395.395 0 0 0-.524-.195h-.004q-.545.257-1.11.484a.383.383 0 0 0 .27.72m1.171-.48c.364-.164.727-.325 1.098-.461a.4.4 0 0 0 .234-.512.4.4 0 0 0-.515-.234c-.387.144-.77.312-1.149.484a.395.395 0 0 0-.191.527c.09.2.328.286.523.196m1.098-.461c.125-.047.254-.094.387-.125.047-.012.105-.028.152-.024a.385.385 0 0 0 .426-.347.386.386 0 0 0-.313-.422c-.312-.059-.648.066-.933.172a.399.399 0 0 0 .281.746m.34 1.437c.223-.445.445-.902.601-1.375.051-.152.098-.312.094-.476 0-.239-.14-.461-.39-.504a.389.389 0 0 0-.352.644 3 3 0 0 1-.09.555c-.078.336-.172.664-.273.992a.22.22 0 0 0 .148.278.216.216 0 0 0 .262-.114m0 0"/>
    <path d="M48.874 12.647c.118-.02.2-.125.188-.243.117-.234.27-.453.414-.672a.18.18 0 0 0-.047-.25.183.183 0 0 0-.246.04c-.148.199-.3.398-.441.609-.036.055-.075.11-.102.172-.078.168.035.379.234.344m-.008.003q.179-.023.356-.043a.275.275 0 1 0-.062-.547.2.2 0 0 0-.083.02l-.328.149c-.11.05-.16.18-.11.289.04.09.13.14.227.132m.356-.043c.3-.035.578-.18.832-.335a.33.33 0 0 0 .105-.457.33.33 0 0 0-.453-.11q-.011.006-.015.012c-.196.133-.395.27-.614.363-.136.063-.199.227-.136.363a.27.27 0 0 0 .28.164m.832-.335c.324-.204.629-.434.933-.665.52-.386 1.032-.785 1.543-1.187a.24.24 0 0 0 .04-.332.236.236 0 0 0-.313-.05c-.86.554-1.719 1.105-2.562 1.675a.332.332 0 0 0 .36.559M58.671 7.76a.94.94 0 0 0 .387-.438.29.29 0 0 0-.16-.382.293.293 0 0 0-.383.156c-.008.027-.016.05-.02.078a.8.8 0 0 1-.105.3.21.21 0 0 0 .07.286c.067.039.145.039.211 0m.38-.418c.023-.047.042-.094.066-.137a.326.326 0 0 0-.145-.437.327.327 0 0 0-.437.148.3.3 0 0 0-.032.125q-.007.076-.008.152a.294.294 0 0 0 .555.148zm.105-.262c.004-.183-.13-.355-.332-.351a.35.35 0 0 0-.168.05.35.35 0 0 0-.121.13.3.3 0 0 0-.032.132v.027a.327.327 0 1 0 .652.023zm0 .395V7.08a.324.324 0 0 0-.325-.328.323.323 0 0 0-.328.316q-.01.196-.015.391a.33.33 0 0 0 .32.344.333.333 0 0 0 .348-.32zm-.536.867c.204.047.364-.133.438-.3.074-.177.094-.376.098-.567a.333.333 0 0 0-.332-.336.33.33 0 0 0-.336.324c-.008.215-.004.434-.028.652a.21.21 0 0 0 .16.227M65.359 6.01a7.4 7.4 0 0 0 1.207-1.34.175.175 0 0 0-.043-.242.17.17 0 0 0-.239.043q-.005.001-.004.008c-.308.484-.683.93-1.117 1.304a.154.154 0 0 0-.015.215.15.15 0 0 0 .21.012m1.207-1.34c.23-.324.492-.66.656-1.027.05-.11 0-.235-.11-.286a.213.213 0 0 0-.296.141 1.6 1.6 0 0 1-.16.344c-.118.219-.246.426-.375.637a.17.17 0 0 0 .05.238c.079.047.18.027.235-.047m.25-1.168a.217.217 0 0 0 .156.266.22.22 0 0 0 .25-.125.64.64 0 0 0 .074-.293.326.326 0 0 0-.293-.305.255.255 0 0 0-.187.457m-.188.496c.098-.125.2-.254.309-.367.027-.027.11-.086.098-.082a.257.257 0 0 0 .183-.313.25.25 0 0 0-.215-.191c-.16-.023-.308.074-.425.172-.149.125-.278.27-.399.414a.29.29 0 1 0 .441.379q.004-.006.008-.012zm-.914 1.453c.278-.5.567-1 .914-1.453a.29.29 0 0 0-.05-.406.29.29 0 0 0-.399.039c-.394.465-.719.98-1.023 1.504a.321.321 0 1 0 .555.324q.002-.001.003-.008m-1 2.086c.301-.71.63-1.41 1-2.086a.324.324 0 0 0-.125-.437.32.32 0 0 0-.433.12 20 20 0 0 0-1.082 2.126.35.35 0 1 0 .64.281zm-.691 2.29c.148-.786.383-1.555.691-2.29a.353.353 0 0 0-.187-.46.35.35 0 0 0-.453.183c-.348.777-.61 1.59-.782 2.422a.374.374 0 0 0 .73.148zm-.965 2a.387.387 0 0 0 .773-.02v-.004c-.027-.664.067-1.328.192-1.977a.37.37 0 0 0-.297-.433c-.2-.04-.39.09-.434.289-.144.703-.25 1.422-.234 2.144m0 0c.012.488.078 1.073.465 1.421.16.145.41.129.554-.031a.394.394 0 0 0-.03-.555.5.5 0 0 1-.13-.246c-.062-.2-.078-.41-.086-.613a.386.386 0 0 0-.773.023m.465 1.421c.285.254.66.371 1.039.293a.391.391 0 0 0-.156-.766.4.4 0 0 1-.36-.113.394.394 0 0 0-.554.031.39.39 0 0 0 .03.555m1.039.293c.387-.078.723-.324 1-.601a.378.378 0 0 0-.52-.547c-.18.164-.394.336-.636.382a.397.397 0 0 0-.309.461c.043.211.25.348.461.305zm1-.601c.3-.293.582-.61.848-.938a.342.342 0 0 0-.516-.445c-.274.289-.555.566-.852.836a.38.38 0 0 0-.023.535c.14.152.379.164.531.023zm.844-.934c.382-.469.722-.98.957-1.543a.187.187 0 0 0-.098-.242.19.19 0 0 0-.211.05q-.576.646-1.164 1.286a.344.344 0 0 0 .02.484c.14.125.355.117.484-.023zM71.863 5.666q.216-.277.363-.594a.147.147 0 0 0-.07-.199.15.15 0 0 0-.2.074c-.09.188-.199.368-.328.528a.154.154 0 0 0 .024.215c.066.05.16.039.21-.024m.363-.594c.086-.175.168-.359.215-.554a.17.17 0 0 0-.125-.211.175.175 0 0 0-.215.125q-.002.016-.004.039c-.004.164-.07.328-.14.476a.148.148 0 1 0 .27.125zm-.14-.617c.015 0 .011 0 .011.016a.175.175 0 0 0 .172.18.17.17 0 0 0 .172-.133.405.405 0 0 0-.293-.516.23.23 0 0 0-.285.16.23.23 0 0 0 .16.285q.032.01.062.008m-.395.34c.086-.098.18-.2.289-.281.023-.02.07-.059.105-.059.13 0 .23-.101.23-.23a.23.23 0 0 0-.167-.223c-.328-.094-.656.191-.871.406a.283.283 0 1 0 .398.403q.008-.005.016-.016zm-.809 1.21c.238-.417.488-.843.809-1.21a.284.284 0 0 0-.414-.387c-.375.371-.672.824-.946 1.278a.317.317 0 0 0 .106.437.32.32 0 0 0 .441-.105q.005-.006.004-.012zm-.918 1.981c.27-.675.563-1.343.918-1.98a.316.316 0 0 0-.12-.434.317.317 0 0 0-.43.114 16 16 0 0 0-1.016 2.035.356.356 0 0 0 .187.46.35.35 0 0 0 .457-.187c.004-.004.004-.004.004-.008m-.71 2.399q.25-1.231.71-2.399a.351.351 0 0 0-.648-.266c-.34.81-.606 1.65-.793 2.509-.047.199.082.402.285.445.2.047.402-.082.445-.285zm-.239 1.922c-.012-.645.113-1.293.238-1.922a.37.37 0 0 0-.293-.442.37.37 0 0 0-.437.286c-.153.68-.29 1.382-.293 2.086a.393.393 0 0 0 .785 0zm-.785.008c0 .496.148 1.066.672 1.246a.396.396 0 0 0 .508-.246.403.403 0 0 0-.247-.508c-.039-.012-.058-.047-.074-.078-.062-.13-.07-.286-.074-.422a.393.393 0 0 0-.785.008m.672 1.246c.445.156.922.007 1.32-.207a.399.399 0 0 0-.379-.704c-.191.102-.46.235-.68.157a.4.4 0 0 0-.507.25.394.394 0 0 0 .246.504m1.32-.207c.469-.254.89-.598 1.266-.977a.387.387 0 0 0-.004-.543.383.383 0 0 0-.532-.004 5.3 5.3 0 0 1-1.109.82.4.4 0 0 0-.164.54.4.4 0 0 0 .543.164zm1.266-.977c.363-.371.703-.773.98-1.21a.35.35 0 0 0-.105-.481.344.344 0 0 0-.465.09c-.278.382-.602.73-.946 1.054a.375.375 0 0 0-.015.54.38.38 0 0 0 .539.019zm.98-1.21c.328-.505.598-1.126.5-1.743a.19.19 0 0 0-.219-.16.2.2 0 0 0-.156.144c-.121.5-.402.957-.7 1.371a.344.344 0 0 0 .083.48.34.34 0 0 0 .48-.081zM76.417 5.447c.235-.457.41-.937.559-1.425a.166.166 0 0 0-.11-.204.157.157 0 0 0-.199.11q-.005-.001-.004.004c-.129.472-.289.941-.511 1.383a.145.145 0 0 0 .066.199c.074.039.164.008.2-.067zm.559-1.425c.059-.196.105-.422.207-.602a.196.196 0 0 0-.07-.262.193.193 0 0 0-.262.074.2.2 0 0 0-.02.055c-.046.215-.109.43-.168.645a.157.157 0 0 0 .114.195.163.163 0 0 0 .199-.105m.207-.602.066-.117a.211.211 0 1 0-.39-.149c-.008.043-.02.086-.027.133a.185.185 0 0 0 .148.223c.078.02.16-.02.203-.09zm.11-.2c-.012-.116-.071-.226-.208-.238a.2.2 0 0 0-.062.004.2.2 0 0 0-.063.024.21.21 0 0 0-.101.144q-.005.03-.004.059v.012a.219.219 0 1 0 .437.03zm.038.427c-.011-.145-.027-.286-.039-.426a.22.22 0 0 0-.238-.2.22.22 0 0 0-.2.204c-.01.14-.023.285-.03.425a.25.25 0 0 0 .234.274.26.26 0 0 0 .277-.234q.001-.025-.004-.043m-.023 1.37c.031-.452.07-.917.023-1.37a.25.25 0 0 0-.277-.23.25.25 0 0 0-.23.233c-.036.438-.082.88-.13 1.317-.019.168.106.32.274.336.168.02.32-.102.34-.274zm-.211 2.106c.094-.7.168-1.402.211-2.105a.307.307 0 0 0-.29-.328.304.304 0 0 0-.323.277 46 46 0 0 1-.278 2.055.344.344 0 0 0 .68.109zm-.496 2.992c.184-.992.363-1.992.496-2.992a.344.344 0 0 0-.68-.101c-.16.988-.351 1.972-.547 2.953a.374.374 0 0 0 .293.437c.2.04.395-.09.438-.293zm-.434 2.215c.18-.73.297-1.476.434-2.215a.371.371 0 0 0-.73-.14c-.141.726-.27 1.457-.446 2.172a.39.39 0 0 0 .281.464.383.383 0 0 0 .461-.28m-.09.367q.049-.186.09-.367a.383.383 0 0 0-.277-.465.39.39 0 0 0-.465.282q-.041.186-.09.367a.39.39 0 0 0 .282.465.383.383 0 0 0 .46-.282m-.761-.093c.008.152.086.3.234.363a.3.3 0 0 0 .102.027.3.3 0 0 0 .101.004.39.39 0 0 0 .325-.3.38.38 0 0 0-.07-.333.385.385 0 0 0-.532-.086.38.38 0 0 0-.16.325m0 0a.38.38 0 1 0 .762-.031v-.016c-.008-.11-.04-.223-.063-.336-.047-.25-.102-.5-.152-.75a.24.24 0 0 0-.278-.184.24.24 0 0 0-.187.215q-.035.381-.063.762c-.008.113-.023.226-.02.34m0 0"/>
    <path d="M73.593 6.697c.016.297.395.47.617.582a.197.197 0 0 0 .274-.086.205.205 0 0 0-.086-.273c-.117-.063-.254-.129-.344-.23a.23.23 0 0 0-.226-.235.226.226 0 0 0-.235.227zm0 .02c.02.129.137.215.262.2a.25.25 0 0 0 .14-.075c.122-.07.262-.121.395-.172.266-.105.539-.2.809-.297a.302.302 0 1 0-.2-.57q-.007.004-.015.008c-.324.136-.649.273-.957.437-.172.094-.465.23-.434.469m1.606-.344c.707-.246 1.414-.5 2.109-.777a.356.356 0 0 0 .2-.457.353.353 0 0 0-.458-.2c-.004.004-.004.004-.008.004q-1.032.429-2.058.868a.302.302 0 0 0 .214.562zm2.109-.777c.48-.192.96-.387 1.437-.594a.36.36 0 0 0-.285-.66c-.472.207-.945.402-1.418.601a.352.352 0 0 0 .266.653m1.437-.594c.567-.246 1.125-.57 1.555-1.02a.223.223 0 0 0-.258-.355c-.52.25-1.05.484-1.582.715a.36.36 0 0 0-.187.473c.078.183.289.265.472.187zm0 0"/>
</svg>