<svg xmlns="http://www.w3.org/2000/svg" width="227.316" height="59.679" viewBox="0 0 170.487 44.759"><path d="M2.27 18.46c.512.03 1.035.062 1.547.011.25-.023.684-.098.625-.445a.206.206 0 0 0-.41.031c-.168.074-.375.082-.559.09-.394.02-.789.004-1.18-.02a.167.167 0 0 0-.18.157.17.17 0 0 0 .157.175m1.645-.622q.069.152.132.305c.047.105.172.152.274.105a.21.21 0 0 0 .12-.214 9 9 0 0 0-.038-.329.26.26 0 0 0-.285-.226.258.258 0 0 0-.203.36m.492-.101q.001-.013-.004-.032a.3.3 0 0 0-.047-.148.27.27 0 0 0-.129-.098c-.035-.015-.078-.02-.117-.015-.172.02-.246.168-.25.316a.28.28 0 0 0 .266.285.28.28 0 0 0 .285-.265q.001-.022-.004-.043m.058.48-.058-.48a.277.277 0 0 0-.305-.243.28.28 0 0 0-.242.266c-.004.16-.012.32-.016.48a.311.311 0 1 0 .621.024zM3.9 19.424a.348.348 0 1 0 .695-.058v-.008l-.129-1.14a.312.312 0 0 0-.62.023 9 9 0 0 0 .054 1.183m0 0c.055.621.098 1.242.14 1.863a.363.363 0 0 0 .723-.05 60 60 0 0 0-.168-1.88.35.35 0 0 0-.386-.308.345.345 0 0 0-.309.375m.14 1.863q.076 1.104.133 2.207a.37.37 0 0 0 .391.348.367.367 0 0 0 .348-.387q-.06-1.112-.149-2.218a.36.36 0 0 0-.386-.336.365.365 0 0 0-.336.386m.133 2.207c.036.618.059 1.235.055 1.852 0 .203.16.367.363.367.2.004.364-.156.368-.36a28 28 0 0 0-.047-1.898.367.367 0 0 0-.387-.347.373.373 0 0 0-.352.386m.547 3.2c.188-.414.23-.887.239-1.34a.366.366 0 0 0-.36-.371.37.37 0 0 0-.37.36v.003c0 .348-.02.73-.165 1.055a.36.36 0 0 0 .184.472c.18.082.394 0 .472-.18m-.62.761c.288-.175.484-.46.62-.761a.36.36 0 0 0-.18-.477.36.36 0 0 0-.476.18v.004c-.074.164-.176.343-.336.437a.357.357 0 0 0-.125.492c.102.172.32.23.492.13q.002-.006.004-.005m-.868.176c.305.047.61-.015.867-.176a.36.36 0 0 0-.371-.617.6.6 0 0 1-.39.078.362.362 0 0 0-.105.715m-.875-.52c.23.255.527.473.875.52.2.031.383-.11.414-.304a.36.36 0 0 0-.309-.41c-.18-.028-.332-.165-.453-.294a.36.36 0 0 0-.507-.015.357.357 0 0 0-.02.504M.864 25.007c.277.438.562.875.863 1.297.2.277.399.559.629.809a.359.359 0 1 0 .531-.485h-.004c-.566-.617-1.113-1.254-1.664-1.886a.222.222 0 0 0-.355.266m0 0"/><path d="M.54 18.752c.003-.007.058-.082.078-.11a.206.206 0 0 0-.047-.288.2.2 0 0 0-.156-.04c-.032.005-.121.02-.13.02a.283.283 0 1 0 .255.418m-.524-.039a.3.3 0 0 0 .031.067c.09.14.246.148.391.132a.306.306 0 0 0 .277-.332.31.31 0 0 0-.336-.273c-.003 0-.011.004-.02.004-.085.016-.175.027-.25.082a.29.29 0 0 0-.097.309zm.422.2q.323-.03.645-.063a.33.33 0 0 0 .296-.356.33.33 0 0 0-.359-.292H.997c-.211.039-.426.074-.637.109a.306.306 0 0 0-.25.351.304.304 0 0 0 .328.25m.645-.063c.472-.043.937-.188 1.382-.34a.345.345 0 0 0 .215-.445.347.347 0 0 0-.441-.215v.004c-.406.14-.817.277-1.242.348a.328.328 0 0 0 .086.648m1.382-.34q.79-.275 1.575-.574c.18-.067.27-.27.199-.453a.35.35 0 0 0-.453-.2c-.512.196-1.032.387-1.547.57a.346.346 0 0 0-.215.442.35.35 0 0 0 .441.215m1.575-.574c.558-.211 1.156-.43 1.757-.469a.21.21 0 0 0 .204-.226.215.215 0 0 0-.145-.192c-.668-.226-1.438-.008-2.07.235a.35.35 0 0 0-.2.453c.067.18.27.27.454.199M6.434 24.17c.055.102.18.14.281.09a.21.21 0 0 0 .114-.172.146.146 0 0 0 .093-.187.15.15 0 0 0-.148-.106c-.078.004-.164.008-.238.035-.137.059-.164.215-.102.34m-.012-.027c.086.246.422.285.645.293a.274.274 0 0 0 .289-.266.274.274 0 0 0-.266-.289h-.02c-.124.004-.277.024-.398-.008a.206.206 0 0 0-.254.149.2.2 0 0 0 .004.12m.645.293c.277.012.555-.02.82-.082.16-.04.258-.2.223-.36a.297.297 0 0 0-.36-.218q-.003-.001-.007.004a3 3 0 0 1-.672.101.273.273 0 0 0-.27.285.275.275 0 0 0 .266.27m.82-.082c.246-.059.489-.129.723-.223a.303.303 0 0 0 .176-.39.307.307 0 0 0-.395-.172c-.21.082-.43.148-.648.21a.293.293 0 0 0-.211.364c.043.156.199.25.355.21m.723-.223c.41-.156.77-.433 1.09-.726a.193.193 0 0 0 .015-.274.2.2 0 0 0-.226-.043c-.36.172-.723.336-1.098.48a.305.305 0 0 0-.172.391.3.3 0 0 0 .39.172M13.387 19.19q.082-.792.168-1.582a.22.22 0 0 0-.187-.239.216.216 0 0 0-.239.192v.012q-.047.792-.101 1.586a.183.183 0 0 0 .168.195.18.18 0 0 0 .191-.164m.164-1.574a.226.226 0 0 0-.086-.254.3.3 0 0 0-.109-.035.23.23 0 0 0-.168.07c-.055.055-.059.11-.059.176a.21.21 0 0 0 .204.222c.109.008.203-.07.218-.18m.047.097q-.016-.106-.039-.207a.217.217 0 0 0-.254-.172.22.22 0 0 0-.176.211q0 .101-.003.207a.24.24 0 0 0 .48.008q-.001-.023-.008-.047m.055 1.07c-.004-.351.016-.726-.055-1.07a.236.236 0 0 0-.277-.191.24.24 0 0 0-.195.23c-.004.344-.016.688-.024 1.028a.275.275 0 0 0 .27.28.27.27 0 0 0 .28-.265zm-.086 1.91c.059-.632.094-1.273.086-1.91a.27.27 0 0 0-.277-.269.273.273 0 0 0-.274.266 23 23 0 0 1-.133 1.855.305.305 0 0 0 .27.332.3.3 0 0 0 .328-.265zm-.223 2.098q.129-1.049.223-2.097a.3.3 0 0 0-.27-.325.304.304 0 0 0-.328.266 63 63 0 0 1-.254 2.074.316.316 0 0 0 .274.356.316.316 0 0 0 .355-.27zm-.23 1.797c.082-.597.156-1.199.23-1.797a.315.315 0 0 0-.273-.355.32.32 0 0 0-.356.273 94 94 0 0 1-.254 1.785.33.33 0 1 0 .652.102zm-.785 1.852c.011.117.113.21.234.199a.21.21 0 0 0 .195-.156c.172-.621.27-1.258.356-1.89a.33.33 0 0 0-.281-.376.33.33 0 0 0-.372.281c-.093.637-.175 1.293-.132 1.942m0 0"/><path d="M11.422 22.893a.18.18 0 0 0 .223.125.18.18 0 0 0 .129-.137c.027-.12.14-.156.246-.176a.283.283 0 1 0-.11-.555.1.1 0 0 0-.034.009c-.317.109-.551.39-.454.734m.598-.188q.393-.074.762-.214a.31.31 0 0 0 .176-.403.31.31 0 0 0-.403-.18c-.222.09-.453.172-.68.25a.284.284 0 0 0 .145.547m.762-.214q.329-.128.64-.286a.303.303 0 0 0 .137-.41.3.3 0 0 0-.402-.14q-.299.135-.602.254a.31.31 0 0 0-.176.402c.063.16.243.242.403.18m.64-.286c.473-.234.883-.601 1.274-.949a.19.19 0 0 0-.219-.309c-.433.247-.871.493-1.324.708a.31.31 0 0 0-.145.41.31.31 0 0 0 .41.144q.002-.005.004-.004m0 0"/><path d="M16.387 19.131q.18-.33.371-.66a.205.205 0 0 0-.074-.277.205.205 0 0 0-.277.074l-.012.031c-.09.235-.191.469-.285.7a.15.15 0 0 0 .086.199c.07.03.152.004.191-.067m.09-.59a.212.212 0 0 0 .34-.168c-.004-.101-.055-.195-.152-.226q-.025-.007-.043-.008h-.047c-.094.012-.157.082-.184.164a.2.2 0 0 0 .086.238m.34.22v-.388a.213.213 0 0 0-.426-.023l-.039.387a.233.233 0 0 0 .207.257.236.236 0 0 0 .258-.207zm-.102 1.257c.047-.414.102-.836.102-1.258a.23.23 0 0 0-.234-.23.23.23 0 0 0-.23.207c-.044.406-.102.812-.161 1.215a.264.264 0 0 0 .226.296.26.26 0 0 0 .297-.222zm-.257 2.043q.14-1.02.257-2.043a.266.266 0 0 0-.23-.293.266.266 0 0 0-.293.227c-.094.675-.195 1.355-.297 2.03-.023.153.082.302.238.325.157.023.301-.086.325-.238zm-.325 2.203q.177-1.095.325-2.203a.285.285 0 0 0-.563-.078c-.11.726-.23 1.457-.36 2.18a.305.305 0 0 0 .247.351.3.3 0 0 0 .351-.242zm-.21 1.422c.05-.477.132-.95.21-1.422a.3.3 0 0 0-.25-.344.304.304 0 0 0-.347.242c-.086.485-.176.965-.23 1.454a.31.31 0 0 0 .273.343.31.31 0 0 0 .343-.273m-.055.488q.03-.247.054-.488a.31.31 0 0 0-.273-.344.31.31 0 0 0-.344.274q-.03.246-.054.492a.31.31 0 0 0 .273.344.307.307 0 0 0 .344-.274zm-.535.238a.3.3 0 0 0 .101.07c.043.02.094.028.14.028.165-.012.259-.129.298-.27.035-.109 0-.23-.082-.308a.31.31 0 0 0-.54.176c-.015.11-.003.219.083.304m.539-.171q.064-.212.12-.422a.31.31 0 0 0-.214-.387.314.314 0 0 0-.387.215l-.117.426a.305.305 0 0 0 .215.382.31.31 0 0 0 .383-.214m.12-.422c.098-.336.118-.696.13-1.043a.3.3 0 0 0-.29-.309.3.3 0 0 0-.312.277c-.02.301-.043.61-.129.903-.047.164.05.34.219.387a.31.31 0 0 0 .383-.215m-.558-2.328c.078.414.117.836.086 1.253a.303.303 0 0 0 .281.325.304.304 0 0 0 .32-.282v-.011a5.6 5.6 0 0 0-.136-1.399.28.28 0 0 0-.336-.215.284.284 0 0 0-.215.329m-.398-1.317q.27.64.398 1.317a.28.28 0 0 0 .328.222.28.28 0 0 0 .223-.328v-.008q-.16-.721-.406-1.414a.29.29 0 0 0-.371-.176.293.293 0 0 0-.176.375q.002.006.004.012m-.532-1.004c.223.309.387.657.532 1.004a.293.293 0 0 0 .382.156.294.294 0 0 0 .16-.367 5.8 5.8 0 0 0-.542-1.156.32.32 0 0 0-.446-.098.326.326 0 0 0-.086.461m-.34-.41c.137.098.243.277.34.41a.322.322 0 0 0 .531-.363c-.132-.207-.277-.453-.48-.598a.337.337 0 0 0-.39.551m-.19-.121a.34.34 0 0 0 .39.184.338.338 0 0 0 .191-.614c-.097-.066-.203-.117-.324-.101-.262.035-.36.316-.258.531m0 0c.152.316.37.61.562.898.066.102.199.13.3.063a.22.22 0 0 0 .09-.25c-.105-.332-.195-.684-.343-1a.337.337 0 0 0-.61.289M17.133 21.123l.211-.414a.15.15 0 0 0-.066-.203.154.154 0 0 0-.203.067q-.104.21-.207.414a.15.15 0 0 0 .066.203c.074.039.164.008.2-.067m-.043-.39q.005.07.004.14c0 .09.074.164.164.164a.17.17 0 0 0 .164-.164v-.015a1.5 1.5 0 0 0-.035-.23c-.039-.15-.23-.212-.312-.055a.16.16 0 0 0 .015.16m.004.14q.007.542.008 1.082c0 .114.098.207.211.207a.21.21 0 0 0 .21-.21q0-.01-.003-.02-.048-.534-.098-1.074a.166.166 0 0 0-.18-.149.165.165 0 0 0-.148.164m.008 1.082c.004.649.035 1.297.07 1.946a.26.26 0 0 0 .274.246.26.26 0 0 0 .246-.274v-.007q-.08-.968-.172-1.934a.207.207 0 0 0-.227-.187.21.21 0 0 0-.19.21m.07 1.946c.028.468.04.941.098 1.402.02.16.16.27.32.25a.29.29 0 0 0 .25-.32c-.004-.008-.004-.02-.007-.028-.032-.14-.043-.285-.055-.425a24 24 0 0 1-.086-.914.256.256 0 0 0-.281-.235.26.26 0 0 0-.239.27m.098 1.402q.013.125.031.25c.02.164.168.281.332.258a.3.3 0 0 0 .262-.332q-.001-.016-.008-.031c-.015-.082-.035-.16-.054-.243a.284.284 0 0 0-.344-.214.284.284 0 0 0-.219.312m.031.25a.305.305 0 0 0 .235.266.3.3 0 0 0 .136-.004.31.31 0 0 0 .23-.29.3.3 0 0 0-.292-.308c-.024-.004-.043 0-.067.004h-.003q-.007.002-.02.004-.007.004-.02.008h-.003a.296.296 0 0 0-.196.32m-.008-.266q.004.118.008.235c.004.168.14.3.309.297a.31.31 0 0 0 .293-.293q.001-.117.008-.239a.309.309 0 0 0-.618-.02zm-.085-1.32c.03.438.074.88.085 1.32a.304.304 0 0 0 .317.297.31.31 0 0 0 .3-.297c.016-.449-.027-.91-.05-1.359a.327.327 0 1 0-.652.031zm-.102-1.973c.016.66.055 1.317.102 1.973.011.18.168.317.351.3a.325.325 0 0 0 .3-.339 46 46 0 0 1-.058-1.941.348.348 0 0 0-.695 0zm0 0a.349.349 0 0 0 .695-.007c0-.52.016-1.035.063-1.551a.359.359 0 1 0-.715-.067v.004q-.063.811-.043 1.621m.758-1.558c.035-.379.097-.762.25-1.113a.36.36 0 0 0-.184-.477.365.365 0 0 0-.48.188c-.184.421-.262.882-.301 1.34a.359.359 0 0 0 .715.062m.25-1.113c.097-.215.222-.434.41-.582a.36.36 0 0 0 .062-.508.36.36 0 0 0-.507-.063c-.286.219-.485.535-.63.864a.363.363 0 0 0 .664.29m.41-.582a.94.94 0 0 1 .43-.207.359.359 0 0 0-.094-.71c-.29.034-.555.167-.781.346a.361.361 0 1 0 .445.57m.43-.207c.054-.008.074.035.097.078.094.168.305.23.477.136a.346.346 0 0 0 .14-.464c-.156-.309-.457-.504-.808-.461a.357.357 0 1 0 .086.71zm.097.078c.117.21.106.496.094.726a.345.345 0 1 0 .691.031c.02-.363.004-.757-.168-1.085a.349.349 0 1 0-.62.32c0 .004.003.004.003.008m.438 2.172c.191-.45.328-.926.347-1.415a.34.34 0 0 0-.328-.359.345.345 0 0 0-.363.328c-.016.403-.137.797-.297 1.164a.354.354 0 0 0 .18.465.354.354 0 0 0 .46-.18zm-.742 1.382c.285-.437.539-.902.742-1.382a.35.35 0 0 0-.64-.281q-.296.668-.696 1.273a.353.353 0 0 0 .098.492c.164.11.386.066.492-.098q.005.001.004-.004m-.77 1.067c.281-.336.527-.7.77-1.067a.355.355 0 0 0-.106-.492.35.35 0 0 0-.488.102c-.23.343-.465.683-.727 1a.359.359 0 0 0 .551.457m-.875.316a.35.35 0 0 0 .305.184.3.3 0 0 0 .152-.028.36.36 0 0 0 .18-.175q.116-.152.238-.297a.359.359 0 0 0-.55-.457c-.169.199-.481.488-.325.773m.457.156c.059-.027.117-.05.176-.078a.343.343 0 0 0-.23-.645q-.095.028-.188.055a.36.36 0 0 0-.242.442.36.36 0 0 0 .441.242c.016-.004.027-.012.043-.016m.176-.078c.172-.074.34-.156.512-.234a.293.293 0 0 0 .136-.387.29.29 0 0 0-.324-.156c-.187.039-.375.078-.555.133a.343.343 0 0 0-.234.426.34.34 0 0 0 .465.218m.512-.234a3.7 3.7 0 0 1 .609-.238.21.21 0 0 0 .145-.258.21.21 0 0 0-.215-.153c-.246.012-.489.051-.727.106a.29.29 0 0 0-.223.344.29.29 0 0 0 .348.218.4.4 0 0 0 .063-.02m.609-.238c.203-.059.418-.07.629-.067a.174.174 0 0 0 .176-.172.174.174 0 0 0-.168-.18 11 11 0 0 0-.707.008.21.21 0 0 0-.2.22.213.213 0 0 0 .223.198q.023 0 .047-.007m.629-.067c.226.004.457.047.672.125a.23.23 0 0 0 .297-.133.228.228 0 0 0-.2-.308 25 25 0 0 0-.761-.035.175.175 0 0 0-.18.172.175.175 0 0 0 .172.18m.672.125c.207.078.418.149.636.184a.29.29 0 0 0 .336-.235.295.295 0 0 0-.238-.335q-.01-.002-.02-.004-.308-.03-.617-.051a.23.23 0 0 0-.242.215.224.224 0 0 0 .145.226m.636.184q.265.045.536.062a.3.3 0 0 0 .32-.285.3.3 0 0 0-.285-.32h-.012a5 5 0 0 1-.48-.031.296.296 0 0 0-.32.261c-.016.153.09.29.241.313m.536.062c.23.012.464-.03.68-.109a.31.31 0 0 0 .187-.398.313.313 0 0 0-.399-.188q-.003.002-.007.004a1.2 1.2 0 0 1-.438.086.3.3 0 0 0-.308.297.305.305 0 0 0 .285.308m.68-.109c.284-.102.515-.32.69-.563a.317.317 0 0 0-.07-.441.32.32 0 0 0-.445.07v.004c-.101.14-.226.282-.394.348a.31.31 0 0 0-.176.402.31.31 0 0 0 .394.18m.69-.563c.192-.265.325-.57.387-.894a.327.327 0 0 0-.257-.379.32.32 0 0 0-.38.258q-.002.001-.003.008c-.04.23-.13.449-.262.64a.32.32 0 0 0 .074.442c.141.097.34.066.442-.075m-.308-1.496c.086.145.082.328.055.489a.326.326 0 0 0 .64.113c.06-.313.047-.64-.101-.93a.34.34 0 0 0-.457-.144.337.337 0 0 0-.149.457zm-.254-.039c.074-.011.203-.039.254.04a.339.339 0 0 0 .594-.329c-.184-.36-.574-.472-.953-.43a.364.364 0 1 0 .086.723q.006-.005.02-.004m-.71.496c.183-.207.421-.445.71-.496a.364.364 0 0 0-.105-.718c-.469.054-.864.363-1.172.699a.383.383 0 1 0 .562.523c0-.004.004-.008.004-.008m-.759 1.172c.2-.422.45-.82.758-1.172a.384.384 0 0 0-.566-.515c-.371.398-.672.86-.91 1.344a.397.397 0 0 0 .715.352c0-.005 0-.005.003-.009m-.402 1.36c.059-.47.2-.93.402-1.36a.398.398 0 0 0-.719-.344 5.2 5.2 0 0 0-.484 1.606.404.404 0 0 0 .801.098m-.582 1.359c.11.195.356.262.55.148a.4.4 0 0 0 .15-.546c-.165-.286-.157-.645-.118-.961a.404.404 0 0 0-.8-.098c-.063.492-.036 1.02.218 1.457m0 0c.227.395.602.664 1.047.75a.4.4 0 0 0 .465-.316.4.4 0 0 0-.309-.461.76.76 0 0 1-.504-.371.404.404 0 0 0-.55-.153.407.407 0 0 0-.149.551m1.043.75c.43.082.856-.125 1.2-.367.48-.336.89-.778 1.273-1.227a.24.24 0 0 0-.028-.34.25.25 0 0 0-.316.004c-.402.356-.824.707-1.3.961-.188.102-.446.239-.669.192a.39.39 0 0 0-.468.304.39.39 0 0 0 .304.47c0 .003.004.003.004.003M41.563 21.705c.227-.082.398-.273.531-.468.2-.285.336-.61.457-.934a.167.167 0 0 0-.097-.219.173.173 0 0 0-.223.098v.008c-.102.3-.219.605-.395.875-.09.14-.21.3-.378.36a.15.15 0 0 0-.086.194.147.147 0 0 0 .191.086m.988-1.398c.149-.379.297-.773.348-1.18a.21.21 0 0 0-.184-.23.206.206 0 0 0-.23.18v.015c-.02.375-.14.746-.254 1.098-.031.09.02.187.11.215a.167.167 0 0 0 .21-.098m-.16-1.59c.102.086.098.258.094.375a.206.206 0 0 0 .195.219.21.21 0 0 0 .219-.184c.031-.261.008-.55-.18-.754a.236.236 0 0 0-.336-.011.236.236 0 0 0-.011.336zm-.238.063c.05-.032.18-.114.238-.063a.24.24 0 0 0 .336-.027.24.24 0 0 0-.008-.317c-.218-.234-.55-.195-.816-.074a.27.27 0 0 0-.129.36.27.27 0 0 0 .36.128zm-.617.902a4.3 4.3 0 0 1 .351-.629c.074-.101.156-.21.266-.273a.27.27 0 0 0 .098-.371.27.27 0 0 0-.348-.11c-.434.203-.703.711-.91 1.117a.303.303 0 0 0 .539.278q.002-.006.004-.012m-.61 1.887a8.7 8.7 0 0 1 .61-1.887.3.3 0 0 0-.145-.402.306.306 0 0 0-.398.136 9 9 0 0 0-.715 2.004c-.043.18.066.36.246.403.18.039.355-.07.398-.246 0-.004.004-.004.004-.008m-.261 2c.02-.676.117-1.344.261-2a.334.334 0 0 0-.254-.395.33.33 0 0 0-.394.246 11 11 0 0 0-.313 2.121.35.35 0 1 0 .7.031zm-.348 1.601a.367.367 0 0 0 .598-.43q-.004 0-.008-.007c-.238-.317-.25-.785-.242-1.164a.35.35 0 0 0-.34-.364.35.35 0 0 0-.36.336c-.023.551.02 1.164.352 1.63m0 0c.293.407.762.59 1.25.453a.37.37 0 0 0 .258-.46.37.37 0 0 0-.461-.258c-.192.05-.336-.016-.457-.172a.366.366 0 0 0-.59.437m1.25.453c.52-.144.879-.578 1.125-1.035a.364.364 0 0 0-.149-.492.365.365 0 0 0-.484.14c-.156.27-.375.579-.695.669a.373.373 0 1 0 .203.718m1.125-1.035a6 6 0 0 0 .574-1.68.337.337 0 0 0-.273-.394.337.337 0 0 0-.395.266 5 5 0 0 1-.539 1.457.36.36 0 0 0 .133.492c.172.101.394.039.492-.133.004-.004.004-.008.008-.008m.574-1.68c.106-.574.152-1.16.106-1.742a.34.34 0 0 0-.36-.308.34.34 0 0 0-.308.36c.043.523 0 1.05-.106 1.562a.34.34 0 0 0 .266.402.345.345 0 0 0 .402-.266zm-.851-2.78c.195.324.261.718.289 1.09.015.183.18.32.363.308a.336.336 0 0 0 .305-.36c-.04-.476-.13-.972-.375-1.386a.343.343 0 0 0-.465-.121.34.34 0 0 0-.117.464zm-.317-.38c.04.012.074.055.102.082.086.086.152.192.215.297.097.16.304.211.464.114.16-.098.211-.301.118-.461-.16-.274-.375-.578-.692-.68a.336.336 0 0 0-.426.223.336.336 0 0 0 .22.425m.121.016a.34.34 0 0 0 .086-.664c-.351-.113-.656.113-.726.46a.34.34 0 0 0 .265.4.34.34 0 0 0 .375-.196m-.082 1.117c.082.09.219.098.309.02a.22.22 0 0 0 .05-.258 3 3 0 0 1-.234-.61c-.023-.105-.047-.222-.023-.331a.334.334 0 0 0-.254-.403.334.334 0 0 0-.402.254c-.004.004-.004.004-.004.008-.102.496.25.973.558 1.32M43.551 20.569c.39-.192.692-.586.95-.918a.167.167 0 0 0-.028-.235.166.166 0 0 0-.23.028q-.007.006-.008.011a4.4 4.4 0 0 1-.45.59c-.1.11-.21.223-.347.29a.13.13 0 0 0-.059.171c.032.067.11.094.172.063m.95-.918c.097-.121.199-.25.32-.348a.224.224 0 0 0 .172-.262.22.22 0 0 0-.262-.172l-.004.004c-.11.024-.183.125-.246.211-.09.121-.168.246-.25.375a.167.167 0 0 0 .05.227c.071.047.165.031.22-.035m.109-.422c.031.113.047.234.062.355a.252.252 0 1 0 .5-.066v-.016c-.027-.129-.054-.261-.101-.383-.055-.144-.172-.289-.344-.246a.22.22 0 0 0-.117.356m.062.355c.051.395.082.797.114 1.196a.276.276 0 1 0 .55-.043v-.004c-.043-.41-.09-.824-.164-1.23a.253.253 0 0 0-.296-.2.25.25 0 0 0-.204.281m.114 1.196q.058.743.132 1.48a.29.29 0 1 0 .578-.055v-.007a62 62 0 0 1-.16-1.465.275.275 0 0 0-.3-.246.274.274 0 0 0-.25.293m.132 1.48c.04.414.086.824.153 1.234.023.165.18.278.344.25a.3.3 0 0 0 .25-.343v-.004c-.07-.399-.122-.797-.168-1.2a.29.29 0 0 0-.579.063m.153 1.234c.031.208.055.418.11.622a.311.311 0 0 0 .602-.16l-.013-.032c-.059-.156-.074-.36-.105-.527a.301.301 0 0 0-.594.097m.11.622c.01.039.023.078.03.117a.318.318 0 0 0 .614-.164l-.012-.032q-.018-.057-.043-.113a.315.315 0 0 0-.402-.18.314.314 0 0 0-.188.372m.03.117c.032.11.114.199.223.23a.2.2 0 0 0 .07.012q.04.001.075-.004a.32.32 0 0 0 .261-.309.316.316 0 0 0-.3-.332.32.32 0 0 0-.227.079h.004q-.006 0-.012.007l-.012.012a.33.33 0 0 0-.082.305m.63-.07q.006-.075.007-.145a.32.32 0 0 0-.305-.332.32.32 0 0 0-.335.305v.151a.313.313 0 0 0 .312.321.313.313 0 0 0 .32-.3m-.782-1.454q.06.469.113.938c.012.113.036.246.036.355 0 .176.14.32.316.325a.323.323 0 0 0 .324-.31c.008-.144-.015-.296-.031-.44q-.047-.47-.102-.946a.335.335 0 0 0-.367-.289.33.33 0 0 0-.289.367m-.195-2.117c.031.707.105 1.414.195 2.117a.33.33 0 0 0 .367.29.335.335 0 0 0 .29-.368 28 28 0 0 1-.173-2.07.343.343 0 0 0-.351-.328.34.34 0 0 0-.328.355zm0 0a.34.34 0 0 0 .68-.031 13 13 0 0 1 .05-1.723.35.35 0 0 0-.312-.375.35.35 0 0 0-.375.313c-.059.601-.07 1.21-.043 1.816m.73-1.754a4 4 0 0 1 .125-.715c.055-.183.14-.332.227-.504a.345.345 0 0 0-.598-.344c-.289.438-.39.985-.441 1.5a.35.35 0 0 0 .312.376.35.35 0 0 0 .375-.313m.328-1.18c.106-.156.246-.351.438-.402a.344.344 0 0 0-.18-.664c-.363.098-.633.383-.832.684a.346.346 0 0 0 .098.48.34.34 0 0 0 .476-.097m.438-.402c.098-.027.168.02.23.094a.33.33 0 0 0 .47.035.33.33 0 0 0 .046-.457c-.227-.285-.57-.43-.926-.336a.35.35 0 0 0-.246.422c.05.184.238.29.422.242zm.23.094c.145.168.23.383.274.598a.315.315 0 0 0 .37.246.315.315 0 0 0 .247-.36 1.94 1.94 0 0 0-.375-.906.335.335 0 0 0-.469-.059.335.335 0 0 0-.054.47q0 .005.007.011m.274.598c.058.28.07.566.047.851a.31.31 0 0 0 .281.332.31.31 0 0 0 .336-.281v-.008c.02-.336.008-.676-.047-1.008a.31.31 0 0 0-.36-.257.314.314 0 0 0-.261.359q.005.006.004.012m.367 1.976c.164-.336.273-.703.297-1.082a.31.31 0 0 0-.29-.328.314.314 0 0 0-.327.285 2.2 2.2 0 0 1-.25.844.323.323 0 0 0 .14.43.323.323 0 0 0 .43-.141zm-.64.957c.257-.289.476-.61.64-.957a.314.314 0 0 0-.145-.422.32.32 0 0 0-.425.14 3.3 3.3 0 0 1-.555.79.33.33 0 0 0 .016.465c.132.125.34.12.464-.012zm-.708.645c.262-.18.493-.41.707-.645a.33.33 0 0 0-.484-.45c-.184.2-.379.392-.602.544a.333.333 0 0 0-.086.465.333.333 0 0 0 .465.086m-.558.27c.203-.024.394-.157.558-.27a.333.333 0 0 0 .086-.465.333.333 0 0 0-.465-.086c-.082.059-.183.14-.285.164a.33.33 0 0 0-.25.398.33.33 0 0 0 .356.258m0 0a.33.33 0 0 0 .297-.364.33.33 0 0 0-.145-.246.32.32 0 0 0-.414-.168.32.32 0 0 0-.191.254c-.032.277.144.55.453.523m.176-.493a.5.5 0 0 1 .207-.121.176.176 0 0 0 .097-.227.18.18 0 0 0-.133-.105 1 1 0 0 0-.449.008.49.49 0 0 0-.351.422.316.316 0 0 0 .629.058zM50.169 19.483c.253-.281.453-.61.628-.942a.17.17 0 0 0-.066-.23.17.17 0 0 0-.23.066q-.005.006-.004.012c-.149.313-.317.633-.551.89a.153.153 0 0 0 .011.215c.06.055.157.051.211-.011zm.628-.942q.136-.247.254-.5c.047-.109.094-.222.11-.34a.21.21 0 0 0-.184-.238.217.217 0 0 0-.238.184v.05c.008.067-.024.145-.043.208-.055.164-.13.324-.2.484a.167.167 0 0 0 .083.227.17.17 0 0 0 .218-.075m-.117-.726.094-.024c.066.098.2.125.297.059a.21.21 0 0 0 .09-.148.34.34 0 0 0-.204-.36.7.7 0 0 0-.394-.02.26.26 0 0 0-.207.297c.027.137.16.231.297.204q.017-.001.027-.008zm-.8.656c.152-.164.312-.324.492-.465a1 1 0 0 1 .308-.191.253.253 0 0 0-.117-.492c-.434.082-.805.449-1.102.742a.29.29 0 0 0-.004.414.295.295 0 0 0 .415.004q.001-.006.008-.012m-1.145 1.555c.336-.547.703-1.082 1.144-1.555a.29.29 0 0 0-.015-.41.29.29 0 0 0-.403.004c-.492.48-.906 1.039-1.277 1.613a.33.33 0 0 0 .098.453.324.324 0 0 0 .45-.097c0-.004.003-.004.003-.008zm-.95 1.996c.247-.695.567-1.367.95-1.996a.32.32 0 0 0-.11-.446.32.32 0 0 0-.44.098c-.427.66-.786 1.363-1.067 2.098a.355.355 0 0 0 .664.254q-.001-.007.004-.008zm-1.03 1.722a.376.376 0 0 0 .75-.074v-.008c-.067-.55.097-1.125.28-1.64a.356.356 0 0 0-.668-.246c-.234.617-.425 1.297-.363 1.969m0 0c.054.555.34 1.06.894 1.235a.385.385 0 0 0 .23-.735c-.257-.078-.347-.332-.375-.582a.377.377 0 0 0-.75.082m.894 1.235a2.8 2.8 0 0 0 1.352.074.38.38 0 0 0 .308-.441.38.38 0 0 0-.437-.305c-.332.055-.672.04-.993-.063a.385.385 0 0 0-.23.734m1.352.074c.734-.129 1.375-.555 1.875-1.098a.223.223 0 0 0-.012-.316.224.224 0 0 0-.274-.027c-.527.328-1.105.59-1.718.695a.38.38 0 1 0 .125.75zM105.622 16.03c.164-.551.382-1.09.593-1.625a.18.18 0 0 0-.101-.235.183.183 0 0 0-.238.102v.008c-.188.554-.375 1.105-.543 1.664a.15.15 0 0 0 .101.187.155.155 0 0 0 .188-.101m.593-1.625q.171-.436.348-.871c.043-.102.086-.235.137-.32a.222.222 0 1 0-.38-.231.2.2 0 0 0-.019.035c-.156.418-.285.844-.425 1.262-.036.097.015.199.113.23a.18.18 0 0 0 .226-.105m.485-1.192.07-.117a.234.234 0 0 0-.402-.242.1.1 0 0 0-.016.039q-.029.066-.05.125a.225.225 0 0 0 .128.289.22.22 0 0 0 .27-.094m-.324-.105c.05.125.19.183.316.133a.25.25 0 0 0 .144-.282.36.36 0 0 0-.082-.156c-.125-.129-.343-.074-.402.09a.23.23 0 0 0 .024.215m-.016-.059.035.274a.256.256 0 0 0 .508-.067q-.002-.011-.004-.023c-.023-.09-.043-.184-.063-.274a.25.25 0 0 0-.293-.18.245.245 0 0 0-.183.27m.035.274c.047.351.031.718.035 1.074a.27.27 0 0 0 .278.27.275.275 0 0 0 .273-.278v-.004q-.012-.369-.035-.738c-.008-.137-.016-.281-.047-.414a.26.26 0 0 0-.309-.192.26.26 0 0 0-.195.282m.61 3.07a57 57 0 0 0-.024-2.008.273.273 0 0 0-.285-.266.274.274 0 0 0-.266.278c.008.66 0 1.324-.011 1.988a.29.29 0 0 0 .289.297.29.29 0 0 0 .297-.285zm-.102 2.184c.066-.727.101-1.458.101-2.184a.293.293 0 1 0-.585-.008c-.012.711-.055 1.426-.13 2.133a.308.308 0 0 0 .613.063zm-.246 1.898c.113-.629.187-1.262.246-1.898a.306.306 0 0 0-.277-.333.31.31 0 0 0-.336.274c-.063.617-.141 1.23-.262 1.84a.325.325 0 0 0 .254.375.325.325 0 0 0 .375-.254zm-.266 1.168c.133-.375.196-.777.266-1.168a.32.32 0 0 0-.63-.117c-.07.355-.132.722-.253 1.066a.33.33 0 0 0 .2.418.33.33 0 0 0 .417-.2m-.746.16a.33.33 0 0 0 .164.274q.053.032.113.039a.3.3 0 0 0 .11 0c.23-.043.293-.286.36-.473a.33.33 0 0 0-.2-.418.33.33 0 0 0-.418.2q-.025.076-.055.148a.3.3 0 0 0-.074.23m-.02-.316q.008.157.02.316c.008.18.164.316.344.305a.32.32 0 0 0 .305-.344v-.004l-.024-.316a.324.324 0 0 0-.347-.301.325.325 0 0 0-.297.344m0 0a.323.323 0 1 0 .645-.04v-.003c-.02-.254.004-.516.024-.77a.31.31 0 0 0-.29-.332.314.314 0 0 0-.332.277c-.03.286-.066.579-.046.868m.669-.813c.027-.39.035-.785.03-1.176a.295.295 0 0 0-.296-.289.293.293 0 0 0-.29.29c-.003.374-.023.75-.066 1.12a.31.31 0 0 0 .274.34.31.31 0 0 0 .344-.273c0-.004.004-.008.004-.012m-.704-2.058c.118.277.153.586.149.882a.293.293 0 1 0 .586.004v-.004a2.9 2.9 0 0 0-.207-1.109.287.287 0 1 0-.528.227m-.32-.29c.16.024.258.149.32.29a.29.29 0 0 0 .38.152.29.29 0 0 0 .148-.379c-.14-.324-.395-.582-.75-.652a.295.295 0 0 0-.352.234c-.035.16.07.32.23.352q.013.005.024.004m-.625.31c.156-.138.395-.34.625-.31a.299.299 0 0 0 .098-.59c-.418-.085-.824.15-1.137.407a.323.323 0 0 0 .406.5q.007-.004.008-.008zm-.797.976c.215-.364.48-.7.797-.977a.322.322 0 0 0-.414-.492 4.4 4.4 0 0 0-.965 1.113.34.34 0 0 0 .11.473c.16.098.37.047.468-.113.004 0 .004-.004.004-.004m-.422 1.015c.07-.363.239-.703.422-1.02v.005a.34.34 0 0 0-.12-.47.34.34 0 0 0-.462.114c-.234.38-.437.79-.531 1.227a.353.353 0 1 0 .691.148zm-.68.903a.356.356 0 0 0 .454.234.36.36 0 0 0 .234-.45c-.07-.222-.05-.464-.008-.687a.355.355 0 0 0-.277-.418.355.355 0 0 0-.414.274c-.074.344-.094.707.012 1.047zm0 0c.106.34.352.601.677.738a.356.356 0 0 0 .281-.652.47.47 0 0 1-.27-.301.36.36 0 0 0-.687.215m.677.738c.28.121.585.18.894.18a.35.35 0 0 0 .348-.344.35.35 0 0 0-.336-.348 1.7 1.7 0 0 1-.625-.14.357.357 0 0 0-.29.652zm.894.18c.316 0 .629-.07.914-.211a.327.327 0 0 0 .152-.438.33.33 0 0 0-.421-.156c-.2.082-.414.121-.633.113a.345.345 0 0 0-.023.691zm.914-.211c.484-.23.863-.649 1.172-1.082a.19.19 0 0 0-.047-.262.19.19 0 0 0-.226.004c-.36.289-.743.562-1.168.746a.326.326 0 0 0-.172.43c.07.164.261.242.43.171q.005-.003.011-.007M106.993 20.795c.363.035.738.04 1.101-.027a.187.187 0 1 0-.07-.367s-.004 0-.008.004c-.324.078-.664.09-1 .07a.16.16 0 0 0-.172.152.16.16 0 0 0 .149.168zm1.097-.027c.282-.047.547-.164.797-.297a.21.21 0 0 0 .086-.285.206.206 0 0 0-.281-.086q-.006.002-.012.004c-.207.125-.43.238-.668.3a.187.187 0 0 0-.133.227.186.186 0 0 0 .211.137m.797-.297c.352-.184.672-.434.965-.7a.234.234 0 1 0-.313-.348l-.003.005c-.262.25-.543.492-.856.676a.214.214 0 0 0-.074.289c.059.094.18.129.281.078m.965-.7c.336-.304.633-.652.871-1.038a.255.255 0 0 0-.086-.352.25.25 0 0 0-.347.086q-.004.001-.008.008a4.2 4.2 0 0 1-.746.953.235.235 0 0 0-.008.332c.085.09.23.094.324.012zm.871-1.038c.188-.309.367-.656.39-1.028a.277.277 0 0 0-.26-.296.277.277 0 0 0-.298.261v.02c0 .277-.14.55-.273.785a.26.26 0 0 0 .097.348c.122.066.27.027.344-.09m-.297-1.23c.098.03.125.09.13.187 0 .156.128.281.28.277.149 0 .27-.113.278-.262.023-.347-.149-.656-.477-.793a.313.313 0 1 0-.242.579q.016.01.031.011m-.539.163c.145-.093.36-.214.54-.164a.31.31 0 0 0 .39-.21.313.313 0 0 0-.18-.38c-.363-.152-.77-.035-1.101.141a.354.354 0 1 0 .352.613m-.785.754a2.8 2.8 0 0 1 .785-.754.36.36 0 0 0 .114-.488.355.355 0 0 0-.465-.125c-.41.219-.754.543-1.035.91a.374.374 0 0 0 .066.528.38.38 0 0 0 .531-.067s0-.004.004-.004m-.644 1.02c.183-.36.402-.7.644-1.02a.375.375 0 0 0-.078-.527.373.373 0 0 0-.523.07 7.2 7.2 0 0 0-.727 1.121.39.39 0 0 0 .164.524.385.385 0 0 0 .52-.168m-.282.824c.04-.289.153-.566.282-.824a.384.384 0 0 0-.168-.52.38.38 0 0 0-.516.164c-.176.34-.316.7-.367 1.078a.389.389 0 0 0 .77.102m-.347.902a.38.38 0 0 0 .535-.105.384.384 0 0 0-.102-.531c-.09-.063-.101-.16-.086-.266a.389.389 0 1 0-.77-.102c-.054.395.087.778.423 1.004m0 0c.3.203.664.282 1.02.29a.36.36 0 0 0 .374-.352.366.366 0 0 0-.324-.371c-.219-.024-.45-.074-.637-.203a.383.383 0 0 0-.535.097.39.39 0 0 0 .098.54zm1.015.29c.367.015.73-.102 1.063-.243a8 8 0 0 0 1.285-.73.203.203 0 0 0-.195-.356 9 9 0 0 1-1.297.496c-.258.07-.535.137-.805.11a.364.364 0 0 0-.07.723zM114.325 15.202c.218.195.14.593.078.835a.156.156 0 0 0 .113.184c.082.02.16-.031.18-.113.09-.367.148-.84-.13-1.149a.17.17 0 0 0-.241-.011.17.17 0 0 0-.012.242zm-.457-.165c.164.016.336.059.46.168.07.059.18.051.243-.02a.17.17 0 0 0 0-.222 1.16 1.16 0 0 0-.633-.355.22.22 0 0 0-.266.16.22.22 0 0 0 .164.266.1.1 0 0 0 .032.003m-.653.047q.323-.07.653-.047a.22.22 0 0 0 .238-.199.22.22 0 0 0-.168-.23 2.4 2.4 0 0 0-.809-.047.267.267 0 0 0-.234.293c.016.144.145.25.293.234q.011-.002.027-.004m-.507.227c.144-.117.324-.188.507-.227a.266.266 0 0 0-.086-.523 1.7 1.7 0 0 0-.777.273.3.3 0 0 0-.074.414c.09.137.277.168.41.079.008-.004.012-.012.02-.016m-.258.344a.8.8 0 0 1 .258-.344.3.3 0 0 0 .046-.418.3.3 0 0 0-.402-.059c-.21.149-.39.344-.496.582a.323.323 0 0 0 .168.422c.16.07.348-.004.418-.168q.004-.008.008-.015zm-.711.566a.337.337 0 0 0 .672-.043v-.016c-.02-.168-.02-.347.039-.507a.323.323 0 0 0-.192-.41.327.327 0 0 0-.402.171 1.8 1.8 0 0 0-.117.805m0 0c.015.223.094.445.176.652.12.313.265.618.414.918.09.172.297.243.468.157a.35.35 0 0 0 .157-.47 11 11 0 0 1-.403-.855c-.058-.148-.125-.304-.14-.46a.335.335 0 0 0-.371-.297.34.34 0 0 0-.301.355m.59 1.57c.261.52.527 1.055.691 1.618a.35.35 0 0 0 .438.234.35.35 0 0 0 .238-.434c-.18-.601-.461-1.175-.742-1.73a.347.347 0 0 0-.47-.152.346.346 0 0 0-.155.464m.691 1.618c.094.32.18.648.211.984.016.187.18.324.367.305a.334.334 0 0 0 .305-.344c-.008-.39-.098-.774-.207-1.145a.35.35 0 0 0-.438-.238.35.35 0 0 0-.238.438m.559 2.09c.191-.352.336-.743.324-1.145a.335.335 0 0 0-.348-.328.34.34 0 0 0-.328.347q-.001.007.004.02c.023.281-.086.562-.21.809a.32.32 0 0 0 .14.425c.148.075.336.02.418-.129m-.828.867c.367-.184.632-.516.828-.868a.32.32 0 0 0-.125-.43.32.32 0 0 0-.43.126c0 .004 0 .004-.004.008-.125.25-.297.5-.547.636a.3.3 0 0 0-.117.406c.074.141.25.196.394.122m-.915.12c.31.106.637.024.915-.12a.296.296 0 0 0 .132-.399.3.3 0 0 0-.402-.133c-.004.004-.004.004-.008.004-.129.074-.3.149-.453.102a.289.289 0 0 0-.184.547zm-.554-.656c.07.297.258.555.554.657a.29.29 0 0 0 .368-.18.29.29 0 0 0-.176-.367h-.008c-.11-.035-.164-.14-.192-.246a.28.28 0 0 0-.343-.203.283.283 0 0 0-.203.34zm0 0a.277.277 0 0 0 .34.207.283.283 0 0 0 .21-.34q-.002 0-.003-.003c-.098-.395.097-.852.257-1.203a.17.17 0 0 0-.086-.227.17.17 0 0 0-.207.05c-.32.419-.644.97-.511 1.516M115.645 14.905q.04-.283.086-.559a.18.18 0 0 0-.145-.2.175.175 0 0 0-.195.145v.008q-.03.282-.066.563a.165.165 0 0 0 .144.18.16.16 0 0 0 .176-.137m-.21-.473a.174.174 0 0 0 .245.02.17.17 0 0 0 .055-.176.176.176 0 0 0-.2-.14.2.2 0 0 0-.054.019.1.1 0 0 0-.04.03c-.034.032-.046.071-.05.118a.16.16 0 0 0 .043.129m-.044-.113v.308c0 .117.098.215.215.215s.21-.098.21-.215c0-.015 0-.035-.003-.05-.027-.102-.05-.2-.078-.301a.17.17 0 0 0-.211-.125.175.175 0 0 0-.133.168m0 .308c0 .325.012.649.02.973a.273.273 0 0 0 .277.262.273.273 0 0 0 .262-.278q.001-.007-.004-.015c-.028-.332-.051-.672-.133-.992a.213.213 0 0 0-.422.05zm.02.973q.023.756.043 1.512c.004.164.14.297.308.289a.3.3 0 0 0 .293-.305v-.012a39 39 0 0 0-.11-1.515.26.26 0 0 0-.288-.242.27.27 0 0 0-.246.273m.043 1.512c.05 1.675.082 3.351.12 5.027a.21.21 0 0 0 .22.211.214.214 0 0 0 .21-.207c.032-1.063.059-2.121.067-3.184a30 30 0 0 0-.016-1.87.301.301 0 0 0-.601.023m0 0"/><path d="M113.758 19.358c.262.035.528.074.79.11a.185.185 0 0 0 .21-.157.185.185 0 0 0-.14-.203c-.262-.063-.52-.121-.782-.184a.22.22 0 0 0-.27.16.226.226 0 0 0 .165.27.1.1 0 0 0 .027.004m-.218-.153a.3.3 0 0 0 .05.082c.047.051.106.067.172.07a.22.22 0 0 0 .235-.155.23.23 0 0 0-.145-.293.17.17 0 0 0-.11-.012c-.109.015-.206.097-.214.219a.4.4 0 0 0 .012.09m.226.153c.125.008.25.011.371.02a.27.27 0 0 0 .281-.259.267.267 0 0 0-.253-.28c-.016 0-.036 0-.051.003-.125.02-.246.035-.371.055a.232.232 0 0 0 .023.46m.371.02c.297.011.598-.009.89-.036a.31.31 0 0 0-.059-.617h-.01c-.282.039-.563.074-.844.117a.266.266 0 0 0-.227.305c.02.125.125.222.25.23m.89-.036a7.5 7.5 0 0 0 1.06-.183.32.32 0 0 0 .23-.387.32.32 0 0 0-.387-.23q-.48.12-.972.183a.311.311 0 0 0 .07.617m1.06-.183c.64-.16 1.234-.485 1.792-.832a.203.203 0 0 0 .063-.282.2.2 0 0 0-.246-.086c-.578.223-1.164.43-1.766.582a.32.32 0 0 0-.23.387.317.317 0 0 0 .386.23M28.665 12.952c.02.289.242.453.511.503a.164.164 0 0 0 .192-.136.164.164 0 0 0-.117-.188c-.083-.023-.18-.066-.168-.164a.215.215 0 0 0-.18-.242.21.21 0 0 0-.238.184c0 .011-.004.027 0 .043m0 .007a.212.212 0 0 0 .418.016c.011-.07.093-.113.152-.145a.25.25 0 0 0 .105-.336.244.244 0 0 0-.336-.105c-.007 0-.011.004-.02.008-.194.12-.347.324-.32.562m.57-.129c.18-.093.379-.152.574-.199a.264.264 0 0 0 .195-.32.264.264 0 0 0-.32-.195h-.008a2.7 2.7 0 0 0-.691.28.25.25 0 0 0-.078.345c.066.113.21.152.328.09m.574-.199c.277-.07.559-.113.844-.144a.274.274 0 0 0 .238-.301.275.275 0 0 0-.3-.238 6 6 0 0 0-.915.168.27.27 0 0 0-.187.328c.039.136.18.222.32.187m.844-.144q.48-.053.969-.047c.148 0 .27-.117.27-.266a.266.266 0 0 0-.263-.27 8 8 0 0 0-1.039.044.277.277 0 0 0-.238.3c.02.149.152.254.3.239m.969-.047c.593.008 1.183.187 1.734.394a.16.16 0 0 0 .207-.093.16.16 0 0 0-.066-.196c-.563-.336-1.2-.625-1.868-.64a.263.263 0 0 0-.27.261.266.266 0 0 0 .259.274zm0 0"/><path d="M31.915 12.194c.082-.032.191-.059.285-.086a.19.19 0 0 0 .125-.239.19.19 0 0 0-.184-.136c-.105 0-.219-.008-.328.004a.236.236 0 0 0 .043.469zm-.325-.23q.001.033.008.062c.02.093.098.164.188.183a.243.243 0 0 0 .293-.18.24.24 0 0 0-.184-.288c-.02-.008-.039-.008-.062-.008a.235.235 0 0 0-.238.219zm.196.245q.113.028.226.051a.267.267 0 0 0 .324-.203.27.27 0 0 0-.203-.324c-.02-.008-.047-.008-.07-.008q-.112.004-.23.008a.24.24 0 0 0-.23.25c0 .11.077.203.183.226m.226.051c.137.035.281.043.418.05.242.017.48.024.723.032a.33.33 0 0 0 .332-.312.323.323 0 0 0-.313-.332h-.02q-.544.01-1.089.027a.274.274 0 0 0-.262.281.27.27 0 0 0 .211.254m1.14.082c.434.012.876.027 1.31-.004a.346.346 0 1 0-.047-.691h-.004c-.418.031-.84.039-1.258.05a.322.322 0 0 0 0 .645m1.31-.004c.425-.027.847-.082 1.273-.133a.356.356 0 0 0-.09-.707h-.004c-.41.055-.82.114-1.23.149a.35.35 0 0 0-.32.375c.015.187.18.328.37.316m1.273-.133q.885-.112 1.77-.23a.367.367 0 1 0-.098-.727h-.004q-.878.128-1.762.25a.357.357 0 0 0 .094.707m1.77-.23a48 48 0 0 0 1.831-.293.375.375 0 0 0 .301-.434.38.38 0 0 0-.437-.3c-.598.117-1.196.214-1.797.3a.37.37 0 0 0-.309.414c.028.2.211.34.41.313m1.831-.293q.651-.117 1.301-.246a.383.383 0 0 0 .297-.445.38.38 0 0 0-.445-.293h-.004c-.426.09-.856.168-1.285.25a.373.373 0 0 0 .136.734m1.301-.246c.23-.047.465-.09.7-.121a.377.377 0 0 0 .32-.426.376.376 0 0 0-.426-.324q-.376.052-.746.133a.38.38 0 0 0-.293.445.38.38 0 0 0 .445.293m.7-.121c.433-.063.878-.07 1.316-.086a.379.379 0 0 0-.031-.758c-.461.02-.93.031-1.391.094a.373.373 0 0 0-.32.426.38.38 0 0 0 .425.324m1.316-.086q1.006-.047 2.012-.106a.38.38 0 0 0 .355-.402.375.375 0 0 0-.402-.355h-.004q-.996.064-1.992.105a.38.38 0 0 0-.364.395.38.38 0 0 0 .395.363m2.012-.106c1.175-.07 2.355-.12 3.535-.175a.389.389 0 1 0-.035-.778c-1.184.059-2.368.114-3.551.196a.377.377 0 0 0-.352.402c.012.21.192.367.403.355m3.535-.175c1.215-.055 2.433-.106 3.648-.184a.394.394 0 0 0 .367-.422.394.394 0 0 0-.418-.367c-1.21.082-2.421.137-3.632.195a.39.39 0 0 0-.371.41.386.386 0 0 0 .406.368m3.648-.184q1.06-.072 2.125-.125a.393.393 0 0 0-.04-.785c-.71.035-1.425.074-2.136.121a.393.393 0 0 0-.367.418.4.4 0 0 0 .418.371m2.125-.125a52 52 0 0 1 1.91-.062.393.393 0 0 0-.007-.786c-.649.008-1.297.032-1.942.063a.394.394 0 1 0 .04.785m1.91-.062c.575-.008 1.149-.016 1.72-.016a.39.39 0 0 0 .39-.39.39.39 0 0 0-.39-.391q-.864 0-1.727.011a.39.39 0 0 0-.387.399c0 .215.18.39.394.387m1.72-.016c.87 0 1.737.031 2.608.058a.39.39 0 0 0 .403-.375.393.393 0 0 0-.38-.406c-.874-.027-1.753-.058-2.632-.058a.39.39 0 0 0-.39.39c0 .215.175.39.39.39m2.608.058q1.83.064 3.657.083a.393.393 0 0 0 .398-.387.393.393 0 0 0-.39-.395q-1.818-.017-3.641-.082a.39.39 0 0 0-.402.38.387.387 0 0 0 .378.401m3.657.083q1.376.017 2.758.023a.395.395 0 0 0 0-.79c-.918 0-1.832-.007-2.75-.015a.39.39 0 0 0-.395.387c0 .215.172.395.387.395m2.758.023q1.37.002 2.746.016a.393.393 0 0 0 .398-.391.4.4 0 0 0-.394-.398c-.915-.008-1.832-.016-2.75-.016a.393.393 0 0 0-.395.394c0 .22.176.395.395.395m2.746.016c1.226.011 2.457.015 3.683.015a.393.393 0 0 0 .395-.394.396.396 0 0 0-.395-.395q-1.84 0-3.68-.015a.395.395 0 0 0-.003.789m3.683.015q1.418.007 2.836-.004a.396.396 0 0 0 .39-.398.39.39 0 0 0-.398-.39q-1.413.004-2.828.003a.393.393 0 0 0-.394.395c0 .218.175.394.394.394m2.836-.004a47 47 0 0 0 2.09-.07.396.396 0 0 0 .371-.414.397.397 0 0 0-.418-.371q-1.02.06-2.05.066c-.216 0-.391.18-.391.395a.4.4 0 0 0 .398.394m2.09-.07q1.089-.06 2.176-.125a.39.39 0 1 0-.043-.781c-.727.039-1.453.082-2.18.12a.39.39 0 0 0-.367.415.39.39 0 0 0 .414.371m2.176-.125c.742-.04 1.484-.078 2.226-.105a.392.392 0 0 0-.03-.786q-1.12.047-2.24.11a.39.39 0 1 0 .044.781m2.226-.105a121 121 0 0 1 2.059-.063.393.393 0 1 0-.016-.785 92 92 0 0 0-2.074.062.393.393 0 1 0 .031.786m2.059-.063c2.2-.043 4.398-.02 6.594-.02a.393.393 0 1 0 0-.785c-2.203 0-4.407-.023-6.61.02a.393.393 0 0 0 .016.785m6.594-.02q2.232.002 4.465-.007c.71-.004 1.425 0 2.136-.016a.4.4 0 0 0 .387-.402.393.393 0 0 0-.402-.383c-.707.016-1.418.012-2.125.016-1.489.003-2.973.003-4.461.007a.392.392 0 0 0 0 .785m6.601-.023q.966-.023 1.926-.062a.393.393 0 1 0-.031-.786q-.956.04-1.91.063a.393.393 0 0 0-.387.398c.008.22.187.391.402.387m1.926-.062c.996-.04 1.992-.11 2.984-.18a.394.394 0 0 0-.054-.785c-.989.07-1.973.14-2.961.18a.392.392 0 0 0 .031.785m2.984-.18q1.974-.141 3.954-.27a.393.393 0 0 0 .367-.414.393.393 0 0 0-.418-.367q-1.98.124-3.957.266a.393.393 0 1 0 .054.785m3.954-.27c.933-.058 1.87-.12 2.808-.156a.396.396 0 0 0 .375-.41.395.395 0 0 0-.406-.375c-.945.039-1.887.098-2.828.16a.39.39 0 1 0 .05.781m2.808-.156a49 49 0 0 1 1.695-.047.39.39 0 0 0 .383-.398.39.39 0 0 0-.394-.383q-.861.012-1.715.043a.395.395 0 0 0-.379.406.395.395 0 0 0 .406.38zm1.695-.047c2.403-.035 4.809-.012 7.215-.015a.388.388 0 0 0 0-.777c-2.41 0-4.82-.02-7.226.011a.39.39 0 0 0-.383.394.39.39 0 0 0 .394.387m7.215-.015c2.614 0 5.23.02 7.844-.024a.388.388 0 1 0-.012-.777c-2.61.039-5.222.023-7.832.023a.388.388 0 1 0 0 .777m7.844-.024c.934-.015 1.863-.027 2.797-.031a.39.39 0 0 0 .387-.39.386.386 0 0 0-.391-.387q-1.406.006-2.805.03a.388.388 0 1 0 .012.778m2.797-.031c3.426-.024 6.855-.008 10.285-.012a.385.385 0 0 0 .387-.387.39.39 0 0 0-.387-.39c-3.43.004-6.86-.008-10.289.012a.388.388 0 1 0 .004.777m10.285-.012q3.41.001 6.828-.004c.875 0 1.754.016 2.633-.011a.383.383 0 0 0 .375-.399.383.383 0 0 0-.398-.375c-.868.024-1.743.008-2.614.008q-3.411.005-6.824.004a.388.388 0 1 0 0 .777m9.461-.015q.545-.013 1.09-.043a.389.389 0 1 0-.043-.778q-.533.03-1.07.047a.383.383 0 0 0-.375.399.383.383 0 0 0 .398.375m1.09-.043c.637-.036 1.273-.051 1.91-.067a.39.39 0 0 0 .379-.398.39.39 0 0 0-.399-.38c-.644.016-1.289.032-1.933.067a.389.389 0 1 0 .043.778m1.91-.067c.773-.02 1.547-.035 2.316-.035a.388.388 0 1 0 0-.777c-.777 0-1.558.015-2.336.035a.39.39 0 0 0-.378.398.39.39 0 0 0 .398.38m2.316-.035c.77 0 1.536-.012 2.301-.023a.388.388 0 1 0-.012-.778c-.765.012-1.527.024-2.289.024a.388.388 0 0 0 0 .777m2.301-.023c.79-.012 1.574-.028 2.363-.047a.39.39 0 0 0 .383-.399.395.395 0 0 0-.402-.383q-1.177.03-2.356.051a.389.389 0 1 0 .012.777m2.363-.047q1.276-.029 2.551-.028c.215 0 .39-.175.39-.39a.39.39 0 0 0-.39-.387c-.855 0-1.715.004-2.57.023a.39.39 0 0 0-.379.403.39.39 0 0 0 .398.379m2.551-.028c.637 0 1.281-.02 1.918.032a.386.386 0 1 0 .067-.77c-.657-.059-1.329-.039-1.985-.039a.388.388 0 1 0 0 .777m1.918.032c.344.03.688.074 1.028.12a.384.384 0 0 0 .11-.762 20 20 0 0 0-1.071-.128.39.39 0 0 0-.422.352c-.02.21.14.398.351.418zm1.028.12q.563.082 1.125.145c.21.02.402-.133.425-.344a.39.39 0 0 0-.343-.425h-.004a35 35 0 0 1-1.094-.137.387.387 0 0 0-.438.328.38.38 0 0 0 .328.434m1.125.145q.461.048.93.067a.392.392 0 0 0 .023-.781h-.004a9 9 0 0 1-.871-.055.385.385 0 0 0-.422.343.39.39 0 0 0 .343.426zm.93.067c.109.004.155.054.187.156.07.207.289.316.492.25a.39.39 0 0 0 .25-.484c-.129-.418-.473-.696-.91-.704a.391.391 0 0 0-.02.781m.187.156c.129.387.242.781.351 1.172a.387.387 0 0 0 .746-.211c-.117-.399-.23-.801-.355-1.195a.387.387 0 0 0-.484-.258.39.39 0 0 0-.258.488zm.351 1.172q.187.655.39 1.3a.39.39 0 0 0 .49.254.39.39 0 0 0 .25-.488 40 40 0 0 1-.384-1.277.387.387 0 0 0-.746.21m.39 1.3q.171.532.317 1.063a.39.39 0 0 0 .75-.207 25 25 0 0 0-.328-1.09.39.39 0 0 0-.488-.25.384.384 0 0 0-.25.485m.317 1.063q.153.535.258 1.074c.043.211.25.348.461.309a.39.39 0 0 0 .305-.461 15 15 0 0 0-.274-1.129.39.39 0 0 0-.75.207m.258 1.074q.11.55.2 1.106c.035.21.234.36.449.324a.39.39 0 0 0 .324-.45 28 28 0 0 0-.207-1.132.39.39 0 0 0-.766.152m.2 1.106q.138.866.253 1.738c.031.211.23.363.446.332a.39.39 0 0 0 .332-.441 86 86 0 0 0-.258-1.754.396.396 0 0 0-.45-.324.396.396 0 0 0-.324.449m.253 1.738c.11.766.23 1.531.371 2.293a.39.39 0 0 0 .453.312.39.39 0 0 0 .317-.453 57 57 0 0 1-.363-2.261.394.394 0 0 0-.442-.336.4.4 0 0 0-.336.445m.371 2.293c.125.695.25 1.39.364 2.09a.39.39 0 0 0 .449.32.39.39 0 0 0 .324-.45 197 197 0 0 0-.367-2.1.391.391 0 1 0-.77.14m.364 2.09c.136.808.297 1.617.464 2.418a.391.391 0 0 0 .766-.156v-.004a55 55 0 0 1-.457-2.387.392.392 0 0 0-.773.129m.464 2.418c.125.605.239 1.219.403 1.816a.392.392 0 0 0 .754-.207c-.157-.582-.27-1.18-.39-1.77a.395.395 0 0 0-.466-.3.39.39 0 0 0-.3.46m.543 2.484c.22-.004.438-.086.56-.277.112-.18.108-.399.054-.598a.39.39 0 0 0-.766.117.39.39 0 0 0-.219.512c.059.149.207.25.371.246m-1.53.086c.507-.035 1.019-.078 1.53-.086a.393.393 0 0 0-.007-.785c-.524 0-1.051.047-1.578.086a.393.393 0 0 0 .055.785m-2.274.133a111 111 0 0 0 2.273-.133.393.393 0 1 0-.05-.785h-.005c-.75.05-1.503.098-2.257.133a.392.392 0 0 0 .039.785zm-2.219.09q1.112-.043 2.219-.09a.39.39 0 0 0 .37-.41.39.39 0 0 0-.405-.375h-.004q-1.102.053-2.207.09a.39.39 0 0 0-.375.406.39.39 0 0 0 .402.379m-2.293.074a449 449 0 0 0 2.293-.074.393.393 0 1 0-.027-.785q-1.145.042-2.29.074a.392.392 0 1 0 .02.785zm-2.262.047q1.131-.012 2.262-.047a.392.392 0 0 0-.023-.785q-1.123.036-2.246.043a.393.393 0 0 0-.387.398c0 .219.18.39.394.39m-4.359.012c1.453 0 2.906 0 4.36-.012a.393.393 0 0 0 .39-.399.396.396 0 0 0-.398-.39c-1.45.015-2.903.012-4.352.012a.393.393 0 0 0-.395.394c0 .219.176.395.395.395m-4.41.03c1.469-.038 2.941-.03 4.41-.03a.393.393 0 0 0 .394-.395.393.393 0 0 0-.394-.394c-1.477 0-2.953-.008-4.43.03a.39.39 0 0 0-.383.403c.004.219.184.39.403.387m-2.461.095q1.23-.065 2.46-.094a.394.394 0 0 0 .384-.406.393.393 0 0 0-.403-.383q-1.243.031-2.48.097a.393.393 0 0 0 .039.786m-2.805.164q1.403-.089 2.805-.164a.39.39 0 0 0 .375-.41.396.396 0 0 0-.414-.376 340 340 0 0 0-2.817.164.4.4 0 0 0-.367.418.396.396 0 0 0 .418.368m-3.055.199q1.528-.105 3.055-.2a.394.394 0 0 0-.05-.785q-1.53.099-3.06.204a.39.39 0 0 0-.362.418.393.393 0 0 0 .417.363m-4.644.328a618 618 0 0 1 4.644-.328.393.393 0 0 0 .364-.418.39.39 0 0 0-.418-.363c-1.547.101-3.098.218-4.645.332a.39.39 0 0 0 .055.777m-4.531.324q2.268-.159 4.531-.324a.39.39 0 0 0 .36-.418.384.384 0 0 0-.415-.36c-1.508.114-3.02.223-4.527.329a.386.386 0 0 0-.36.414c.016.21.2.37.41.36m-4.207.278q2.103-.136 4.207-.278a.386.386 0 0 0 .36-.414.383.383 0 0 0-.411-.36q-2.103.145-4.207.278a.39.39 0 0 0-.363.414c.015.211.199.375.414.36m-5.52.382q2.76-.2 5.52-.382a.383.383 0 0 0 .36-.41.386.386 0 0 0-.411-.364q-2.765.177-5.524.379a.39.39 0 1 0 .055.777m-4.273.309q2.139-.148 4.273-.309a.39.39 0 0 0-.055-.777q-2.136.157-4.273.309a.384.384 0 0 0-.36.414c.012.215.2.379.415.363m-4.575.3q2.288-.144 4.575-.3a.39.39 0 1 0-.055-.777q-2.285.156-4.57.3a.387.387 0 0 0-.364.414c.012.215.2.38.414.364m-4.59.286c1.528-.09 3.06-.188 4.59-.285a.387.387 0 0 0 .364-.414.387.387 0 0 0-.414-.364c-1.528.098-3.059.196-4.586.286a.393.393 0 0 0-.367.414c.011.214.199.379.414.363m-3.038.187c1.011-.066 2.023-.125 3.039-.187a.383.383 0 0 0 .363-.41.39.39 0 0 0-.41-.367q-1.522.087-3.043.187a.39.39 0 1 0 .05.777m-2.977.172q1.488-.077 2.977-.172a.387.387 0 0 0 .363-.414.39.39 0 0 0-.414-.363q-1.483.095-2.965.172a.39.39 0 0 0-.367.41.383.383 0 0 0 .406.367m-2.879.137q1.442-.06 2.879-.137a.386.386 0 0 0 .371-.406.39.39 0 0 0-.41-.371q-1.435.075-2.871.133a.39.39 0 0 0-.375.406.387.387 0 0 0 .406.375m-6.648.195c2.218-.058 4.433-.101 6.648-.195a.387.387 0 0 0 .375-.406.39.39 0 0 0-.406-.375c-2.211.09-4.422.133-6.637.191a.393.393 0 0 0-.383.402.4.4 0 0 0 .403.383m-6.559.188c2.184-.09 4.375-.133 6.559-.188a.393.393 0 0 0 .382-.402.39.39 0 0 0-.402-.383c-2.191.055-4.383.094-6.574.188a.392.392 0 1 0 .035.785m-2.734.129q1.364-.076 2.734-.13a.396.396 0 0 0 .375-.41.39.39 0 0 0-.406-.374h-.004c-.914.035-1.828.082-2.742.132a.393.393 0 0 0-.371.415c.011.214.199.378.414.367m-2.79.175q1.395-.1 2.79-.175a.39.39 0 0 0 .367-.41.39.39 0 0 0-.41-.372c-.934.055-1.867.11-2.801.176a.393.393 0 0 0-.363.418.395.395 0 0 0 .418.363m-2.788.176q1.394-.081 2.789-.176a.393.393 0 0 0 .363-.417.393.393 0 0 0-.418-.364q-1.388.096-2.781.18a.383.383 0 0 0-.364.41.39.39 0 0 0 .41.367m-2.739.14q1.372-.057 2.739-.14a.389.389 0 1 0-.047-.777q-1.361.082-2.727.14a.39.39 0 0 0-.367.407.383.383 0 0 0 .402.37m-2.601.11q1.3-.051 2.601-.11a.386.386 0 0 0 .371-.405.39.39 0 0 0-.402-.371h-.004c-.863.039-1.73.078-2.598.109a.395.395 0 0 0-.375.406.39.39 0 0 0 .407.371m-2.496.078q1.248-.03 2.496-.078a.389.389 0 0 0-.031-.777c-.829.035-1.653.059-2.481.078a.386.386 0 0 0-.379.398c.004.215.18.383.395.38m-2.47.043c.825-.011 1.645-.027 2.47-.043a.39.39 0 0 0 .382-.398.39.39 0 0 0-.398-.379c-.82.02-1.644.031-2.465.043a.388.388 0 1 0 .012.777m-9.026.02c3.007 0 6.02.023 9.027-.02a.39.39 0 0 0 .383-.394.39.39 0 0 0-.395-.383c-3.004.043-6.012.02-9.015.02a.39.39 0 0 0-.387.39c0 .215.176.387.387.387m-8.747-.008c2.915.027 5.833.008 8.747.008a.388.388 0 1 0 0-.777c-2.914 0-5.829.015-8.743-.004a.39.39 0 0 0-.39.386c0 .211.172.387.386.387m-1.996-.031q.996.024 1.996.031a.388.388 0 0 0 .004-.773c-.66-.004-1.324-.012-1.984-.028a.384.384 0 0 0-.39.375.38.38 0 0 0 .374.395m-2.988-.04c.996.009 1.992.016 2.988.04a.39.39 0 0 0 .395-.375.385.385 0 0 0-.379-.395c-1-.023-1.996-.031-2.996-.039a.384.384 0 1 0-.008.77m-3-.019q1.5.001 3 .02c.211 0 .387-.168.387-.383a.38.38 0 0 0-.38-.387q-1.503-.018-3.007-.02a.383.383 0 0 0-.383.384c0 .214.172.382.383.386m-1.894-.011c.632.007 1.261.007 1.894.011a.384.384 0 1 0 .004-.77h-.004q-.943 0-1.89-.003a.38.38 0 0 0-.383.379.38.38 0 0 0 .379.383m-1.66-.04a47 47 0 0 0 1.66.04.38.38 0 0 0 .382-.38.374.374 0 0 0-.375-.382h-.004a46 46 0 0 1-1.632-.04.38.38 0 0 0-.395.368.375.375 0 0 0 .363.394m-2.118-.132c.707.054 1.41.105 2.117.132.211.008.391-.156.399-.363a.384.384 0 0 0-.367-.398c-.7-.028-1.395-.078-2.09-.133a.381.381 0 1 0-.059.762m-2.39-.184q1.194.089 2.39.184a.381.381 0 1 0 .059-.762q-1.196-.095-2.39-.184a.38.38 0 0 0-.411.352c-.016.207.14.39.352.41m-1.848-.207c.61.098 1.23.156 1.848.207a.381.381 0 1 0 .059-.762 23 23 0 0 1-1.79-.199.382.382 0 1 0-.117.754m-1.602-.312a25 25 0 0 0 1.602.312.377.377 0 0 0 .434-.316.376.376 0 0 0-.317-.438 23 23 0 0 1-1.547-.3.381.381 0 1 0-.172.742m-1.172-.243c.395.063.786.157 1.172.243a.381.381 0 0 0 .172-.743c-.406-.093-.812-.187-1.222-.254a.38.38 0 0 0-.438.317.38.38 0 0 0 .316.437m-.57-.074q.289.026.57.074c.211.035.407-.109.442-.316a.384.384 0 0 0-.32-.438 9 9 0 0 0-.625-.086.386.386 0 0 0-.422.348.39.39 0 0 0 .351.418zm0 0a.385.385 0 0 0 .219-.719 1.1 1.1 0 0 1-.012-.257.395.395 0 0 0-.379-.403.395.395 0 0 0-.402.38v.003c-.004.195.004.398.074.586.078.219.258.394.5.41m.207-.976c.016-.516.016-1.036.016-1.551a.393.393 0 1 0-.785 0q0 .763-.012 1.531a.391.391 0 0 0 .781.02m-.816-3.114c.043.52.05 1.04.047 1.563 0 .215.175.39.39.39a.39.39 0 0 0 .395-.39c0-.543-.008-1.086-.055-1.625a.39.39 0 0 0-.418-.36.396.396 0 0 0-.36.422m-.14-1.238q.093.616.14 1.238c.02.215.207.375.422.36a.39.39 0 0 0 .355-.422 18 18 0 0 0-.144-1.293.39.39 0 0 0-.773.113zm-.18-1.277c.054.425.117.851.18 1.277.03.21.23.36.444.328.211-.031.36-.23.329-.445-.063-.418-.121-.84-.176-1.258a.391.391 0 1 0-.778.098m-.141-1.29c.039.434.086.86.14 1.29a.395.395 0 0 0 .442.34.39.39 0 0 0 .336-.438 48 48 0 0 1-.137-1.262.397.397 0 0 0-.43-.355.39.39 0 0 0-.351.426m-.145-1.808c.043.602.086 1.207.145 1.809a.39.39 0 0 0 .426.355.393.393 0 0 0 .355-.426 69 69 0 0 1-.144-1.793.39.39 0 0 0-.418-.363.39.39 0 0 0-.364.418m-.152-2.246q.07 1.123.152 2.246a.393.393 0 0 0 .418.363.393.393 0 0 0 .364-.418q-.078-1.119-.149-2.238a.393.393 0 0 0-.785.047m-.082-1.61c.02.54.05 1.075.082 1.61.016.219.2.383.418.371a.4.4 0 0 0 .367-.418c-.031-.527-.066-1.059-.082-1.586a.393.393 0 0 0-.785.024m0 0a.39.39 0 0 0 .406.38.395.395 0 0 0 .38-.403c-.02-.488-.017-.973-.017-1.457a.387.387 0 0 0-.386-.394.39.39 0 0 0-.395.39c-.004.496-.004.992.012 1.485m.77-1.48c.003-.422-.004-.852.054-1.266a.39.39 0 0 0-.773-.11c-.067.454-.063.915-.063 1.372a.39.39 0 0 0 .387.395.393.393 0 0 0 .395-.39m.054-1.266q.053-.409.137-.812a.387.387 0 0 0-.305-.457.393.393 0 0 0-.457.305q-.089.428-.148.855a.39.39 0 0 0 .773.11m.137-.812c.043-.223.098-.457.098-.684a.383.383 0 0 0-.766-.02c-.012.184-.059.372-.094.552a.39.39 0 0 0 .305.46c.21.04.414-.097.457-.308m-.024-.402c.106.015.207.043.31.07a.235.235 0 0 0 .296-.164.24.24 0 0 0-.082-.254c-.152-.117-.309-.242-.488-.316a.56.56 0 0 0-.348-.043.45.45 0 0 0-.332.41.38.38 0 0 0 .36.402.4.4 0 0 0 .284-.102zm0 0"/><path d="M62.551 14.166c.09-1.054.22-2.109.356-3.156a.23.23 0 0 0-.196-.254.225.225 0 0 0-.253.196v.003a55 55 0 0 0-.254 3.188c-.004.098.07.18.168.184a.173.173 0 0 0 .18-.16m.356-3.156c.062-.484.117-.973.21-1.453a.263.263 0 1 0-.515-.098q-.005.012-.004.024c-.043.492-.094.984-.14 1.476a.227.227 0 0 0 .203.246.23.23 0 0 0 .246-.195m.21-1.453.048-.254a.28.28 0 0 0-.22-.324.275.275 0 0 0-.32.219q-.004.017-.003.027l-.024.258a.263.263 0 0 0 .52.074m.06.121c-.005-.156.023-.344-.016-.496a.276.276 0 0 0-.535.012c0 .011-.004.023-.004.031a.07.07 0 0 0 0 .039c.004.125 0 .281 0 .414a.273.273 0 0 0 .273.277.28.28 0 0 0 .281-.277m.023 7.215-.024-7.215a.284.284 0 0 0-.28-.277.275.275 0 0 0-.274.277q-.013 3.608-.02 7.215c0 .168.133.3.297.3.168 0 .3-.132.3-.296zm-.149 8.969c.09-1.11.106-2.227.125-3.34.031-1.875.031-3.754.024-5.63a.3.3 0 0 0-.301-.3.303.303 0 0 0-.297.3c-.008 1.876-.016 3.747-.04 5.618-.015 1.106-.03 2.211-.081 3.317a.287.287 0 0 0 .27.3c.156.008.289-.11.3-.265m-.281 3.46.281-3.46a.284.284 0 0 0-.261-.305.28.28 0 0 0-.309.262v.008c-.055 1.148-.117 2.3-.246 3.445a.27.27 0 0 0 .238.297.27.27 0 0 0 .297-.239zm-.113 2.047c.011-.683.058-1.367.113-2.046a.269.269 0 0 0-.535-.051c-.078.691-.149 1.39-.156 2.09-.004.16.125.289.285.293.16 0 .293-.125.293-.286m-.489 1.25a.19.19 0 0 0 .227.141.2.2 0 0 0 .14-.137c.102-.406.118-.84.122-1.254a.286.286 0 0 0-.285-.292.29.29 0 0 0-.293.285c-.004.414-.004.847.09 1.257M46.778 35.791c.043.121.047.258.05.383.016.274.016.547.009.817a.183.183 0 0 0 .175.187c.098.004.18-.07.188-.168.023-.332.047-.668.035-1.004-.004-.183-.004-.441-.168-.562a.228.228 0 0 0-.29.352zm-.086.192a1 1 0 0 1 .2-.133.225.225 0 0 0 .265-.184.22.22 0 0 0-.082-.218c-.211-.168-.496-.008-.684.117a.257.257 0 0 0-.07.355.254.254 0 0 0 .355.07q.011 0 .016-.007m-.637.867c.172-.297.363-.652.637-.867a.26.26 0 0 0 .047-.364.26.26 0 0 0-.348-.054c-.355.234-.605.637-.828.988a.29.29 0 0 0 .09.399.294.294 0 0 0 .398-.09c0-.004.004-.008.004-.012m-.773 1.82c.207-.625.445-1.25.773-1.82a.283.283 0 0 0-.105-.39.29.29 0 0 0-.387.093c-.375.594-.648 1.25-.883 1.91a.313.313 0 0 0 .192.406.32.32 0 0 0 .41-.19zm-.524 2.38c.098-.806.27-1.606.524-2.38a.32.32 0 0 0-.203-.406.32.32 0 0 0-.399.2 12.5 12.5 0 0 0-.61 2.495.345.345 0 0 0 .294.391.343.343 0 0 0 .39-.293c0-.004.004-.004.004-.008m-.746 2.175a.362.362 0 1 0 .719-.102v-.004c-.105-.683-.059-1.386.027-2.07a.346.346 0 0 0-.3-.383.346.346 0 0 0-.387.293c-.106.746-.164 1.516-.059 2.266m0 0c.074.535.274 1.133.793 1.383.184.09.406.011.496-.172a.37.37 0 0 0-.172-.492c-.28-.137-.355-.555-.398-.825a.364.364 0 0 0-.719.105m.793 1.383c.426.207.903.187 1.336.027a.367.367 0 0 0-.25-.687c-.246.09-.52.113-.762-.004a.366.366 0 0 0-.492.172.366.366 0 0 0 .168.492m1.336.027c.531-.195.934-.625 1.235-1.09a.34.34 0 0 0-.102-.476.343.343 0 0 0-.469.09c-.23.324-.527.652-.914.789a.365.365 0 0 0 .246.687zm1.235-1.09c.32-.488.55-1.039.64-1.617a.316.316 0 0 0-.262-.355.313.313 0 0 0-.351.25 3.5 3.5 0 0 1-.598 1.336.344.344 0 1 0 .563.398q.007-.006.008-.012zm-.047-2.695c.168.285.132.66.074.973a.31.31 0 0 0 .246.363.31.31 0 0 0 .363-.246q.002-.006.004-.012c.07-.465.059-.976-.203-1.379a.286.286 0 0 0-.394-.086.28.28 0 0 0-.09.387zm-.582-.188c.222-.039.457-.02.582.188.078.137.254.18.39.098a.286.286 0 0 0 .098-.391c0-.004-.004-.008-.004-.008-.258-.398-.707-.527-1.156-.469a.29.29 0 0 0-.254.329c.02.164.168.277.328.257q.011.001.016-.004m-.993.56c.278-.267.61-.485.993-.56a.29.29 0 0 0 .238-.343.3.3 0 0 0-.328-.239c-.512.067-.973.329-1.348.672a.326.326 0 0 0-.016.457c.122.133.325.141.454.02zm-1 1.866c.16-.703.477-1.363 1-1.863a.32.32 0 0 0 .008-.457.32.32 0 0 0-.453-.012c-.633.59-.941 1.418-.98 2.274a.22.22 0 0 0 .207.226.22.22 0 0 0 .218-.168M106.618 36.362c.11.086.238.136.379.136a.15.15 0 0 0 .148-.152.15.15 0 0 0-.148-.148c-.051 0-.09-.032-.118-.07a.175.175 0 0 0-.246-.055.175.175 0 0 0-.054.246c.011.02.023.031.039.043m0 0a.18.18 0 0 0 .25-.028.17.17 0 0 0 .02-.187c-.016-.035-.005-.008-.005 0 0-.012.008-.024.012-.031a.7.7 0 0 1 .129-.204.22.22 0 0 0-.04-.304.22.22 0 0 0-.304.039q-.002.001-.004.008c-.137.195-.297.523-.059.707zm.406-.45c.394-.507.863-.964 1.305-1.433a.24.24 0 0 0-.008-.344.245.245 0 0 0-.344.012s-.004 0-.004.004q-.43.468-.848.953c-.156.18-.312.355-.449.55a.214.214 0 0 0 .05.301.22.22 0 0 0 .298-.043zm1.305-1.433c.504-.531 1.004-1.074 1.558-1.55a.27.27 0 0 0 .028-.38.27.27 0 0 0-.38-.027q-.001.005-.003.004c-.555.508-1.055 1.07-1.559 1.625a.24.24 0 0 0 .016.34c.097.09.25.082.34-.012zm1.558-1.55c.192-.165.418-.384.668-.458a.287.287 0 0 0-.16-.55q-.008.003-.016.007c-.324.117-.601.371-.847.598a.27.27 0 0 0-.02.379.27.27 0 0 0 .375.023m.617-.446q.024.058.036.12a.305.305 0 0 0 .355.243.305.305 0 0 0 .242-.355q.001-.006-.004-.012c-.039-.168-.105-.34-.234-.457a.51.51 0 0 0-.52-.094.287.287 0 0 0 .125.555m.61 1.465c.066-.477.133-.996.02-1.47a.305.305 0 0 0-.364-.23.307.307 0 0 0-.23.356c.074.406 0 .851-.067 1.25a.326.326 0 0 0 .27.371.33.33 0 0 0 .37-.27zm-.508 2a10 10 0 0 0 .508-2 .32.32 0 0 0-.278-.364.326.326 0 0 0-.363.27 10.2 10.2 0 0 1-.496 1.863.336.336 0 0 0 .2.43.34.34 0 0 0 .429-.2m-.898 2.07q.51-1.009.898-2.07a.335.335 0 0 0-.629-.23c-.25.683-.543 1.35-.871 2a.33.33 0 0 0 .148.448c.164.086.368.02.454-.148m-1.18 1.914c.45-.598.84-1.242 1.18-1.914a.336.336 0 0 0-.602-.3c-.32.632-.688 1.245-1.11 1.816a.334.334 0 0 0 .067.464c.148.11.355.079.465-.066m-1.078 1.18c.426-.313.761-.762 1.078-1.18a.33.33 0 0 0-.067-.465.33.33 0 0 0-.464.063v.004c-.278.375-.567.78-.934 1.07a.319.319 0 0 0 .387.508m-.844.191c.258.242.625-.031.844-.191a.323.323 0 0 0 .07-.446.32.32 0 0 0-.457-.062c-.078.062-.16.129-.25.18a.3.3 0 0 0-.305.293.3.3 0 0 0 .098.226m0 0a.297.297 0 0 0 .422-.016.3.3 0 0 0 .043-.359c-.004-.094.015-.191.031-.281a.295.295 0 0 0-.234-.34.29.29 0 0 0-.336.23c-.047.235-.13.579.074.766m.496-.656c.055-.305.145-.602.254-.887a.28.28 0 0 0-.164-.36.28.28 0 0 0-.356.153c-.128.32-.238.649-.304.984a.29.29 0 0 0 .23.34.29.29 0 0 0 .34-.226zm.254-.887c.098-.266.207-.527.348-.77a.275.275 0 0 0-.098-.378.27.27 0 0 0-.375.097c-.004.004-.004.008-.008.008-.145.27-.27.555-.387.836a.28.28 0 0 0 .516.215q.002-.007.004-.008zm.348-.77c.058-.097.129-.234.226-.292a.296.296 0 0 0 .094-.407.292.292 0 0 0-.434-.07c-.16.129-.27.32-.367.496a.276.276 0 0 0 .113.375c.13.07.293.027.368-.101m.164-.265a.31.31 0 0 0 .433-.086.31.31 0 0 0-.066-.422.51.51 0 0 0-.645.004.296.296 0 0 0-.043.414.29.29 0 0 0 .32.09m-.047-.035c.086.086.14.219.187.332.07.164.262.242.43.172a.324.324 0 0 0 .172-.43q.001-.007-.004-.008c-.086-.199-.2-.402-.371-.539a.316.316 0 0 0-.442.055.316.316 0 0 0 .028.418zm.187.332q.135.316.246.644a.335.335 0 0 0 .426.203.33.33 0 0 0 .203-.421 7 7 0 0 0-.277-.692.326.326 0 0 0-.434-.164.33.33 0 0 0-.164.43m.246.644c.078.215.145.438.196.66a.33.33 0 0 0 .644-.144 6 6 0 0 0-.21-.734.33.33 0 0 0-.423-.207.336.336 0 0 0-.207.425m.196.66c.058.239.105.477.152.715a.31.31 0 0 0 .363.254.316.316 0 0 0 .258-.347 8 8 0 0 0-.129-.766.33.33 0 0 0-.394-.254.33.33 0 0 0-.25.395zm.152.715c.043.246.098.493.168.73a.293.293 0 0 0 .36.196.293.293 0 0 0 .203-.34 7 7 0 0 1-.11-.68.32.32 0 0 0-.351-.273.31.31 0 0 0-.27.367m.168.73c.066.227.203.47.445.544a.24.24 0 0 0 .293-.16.24.24 0 0 0-.062-.239c-.074-.066-.094-.199-.113-.289a.29.29 0 0 0-.344-.222.286.286 0 0 0-.223.343q-.001.012.004.024m.43.536c.187.074.367-.031.492-.172.14-.16.246-.36.34-.55a.14.14 0 0 0-.059-.188.14.14 0 0 0-.18.047c-.101.148-.23.351-.398.437a.236.236 0 0 0-.227.414zM113.82 34.912c.188-.078.352-.203.505-.335a.165.165 0 0 0 .015-.23.16.16 0 0 0-.23-.013q-.001.002-.008.004a1.2 1.2 0 0 1-.399.297.154.154 0 0 0-.082.2.15.15 0 0 0 .2.077zm.505-.335c.136-.114.265-.243.386-.372a.194.194 0 0 0-.008-.27.195.195 0 0 0-.27.009l-.01.015a5 5 0 0 1-.321.383.165.165 0 0 0 .004.23.166.166 0 0 0 .219.004m.386-.372q.222-.239.418-.496a.22.22 0 0 0-.043-.308.22.22 0 0 0-.308.043q-.006.005-.012.015c-.105.172-.223.34-.344.5a.19.19 0 0 0 .036.266c.078.059.187.05.253-.02m.418-.496c.118-.156.235-.316.34-.476a.26.26 0 0 0-.07-.364.26.26 0 0 0-.363.075.1.1 0 0 0-.028.05 2.6 2.6 0 0 1-.242.465.22.22 0 0 0 .07.301.22.22 0 0 0 .293-.05m.34-.476c.047-.07.094-.145.145-.215a.294.294 0 0 0-.082-.402.29.29 0 0 0-.406.082c-.012.015-.02.039-.028.058a6 6 0 0 0-.09.238.26.26 0 0 0 .153.336.26.26 0 0 0 .308-.097zm.14-.207a.35.35 0 0 0 .056-.176.3.3 0 0 0-.137-.242.28.28 0 0 0-.2-.043.32.32 0 0 0-.218.152c-.09.137-.05.32.086.406.137.09.32.051.406-.086q.004-.005.008-.011zm-.343.59q.171-.296.344-.59a.294.294 0 0 0-.5-.309q-.185.288-.371.574a.31.31 0 0 0 .52.336q.003-.005.007-.011zm-.902 1.68c.289-.563.582-1.134.902-1.68a.31.31 0 0 0-.113-.426.31.31 0 0 0-.414.101 25 25 0 0 0-.977 1.688.34.34 0 0 0 .137.46.34.34 0 0 0 .46-.136s0-.004.005-.008M113.2 37.81c.36-.852.742-1.692 1.164-2.516a.34.34 0 0 0-.602-.316c-.453.828-.86 1.676-1.242 2.539a.37.37 0 1 0 .676.3q.005-.003.004-.007zm-.89 2.508c.233-.856.546-1.692.89-2.508a.37.37 0 0 0-.68-.293c-.375.84-.71 1.703-.96 2.59a.39.39 0 0 0 .265.484.394.394 0 0 0 .484-.27zm-1.013 1.566a.394.394 0 1 0 .778-.137c-.028-.16 0-.336.023-.496a8 8 0 0 1 .211-.933.39.39 0 0 0-.273-.48.39.39 0 0 0-.477.269c-.098.34-.184.68-.238 1.023-.04.246-.067.504-.024.754m0 0c.079.45.414.77.88.785a.393.393 0 0 0 .406-.379.394.394 0 0 0-.38-.41c-.093-.004-.113-.039-.128-.133a.39.39 0 0 0-.457-.32.39.39 0 0 0-.32.457m.88.785c.464.016.882-.254 1.206-.566a.376.376 0 0 0-.5-.559c-.183.153-.425.344-.68.336a.396.396 0 0 0-.41.38.397.397 0 0 0 .383.41m1.206-.566c.371-.348.668-.77.883-1.23a.337.337 0 0 0-.164-.454.34.34 0 0 0-.445.149 3.4 3.4 0 0 1-.774.976.374.374 0 0 0-.043.532.38.38 0 0 0 .532.042q.006-.004.011-.015m.883-1.23c.184-.391.34-.81.367-1.239a.317.317 0 0 0-.293-.332.31.31 0 0 0-.328.277c-.039.348-.191.684-.355.989a.344.344 0 0 0 .144.46.34.34 0 0 0 .457-.144q.007-.006.008-.012zm-.351-1.598c.113.05.109.199.097.304a.31.31 0 0 0 .274.344.31.31 0 0 0 .343-.277q.002-.006.004-.012c.02-.371-.109-.742-.46-.91a.3.3 0 0 0-.403.144.3.3 0 0 0 .14.403q.006.002.005.004zm-.57-.024c.187-.043.394-.058.57.024a.305.305 0 0 0 .258-.55c-.297-.142-.637-.15-.958-.09a.315.315 0 0 0-.25.366.315.315 0 0 0 .368.254q.006-.005.011-.004m-.712.344c.211-.16.453-.285.711-.344a.315.315 0 0 0-.129-.617c-.355.07-.691.227-.976.45a.325.325 0 0 0-.059.456.32.32 0 0 0 .453.055m-.824 1.352c.172-.489.402-1.024.824-1.352a.323.323 0 0 0-.395-.512c-.538.418-.753 1.121-.835 1.77a.21.21 0 0 0 .18.234.2.2 0 0 0 .226-.14M79.083 2.053q.296.054.593.11c.106.019.207-.051.227-.157a.2.2 0 0 0-.14-.222c-.196-.051-.391-.098-.587-.153a.216.216 0 1 0-.113.418q.01.002.02.004m.004 0c.078.012.16-.02.207-.086a.22.22 0 0 0 0-.312.21.21 0 0 0-.227-.055c-.078.027-.148.074-.176.16-.047.145.059.274.196.293m.101-.027q.218-.05.434-.098a.25.25 0 0 0 .183-.293.245.245 0 0 0-.293-.183q-.012.003-.023.007l-.422.14a.221.221 0 0 0 .121.427m.434-.098q.428-.098.863-.18a.273.273 0 0 0 .21-.316.266.266 0 0 0-.315-.21h-.004c-.301.065-.598.14-.887.237a.24.24 0 0 0-.153.309c.04.117.16.187.286.16zm.863-.18c.34-.07.688-.117 1.035-.152a.281.281 0 0 0-.058-.559h-.004a11 11 0 0 0-1.082.184.27.27 0 0 0-.208.32c.036.141.172.235.317.207zm1.035-.152c.3-.031.602-.055.906-.047a.283.283 0 0 0 .29-.277.284.284 0 0 0-.278-.293 7 7 0 0 0-.98.058.286.286 0 0 0-.246.313c.02.152.156.262.308.246m.906-.047c.059 0 .2 0 .227.07a.291.291 0 0 0 .535-.226c0-.004-.004-.004-.004-.008-.137-.293-.445-.402-.746-.406a.285.285 0 1 0-.012.57m.52.797c.195-.266.39-.629.238-.96a.293.293 0 0 0-.386-.142.286.286 0 0 0-.157.34c.04.137-.101.293-.18.391a.305.305 0 0 0 .047.43.305.305 0 0 0 .43-.047q.001-.006.008-.012zm-.777.914c.277-.289.539-.59.777-.914a.306.306 0 0 0-.066-.426.31.31 0 0 0-.418.055c-.235.293-.489.57-.75.836a.32.32 0 0 0 .453.453q-.001-.005.004-.004zm-.684.762c.21-.266.445-.516.684-.762a.324.324 0 0 0-.008-.453.323.323 0 0 0-.45.004c-.257.258-.507.523-.734.805-.11.14-.09.343.05.457.141.109.345.09.458-.051zm-.254.39c.035-.144.164-.28.254-.39a.326.326 0 0 0-.05-.453.327.327 0 0 0-.458.047c-.152.191-.32.406-.37.652a.321.321 0 0 0 .624.144m-.191.477a.314.314 0 0 0 .386-.223.313.313 0 0 0-.187-.375.324.324 0 0 0-.363-.273.32.32 0 0 0-.27.25c-.07.309.149.547.434.621m0 0q.235.066.453.172a.306.306 0 0 0 .41-.14.31.31 0 0 0-.133-.407 3 3 0 0 0-.558-.23.31.31 0 0 0-.391.21.315.315 0 0 0 .21.395zm.453.172c.105.05.16.16.191.27.043.16.211.257.371.214a.3.3 0 0 0 .211-.37V5.17a1.04 1.04 0 0 0-.496-.656.308.308 0 0 0-.289.543q.006.002.012.004m.765 1.078c.07-.316.098-.652.008-.969a.303.303 0 0 0-.37-.21.305.305 0 0 0-.212.37c.059.22.028.457-.023.676a.307.307 0 0 0 .23.367.307.307 0 0 0 .368-.23zm-.46 1.04c.218-.313.382-.665.46-1.04a.306.306 0 1 0-.597-.133c-.067.29-.2.563-.375.805-.102.14-.07.34.07.441.14.102.34.07.441-.07zm-.786.788c.309-.21.57-.484.786-.789a.313.313 0 0 0-.075-.437.316.316 0 0 0-.437.07c-.176.242-.383.46-.633.629a.32.32 0 0 0-.086.441.324.324 0 0 0 .445.086m-.902.387c.328-.055.633-.203.902-.387a.32.32 0 0 0-.36-.527 1.7 1.7 0 0 1-.648.281.325.325 0 0 0-.261.371c.031.172.195.29.367.262m-.79.004c.263.05.532.039.79-.004a.325.325 0 0 0 .266-.371.325.325 0 0 0-.372-.262 1.8 1.8 0 0 1-.574.016.31.31 0 0 0-.36.261.313.313 0 0 0 .25.36m-.628-.43c.125.238.367.379.629.43a.32.32 0 0 0 .37-.25.315.315 0 0 0-.253-.367c-.004-.004-.004-.004-.008-.004-.086-.012-.18-.04-.227-.118a.3.3 0 0 0-.414-.082.297.297 0 0 0-.097.391zm0 .004a.3.3 0 0 0 .406.117.3.3 0 0 0 .117-.406c-.004-.008-.008-.012-.011-.02-.032-.046-.016-.125-.004-.18.035-.187.129-.37.218-.538a.17.17 0 0 0-.066-.23.18.18 0 0 0-.203.027c-.297.3-.703.785-.457 1.23M85.075 2.553c.136-.36.347-.687.566-1a.167.167 0 0 0-.047-.238.17.17 0 0 0-.238.043l-.008.008c-.207.343-.41.699-.555 1.078a.155.155 0 0 0 .09.195.15.15 0 0 0 .191-.086zm.562-.996a8 8 0 0 1 .54-.68.215.215 0 0 0-.016-.3.215.215 0 0 0-.301.015q-.006.011-.012.016a8 8 0 0 0-.5.761.17.17 0 0 0 .063.235.17.17 0 0 0 .226-.047m.54-.68c.109-.12.23-.265.374-.343a.244.244 0 0 0 .098-.329.244.244 0 0 0-.328-.097.1.1 0 0 0-.024.015c-.18.125-.32.309-.449.485-.07.094-.05.23.043.3.086.067.211.051.285-.03m.374-.343.051-.024a.26.26 0 0 0 .344-.137.264.264 0 0 0-.137-.343c-.008 0-.012-.004-.02-.004-.171-.063-.347-.004-.492.097a.24.24 0 0 0-.058.336.24.24 0 0 0 .312.075M86.536.47c.035.09.047.188.058.281a.28.28 0 0 0 .309.246.283.283 0 0 0 .246-.308V.674c-.04-.23-.102-.558-.36-.648a.26.26 0 0 0-.253.445m.058.281c.04.344.04.688.036 1.032a.3.3 0 0 0 .292.3c.16 0 .293-.129.297-.293v-.004a7.6 7.6 0 0 0-.07-1.113.28.28 0 0 0-.32-.23.28.28 0 0 0-.235.308m.492 2.563a9 9 0 0 0 .133-1.528.293.293 0 0 0-.297-.293c-.16 0-.289.13-.293.29-.004.48-.062.957-.148 1.425a.305.305 0 1 0 .602.105zm-.39 1.676c.16-.551.293-1.11.39-1.676a.307.307 0 0 0-.605-.105 13 13 0 0 1-.387 1.6c-.05.169.043.34.211.392.164.05.34-.043.39-.208zm-.598 1.562a10 10 0 0 0 .598-1.562.314.314 0 0 0-.211-.391.317.317 0 0 0-.39.21c-.15.5-.333.993-.563 1.462a.316.316 0 1 0 .566.281m-.75 1.168c.305-.348.547-.754.75-1.168a.315.315 0 0 0-.144-.426.314.314 0 0 0-.422.145c-.184.367-.39.726-.656 1.039a.314.314 0 0 0 .03.441c.134.11.329.098.442-.03m-.793.61c.317-.11.574-.364.793-.61a.314.314 0 0 0-.472-.414v.004c-.149.168-.32.371-.536.46a.296.296 0 0 0-.16.391.3.3 0 0 0 .375.168m-.734-.325c.101.328.43.43.734.324a.296.296 0 0 0 .184-.378.295.295 0 0 0-.38-.188c-.007 0-.01.004-.019.008q-.011.001-.023.008a.275.275 0 0 0-.496.227m0 0c.043.145.2.227.344.184a.276.276 0 0 0 .168-.38c-.086-.19-.086-.437-.09-.64a.25.25 0 0 0-.254-.246.25.25 0 0 0-.242.246c-.008.278-.008.57.074.836m.422-.836a4.3 4.3 0 0 1 .074-.93.24.24 0 0 0-.191-.285.237.237 0 0 0-.282.192v.004a6 6 0 0 0-.097 1.02.248.248 0 1 0 .496.007zm.074-.93c.039-.19.078-.41.184-.578a.26.26 0 1 0-.442-.277q-.01.013-.02.031c-.1.23-.152.485-.195.735a.24.24 0 0 0 .192.281.24.24 0 0 0 .281-.191m.184-.578c.027-.039.058-.082.109-.085a.29.29 0 0 0 .266-.313.29.29 0 0 0-.317-.262q-.016-.001-.031.004a.7.7 0 0 0-.488.41.265.265 0 0 0 .132.348c.118.05.258.012.329-.102m.074-.085c.078.003.156.054.226.093q.21.124.403.266c.14.101.332.07.43-.07a.304.304 0 0 0-.071-.43q-.002.001-.004-.004a4 4 0 0 0-.55-.328c-.145-.07-.317-.133-.481-.098a.287.287 0 0 0 .047.57m.629.359c.304.219.613.441.93.637.148.09.343.043.433-.106a.31.31 0 0 0-.102-.43c-.308-.191-.605-.398-.906-.605a.31.31 0 0 0-.43.082.306.306 0 0 0 .075.422m.93.637c.456.28.968.472 1.468.66a.2.2 0 0 0 .254-.121.194.194 0 0 0-.078-.235 58 58 0 0 0-1.313-.84.316.316 0 0 0-.433.102.316.316 0 0 0 .101.434m0 0"/></svg>