<svg xmlns="http://www.w3.org/2000/svg" width="130.214" height="38.242" viewBox="0 0 97.661 28.681"><path d="M4.134 2.759c.16-.2.297-.418.414-.645a.14.14 0 0 0-.059-.187.136.136 0 0 0-.183.058c-.004.004-.004.004-.004.008a3 3 0 0 1-.371.602.13.13 0 0 0 .02.18.13.13 0 0 0 .183-.016m.414-.645c.102-.187.187-.386.273-.586a.17.17 0 0 0-.093-.218.163.163 0 0 0-.22.09l-.007.019c-.055.195-.117.39-.2.574a.137.137 0 0 0 .067.184.14.14 0 0 0 .18-.063m.273-.586c.102-.242.184-.492.25-.742A.22.22 0 0 0 4.915.51a.23.23 0 0 0-.277.16q-.002.017-.004.035c-.027.242-.067.48-.133.715a.17.17 0 0 0 .117.207.17.17 0 0 0 .203-.098m.25-.742L5.19.36a.257.257 0 0 0-.184-.32.26.26 0 0 0-.328.223q-.024.22-.043.441a.22.22 0 0 0 .2.246c.108.012.21-.058.237-.164M4.782.501a.26.26 0 0 0 .407-.14C5.216.25 5.2.14 5.11.063a.3.3 0 0 0-.062-.04c-.02-.011-.043-.015-.063-.02A.27.27 0 0 0 4.7.143.264.264 0 0 0 4.782.5m.23.211q.076-.158.157-.32a.27.27 0 0 0-.125-.356.265.265 0 0 0-.344.106c-.062.097-.12.199-.183.3a.277.277 0 0 0 .097.387.28.28 0 0 0 .387-.094zm-.468 1.223c.145-.41.281-.832.469-1.223a.282.282 0 0 0-.496-.27c-.239.395-.39.852-.555 1.278a.31.31 0 1 0 .578.223c.004-.004.004-.004.004-.008m-.715 2.168c.227-.727.461-1.45.715-2.168a.313.313 0 0 0-.187-.399.314.314 0 0 0-.395.184c-.277.719-.527 1.449-.766 2.183a.332.332 0 1 0 .633.203zm-.703 2.59q.31-1.308.703-2.59a.33.33 0 0 0-.219-.414.337.337 0 0 0-.414.214 39 39 0 0 0-.738 2.625.345.345 0 1 0 .668.164M2.6 9.23c.144-.851.324-1.699.527-2.539a.345.345 0 0 0-.254-.414.34.34 0 0 0-.414.25 32 32 0 0 0-.547 2.59.348.348 0 1 0 .688.113m-.649 2.852c.04.117.164.176.278.14a.22.22 0 0 0 .148-.226c-.066-.918.074-1.86.223-2.766a.346.346 0 0 0-.285-.402.35.35 0 0 0-.403.29 9.3 9.3 0 0 0-.148 1.679c.004.433.05.875.187 1.285m0 0"/><path d="M2.392 6.2c.234.32.511.68.617 1.07.023.09.117.145.207.118a.165.165 0 0 0 .117-.207c-.113-.43-.379-.832-.617-1.203a.196.196 0 0 0-.27-.059.197.197 0 0 0-.062.273q.007.001.008.008m-.809-1.258c.25.434.512.864.813 1.262a.197.197 0 0 0 .273.04.196.196 0 0 0 .047-.263c-.254-.414-.484-.84-.711-1.269a.24.24 0 0 0-.324-.098.24.24 0 0 0-.098.328m-.82-1.675q.358.867.82 1.675a.24.24 0 0 0 .422-.23 16 16 0 0 1-.75-1.645.263.263 0 0 0-.344-.148.264.264 0 0 0-.152.344q-.001.005.004.004m-.758-2.22c.172.763.457 1.5.754 2.22a.265.265 0 0 0 .348.144.263.263 0 0 0 .148-.344C.97 2.35.681 1.626.341.931a.179.179 0 0 0-.336.117M5.325 7.478c.258-.016.52-.024.782-.036a.21.21 0 0 0 .199-.214.215.215 0 0 0-.2-.204 26 26 0 0 1-.78-.03.24.24 0 0 0-.255.226.244.244 0 0 0 .227.258zm-.261-.184c.007.027.02.05.03.074a.26.26 0 0 0 .235.106.23.23 0 0 0 .16-.078c.004 0 .004-.004.004-.004l.012-.012a.24.24 0 0 0-.043-.344.24.24 0 0 0-.223-.043c-.101.035-.18.121-.183.23q.001.036.008.071m.3.172.438-.094a.27.27 0 0 0 .203-.316.27.27 0 0 0-.32-.203l-.024.003q-.21.071-.422.137a.25.25 0 0 0-.16.309c.04.12.164.191.285.164m.438-.094c.332-.074.66-.172.984-.281a.294.294 0 0 0 .184-.371.29.29 0 0 0-.367-.18h-.004q-.469.165-.938.316a.268.268 0 0 0 .14.516m.984-.281c.832-.281 1.637-.656 2.434-1.024a.196.196 0 0 0 .094-.261.193.193 0 0 0-.239-.102c-.828.274-1.652.55-2.476.836a.29.29 0 0 0-.18.371c.055.149.219.23.367.18M5.939 10.013c.156-.055.316-.106.472-.157a.18.18 0 0 0 .117-.23.18.18 0 0 0-.203-.125q-.246.042-.492.078a.22.22 0 0 0-.191.254.224.224 0 0 0 .25.191zm-.313-.2c.004.145.121.22.246.231a.23.23 0 0 0 .258-.207.233.233 0 0 0-.207-.258h-.035a.1.1 0 0 0-.047 0 .24.24 0 0 0-.164.078.3.3 0 0 0-.04.078.13.13 0 0 0-.01.079m.246.231.528.059a.27.27 0 0 0 .296-.243.27.27 0 0 0-.238-.293c-.012 0-.023-.003-.035 0l-.531.012a.23.23 0 0 0-.227.238c0 .118.09.215.207.227m.535.059c.328.027.66 0 .989-.036.496-.05.992-.128 1.484-.218a.19.19 0 0 0 .16-.227.19.19 0 0 0-.203-.16c-.8.047-1.605.102-2.41.105a.267.267 0 0 0-.266.27c0 .137.106.254.246.266M13.708 5.462a.205.205 0 0 0 .211.2.21.21 0 0 0 .195-.161c.09-.371.223-.73.387-1.074a.29.29 0 1 0-.523-.25v.004c-.184.402-.282.84-.27 1.281m.793-1.035c.23-.48.508-.942.79-1.395a.303.303 0 0 0-.099-.414.303.303 0 0 0-.414.098v.004c-.289.472-.57.957-.8 1.46a.287.287 0 0 0 .144.384c.14.066.313.003.38-.137m.79-1.395a15 15 0 0 1 1.019-1.46.31.31 0 0 0-.047-.438.31.31 0 0 0-.434.05h-.004a15 15 0 0 0-1.047 1.536.295.295 0 0 0 .098.41c.14.086.324.043.414-.098m1.019-1.46q.197-.255.418-.485c.062-.059.132-.14.214-.176a.315.315 0 0 0 .145-.422.31.31 0 0 0-.418-.144c-.148.07-.273.191-.387.308a7 7 0 0 0-.457.532.306.306 0 0 0 .055.433.305.305 0 0 0 .43-.047m.355-.665q.011.2-.008.399a.315.315 0 0 0 .629.047c.016-.223.031-.461-.02-.68-.066-.27-.324-.465-.597-.328a.31.31 0 0 0-.144.418.3.3 0 0 0 .14.144m.137 2.676c.219-.723.426-1.473.484-2.23a.315.315 0 0 0-.629-.047c-.054.71-.25 1.418-.453 2.097a.312.312 0 1 0 .598.18m-.942 2.879c.332-.953.649-1.91.942-2.879a.312.312 0 0 0-.598-.18c-.289.961-.597 1.91-.926 2.856a.31.31 0 0 0 .188.394.314.314 0 0 0 .394-.191m-.953 2.691q.486-1.342.953-2.691a.314.314 0 0 0-.191-.395.31.31 0 0 0-.39.192q-.47 1.346-.95 2.687a.306.306 0 0 0 .188.391.304.304 0 0 0 .39-.184m-.734 1.72c.312-.54.523-1.138.734-1.72a.3.3 0 0 0-.183-.39.307.307 0 0 0-.395.183c-.195.551-.39 1.118-.676 1.63a.295.295 0 0 0 .114.405.3.3 0 0 0 .406-.109m-.762.636c.36.004.602-.363.762-.637a.296.296 0 0 0-.11-.41.3.3 0 0 0-.41.11v.003c-.062.11-.128.219-.214.309a.3.3 0 0 1-.055.047c-.012.004.039-.008-.008 0a.29.29 0 0 0 .035.578m-.636-.477c.125.25.335.477.636.477.16 0 .29-.13.293-.29a.29.29 0 0 0-.289-.292H13.4c-.008 0-.024-.016-.032-.024a.5.5 0 0 1-.086-.129.285.285 0 0 0-.508.258m-.25-.847c.042.293.117.586.25.847.07.14.242.2.382.13a.285.285 0 0 0 .125-.384v-.004a2.1 2.1 0 0 1-.191-.667.283.283 0 0 0-.32-.247.29.29 0 0 0-.25.32zm0 0a.286.286 0 0 0 .566-.079c-.04-.289-.031-.585.004-.875a.297.297 0 0 0-.59-.07v.008a4 4 0 0 0 .02 1.016m.57-.954a1.7 1.7 0 0 1 .242-.718.3.3 0 0 0-.086-.418.3.3 0 0 0-.418.086h-.004c-.191.297-.289.64-.324.988a.3.3 0 0 0 .266.324.3.3 0 0 0 .324-.262m.242-.718c.094-.14.215-.285.379-.352a.306.306 0 1 0-.234-.566h-.004c-.274.117-.489.34-.649.586-.09.14-.05.328.09.422.14.09.328.05.418-.09m.379-.352c.086-.035.164.047.219.102a.32.32 0 0 0 .449.015.32.32 0 0 0 .016-.449l-.012-.012c-.242-.238-.582-.363-.91-.222a.307.307 0 0 0 .238.566m.219.102c.191.199.32.453.425.703.067.168.262.25.43.18a.33.33 0 0 0 .18-.43c0-.004-.004-.004-.004-.004-.14-.328-.32-.645-.578-.895a.32.32 0 0 0-.45.008.316.316 0 0 0-.003.438m.425.703q.2.487.41.969c.075.168.27.242.442.168.168-.075.246-.27.168-.438q-.207-.48-.414-.953a.33.33 0 0 0-.434-.176.33.33 0 0 0-.172.43m.41.969q.177.405.376.796a.332.332 0 0 0 .593-.3c-.125-.25-.242-.508-.359-.766-.074-.172-.27-.246-.438-.172a.33.33 0 0 0-.171.442m.376.796c.101.196.218.403.39.543a.28.28 0 0 0 .399-.035.28.28 0 0 0 .043-.289c-.07-.176-.157-.347-.239-.52a.332.332 0 1 0-.593.298zm.3.243a.28.28 0 0 0 .075.289c.074.07.16.129.265.12a.26.26 0 0 0 .223-.16c.039-.1.008-.199-.04-.288a.28.28 0 0 0-.253-.16.17.17 0 0 0-.242.023.17.17 0 0 0-.028.176M20.22 2.997q.177-.272.289-.578a.17.17 0 0 0-.106-.21.166.166 0 0 0-.21.1c0 .008-.004.012-.004.02-.043.18-.122.352-.223.508a.15.15 0 0 0 .047.207.15.15 0 0 0 .207-.047m.285-.574.074-.195a.182.182 0 0 0-.34-.13l-.011.028c-.012.07-.028.137-.04.207a.165.165 0 0 0 .317.09m.086-.203c.008-.07.004-.133-.05-.192a.2.2 0 0 0-.095-.05.185.185 0 0 0-.191.082c-.02.03-.023.062-.035.093a.194.194 0 0 0 .14.23.19.19 0 0 0 .227-.136c.004-.008.004-.02.004-.027m-.066.62c.023-.206.042-.413.066-.62a.19.19 0 0 0-.168-.207.19.19 0 0 0-.203.14q-.072.306-.149.606a.234.234 0 0 0 .168.281.23.23 0 0 0 .278-.168q.004-.018.007-.031m-.274 1.5c.113-.491.219-.995.274-1.5a.23.23 0 0 0-.204-.253.23.23 0 0 0-.25.172q-.18.727-.367 1.45a.28.28 0 1 0 .543.14s0-.004.004-.008m-.52 1.911q.296-.944.52-1.91a.286.286 0 0 0-.215-.336.285.285 0 0 0-.332.203 28 28 0 0 1-.55 1.86.31.31 0 0 0 .19.382c.161.051.333-.035.384-.191 0-.004 0-.004.004-.008m-.695 2.012q.373-.997.696-2.012a.305.305 0 0 0-.2-.379.306.306 0 0 0-.379.195q-.329.99-.71 1.97a.32.32 0 0 0 .183.41.313.313 0 0 0 .41-.18zm-.719 1.789c.258-.59.493-1.188.72-1.79a.32.32 0 0 0-.184-.41.324.324 0 0 0-.41.184q-.339.886-.72 1.754a.33.33 0 0 0 .169.43.324.324 0 0 0 .425-.168m-.777 1.203c.352-.324.59-.77.777-1.203a.324.324 0 0 0-.593-.262c-.18.414-.356.828-.504 1.25a.197.197 0 0 0 .12.254c.071.023.15.008.2-.04m0 0"/><path d="M17.626 4.849c.008-.125.012-.266.063-.383a.183.183 0 0 0 .109-.23.183.183 0 0 0-.23-.11c-.004.004-.012.004-.016.008-.11.05-.152.168-.18.277a3 3 0 0 0-.047.422.15.15 0 0 0 .145.156.15.15 0 0 0 .156-.14m-.098-.403c.051.098.079.211.11.317.035.125.164.199.289.164a.24.24 0 0 0 .164-.293l-.012-.024a1.4 1.4 0 0 0-.183-.347c-.082-.11-.223-.203-.36-.121a.18.18 0 0 0-.008.304m.11.317c.105.367.187.742.27 1.113.03.152.179.25.331.215a.28.28 0 0 0 .215-.332c0-.004-.004-.008-.004-.012a8 8 0 0 0-.37-1.137.235.235 0 0 0-.305-.129.24.24 0 0 0-.137.282m.27 1.113c.156.723.28 1.453.41 2.18a.315.315 0 1 0 .621-.11V7.94a32 32 0 0 0-.489-2.192.28.28 0 0 0-.343-.2.28.28 0 0 0-.2.329m.41 2.18c.117.672.218 1.355.402 2.011.05.176.234.282.414.23a.334.334 0 0 0 .23-.41c-.175-.64-.297-1.296-.425-1.948a.313.313 0 0 0-.372-.247.31.31 0 0 0-.25.364m.402 2.011c.086.297.203.614.43.832a.333.333 0 0 0 .468-.011.33.33 0 0 0-.004-.461c-.136-.137-.199-.36-.25-.54a.33.33 0 0 0-.41-.234.34.34 0 0 0-.234.414m.43.829a.57.57 0 0 0 .707.078c.195-.118.324-.32.43-.516a.193.193 0 0 0-.079-.262.19.19 0 0 0-.219.024c-.09.074-.183.148-.289.195-.027.012-.062.035-.086.008a.33.33 0 0 0-.468 0 .33.33 0 0 0 0 .469q0 .005.003.004M24.657 1.177c.028.328.02.66.016.992 0 .059.047.11.11.11.062 0 .109-.048.113-.11 0-.316-.004-.656.07-.969a.156.156 0 0 0-.117-.187.16.16 0 0 0-.188.117q-.005.023-.004.047m-.027-.113c0 .03.008.066.023.097.004.008.004.016.008.028a.15.15 0 0 0 .176.128.16.16 0 0 0 .117-.086.21.21 0 0 0 .09-.207.24.24 0 0 0-.113-.171.2.2 0 0 0-.074-.024.21.21 0 0 0-.208.117.3.3 0 0 0-.019.118m0 0c0 .16.004.316.004.476a.245.245 0 0 0 .25.242c.133 0 .242-.11.242-.246q.001-.02-.004-.039-.042-.233-.078-.473a.21.21 0 0 0-.242-.168.203.203 0 0 0-.172.208m.535 1.738c.012-.43.027-.875-.043-1.305a.243.243 0 0 0-.281-.2.244.244 0 0 0-.207.243c.004.414-.02.828-.043 1.238a.285.285 0 0 0 .27.301.28.28 0 0 0 .3-.27q.005 0 .004-.007m-.164 1.86c.086-.618.145-1.235.164-1.86a.287.287 0 0 0-.574-.024c-.031.602-.102 1.2-.195 1.793a.306.306 0 0 0 .254.352.31.31 0 0 0 .351-.254zm-.344 1.882q.21-.933.344-1.883a.306.306 0 0 0-.605-.09 27 27 0 0 1-.356 1.832.317.317 0 0 0 .617.14m-.765 3.54c.246-1.18.492-2.364.765-3.54a.32.32 0 0 0-.238-.379.317.317 0 0 0-.379.238c-.27 1.188-.422 2.407-.55 3.618a.203.203 0 0 0 .179.226.203.203 0 0 0 .223-.164m0 0"/><path d="M21.864 8.317q.527.061 1.055.133a.207.207 0 0 0 .23-.18.203.203 0 0 0-.156-.226c-.343-.082-.691-.16-1.035-.246a.26.26 0 0 0-.316.195.26.26 0 0 0 .191.317q.016.004.031.007m.008 0a.263.263 0 0 0 .285-.238c0-.015.004-.027 0-.039a.285.285 0 0 0-.168-.367.28.28 0 0 0-.242.02c-.14.078-.254.222-.203.394.043.152.184.219.328.23m.137-.113c.2-.094.398-.183.598-.277.16-.07.23-.262.156-.418a.316.316 0 0 0-.422-.156l-.024.011-.57.328a.28.28 0 0 0-.105.391c.07.129.23.18.367.121m.598-.277a42 42 0 0 0 1.515-.742c.172-.09.242-.301.156-.473a.35.35 0 0 0-.472-.156q-.004-.001-.008.004c-.496.261-.992.523-1.48.804a.315.315 0 0 0-.118.434c.082.14.258.2.407.129m1.515-.742c.45-.23.906-.454 1.38-.621.237-.086.507-.184.769-.168a.235.235 0 0 0 .246-.223.23.23 0 0 0-.13-.223c-.327-.164-.738-.101-1.077-.015-.532.132-1.032.37-1.512.62a.35.35 0 0 0-.145.477.35.35 0 0 0 .47.153M33.958 2.536c.113-.406.219-.816.336-1.226a.196.196 0 0 0-.133-.239.19.19 0 0 0-.238.137s-.004.004-.004.008q-.136.621-.285 1.242c-.02.09.035.18.125.2.09.019.176-.032.2-.122m.336-1.222a.3.3 0 0 0 .016-.075.3.3 0 0 0-.012-.078.198.198 0 0 0-.3-.086c-.013.008-.02.02-.028.028-.016.02-.031.039-.04.066l-.01.043v.008a.19.19 0 0 0 .147.226.196.196 0 0 0 .227-.132m.012.074c0-.051.004-.102.004-.149a.197.197 0 0 0-.192-.203c-.082 0-.16.051-.187.133q-.022.066-.051.137c-.04.113.02.238.133.281.113.039.238-.02.281-.133a.2.2 0 0 0 .012-.066m-.242.883c.058-.184.12-.368.175-.551.028-.11.063-.223.067-.332a.22.22 0 0 0-.215-.227.215.215 0 0 0-.211.145c-.094.265-.2.527-.3.793a.254.254 0 0 0 .148.328.255.255 0 0 0 .332-.145q-.001-.006.004-.011m-.547 1.523a64 64 0 0 0 .547-1.523.258.258 0 0 0-.484-.172q-.287.749-.59 1.492a.282.282 0 1 0 .523.21c0-.003.004-.003.004-.007m-.567 1.574q.271-.79.567-1.574a.283.283 0 0 0-.164-.363.29.29 0 0 0-.364.16 77 77 0 0 0-.609 1.574.305.305 0 0 0 .18.39.304.304 0 0 0 .386-.179c0-.004 0-.004.004-.008m-.367 1.184c.102-.399.23-.793.367-1.184a.306.306 0 0 0-.187-.383.303.303 0 0 0-.383.18c-.148.406-.293.816-.402 1.234a.313.313 0 0 0 .222.38.316.316 0 0 0 .383-.223zm-.707.605a.317.317 0 0 0 .363.258.313.313 0 0 0 .258-.36c-.008-.046.004-.1.012-.144.016-.12.047-.238.074-.36a.31.31 0 0 0-.226-.378.31.31 0 0 0-.38.226c-.062.239-.14.508-.1.758m0 0c.05.297.336.426.61.434a.315.315 0 1 0 .019-.629q-.02.001-.04-.004a.315.315 0 0 0-.589.2m.61.434a4 4 0 0 0 .703-.05.314.314 0 0 0 .265-.356.313.313 0 0 0-.355-.262 3.4 3.4 0 0 1-.594.039.317.317 0 0 0-.324.305.32.32 0 0 0 .304.324m.703-.05c.316-.048.636-.06.957-.067a.31.31 0 0 0-.012-.621c-.348.007-.695.02-1.035.07a.312.312 0 1 0 .09.617m.957-.067c.3-.008.652-.004.933-.133a.29.29 0 0 0 .145-.39.293.293 0 0 0-.371-.157c-.07.023-.153.027-.227.035a5 5 0 0 1-.492.024.31.31 0 0 0-.305.316.31.31 0 0 0 .313.305zm.933-.133c.223-.102.38-.313.496-.52a.287.287 0 0 0-.105-.39.287.287 0 0 0-.395.105c-.047.082-.12.219-.222.258a.297.297 0 1 0 .203.559zm.496-.52a5 5 0 0 0 .387-.949.286.286 0 0 0-.187-.363.29.29 0 0 0-.368.187V5.7a4 4 0 0 1-.332.836.29.29 0 0 0 .106.395c.14.078.316.031.394-.11m.387-.949q.204-.646.344-1.308a.295.295 0 0 0-.227-.352.3.3 0 0 0-.355.227v.003c-.086.422-.192.844-.317 1.258a.29.29 0 0 0 .555.172m.344-1.308q.136-.624.242-1.25a.315.315 0 0 0-.258-.356.315.315 0 0 0-.355.258v.012c-.051.406-.13.812-.211 1.214a.3.3 0 0 0 .23.352.3.3 0 0 0 .352-.23m.242-1.25q.045-.313.098-.618a.33.33 0 0 0-.266-.382.33.33 0 0 0-.379.265q-.005.036-.004.07c.008.18-.039.391-.062.579a.307.307 0 0 0 .265.343c.168.02.32-.093.348-.257m-.555-.774c0 .04.004.074.004.11a.33.33 0 0 0 .34.316.33.33 0 0 0 .309-.27q.011-.052.02-.105a.343.343 0 0 0-.274-.395.343.343 0 0 0-.395.274q-.005.035-.004.07m.602.25q.024-.058.043-.117a.328.328 0 0 0-.008-.3.33.33 0 0 0-.29-.18.3.3 0 0 0-.183.046c-.117.07-.156.196-.203.317a.345.345 0 0 0 .2.441.345.345 0 0 0 .44-.2zm-.488 1.371q.247-.686.488-1.37a.34.34 0 0 0-.64-.235q-.258.678-.52 1.355a.36.36 0 0 0 .207.465.363.363 0 0 0 .465-.207zm-.778 2.117q.404-1.056.778-2.117a.358.358 0 0 0-.672-.25q-.398 1.05-.809 2.094c-.074.195.02.41.215.488.191.074.41-.02.484-.215zm-.582 1.602q.27-.81.582-1.602a.377.377 0 0 0-.703-.273 34 34 0 0 0-.598 1.633.378.378 0 1 0 .72.242m-.293 1.078c.055-.367.172-.727.293-1.078a.38.38 0 0 0-.238-.48.375.375 0 0 0-.48.238 7 7 0 0 0-.325 1.21.379.379 0 1 0 .75.11m.067.79a.233.233 0 0 0 .168-.29.25.25 0 0 0-.149-.16c-.144-.05-.105-.211-.086-.34a.379.379 0 1 0-.75-.11c-.035.258-.008.544.176.743.164.18.414.223.64.156M39.173 2.497l.035-.234a.15.15 0 0 0-.129-.168.147.147 0 0 0-.168.129l-.035.23a.15.15 0 0 0 .129.172.147.147 0 0 0 .168-.129m.008-.144.015-.051c.008-.012.008-.024.012-.04a.2.2 0 0 0-.008-.073.155.155 0 0 0-.199-.086c-.062.027-.086.086-.11.144a.15.15 0 0 0 .083.2c.078.034.168 0 .203-.079q.002-.011.004-.015m-.328 1.078.328-1.078a.155.155 0 0 0-.102-.196.155.155 0 0 0-.187.09c-.149.344-.293.692-.442 1.04a.214.214 0 0 0 .114.28.212.212 0 0 0 .289-.136m-.782 2.175c.293-.71.559-1.437.782-2.175a.21.21 0 0 0-.141-.266.216.216 0 0 0-.262.121q-.446 1.054-.898 2.102a.285.285 0 0 0 .148.375.29.29 0 0 0 .371-.149zm-.82 1.946c.285-.645.555-1.293.82-1.946a.282.282 0 0 0-.52-.219 84 84 0 0 1-.85 1.919.303.303 0 0 0 .55.25zm-.848 1.5c.336-.465.618-.973.848-1.5a.303.303 0 0 0-.152-.399.303.303 0 0 0-.399.153 23 23 0 0 0-.648 1.558.201.201 0 0 0 .351.188m0 0"/><path d="M36.962 3.876a.7.7 0 0 1 .078-.176.2.2 0 0 0 .254-.129.203.203 0 0 0-.125-.25c-.297-.105-.45.22-.527.442a.17.17 0 0 0 .32.113m0-.223a.4.4 0 0 1 .043.09c.039.098.066.196.094.297a.25.25 0 0 0 .312.18.255.255 0 0 0 .18-.309q-.001-.017-.008-.027c-.078-.203-.191-.504-.43-.567a.2.2 0 0 0-.246.141c-.02.07.004.145.055.195m.137.387c.078.3.144.61.199.918.027.16.18.266.34.234a.29.29 0 0 0 .234-.34c0-.003-.004-.007-.004-.015a8 8 0 0 0-.285-.953.255.255 0 0 0-.484.156m.199.918c.062.348.133.691.203 1.04a.315.315 0 0 0 .617-.129q.001-.007-.004-.013l-.246-1.019a.291.291 0 0 0-.57.121m.203 1.04q.093.457.23.901a.327.327 0 0 0 .407.215.32.32 0 0 0 .21-.406 16 16 0 0 1-.234-.852.315.315 0 0 0-.613.14m.23.901c.141.457.454.84.848 1.102.098.066.227.04.293-.055a.21.21 0 0 0-.008-.242 3.5 3.5 0 0 1-.515-.996.325.325 0 0 0-.407-.215.326.326 0 0 0-.21.406M12.59 13.235c.13-.27.282-.527.446-.773a.21.21 0 0 0-.058-.293.21.21 0 0 0-.293.059c-.004.007-.012.015-.016.023q-.205.417-.379.852a.167.167 0 0 0 .094.214.163.163 0 0 0 .207-.082m.442-.77c.035-.05.075-.105.118-.151a.25.25 0 0 0 .109-.32.23.23 0 0 0-.074-.098.2.2 0 0 0-.078-.043.3.3 0 0 0-.086-.012c-.211.008-.282.258-.356.418a.212.212 0 0 0 .367.207m-.25-.35c.004.054.012.109.016.163a.28.28 0 0 0 .3.25.28.28 0 0 0 .25-.3.3.3 0 0 0-.023-.086q-.033-.078-.066-.149a.25.25 0 0 0-.328-.129.25.25 0 0 0-.149.25m.532.765c.043-.227.109-.516.011-.738a.273.273 0 0 0-.363-.141.27.27 0 0 0-.164.277c.016.149-.047.332-.082.48a.305.305 0 0 0 .594.133q.002-.005.004-.011m-.164.918q.075-.459.164-.918a.305.305 0 0 0-.598-.121q-.105.457-.191.926a.314.314 0 0 0 .25.37.314.314 0 0 0 .37-.25q.006-.006.005-.007m-.192 1.328c.059-.445.117-.887.192-1.328a.32.32 0 0 0-.262-.367.31.31 0 0 0-.363.254c-.09.449-.149.902-.208 1.359a.325.325 0 0 0 .282.363c.176.02.34-.105.36-.281m-.758.734q-.001.078.04.149c.035.07.1.125.179.152h-.004a.32.32 0 0 0 .336-.07c.106-.102.113-.254.133-.387q.04-.292.074-.578a.323.323 0 1 0-.64-.082c-.032.227-.055.453-.094.676a.3.3 0 0 0-.024.14m.59.172c.172-.082.36-.136.543-.187a.34.34 0 0 0 .227-.422.335.335 0 0 0-.418-.227q-.004-.001-.008.004c-.195.059-.39.125-.574.211s-.371.223-.36.45c.008.18.16.32.34.308a.32.32 0 0 0 .25-.137m.543-.187q.802-.24 1.606-.489a.347.347 0 0 0 .23-.437.347.347 0 0 0-.434-.23h-.003q-.8.252-1.598.511a.34.34 0 0 0-.219.422.34.34 0 0 0 .418.223m1.606-.489a62 62 0 0 1 2.02-.582c.187-.05.3-.246.25-.433a.35.35 0 0 0-.434-.246c-.684.187-1.368.383-2.043.594a.35.35 0 0 0 .207.668m2.02-.582a47 47 0 0 1 2.433-.59.357.357 0 0 0 .27-.425.353.353 0 0 0-.423-.27q-1.241.269-2.464.606a.355.355 0 0 0-.25.433.355.355 0 0 0 .433.246m2.433-.59a29 29 0 0 1 2.535-.44.356.356 0 0 0-.09-.708c-.875.11-1.738.262-2.598.453a.356.356 0 0 0-.273.422.363.363 0 0 0 .426.274m2.535-.44a28 28 0 0 1 2.348-.204.36.36 0 0 0 .34-.371.357.357 0 0 0-.372-.34q-1.205.054-2.406.207a.356.356 0 0 0-.309.399.354.354 0 0 0 .399.308m2.348-.204a32 32 0 0 1 2.035-.031.343.343 0 0 0 .355-.336.35.35 0 0 0-.336-.356 29 29 0 0 0-2.086.012.357.357 0 0 0-.34.371.357.357 0 0 0 .372.34m2.035-.031q.831.017 1.664.05a.337.337 0 0 0 .351-.324.34.34 0 0 0-.32-.347q-.838-.042-1.676-.07a.345.345 0 1 0-.023.691zm1.664.05q.632.025 1.258.032a.33.33 0 0 0 .335-.328.33.33 0 0 0-.328-.332q-.62-.007-1.234-.043a.336.336 0 0 0-.035.672zm1.258.032q.469.006.937-.024a.333.333 0 0 0 .313-.355.333.333 0 0 0-.356-.313h-.008a11 11 0 0 1-.879.032.33.33 0 0 0-.336.328.33.33 0 0 0 .329.332m.937-.024q.397-.023.79-.082a.35.35 0 0 0 .292-.39.344.344 0 0 0-.39-.29h-.008q-.365.06-.735.094a.334.334 0 0 0 .05.668m.79-.082c.25-.035.495-.066.745-.093a.347.347 0 0 0 .305-.387.34.34 0 0 0-.383-.305h-.004c-.254.028-.512.067-.77.106a.344.344 0 0 0 .106.68m.745-.093c.473-.055.961-.047 1.438-.055a.35.35 0 0 0 .347-.356.355.355 0 0 0-.355-.347c-.504.008-1.012.008-1.512.066a.35.35 0 0 0-.305.387.353.353 0 0 0 .387.305m1.438-.055c1.03-.012 2.058-.008 3.09-.008a.36.36 0 0 0 .359-.355.363.363 0 0 0-.36-.36c-1.03.004-2.066.008-3.097.02a.353.353 0 0 0-.348.36.35.35 0 0 0 .356.343m3.09-.008c1.03.004 2.093-.004 3.109-.219a.36.36 0 0 0 .281-.43.365.365 0 0 0-.43-.28c-.964.206-1.98.214-2.96.214a.357.357 0 0 0 0 .715m3.109-.219.805-.164c.109-.02.222-.047.336-.058.199-.02.343-.2.324-.399a.36.36 0 0 0-.39-.328c-.138.012-.274.043-.411.07q-.409.082-.813.168a.363.363 0 1 0 .149.711m1.14-.222c.325-.032.485-.352.567-.63a.37.37 0 0 0-.25-.46.37.37 0 0 0-.461.25q.001.006-.004.012c-.012.046-.023.093-.043.136a.36.36 0 0 0-.176.485c.067.14.211.222.368.207m.567-.63c.098-.335.152-.683.195-1.027a.38.38 0 0 0-.328-.421.38.38 0 0 0-.422.328c-.039.308-.082.62-.16.922-.05.199.07.398.266.453a.375.375 0 0 0 .449-.254m.195-1.027c.055-.44.086-.886.098-1.328a.375.375 0 0 0-.363-.386.376.376 0 0 0-.383.359c-.016.422-.047.844-.102 1.262a.38.38 0 0 0 .328.422.38.38 0 0 0 .422-.329m.098-1.328c.012-.37.02-.742-.027-1.109a.344.344 0 0 0-.387-.297.34.34 0 0 0-.3.336c-.005.348-.02.695-.032 1.043a.37.37 0 0 0 .36.387.37.37 0 0 0 .386-.36m-.715-1.062c0 .101.047.2.125.265.008.043.02.09.027.137.02.117.133.2.25.176a.216.216 0 0 0 .18-.2q.007-.07.008-.14a.34.34 0 0 0 .098-.277c-.016-.153-.036-.317-.172-.41a.32.32 0 0 0-.39.023.3.3 0 0 0-.075.086c-.055.105-.05.227-.05.34m0 0"/><path d="M27.34 14.442c.036-.46.063-.925.102-1.386a.21.21 0 0 0-.195-.23.21.21 0 0 0-.23.195c0 .003 0 .011-.004.015q-.008.696-.028 1.387a.18.18 0 0 0 .172.183.18.18 0 0 0 .184-.164m-.323-1.382a.21.21 0 0 0 .23.191.216.216 0 0 0 .195-.176q.005-.023.004-.047a.22.22 0 0 0-.043-.144.22.22 0 0 0-.304-.04.17.17 0 0 0-.059.071.2.2 0 0 0-.027.09c0 .02 0 .035.004.055m.418.379.011-.41a.22.22 0 0 0-.21-.223.22.22 0 0 0-.223.199l-.035.41a.233.233 0 0 0 .21.246.227.227 0 0 0 .247-.207zm-.121 1.19c.054-.394.109-.792.12-1.19a.23.23 0 0 0-.222-.235.23.23 0 0 0-.234.211c-.032.383-.094.762-.157 1.14a.25.25 0 0 0 .492.082zm-.207 1.567c.066-.523.132-1.043.207-1.566a.25.25 0 0 0-.211-.281.25.25 0 0 0-.282.207 73 73 0 0 0-.238 1.57.264.264 0 1 0 .524.07m-.528 2.54c.012.093.098.16.192.152a.18.18 0 0 0 .156-.168c.015-.844.07-1.688.18-2.524a.264.264 0 0 0-.524-.07 10.8 10.8 0 0 0-.004 2.61M21.603 22.388c.175-.258.382-.492.593-.723a.177.177 0 0 0-.011-.246.17.17 0 0 0-.243.012q-.003.006-.007.011c-.2.254-.399.512-.582.778a.15.15 0 0 0 .25.168m.273-.844q.012-.005.024-.004h-.004a.174.174 0 0 0 .164.18.16.16 0 0 0 .132-.055c.114-.117.211-.285.098-.437-.11-.141-.316-.137-.473-.125a.225.225 0 0 0-.207.238.227.227 0 0 0 .243.207q.01-.005.023-.004m-1.273.332c.422-.125.843-.246 1.273-.332a.23.23 0 0 0 .176-.266.224.224 0 0 0-.235-.175c-.457.035-.91.136-1.355.242a.275.275 0 1 0 .129.535q.006.001.012-.004m-.957.36c.093-.067.203-.106.308-.145.215-.082.434-.149.649-.215a.27.27 0 0 0 .187-.34.28.28 0 0 0-.328-.191c-.234.058-.473.117-.703.191a1.9 1.9 0 0 0-.445.188.305.305 0 0 0 .316.52c.008-.005.012-.005.016-.009m-.121.269c.007-.098.03-.211.12-.27a.31.31 0 0 0 .079-.425.304.304 0 0 0-.41-.086c-.258.156-.387.433-.414.726a.31.31 0 0 0 .285.336.31.31 0 0 0 .34-.281m-.165 1.738c.059.16.239.246.399.188a.31.31 0 0 0 .187-.395 13 13 0 0 1-.336-1.05c-.039-.149-.101-.325-.085-.481a.315.315 0 0 0-.286-.34.315.315 0 0 0-.34.285c-.019.23.047.473.106.696.102.37.227.738.355 1.097m0 0c.235.649.47 1.317.579 2a.28.28 0 0 0 .32.235.28.28 0 0 0 .234-.301c-.058-.735-.3-1.453-.547-2.14a.314.314 0 0 0-.398-.192.313.313 0 0 0-.188.398m1.047 3.278c.121-.438.125-.899.086-1.344a.28.28 0 1 0-.558.047q-.001.006.004.02c.058.37.082.769-.028 1.132a.26.26 0 0 0 .496.148zm-.625.882c.325-.195.524-.527.625-.882a.26.26 0 0 0-.18-.32.26.26 0 0 0-.316.175c-.066.227-.191.445-.402.566a.268.268 0 1 0 .27.465zm-.906.278c.32-.012.633-.11.906-.278a.268.268 0 0 0-.273-.46c-.195.117-.414.18-.645.183a.273.273 0 0 0-.273.277c0 .153.125.278.277.278zm-.86-.227c.255.168.555.235.86.227a.278.278 0 0 0-.012-.555.95.95 0 0 1-.535-.145.283.283 0 0 0-.39.079.28.28 0 0 0 .078.394m-.527-.543c.13.219.317.399.528.543a.28.28 0 0 0 .39-.082.283.283 0 0 0-.078-.39c-.14-.094-.27-.211-.355-.36a.283.283 0 0 0-.387-.098.283.283 0 0 0-.098.387m0 0a.28.28 0 0 0 .387.098.276.276 0 0 0 .098-.383v-.004a2 2 0 0 1-.184-.375.247.247 0 0 0-.308-.16.24.24 0 0 0-.168.219c-.016.215.07.422.175.605m-.062-.379c.004.004.004.008.008.016a.15.15 0 0 0 .183.11.155.155 0 0 0 .114-.15v-.015a.24.24 0 0 0 .062-.234c-.027-.102-.066-.203-.18-.238a.23.23 0 0 0-.187.023.3.3 0 0 0-.059.055.37.37 0 0 0-.054.218.25.25 0 0 0 .113.215M21.751 26.001q.164-.359.332-.719a.2.2 0 0 0-.094-.27.203.203 0 0 0-.27.098q-.003.005-.007.016-.136.369-.285.738a.173.173 0 0 0 .101.227.17.17 0 0 0 .223-.09m.258-.633.004-.004q.001.001.008-.004a.2.2 0 0 0 .09-.136A.2.2 0 0 0 22 25q-.06-.03-.125-.02a.2.2 0 0 0-.125.07.2.2 0 0 0-.039.079.202.202 0 0 0 .297.238m.055.125.046-.27a.207.207 0 0 0-.168-.238.214.214 0 0 0-.23.137 7 7 0 0 1-.086.258.23.23 0 0 0 .145.285.226.226 0 0 0 .285-.14c.004-.012.004-.024.008-.032m-.082.656c.02-.218.043-.44.082-.656a.227.227 0 0 0-.438-.113 5 5 0 0 0-.156.707c-.02.14.074.27.215.293a.254.254 0 0 0 .293-.215q.005-.008.004-.016m-.036.805a7 7 0 0 1 .036-.805.255.255 0 0 0-.235-.277.257.257 0 0 0-.277.215q-.064.426-.082.86a.28.28 0 0 0 .27.292.28.28 0 0 0 .288-.27zm-.457.781a.297.297 0 0 0 .559-.203q-.005-.01-.004-.015a1.5 1.5 0 0 1-.098-.563.28.28 0 0 0-.558-.008c-.012.266.012.54.101.79m0 0a.81.81 0 0 0 .57.524.303.303 0 0 0 .137-.59c-.078-.02-.125-.078-.152-.152a.298.298 0 0 0-.555.219m.57.524c.325.074.626-.113.852-.328a.303.303 0 0 0 .008-.43.305.305 0 0 0-.426-.008c-.058.059-.195.2-.297.176a.3.3 0 0 0-.363.227.3.3 0 0 0 .227.363m.852-.328c.274-.266.485-.59.653-.93a.294.294 0 0 0-.523-.27c-.145.278-.317.547-.548.762a.302.302 0 1 0 .418.438m.653-.93c.304-.605.507-1.254.656-1.914a.18.18 0 0 0-.137-.215.18.18 0 0 0-.2.102 36 36 0 0 1-.843 1.761.29.29 0 0 0 .125.395c.145.074.32.02.395-.125q.002.001.004-.004M24.669 26.067q.03-.727.117-1.449a.19.19 0 0 0-.164-.207.185.185 0 0 0-.203.145c-.105.488-.18.984-.215 1.484a.235.235 0 0 0 .215.25.24.24 0 0 0 .25-.215zm-.078 1.278q.053-.639.078-1.278a.235.235 0 0 0-.223-.242.236.236 0 0 0-.242.215c-.031.418-.086.836-.14 1.25a.26.26 0 0 0 .23.297.264.264 0 0 0 .297-.227zm-.063.855q.035-.428.063-.855a.266.266 0 0 0-.242-.285.27.27 0 0 0-.285.23q-.055.426-.114.848a.291.291 0 1 0 .578.078zm-.449.266a.3.3 0 0 0 .098.043.3.3 0 0 0 .105.004.31.31 0 0 0 .239-.203.3.3 0 0 0 .004-.184.29.29 0 0 0-.34-.234.3.3 0 0 0-.235.246c-.015.129.012.254.13.328m.442-.156c.05-.145.105-.286.156-.43a.3.3 0 0 0-.176-.383.3.3 0 0 0-.383.18v.004l-.152.433a.3.3 0 0 0 .184.375.294.294 0 0 0 .37-.18m.156-.43c.137-.371.293-.734.45-1.094a.303.303 0 0 0-.157-.398.297.297 0 0 0-.399.156c-.16.375-.32.75-.453 1.137a.296.296 0 0 0 .559.199m.45-1.094q.291-.673.612-1.336a.3.3 0 0 0-.14-.406.3.3 0 0 0-.407.14c-.218.446-.425.903-.62 1.36a.303.303 0 1 0 .554.242m.612-1.336c.149-.3.297-.61.473-.894a.307.307 0 0 0-.102-.418.3.3 0 0 0-.414.097c-.191.301-.347.625-.504.95a.303.303 0 0 0 .141.406.3.3 0 0 0 .406-.14m.473-.894.023-.043a.303.303 0 0 0 .266-.336.3.3 0 0 0-.055-.145.37.37 0 0 0-.523-.066c-.094.07-.164.172-.227.27a.303.303 0 0 0 .512.324q-.001-.005.004-.004m-.281-.207c.023.047.015.12.02.172q.004.165-.005.332a.305.305 0 0 0 .297.32.31.31 0 0 0 .324-.297v-.008c.004-.254.04-.613-.12-.836a.3.3 0 0 0-.422-.062.3.3 0 0 0-.094.379m.414 2.129c.11-.528.21-1.067.222-1.61a.31.31 0 0 0-.304-.316.317.317 0 0 0-.317.3c-.02.5-.125 1.004-.23 1.493-.04.176.07.347.246.383.172.039.344-.07.379-.247 0 0 .004 0 .004-.003m-.227 1.086c.074-.364.149-.723.227-1.086a.323.323 0 0 0-.25-.38.32.32 0 0 0-.38.247c-.077.36-.16.722-.237 1.082a.326.326 0 0 0 .25.387c.18.039.351-.07.39-.25m-.531.218c.027.02.055.04.086.051q.045.018.098.023c.175.016.285-.101.359-.242a.326.326 0 0 0-.145-.437.33.33 0 0 0-.363.043.33.33 0 0 0-.144.207c-.028.129 0 .265.109.355m.543-.168q.37-.727.746-1.46a.33.33 0 0 0-.144-.438.32.32 0 0 0-.434.14l-.75 1.461c-.086.16-.02.36.14.442a.33.33 0 0 0 .442-.14zm.746-1.46c.29-.575.582-1.145.871-1.723a.305.305 0 0 0-.137-.41.31.31 0 0 0-.402.117c-.328.558-.613 1.144-.91 1.718a.324.324 0 0 0 .14.438.32.32 0 0 0 .434-.14zm.871-1.723q.043-.088.09-.176h.004a.29.29 0 0 0 .125-.277.32.32 0 0 0-.117-.211 1 1 0 0 0-.067-.04q-.034-.012-.074-.019c-.254-.035-.39.246-.5.43a.31.31 0 0 0 .11.422c.144.086.331.039.417-.11q.006-.006.012-.02m-.367-.414q.002.188.004.375a.32.32 0 0 0 .32.312.317.317 0 0 0 .309-.32q.001-.02-.004-.031-.019-.187-.043-.375a.297.297 0 0 0-.328-.258.293.293 0 0 0-.258.297m.547 1.297c.062-.313.12-.645.082-.961a.314.314 0 0 0-.625.04c.004.26-.055.53-.11.784a.33.33 0 0 0 .254.394c.18.04.36-.074.399-.254zm-.211 1.062q.1-.529.21-1.062a.336.336 0 0 0-.257-.395.336.336 0 0 0-.394.258q-.118.534-.223 1.074a.337.337 0 1 0 .664.125m-.129.797c.031-.266.078-.531.129-.797a.338.338 0 0 0-.664-.125 7 7 0 0 0-.117.871.333.333 0 0 0 .312.344.33.33 0 0 0 .34-.293m-.45.582a.27.27 0 0 0 .36-.121c.07-.133.074-.313.09-.461a.325.325 0 1 0-.648-.07c0 .007-.004.011-.004.02-.008.21-.02.523.203.632m-.058-.04c.168.15.356.048.457-.109.063-.093.117-.195.176-.292a.17.17 0 0 0-.059-.23.17.17 0 0 0-.207.026q-.065.072-.14.137a.27.27 0 0 0-.313.219.26.26 0 0 0 .086.25M28.763 23.782c.004.02.012.094.015.133a.17.17 0 0 0 .188.145.174.174 0 0 0 .148-.145c.004-.039.012-.113.016-.137a.186.186 0 0 0-.152-.214.184.184 0 0 0-.215.152.2.2 0 0 0 0 .066m.355.106c.004-.051.016-.102.016-.149a.19.19 0 0 0-.195-.18.2.2 0 0 0-.125.055.2.2 0 0 0-.032.043c-.027.051-.03.114-.043.172-.02.102.051.203.153.219a.19.19 0 0 0 .222-.152c0-.004 0-.004.004-.008m-.258 1.968.258-1.968a.193.193 0 0 0-.168-.215.19.19 0 0 0-.21.156c-.122.649-.239 1.3-.36 1.95a.247.247 0 0 0 .195.285.244.244 0 0 0 .282-.196q0-.006.003-.012m-.253 1.961c.015-.183.046-.363.066-.546l.187-1.415a.25.25 0 0 0-.21-.273.243.243 0 0 0-.27.195c-.121.657-.254 1.313-.355 1.97a.293.293 0 0 0 .246.335.3.3 0 0 0 .336-.246zm-.008.133c0-.043.004-.09.008-.133a.29.29 0 0 0-.27-.316.29.29 0 0 0-.312.246c-.008.047-.016.09-.02.137a.298.298 0 0 0 .59.09q-.001-.012.004-.024m-.047.137.012-.016a.31.31 0 0 0-.114-.41.3.3 0 0 0-.41.113c-.004.012-.012.024-.015.036-.004.004-.004.011-.008.02a.296.296 0 0 0 .183.378.3.3 0 0 0 .352-.121m.039-.09c.02-.066.035-.137.055-.207a.305.305 0 0 0-.215-.371.31.31 0 0 0-.371.219v.004l-.051.21c-.04.16.062.325.223.364a.3.3 0 0 0 .359-.219m.055-.207c.07-.266.183-.523.285-.777a.304.304 0 1 0-.567-.223c-.109.277-.234.563-.304.852a.3.3 0 0 0 .222.363c.16.039.32-.059.364-.215m.285-.777c.176-.438.355-.88.543-1.313a.31.31 0 0 0-.16-.402.306.306 0 0 0-.399.164c-.191.437-.375.883-.55 1.328a.304.304 0 1 0 .566.223m.543-1.313c.176-.41.351-.816.547-1.219a.3.3 0 0 0-.141-.398.303.303 0 0 0-.398.137q-.305.609-.567 1.242a.3.3 0 0 0 .16.398.306.306 0 0 0 .399-.16m.547-1.219c.097-.207.195-.445.347-.62a.295.295 0 0 0-.449-.383v.003c-.184.215-.309.485-.437.739a.3.3 0 0 0 .132.402.3.3 0 0 0 .403-.133q-.001-.004.004-.008m-.016-.554a.304.304 0 0 0 .605-.047c-.011-.145-.03-.3-.117-.414-.152-.203-.426-.164-.574.015a.296.296 0 0 0 .035.415.4.4 0 0 0 .051.03m.574 1.094c.031-.38.059-.762.031-1.141a.305.305 0 0 0-.324-.281.3.3 0 0 0-.281.312c.012.352-.023.703-.059 1.051a.313.313 0 0 0 .282.348.317.317 0 0 0 .351-.282zm-.195 1.406c.09-.465.152-.934.195-1.406a.32.32 0 0 0-.289-.344.32.32 0 0 0-.344.285c-.046.45-.117.898-.203 1.344a.33.33 0 0 0 .258.383.327.327 0 0 0 .383-.258zm-.27 1.289c.102-.426.188-.856.27-1.29a.32.32 0 0 0-.258-.378.33.33 0 0 0-.383.258q-.121.634-.265 1.261a.327.327 0 0 0 .242.395c.176.039.351-.07.394-.246m-.148.633q.076-.317.148-.633a.327.327 0 1 0-.637-.148q-.076.315-.148.632a.327.327 0 1 0 .637.149m-.543.183q.058.052.133.074a.34.34 0 0 0 .14.008c.133-.02.22-.11.266-.222a.327.327 0 0 0-.176-.43.32.32 0 0 0-.351.062l-.004.004-.008.008v-.004a.33.33 0 0 0-.094.168.33.33 0 0 0 .094.332m.539-.14c.117-.278.23-.555.348-.832a.325.325 0 0 0-.176-.422.32.32 0 0 0-.422.172l-.355.824c-.07.168.007.36.171.433.168.07.36-.007.434-.175m.348-.832c.297-.715.605-1.426.91-2.137a.307.307 0 0 0-.559-.25c-.32.71-.64 1.422-.949 2.137a.32.32 0 0 0 .168.421.32.32 0 0 0 .426-.167zm.91-2.137c.156-.356.308-.711.469-1.063.07-.148.128-.304.214-.445a.303.303 0 0 0-.101-.414.304.304 0 0 0-.414.105q-.002.006-.004.012c-.27.504-.488 1.04-.723 1.555a.304.304 0 0 0 .153.406c.152.07.336.004.406-.152zm.683-1.508q.07-.122.141-.238a.304.304 0 0 0-.105-.422.305.305 0 0 0-.418.105q-.007.011-.008.016l-.13.242a.3.3 0 0 0 .122.406c.14.075.316.028.398-.109m-.148-.09a.314.314 0 0 0 .367-.242c.004-.035.008-.066.004-.098-.023-.171-.16-.308-.34-.3a.34.34 0 0 0-.273.191.304.304 0 0 0 .242.45m-.246-.289.012.246c.007.176.16.313.336.301a.316.316 0 0 0 .3-.332q.001-.012-.004-.023c-.007-.082-.02-.164-.027-.243a.315.315 0 0 0-.348-.273.31.31 0 0 0-.27.324m.582 1.106c.039-.293.101-.614.062-.914a.317.317 0 0 0-.633.055c.012.253-.046.519-.081.769a.33.33 0 0 0 .652.094zm-.207 1.293c.082-.43.148-.86.207-1.293a.33.33 0 0 0-.281-.371.33.33 0 0 0-.371.28c-.063.423-.133.84-.211 1.263a.333.333 0 0 0 .27.386.33.33 0 0 0 .386-.265m-.18 1.054q.084-.527.18-1.054a.334.334 0 1 0-.656-.121q-.102.532-.184 1.078a.334.334 0 0 0 .66.097m-.07.61c.008-.203.039-.407.07-.61a.334.334 0 0 0-.66-.097 6 6 0 0 0-.074.687.332.332 0 0 0 .664.02m.101.207a.2.2 0 0 0-.054-.274.2.2 0 0 0-.055-.023.333.333 0 0 0-.656.07c-.004.238.148.5.422.477.156-.016.261-.125.343-.25M35.173 24.724c.2-.07.348-.22.434-.407a.17.17 0 0 0-.086-.23.17.17 0 0 0-.23.082c-.005.012-.013.023-.013.04a.32.32 0 0 1-.199.241.145.145 0 0 0-.09.184c.028.074.11.117.184.09m.102-.606c.023.031.003-.012.007.008.004.031-.004.063-.007.09a.175.175 0 0 0 .328.11c.074-.137.117-.305.03-.45a.213.213 0 0 0-.296-.074.213.213 0 0 0-.074.297zm-.047 0c.02.004.05.008.066.024a.21.21 0 0 0 .305 0 .214.214 0 0 0 .035-.266.56.56 0 0 0-.297-.227.244.244 0 0 0-.309.149.243.243 0 0 0 .149.308.1.1 0 0 0 .05.012m-.184.051c.05-.023.121-.059.184-.05a.236.236 0 0 0 .27-.208.24.24 0 0 0-.161-.262.8.8 0 0 0-.484.012.272.272 0 0 0 .152.524q.023-.008.039-.016m-.32.39c.062-.1.129-.203.207-.288a.35.35 0 0 1 .113-.102.27.27 0 0 0 .133-.36.267.267 0 0 0-.324-.148c-.274.082-.477.344-.637.567a.31.31 0 0 0 .074.425.31.31 0 0 0 .426-.074q.007-.01.008-.02m-.473 1.005c.133-.344.281-.684.473-1.004a.297.297 0 0 0-.102-.414.3.3 0 0 0-.406.082c-.234.336-.418.71-.578 1.086a.33.33 0 0 0 .172.437.337.337 0 0 0 .437-.176q-.001-.006.004-.011m-.375 1.253q.135-.645.375-1.253a.33.33 0 0 0-.191-.426.326.326 0 0 0-.422.176 8 8 0 0 0-.446 1.347.352.352 0 0 0 .684.164zm-.805 1.024a.36.36 0 0 0 .403.312.36.36 0 0 0 .316-.398c-.039-.313.024-.637.086-.938a.351.351 0 0 0-.684-.156c-.09.383-.167.785-.12 1.18m0 0c.024.183.09.367.227.5.144.14.344.191.539.168a.355.355 0 0 0 .316-.39.36.36 0 0 0-.355-.317q-.007-.023-.008-.047a.361.361 0 1 0-.719.086m.766.668c.406-.047.719-.375.957-.68a.337.337 0 0 0-.52-.426c-.097.118-.207.23-.332.32a.35.35 0 0 1-.171.079.355.355 0 0 0 .054.707zm.957-.68a6.6 6.6 0 0 0 .773-1.312.31.31 0 0 0-.152-.403.303.303 0 0 0-.394.14c-.211.407-.45.802-.746 1.15a.34.34 0 0 0 .039.476c.14.117.351.101.472-.04q.004-.005.008-.01m.773-1.312a10.4 10.4 0 0 0 .54-1.489.27.27 0 0 0-.192-.332.273.273 0 0 0-.332.184 9 9 0 0 1-.562 1.375.3.3 0 0 0 .132.406.305.305 0 0 0 .407-.133q.004-.006.007-.011m.54-1.489c.109-.402.21-.808.289-1.218a.27.27 0 1 0-.532-.102q.001.006-.004.012c-.054.394-.16.781-.277 1.16-.043.14.04.293.18.34a.274.274 0 0 0 .34-.18q.002-.006.004-.012m.289-1.218q.034-.16.062-.325c.016-.097.04-.187-.012-.285a.28.28 0 0 0-.261-.156.292.292 0 0 0-.262.187.3.3 0 0 0-.02.16 3 3 0 0 1-.043.329c-.02.148.082.289.23.308a.27.27 0 0 0 .306-.218m-.024-.02.094-.379a.287.287 0 0 0-.543-.18q-.077.183-.148.364a.32.32 0 0 0 .171.414.317.317 0 0 0 .41-.176.1.1 0 0 0 .016-.043m-.2.899c.063-.297.126-.598.2-.899a.317.317 0 0 0-.23-.383.32.32 0 0 0-.367.188c-.125.304-.2.633-.27.953a.341.341 0 1 0 .668.144zm-.222 1.132q.106-.567.223-1.132a.34.34 0 0 0-.266-.403.345.345 0 0 0-.402.262q-.124.575-.23 1.148a.346.346 0 0 0 .277.403.345.345 0 0 0 .398-.278m-.12.809c.023-.274.073-.54.12-.809a.34.34 0 0 0-.273-.398.346.346 0 0 0-.402.273 6 6 0 0 0-.11.895c0 .183.145.336.328.34.172 0 .32-.13.336-.301m-.286.605a.296.296 0 0 0 .277-.472c0-.043.004-.09.008-.133a.336.336 0 0 0-.3-.363.33.33 0 0 0-.36.3q-.002.012-.004.024c-.004.262.07.601.379.644m0 0c.309.043.473-.296.582-.523a.236.236 0 0 0-.113-.316.23.23 0 0 0-.293.074 1 1 0 0 1-.145.176.297.297 0 0 0-.031.59m.582-.523q.209-.446.348-.914a.18.18 0 0 0-.121-.23.18.18 0 0 0-.227.109c-.105.281-.234.55-.406.793a.237.237 0 1 0 .387.273q.008-.013.02-.031m.348-.914c.097-.309.183-.613.265-.926a.163.163 0 0 0-.12-.2.164.164 0 0 0-.204.118c-.078.3-.18.598-.289.887a.184.184 0 0 0 .11.238c.093.035.199-.012.238-.105zm.265-.926c.043-.172.082-.363.168-.52a.187.187 0 0 0-.078-.253.18.18 0 0 0-.25.074q-.012.023-.02.05a15 15 0 0 1-.144.567c-.023.09.031.18.121.203a.17.17 0 0 0 .203-.117zm.168-.52q.05-.094.098-.183a.22.22 0 0 0-.09-.293.214.214 0 0 0-.289.09c-.012.015-.016.035-.02.055l-.046.203a.19.19 0 0 0 .14.222.2.2 0 0 0 .207-.093m-.297-.222v.016c0 .128.102.23.23.23a.233.233 0 0 0 .231-.227c0-.011-.004-.02-.004-.03-.015-.126-.062-.255-.207-.282h-.05q-.031 0-.055.012a.23.23 0 0 0-.148.172.2.2 0 0 0 .003.109m.524.527q-.03-.27-.067-.539a.23.23 0 0 0-.457.028v.546a.26.26 0 0 0 .262.262.26.26 0 0 0 .266-.262q.001-.017-.004-.035m.016 1.02c.023-.34.027-.68-.016-1.02a.26.26 0 0 0-.293-.226.26.26 0 0 0-.23.261q-.007.47-.055.934a.298.298 0 0 0 .594.059zm-.188 1.332c.082-.442.152-.887.188-1.332a.294.294 0 0 0-.274-.317.297.297 0 0 0-.32.266c-.04.426-.11.848-.192 1.266a.306.306 0 0 0 .239.359.307.307 0 0 0 .359-.242m-.73.64a.3.3 0 0 0 .105.215c.133.11.324.094.434-.035l.02-.027a.5.5 0 0 0 .046-.098l.012-.07c.031-.211.074-.418.113-.625a.307.307 0 0 0-.242-.36.305.305 0 0 0-.356.243q-.051.25-.097.5c-.016.082-.043.175-.035.257m.605.055q.051-.2.11-.394a.31.31 0 0 0-.215-.38.31.31 0 0 0-.38.216c-.035.132-.074.261-.109.394a.307.307 0 1 0 .594.164m.11-.394c.085-.313.195-.621.308-.93a.306.306 0 0 0-.188-.39.307.307 0 0 0-.394.183c-.113.32-.23.644-.32.973a.307.307 0 1 0 .593.164m.308-.93q.227-.634.484-1.262a.306.306 0 0 0-.168-.402.306.306 0 0 0-.402.168q-.263.639-.496 1.289a.309.309 0 0 0 .582.207m.484-1.262c.153-.375.328-.742.54-1.086a.304.304 0 0 0-.516-.324c-.235.371-.43.77-.594 1.176-.066.16.012.34.168.402a.31.31 0 0 0 .402-.168m.54-1.086c.175-.289.378-.558.617-.793a.29.29 0 0 0 .004-.406.29.29 0 0 0-.399-.012 4.4 4.4 0 0 0-.738.887.303.303 0 1 0 .512.328zm.617-.793c.23-.226.48-.441.742-.636a.256.256 0 0 0-.29-.422c-.3.187-.585.402-.847.64a.286.286 0 0 0-.02.407.28.28 0 0 0 .403.02q.006-.001.012-.009m.742-.636c.265-.196.523-.395.773-.606a.216.216 0 0 0 .028-.3.21.21 0 0 0-.282-.04q-.405.265-.808.524a.26.26 0 0 0-.082.355.26.26 0 0 0 .37.067m.773-.606q.294-.247.582-.5a.184.184 0 0 0 .016-.258.184.184 0 0 0-.254-.02c-.191.157-.395.302-.598.438a.21.21 0 0 0-.058.293.21.21 0 0 0 .293.059zm.461-.453a.236.236 0 0 0 .203.262.234.234 0 0 0 .262-.203.2.2 0 0 0 0-.067c-.02-.14-.062-.3-.187-.383-.137-.09-.286-.027-.395.067a.185.185 0 0 0-.027.258c.039.043.09.066.144.066m.086 2.18c.121-.457.234-.914.317-1.38.046-.257.101-.542.062-.808a.234.234 0 0 0-.266-.195.24.24 0 0 0-.199.203c-.027.23-.094.457-.148.68-.117.445-.246.886-.375 1.332a.31.31 0 0 0 .215.39.32.32 0 0 0 .394-.215zm-.601 2.437c.183-.816.394-1.629.601-2.437a.31.31 0 0 0-.226-.387.317.317 0 0 0-.383.219c-.239.812-.48 1.625-.672 2.453a.344.344 0 0 0 .258.418.355.355 0 0 0 .422-.262zm-.207 1.14c.035-.382.12-.76.207-1.14a.346.346 0 0 0-.266-.414.345.345 0 0 0-.414.262 9 9 0 0 0-.235 1.222.35.35 0 0 0 .313.391.356.356 0 0 0 .395-.312zm-.137.673a.36.36 0 0 0 .254-.442.36.36 0 0 0-.121-.183c0-.016.004-.032.004-.047a.355.355 0 0 0-.32-.387.35.35 0 0 0-.388.317c-.02.144-.023.3.024.44.078.231.312.364.547.302m0 0c.351-.094.48-.52.562-.828a.35.35 0 0 0-.242-.43.355.355 0 0 0-.426.234c-.035.117-.078.25-.148.356a.357.357 0 0 0-.16.48.36.36 0 0 0 .414.188m.562-.828c.117-.418.157-.852.157-1.282a.328.328 0 0 0-.657-.008 3.9 3.9 0 0 1-.168 1.094.35.35 0 0 0 .227.438.35.35 0 0 0 .437-.23q.005-.008.004-.012m-.691-2.516c.133.394.203.809.191 1.226a.328.328 0 1 0 .656.016v-.008c0-.488-.085-.972-.234-1.437a.324.324 0 0 0-.406-.207.32.32 0 0 0-.207.41m-.504-1.332q.276.657.504 1.332a.316.316 0 0 0 .406.203.323.323 0 0 0 .207-.406 20 20 0 0 0-.512-1.383.33.33 0 0 0-.43-.18.33.33 0 0 0-.179.43q-.001.005.004.004m-.473-1.246q.207.632.473 1.246c.07.168.262.246.43.176a.327.327 0 0 0 .175-.43 18 18 0 0 1-.449-1.2.33.33 0 0 0-.418-.21.33.33 0 0 0-.21.418m-.207-.688c.043.235.133.465.207.688.055.176.243.27.418.21a.33.33 0 0 0 .211-.417q-.1-.318-.207-.637a.324.324 0 0 0-.41-.207.33.33 0 0 0-.219.363m0 0c.032.176.2.297.375.266a.323.323 0 0 0 .254-.422c-.047-.144-.172-.281-.336-.281a.3.3 0 0 0-.129.031c-.144.078-.187.258-.164.406M53.552 23.153c.164-.195.207-.496.25-.734a.164.164 0 1 0-.324-.059q.001.007-.004.008a2.4 2.4 0 0 1-.074.406.5.5 0 0 1-.075.184.15.15 0 0 0 .016.211c.062.055.16.047.21-.016m-.164-1.172c.09.11.101.254.086.391a.166.166 0 0 0 .148.18.163.163 0 0 0 .18-.13c.043-.23.027-.468-.098-.671a.195.195 0 0 0-.27-.062.195.195 0 0 0-.062.27q.005.011.016.022m-.399-.078c.121-.011.309-.027.399.078a.2.2 0 0 0 .277.028.2.2 0 0 0 .04-.258c-.153-.25-.466-.32-.743-.316a.235.235 0 0 0-.23.238c0 .129.105.234.234.234q.012.001.023-.004m-.789.551c.2-.223.473-.515.79-.55a.236.236 0 0 0 .21-.258.24.24 0 0 0-.238-.211c-.457.007-.852.336-1.16.64a.27.27 0 0 0 .004.387.276.276 0 0 0 .386 0q.004-.007.008-.008m-.875 1.309c.235-.473.52-.918.875-1.309a.273.273 0 0 0-.02-.387.274.274 0 0 0-.378.008 6 6 0 0 0-1.02 1.414.304.304 0 0 0 .54.282q.001-.001.003-.008m-.504 1.375c.102-.48.29-.938.504-1.375a.303.303 0 0 0-.14-.407.3.3 0 0 0-.403.133c-.25.477-.468.977-.597 1.5a.327.327 0 0 0 .242.395.325.325 0 0 0 .394-.238zm-.464 1.066a.343.343 0 0 0 .48.008.336.336 0 0 0 .008-.48c0-.004-.004-.004-.004-.008-.04-.035-.05-.098-.055-.149a1.3 1.3 0 0 1 .035-.437.327.327 0 0 0-.25-.39.33.33 0 0 0-.386.241c-.098.399-.137.89.172 1.215m0 0c.34.352.875.223 1.27.05a.34.34 0 0 0 .179-.448.34.34 0 0 0-.45-.18c-.132.055-.277.11-.421.117-.028 0-.07.004-.094-.02a.34.34 0 0 0-.48.005.346.346 0 0 0-.004.476m1.27.05c.534-.226 1-.593 1.413-.995a.344.344 0 0 0 .004-.485.344.344 0 0 0-.484-.003c-.352.34-.75.66-1.203.855a.337.337 0 0 0-.18.45.34.34 0 0 0 .45.179m1.413-.995c.434-.43.817-.914 1.106-1.453a.33.33 0 0 0-.137-.446.326.326 0 0 0-.438.13c-.27.472-.62.898-1.011 1.28a.34.34 0 0 0-.004.481c.129.137.347.14.48.008zm1.106-1.453c.226-.426.418-.895.421-1.383a.31.31 0 0 0-.308-.317.314.314 0 0 0-.32.31c-.008.378-.188.75-.368 1.073a.325.325 0 0 0 .121.446c.16.09.36.035.45-.121 0-.004.004-.008.004-.008m-.297-1.79c.031.016.043.051.054.083.036.097.04.21.036.316a.314.314 0 1 0 .629.012v-.004c.003-.344-.067-.734-.372-.942a.31.31 0 0 0-.441.083.31.31 0 0 0 .082.44zm-.032-.019a.1.1 0 0 1 .032.02c.152.09.347.043.441-.11a.316.316 0 0 0-.094-.426c-.257-.18-.586-.195-.828.024a.33.33 0 0 0-.023.469.333.333 0 0 0 .469.027q.002-.005.003-.004m-.687.258a.34.34 0 0 0 .398.27.337.337 0 0 0 .27-.395c-.012-.055-.012-.102.027-.14a.334.334 0 0 0 .004-.473.34.34 0 0 0-.46-.012.8.8 0 0 0-.239.75m0 0c.074.375.43.566.773.64a.34.34 0 0 0 .403-.253.337.337 0 0 0-.254-.403.7.7 0 0 1-.203-.07c-.012-.008-.047-.023-.051-.04a.34.34 0 0 0-.398-.269.337.337 0 0 0-.27.395m.773.64c.426.094.88.047 1.301-.042a.333.333 0 0 0 .258-.395.33.33 0 0 0-.39-.254c-.329.063-.688.11-1.02.035a.333.333 0 0 0-.402.254c-.043.18.07.36.25.403zm1.301-.042a3.9 3.9 0 0 0 1.48-.676.32.32 0 0 0 .071-.45.32.32 0 0 0-.445-.074c-.371.262-.79.461-1.239.551a.33.33 0 0 0-.257.387c.035.18.21.297.39.262m1.48-.676c.446-.324.833-.73 1.11-1.207a.315.315 0 0 0-.11-.426.32.32 0 0 0-.425.11c-.238.398-.57.73-.95 1a.32.32 0 0 0-.077.445.32.32 0 0 0 .449.078zm1.11-1.207c.266-.453.45-.95.547-1.461a.315.315 0 0 0-.25-.367.31.31 0 0 0-.367.25q-.005.001-.004.007c-.07.442-.227.872-.461 1.254a.31.31 0 0 0 .11.426c.144.09.335.043.425-.105zm.547-1.461c.14-.738.164-1.504.184-2.254a.34.34 0 0 0-.333-.348.34.34 0 0 0-.351.332v.008c0 .715-.004 1.445-.121 2.152a.316.316 0 0 0 .62.11m-.54-3.895c.036.153.028.325.032.48.012.384.012.766.008 1.153 0 .188.152.34.34.34a.337.337 0 0 0 .343-.332q.018-.583.024-1.168c0-.203.008-.41-.024-.606a.365.365 0 0 0-.417-.312.37.37 0 0 0-.313.418c.004.008.004.02.008.027m.11.192a.367.367 0 0 0 .613-.324c-.019-.153-.074-.305-.199-.399-.203-.156-.468-.078-.62.106a.384.384 0 0 0 .054.539c.043.039.098.066.152.078m.207.484c.04-.156.078-.316.13-.473.015-.043.042-.128.062-.156a.385.385 0 0 0-.605-.473c-.204.247-.27.618-.345.918-.05.211.079.422.286.473.21.05.421-.078.472-.285zm-.293 1.535c.082-.515.172-1.027.293-1.535a.385.385 0 0 0-.289-.469.39.39 0 0 0-.469.285 22 22 0 0 0-.316 1.594.397.397 0 0 0 .781.13zm-.324 1.942c.113-.649.219-1.293.324-1.942a.397.397 0 0 0-.328-.453.4.4 0 0 0-.453.328c-.105.645-.215 1.285-.324 1.93a.396.396 0 1 0 .781.137m-.457 2.109a26 26 0 0 0 .457-2.11.396.396 0 1 0-.781-.136 26 26 0 0 1-.438 2.05.393.393 0 1 0 .762.196m-.691 2.074c.28-.672.507-1.367.691-2.074a.393.393 0 1 0-.762-.195 17 17 0 0 1-.636 1.984.381.381 0 0 0 .707.285m-.887 1.61c.371-.489.652-1.043.887-1.61a.385.385 0 0 0-.203-.5.385.385 0 0 0-.5.207q-.005.001-.004.008a7.8 7.8 0 0 1-.75 1.484.35.35 0 0 0 .57.41m-1.094.921c.445-.195.805-.539 1.094-.921a.35.35 0 0 0-.066-.496.355.355 0 0 0-.497.07q-.006.005-.007.015c-.211.309-.47.602-.797.786a.307.307 0 0 0-.117.418.31.31 0 0 0 .39.128m-1.09.262a2.9 2.9 0 0 0 1.09-.262.307.307 0 0 0 .156-.402.3.3 0 0 0-.402-.156l-.027.012a2.06 2.06 0 0 1-.844.28.263.263 0 0 0-.242.286c.012.14.129.246.27.242m-.824-.144c.246.136.547.152.824.144a.265.265 0 0 0 .258-.27.265.265 0 0 0-.27-.257h-.015c-.148.012-.371.031-.496-.067a.27.27 0 0 0-.379.043.27.27 0 0 0 .043.383zm-.383-.63a.74.74 0 0 0 .383.63.27.27 0 0 0 .3-.45.14.14 0 0 1-.054-.14.32.32 0 0 0-.258-.367.32.32 0 0 0-.367.261c-.004.024-.004.043-.004.067m0 0a.313.313 0 0 0 .328.305.31.31 0 0 0 .301-.265c.028-.153.207-.297.317-.395a.36.36 0 0 0 .03-.508.363.363 0 0 0-.507-.03l-.016.015c-.23.23-.464.535-.453.879m.946-.355c.285-.254.609-.465.937-.664a.383.383 0 1 0-.394-.656q-.001.005-.008.004c-.364.23-.723.488-1.028.793a.36.36 0 0 0 0 .508.354.354 0 0 0 .493.015m.937-.664c.445-.265.899-.523 1.352-.777a.397.397 0 0 0 .152-.54.397.397 0 0 0-.54-.152q0 .002-.003.004c-.457.262-.914.532-1.363.813a.39.39 0 0 0-.117.531c.109.176.34.23.52.121m1.352-.777q.796-.45 1.605-.883a.399.399 0 0 0-.379-.703 81 81 0 0 0-1.617.898.39.39 0 0 0-.144.536.39.39 0 0 0 .535.152m1.605-.883a203 203 0 0 0 3-1.668.253.253 0 0 0 .094-.34.25.25 0 0 0-.305-.11c-1.082.415-2.152.864-3.168 1.415a.4.4 0 0 0 .379.703M68.993 22.61c.324-.332.582-.718.793-1.129a.164.164 0 0 0-.07-.218.164.164 0 0 0-.219.07q.001.005-.004.004a3.7 3.7 0 0 1-.715 1.062.15.15 0 0 0 .004.215.15.15 0 0 0 .211-.004m.793-1.129a3.5 3.5 0 0 0 .317-.855.188.188 0 0 0-.368-.078l-.003.012a2.7 2.7 0 0 1-.239.78.166.166 0 0 0 .082.216.163.163 0 0 0 .211-.075m-.078-1.304c.074.09.04.281.024.383-.012.105.058.199.16.21a.187.187 0 0 0 .21-.144c.048-.219.087-.477-.015-.687a.224.224 0 1 0-.406.19.3.3 0 0 0 .027.048m-.172.144a1 1 0 0 1 .211-.109.22.22 0 0 0 .317-.043.22.22 0 0 0 .023-.23c-.156-.333-.562-.211-.812-.083a.267.267 0 1 0 .242.477zm-.89 1.028c.164-.235.332-.47.52-.684.109-.125.23-.254.37-.344a.27.27 0 0 0 .086-.37.27.27 0 0 0-.347-.095 2.1 2.1 0 0 0-.528.422c-.219.223-.41.473-.594.723a.3.3 0 0 0 .067.422c.133.098.324.07.422-.067 0 0 .004-.003.004-.007m-1.121 1.84q.513-.95 1.12-1.84a.3.3 0 0 0-.078-.418.3.3 0 0 0-.414.07q-.656.898-1.207 1.86a.33.33 0 0 0 .121.453c.16.093.36.039.454-.122zm-.848 1.832c.23-.633.523-1.243.848-1.832a.337.337 0 0 0-.133-.454.33.33 0 0 0-.446.125 14 14 0 0 0-.933 1.91.356.356 0 0 0 .664.258zm-.945 1.222a.369.369 0 1 0 .727-.14c0-.004-.005-.008-.005-.012a.9.9 0 0 1 .02-.363c.043-.243.12-.477.203-.707a.356.356 0 0 0-.664-.25c-.172.445-.38.984-.281 1.472m0 0c.05.262.238.473.503.52.235.043.473-.04.684-.14a.374.374 0 0 0 .176-.5.374.374 0 0 0-.5-.177q-.082.037-.168.067a.37.37 0 0 0-.492-.172.37.37 0 0 0-.203.402m1.187.38c.598-.286 1.074-.825 1.484-1.333a.36.36 0 0 0-.55-.46c-.356.413-.758.878-1.258 1.116a.374.374 0 0 0-.176.5.37.37 0 0 0 .5.176m1.484-1.333a13 13 0 0 0 1.43-2.16.326.326 0 0 0-.137-.441.32.32 0 0 0-.437.128c-.402.711-.871 1.391-1.406 2.012a.36.36 0 1 0 .547.469c0-.004.003-.004.003-.008m1.43-2.16c.367-.688.688-1.418.867-2.18a.296.296 0 0 0-.222-.355.295.295 0 0 0-.356.21c-.187.708-.504 1.376-.863 2.012a.326.326 0 1 0 .57.32q-.001 0 .004-.007m.867-2.18c.098-.418.223-.851.246-1.281a.283.283 0 0 0-.566-.031v.004a2 2 0 0 1-.066.394c-.055.258-.122.516-.192.77a.297.297 0 1 0 .574.152c0-.004 0-.004.004-.008m.246-1.281c.004-.11.012-.215.016-.324a.28.28 0 0 0-.266-.301.287.287 0 0 0-.3.27q-.005.163-.016.328a.28.28 0 0 0 .27.293.28.28 0 0 0 .296-.266m-.09-.121a.28.28 0 0 0 .106-.203.3.3 0 0 0-.145-.285l-.054-.024a.2.2 0 0 0-.059-.012c-.152-.015-.254.082-.316.207a.28.28 0 0 0 .125.383.276.276 0 0 0 .344-.066m-.19.465c.077-.18.16-.356.237-.535a.285.285 0 0 0-.144-.38.283.283 0 0 0-.371.133l-.27.52a.31.31 0 0 0 .133.41.303.303 0 0 0 .406-.133c.004-.004.004-.011.008-.015m-.56 1.554c.169-.523.336-1.05.56-1.554a.3.3 0 0 0-.153-.399.305.305 0 0 0-.395.137c-.258.512-.441 1.066-.629 1.61a.324.324 0 1 0 .613.21c.005 0 .005-.004.005-.004m-.726 2.278q.357-1.142.727-2.278a.327.327 0 0 0-.207-.41.326.326 0 0 0-.41.203 92 92 0 0 0-.758 2.278.34.34 0 1 0 .648.207m-.563 2c.165-.672.356-1.34.563-2a.34.34 0 1 0-.648-.207 29 29 0 0 0-.59 2.043.353.353 0 0 0 .254.422.35.35 0 0 0 .421-.258m-.875 1.07a.341.341 0 0 0 .68-.05c-.004-.106.024-.22.04-.321.042-.234.097-.465.155-.7a.35.35 0 0 0-.257-.417.35.35 0 0 0-.418.254c-.059.246-.117.492-.16.742-.028.16-.055.328-.04.492m0 0c.016.184.114.363.297.43.16.058.328 0 .457-.094a.31.31 0 0 0 .07-.43.32.32 0 0 0-.195-.12.342.342 0 0 0-.629.214m.747.34c.21-.14.328-.406.421-.633.157-.371.27-.758.375-1.14a.155.155 0 0 0-.29-.11c-.159.348-.327.695-.53 1.016a2 2 0 0 1-.2.265.3.3 0 0 1-.073.07.306.306 0 0 0-.153.407c.07.152.25.223.407.152a.2.2 0 0 0 .043-.027M73.157 17.755c.035-.274.067-.55.106-.82a.205.205 0 0 0-.172-.227.2.2 0 0 0-.223.172v.016c-.015.273-.039.55-.058.824a.17.17 0 0 0 .16.183.173.173 0 0 0 .187-.148m-.293-.86v.004c-.004.11.082.2.192.204a.2.2 0 0 0 .195-.125.24.24 0 0 0 .016-.106.2.2 0 0 0-.059-.125.3.3 0 0 0-.058-.039.2.2 0 0 0-.266.102c-.004.004-.004.007-.008.015q-.007.022-.008.051-.005.01-.004.02m.422.18q-.006-.098-.02-.203a.2.2 0 0 0-.398.004q-.012.098-.02.203a.22.22 0 1 0 .438.04.1.1 0 0 0 0-.044m-.07.985c.039-.317.105-.66.07-.985a.22.22 0 0 0-.437.004c-.028.305-.09.606-.14.906a.255.255 0 1 0 .504.086c-.001-.004.003-.007.003-.011m-.297 1.75c.117-.579.223-1.16.297-1.75a.26.26 0 0 0-.223-.286.26.26 0 0 0-.285.211 31 31 0 0 1-.344 1.707.285.285 0 0 0 .215.34.285.285 0 0 0 .34-.215zm-.516 2.199c.192-.727.372-1.461.516-2.2a.28.28 0 0 0-.223-.331.285.285 0 0 0-.332.214 46 46 0 0 1-.55 2.157.3.3 0 0 0 .21.375.305.305 0 0 0 .38-.211zm-.62 2.21c.222-.734.425-1.472.62-2.21a.307.307 0 0 0-.218-.375.307.307 0 0 0-.371.215q-.305 1.095-.645 2.183a.325.325 0 0 0 .211.403.32.32 0 0 0 .402-.211zm-.872 2.458c.36-.793.621-1.63.871-2.457a.321.321 0 0 0-.613-.187c-.254.827-.504 1.663-.656 2.519a.21.21 0 0 0 .172.246.21.21 0 0 0 .226-.121m0 0"/><path d="M69.407 24.68c.149.114.32.196.489.27.09.043.191.004.234-.086a.176.176 0 0 0-.086-.23c-.125-.055-.27-.125-.352-.235a.2.2 0 0 0-.285-.046.205.205 0 0 0 0 .328m.012.009a.2.2 0 0 0 .281-.063.2.2 0 0 0 .012-.195c-.008-.02-.012-.012.012-.059a.25.25 0 0 0-.114-.332.25.25 0 0 0-.335.113q-.01.024-.02.047c-.043.184 0 .383.164.489m.29-.29c.062-.097.21-.171.308-.234.23-.152.472-.289.71-.43a.287.287 0 0 0-.285-.496q-.003.002-.007.004c-.27.168-.543.34-.797.531-.14.11-.336.243-.383.426a.254.254 0 0 0 .184.305.25.25 0 0 0 .27-.106m1.019-.664a26 26 0 0 0 1.71-1.05.303.303 0 0 0 .083-.422.31.31 0 0 0-.426-.086c-.543.37-1.102.722-1.66 1.066a.287.287 0 0 0 .293.492m1.71-1.05q.646-.434 1.227-.954a.31.31 0 0 0 .024-.433.31.31 0 0 0-.434-.02c-.363.328-.754.625-1.16.899a.31.31 0 0 0-.082.426c.094.14.285.18.426.082m1.227-.954c.367-.328.695-.699.973-1.109a.29.29 0 0 0-.074-.406.295.295 0 0 0-.403.066q-.406.546-.906.996a.304.304 0 0 0-.023.434.304.304 0 0 0 .433.02m.973-1.109c.265-.39.5-.805.687-1.238a.25.25 0 0 0-.129-.336.26.26 0 0 0-.332.113q-.31.587-.703 1.121a.29.29 0 0 0 .059.41c.133.098.316.07.414-.058q.002-.006.004-.012m.687-1.238q.276-.622.504-1.274a.226.226 0 0 0-.14-.285.223.223 0 0 0-.286.133q-.234.622-.539 1.203a.254.254 0 0 0 .11.348c.125.066.277.02.343-.106.004-.007.008-.011.008-.02m.504-1.274.246-.71a.215.215 0 0 0-.133-.278.217.217 0 0 0-.277.129l-.262.707a.23.23 0 0 0 .133.293.224.224 0 0 0 .29-.133c0-.004.003-.004.003-.008m.172-.605a.22.22 0 0 0 .106-.164.24.24 0 0 0-.07-.219.2.2 0 0 0-.083-.047.24.24 0 0 0-.117-.004c-.098.024-.14.098-.172.18a.22.22 0 0 0 .129.281.23.23 0 0 0 .207-.027m.035.414.07-.578a.222.222 0 0 0-.433-.09q-.08.284-.16.566c-.04.141.043.29.187.329.14.039.285-.043.328-.188q.001-.017.008-.039m-.293 1.422c.117-.469.23-.942.293-1.422a.27.27 0 0 0-.234-.297.27.27 0 0 0-.29.195c-.124.454-.257.903-.39 1.356a.327.327 0 0 0 .219.398.32.32 0 0 0 .398-.218q.002-.006.004-.012m-.5 1.871q.259-.932.5-1.871a.32.32 0 0 0-.23-.39.325.325 0 0 0-.39.222c-.18.617-.364 1.23-.548 1.848a.35.35 0 0 0 .235.433.35.35 0 0 0 .433-.234zm-.562 1.945q.293-.966.562-1.945a.344.344 0 0 0-.242-.43.35.35 0 0 0-.426.239 109 109 0 0 1-.59 1.921.37.37 0 0 0 .239.457.37.37 0 0 0 .457-.238zm-.492 1.688c.156-.567.32-1.125.492-1.688a.364.364 0 0 0-.242-.453.37.37 0 0 0-.454.238 53 53 0 0 0-.503 1.707.367.367 0 1 0 .707.195m-.309 1.176c.098-.391.203-.786.309-1.176a.364.364 0 0 0-.258-.45.363.363 0 0 0-.45.254q-.164.597-.312 1.2a.367.367 0 0 0 .27.441.37.37 0 0 0 .441-.27m-.813.472c.016.168.168.29.336.27a.26.26 0 0 0 .118-.04c.226-.128.3-.468.359-.702a.37.37 0 0 0-.27-.442.365.365 0 0 0-.441.266v.004c-.05.199-.125.433-.102.644m-.054.078c.11.22.355.29.55.121a.3.3 0 0 0 .04-.425.304.304 0 0 0-.504.05.193.193 0 0 0-.086.254m0 0"/><path d="M72.13 24.274c.012.301.2.575.375.81a.15.15 0 0 0 .21.026.15.15 0 0 0 .028-.21c-.11-.145-.289-.387-.234-.583a.194.194 0 0 0-.137-.234.19.19 0 0 0-.234.137.2.2 0 0 0-.008.054m0 .012c.012.106.105.18.21.172a.2.2 0 0 0 .165-.129c.043-.137.223-.25.328-.328a.25.25 0 0 0 .055-.352.253.253 0 0 0-.352-.05l-.015.011c-.188.164-.414.403-.391.676m.703-.285c.418-.309.879-.566 1.324-.832a.28.28 0 1 0-.285-.484q-.004.002-.008.004c-.457.285-.937.566-1.343.921a.25.25 0 0 0-.024.352c.086.102.23.117.336.039m1.324-.832a30 30 0 0 0 1.621-1.012.3.3 0 0 0 .079-.41.3.3 0 0 0-.41-.078c-.52.355-1.047.687-1.583 1.02a.283.283 0 0 0-.09.386.28.28 0 0 0 .383.094m1.621-1.012q.205-.14.414-.27c.07-.046.145-.097.223-.124a.3.3 0 0 0 .184-.38.3.3 0 0 0-.348-.194c-.113.027-.215.097-.312.16-.168.101-.329.21-.493.32a.3.3 0 0 0-.078.41.29.29 0 0 0 .41.078m.336-.453.012.11c.008.167.152.3.324.289a.31.31 0 0 0 .293-.325c0-.004-.004-.007-.004-.011a1 1 0 0 0-.066-.328c-.07-.168-.234-.29-.422-.25a.3.3 0 0 0-.226.355.3.3 0 0 0 .09.16m.575 1.059c.046-.328.082-.664.05-.996a.3.3 0 0 0-.336-.278.304.304 0 0 0-.277.325c.012.28-.031.574-.078.851-.031.18.09.348.266.375a.326.326 0 0 0 .375-.266zm-.29 1.281c.13-.418.231-.844.29-1.281a.32.32 0 0 0-.278-.364.32.32 0 0 0-.363.266c-.066.399-.168.79-.293 1.172a.338.338 0 1 0 .64.215q.006-.004.005-.008m-.46 1.238q.262-.604.46-1.238a.337.337 0 0 0-.222-.422.337.337 0 0 0-.422.215q-.198.595-.45 1.168a.345.345 0 0 0 .177.457c.175.078.378 0 .457-.176zm-.375.82c.14-.265.257-.542.375-.82a.347.347 0 0 0-.18-.457.347.347 0 0 0-.453.18c-.117.262-.23.523-.364.777a.349.349 0 1 0 .621.32m-.157.305q.082-.152.157-.304a.35.35 0 0 0-.149-.473.355.355 0 0 0-.473.152c-.05.102-.105.203-.156.305a.346.346 0 0 0 .153.469c.171.09.382.023.468-.149m-.597.086a.34.34 0 0 0 .215.125.35.35 0 0 0 .199-.023.37.37 0 0 0 .183-.188.3.3 0 0 0 .035-.105.352.352 0 0 0-.66-.242c-.054.144-.09.293.028.433m.629-.183.222-.555a.36.36 0 0 0-.203-.465.356.356 0 0 0-.465.203s-.004.004-.004.008c-.07.184-.136.371-.207.559a.36.36 0 0 0 .207.453.355.355 0 0 0 .45-.203m.222-.555c.153-.39.36-.762.563-1.133a.366.366 0 0 0-.64-.351h-.005c-.215.398-.433.804-.59 1.23-.07.184.028.39.211.457.184.07.387-.02.461-.203m.563-1.133q.387-.709.82-1.394a.37.37 0 0 0-.117-.508.367.367 0 0 0-.508.113c-.297.473-.574.953-.84 1.438a.366.366 0 0 0 .149.496.363.363 0 0 0 .496-.145m.82-1.394a9 9 0 0 1 .746-1.055.37.37 0 0 0-.05-.512.364.364 0 0 0-.508.047c-.301.352-.567.734-.813 1.125a.37.37 0 0 0 .117.512.37.37 0 0 0 .508-.117m.746-1.055c.145-.18.309-.383.516-.496a.336.336 0 0 0 .133-.461.337.337 0 0 0-.426-.152c-.313.128-.567.39-.781.644a.364.364 0 0 0 .039.512c.152.129.382.11.511-.043.004 0 .004 0 .008-.004m.516-.496c.043-.024.136-.082.191-.067.16.043.324-.05.363-.21a.29.29 0 0 0-.128-.329c-.22-.136-.493-.101-.72-.007a.34.34 0 0 0-.187.445c.075.176.27.258.446.183a.1.1 0 0 0 .035-.015m.156-.078c.027.011.012-.008.035.027.035.05.05.117.067.176.035.133.168.21.3.176a.244.244 0 0 0 .184-.262c-.027-.242-.098-.508-.316-.645a.297.297 0 1 0-.27.528m.102.203c.07.262.054.547.023.812a.23.23 0 0 0 .2.246.224.224 0 0 0 .245-.199v-.004c.032-.312.051-.629.016-.941a.245.245 0 1 0-.488.05q.002.018.004.036m.234 2.023c.113-.379.195-.77.234-1.168a.223.223 0 0 0-.199-.242.23.23 0 0 0-.246.2 4.7 4.7 0 0 1-.238 1.066.234.234 0 0 0 .148.3.24.24 0 0 0 .3-.144zm-.387 1.114q.224-.546.387-1.114a.233.233 0 0 0-.156-.293.24.24 0 0 0-.293.149c-.121.36-.262.71-.414 1.054a.26.26 0 0 0 .129.344c.132.059.285 0 .343-.133 0 0 .004-.004.004-.007m-.32.742c.121-.242.219-.492.32-.742a.256.256 0 0 0-.144-.336.25.25 0 0 0-.332.132c-.106.235-.211.473-.328.704a.27.27 0 0 0 .12.359.27.27 0 0 0 .364-.117m-.117.226.117-.226a.27.27 0 0 0-.121-.364.27.27 0 0 0-.363.122 6 6 0 0 1-.114.226.27.27 0 0 0 .121.363.27.27 0 0 0 .36-.12m-.399.117q.03.017.059.028.032.011.062.015a.28.28 0 0 0 .278-.16.27.27 0 0 0-.117-.363.27.27 0 0 0-.207-.012h-.008l-.004.004a.27.27 0 0 0-.18.215.28.28 0 0 0 .117.273m.418-.199.024-.203a.27.27 0 0 0-.23-.3.276.276 0 0 0-.302.23 4 4 0 0 1-.027.199.27.27 0 0 0 .535.078zm.024-.203c.015-.094.05-.187.078-.277.062-.203.137-.403.21-.602a.246.246 0 0 0-.148-.316.244.244 0 0 0-.312.133q-.129.305-.246.617c-.043.12-.094.246-.114.375a.27.27 0 0 0 .23.3.26.26 0 0 0 .302-.226zm.289-.879a60 60 0 0 0 .61-1.789.204.204 0 0 0-.388-.133 41 41 0 0 1-.683 1.739c-.051.125.008.27.133.324a.24.24 0 0 0 .32-.13c.004-.003.004-.007.008-.01m.61-1.789c.23-.695.429-1.398.605-2.11a.2.2 0 1 0-.387-.098v.009q-.23 1.051-.606 2.066a.204.204 0 0 0 .122.262c.109.04.226-.016.265-.121zm.605-2.11c.152-.624.304-1.25.445-1.878a.236.236 0 0 0-.461-.102c0 .004-.004.008-.004.012q-.16.942-.367 1.879a.196.196 0 0 0 .152.234.196.196 0 0 0 .235-.144m.445-1.878c.07-.309.121-.649.242-.945a.27.27 0 0 0-.144-.352.27.27 0 0 0-.352.148c-.004.008-.004.016-.008.024-.102.336-.145.691-.203 1.035a.24.24 0 0 0 .195.273.236.236 0 0 0 .27-.183zm.187-.86q.036.013.07.032a.277.277 0 1 0 .259-.492.77.77 0 0 0-.415-.106.42.42 0 0 0-.363.3.27.27 0 0 0 .18.337c.094.027.2 0 .27-.07m.07.032q.24.127.481.265a.22.22 0 0 0 .301-.078.22.22 0 0 0 .008-.215c-.11-.21-.328-.355-.531-.464a.277.277 0 1 0-.258.492zm.481.265c.11.063.16.23.192.344a.167.167 0 0 0 .203.113.17.17 0 0 0 .113-.207 2.8 2.8 0 0 0-.2-.543.221.221 0 0 0-.394.204.3.3 0 0 0 .086.09m.192.344c.097.344.07.734.054 1.086a.205.205 0 1 0 .41.02v-.02c-.023-.39-.039-.8-.148-1.18a.167.167 0 0 0-.203-.113.17.17 0 0 0-.113.203zm.394 2.684a7.5 7.5 0 0 0 .07-1.598.21.21 0 0 0-.214-.195.207.207 0 0 0-.196.195 10 10 0 0 1-.18 1.508.26.26 0 0 0 .208.308.263.263 0 0 0 .312-.207zm-.398 2.136c.148-.71.289-1.421.398-2.136a.264.264 0 0 0-.219-.301.266.266 0 0 0-.3.21c-.141.704-.297 1.403-.454 2.102a.295.295 0 0 0 .575.13zm-.317 1.54c.117-.512.211-1.028.317-1.54a.29.29 0 0 0-.227-.347.296.296 0 0 0-.348.222c-.109.504-.203 1.016-.34 1.512a.306.306 0 0 0 .215.38.31.31 0 0 0 .38-.216q0-.006.003-.012zm-.043.171q.022-.085.043-.172a.313.313 0 0 0-.23-.37.31.31 0 0 0-.367.218l-.047.172a.31.31 0 0 0 .218.383.317.317 0 0 0 .383-.219zm-.468.196a.3.3 0 0 0 .18.05.315.315 0 0 0 .288-.246q.01-.035.008-.078a.31.31 0 0 0-.297-.324.313.313 0 0 0-.324.281c-.012.125.027.246.145.317zm.476-.254c.016-.137.027-.27.043-.406a.315.315 0 0 0-.277-.348.316.316 0 0 0-.348.281q-.016.206-.039.41a.312.312 0 0 0 .621.063m.043-.406c.031-.29.14-.575.254-.84a.32.32 0 0 0-.168-.414.32.32 0 0 0-.414.168c-.137.324-.262.668-.297 1.02a.314.314 0 0 0 .625.066m.254-.84c.16-.371.348-.73.555-1.078a.317.317 0 0 0-.106-.434.313.313 0 0 0-.433.11 9 9 0 0 0-.598 1.156.32.32 0 0 0 .168.414.32.32 0 0 0 .414-.168m.555-1.078c.195-.325.414-.637.668-.922a.31.31 0 0 0-.024-.442.314.314 0 0 0-.441.024 6.3 6.3 0 0 0-.742 1.015.317.317 0 0 0 .105.434c.149.09.344.039.434-.11m.668-.922c.156-.172.34-.356.562-.442a.305.305 0 0 0 .18-.394.304.304 0 0 0-.39-.18c-.321.113-.587.348-.817.598a.32.32 0 0 0 .02.441c.128.117.327.11.445-.02zm.562-.442c.09-.031.207-.066.297-.015a.303.303 0 0 0 .41-.125.3.3 0 0 0-.125-.41v-.004c-.25-.13-.535-.11-.793-.02a.304.304 0 0 0-.183.39c.054.16.23.243.39.188zm.297-.015c.09.047.121.183.137.273a.315.315 0 0 0 .367.25.31.31 0 0 0 .246-.367v-.008c-.062-.277-.203-.55-.465-.687a.303.303 0 0 0-.41.129.303.303 0 0 0 .125.41m.766 1.066c.05-.305.05-.617-.016-.918a.313.313 0 0 0-.375-.234.31.31 0 0 0-.238.36c.043.222.031.452-.012.675a.325.325 0 1 0 .637.125q.005-.007.004-.008zm-.387.996a2.8 2.8 0 0 0 .387-.996.33.33 0 0 0-.27-.375.325.325 0 0 0-.371.258c-.055.27-.176.523-.324.75a.344.344 0 0 0 .101.473c.16.101.371.054.473-.102 0-.004.004-.004.004-.008m-.754.902c.293-.265.55-.566.754-.902a.34.34 0 0 0-.113-.469.35.35 0 0 0-.465.106 3.5 3.5 0 0 1-.645.742.352.352 0 0 0 .465.527c.004 0 .004-.004.004-.004zm-.945.66c.343-.175.66-.402.945-.66a.352.352 0 0 0-.469-.523 4 4 0 0 1-.8.55.357.357 0 1 0 .324.638zm-.926.344c.324-.066.633-.191.926-.343a.353.353 0 0 0 .156-.477.357.357 0 0 0-.48-.156 3 3 0 0 1-.743.273.357.357 0 0 0-.28.422.36.36 0 0 0 .42.281m-.715-.007c.215.109.488.05.715.007a.36.36 0 0 0-.14-.703c-.106.02-.235.059-.34.035a.356.356 0 0 0-.422.27.35.35 0 0 0 .187.39m.004.003a.353.353 0 0 0 .508-.292c.2-.235.437-.434.664-.637a.21.21 0 0 0 .023-.301.216.216 0 0 0-.265-.05c-.274.152-.551.3-.805.476a1.2 1.2 0 0 0-.234.199c-.16.191-.13.488.11.606M84.099 22.169q.017.218.027.434a.17.17 0 0 0 .18.16.173.173 0 0 0 .164-.16c.008-.145.011-.29.023-.434a.2.2 0 0 0-.18-.215.2.2 0 0 0-.214.184zm.238.176a.195.195 0 0 0 .156-.172.211.211 0 0 0-.386-.14.206.206 0 0 0 .23.312m.04.105.093-.222a.207.207 0 0 0-.113-.27.2.2 0 0 0-.25.074q-.069.1-.137.203a.225.225 0 0 0 .062.32c.106.075.25.048.32-.062a.1.1 0 0 0 .024-.043m-.212.692c.063-.23.121-.47.211-.692a.23.23 0 0 0-.125-.3.23.23 0 0 0-.281.085c-.152.223-.235.5-.317.754a.267.267 0 0 0 .172.34.264.264 0 0 0 .336-.172q.005-.005.004-.015m-.203 1.035c.047-.348.113-.696.203-1.035a.266.266 0 0 0-.187-.328.27.27 0 0 0-.325.175q-.18.541-.273 1.106a.293.293 0 0 0 .246.336.29.29 0 0 0 .336-.242zm-.621.89c.023.172.18.29.348.266a.314.314 0 0 0 .27-.348q-.006-.005-.005-.011c-.047-.262-.023-.535.008-.797a.29.29 0 0 0-.254-.328.3.3 0 0 0-.328.246c-.05.32-.086.652-.039.972m0 0c.05.391.363.622.75.606a.32.32 0 0 0 .309-.332.323.323 0 0 0-.336-.309h-.004c-.067.004-.094.008-.106-.058a.31.31 0 0 0-.613.094zm.75.606c.445-.02.824-.352 1.117-.656a.325.325 0 0 0-.004-.457.327.327 0 0 0-.46.007 2.4 2.4 0 0 1-.427.364.6.6 0 0 1-.257.101.32.32 0 0 0-.301.34.316.316 0 0 0 .332.3zm1.117-.656c.41-.418.742-.907 1.027-1.418a.322.322 0 0 0-.562-.313c-.258.461-.563.903-.93 1.281a.32.32 0 0 0 .008.457.32.32 0 0 0 .457-.007zm1.027-1.418a8.7 8.7 0 0 0 .704-1.582.313.313 0 0 0-.204-.395.314.314 0 0 0-.398.203 8 8 0 0 1-.664 1.461.324.324 0 0 0 .121.438.33.33 0 0 0 .441-.121zm.704-1.582c.113-.356.23-.715.296-1.082a.31.31 0 0 0-.25-.356.305.305 0 0 0-.347.235c-.078.343-.192.68-.301 1.011a.315.315 0 0 0 .203.399c.164.05.344-.04.399-.203zm.296-1.082c.032-.184.075-.47-.109-.59a.23.23 0 0 0-.164-.031c-.215.039-.285.32-.324.5a.3.3 0 0 0 .23.363.3.3 0 0 0 .364-.23q-.001-.007.004-.012M89.333 17.763c.066-.309.152-.617.266-.914a.18.18 0 0 0-.102-.23.18.18 0 0 0-.23.105c-.004.004-.004.011-.008.02q-.115.475-.22.956c-.019.082.036.16.114.18a.15.15 0 0 0 .18-.117zm.266-.91a1 1 0 0 1 .043-.098.21.21 0 0 0 .093-.211.22.22 0 0 0-.128-.18.3.3 0 0 0-.075-.015.15.15 0 0 0-.082.011c-.148.055-.164.254-.191.387-.02.098.039.192.137.211a.18.18 0 0 0 .203-.105m.195.074-.059-.383a.21.21 0 0 0-.238-.18.21.21 0 0 0-.183.2q-.01.191-.02.39a.255.255 0 0 0 .238.262.247.247 0 0 0 .262-.238c.004-.016 0-.032 0-.051m-.066 1.086c.058-.352.117-.727.066-1.086a.25.25 0 0 0-.285-.211.26.26 0 0 0-.215.238 6 6 0 0 1-.148.953.303.303 0 0 0 .234.352.3.3 0 0 0 .348-.235zm-.266 1.433q.153-.713.266-1.433a.29.29 0 0 0-.246-.336.294.294 0 0 0-.336.23q-.142.703-.313 1.395a.323.323 0 0 0 .234.39.32.32 0 0 0 .391-.234q.005-.006.004-.012m-.348 1.489q.189-.74.348-1.489a.326.326 0 0 0-.25-.382.325.325 0 0 0-.379.238 101 101 0 0 1-.375 1.465c-.05.18.059.367.238.414a.34.34 0 0 0 .418-.239zm-1.101 3.414c.402-1.125.808-2.254 1.101-3.41a.337.337 0 0 0-.246-.415.343.343 0 0 0-.414.243c-.3 1.148-.586 2.3-.87 3.449a.223.223 0 0 0 .163.273.225.225 0 0 0 .266-.14m0 0"/><path d="M87.032 22.544a.15.15 0 0 0 .172.125.153.153 0 0 0 .125-.172.83.83 0 0 1 .098-.527.18.18 0 0 0-.07-.25.186.186 0 0 0-.25.074l-.012.031c-.074.23-.102.477-.063.719m.39-.57c.095-.149.228-.278.36-.39a.236.236 0 0 0 .02-.337.235.235 0 0 0-.332-.023.1.1 0 0 0-.02.023c-.152.168-.297.363-.36.586a.18.18 0 0 0 .13.223.18.18 0 0 0 .203-.082m.36-.39c.2-.177.418-.321.649-.454a.27.27 0 0 0 .097-.371.27.27 0 0 0-.37-.102q-.007.007-.012.008a3.6 3.6 0 0 0-.696.582.23.23 0 0 0 .016.332c.09.082.227.082.316.004m.649-.454q.37-.218.773-.371a.29.29 0 0 0-.207-.543q.001.005-.004.004c-.297.117-.582.27-.847.445a.27.27 0 0 0-.079.379c.079.121.239.16.364.086m.773-.371a4 4 0 0 1 .688-.192.29.29 0 0 0 .242-.336.29.29 0 0 0-.336-.242 4 4 0 0 0-.805.23.29.29 0 0 0-.16.376.285.285 0 0 0 .371.164m.688-.192c.148-.023.308-.035.453.004a.285.285 0 0 0 .351-.199.29.29 0 0 0-.183-.348 1.5 1.5 0 0 0-.715-.035.295.295 0 0 0-.242.336c.027.16.176.27.336.242m.453.004c.086.024.16.07.21.141.075.113.227.14.34.066a.25.25 0 0 0 .094-.277.74.74 0 0 0-.476-.477.287.287 0 0 0-.184.543c.008 0 .012.004.016.004m.21.141c.11.164.114.422.122.61.008.113.105.199.219.195a.21.21 0 0 0 .195-.22c-.012-.26-.023-.542-.102-.796a.243.243 0 0 0-.304-.16.246.246 0 0 0-.16.308.14.14 0 0 0 .03.063m.122.61c.015.242.02.515.105.742.047.12.18.18.297.132a.226.226 0 0 0 .133-.297.2.2 0 0 0-.035-.062c-.024-.027-.035-.098-.043-.14-.027-.13-.035-.266-.043-.4a.203.203 0 0 0-.215-.194.21.21 0 0 0-.2.214zm.105.742c.086.218.301.328.516.375a.28.28 0 0 0 .324-.215.275.275 0 0 0-.215-.325l-.03-.003c-.06-.004-.161-.008-.2-.059a.233.233 0 0 0-.324-.035.23.23 0 0 0-.07.262m.516.375c.328.066.664-.09.941-.247a.296.296 0 0 0 .114-.406.3.3 0 0 0-.41-.113c0 .004-.005.004-.005.004-.156.094-.37.234-.562.219a.27.27 0 0 0-.293.253.275.275 0 0 0 .215.29m.941-.247c.368-.207.7-.48.996-.777a.32.32 0 0 0 0-.445.31.31 0 0 0-.441.004c-.004 0-.004 0-.008.004a4.3 4.3 0 0 1-.848.699.3.3 0 0 0 .301.515zm.996-.777c.297-.297.563-.637.743-1.02a.332.332 0 0 0-.602-.277q.001.006-.004.012c-.133.316-.348.598-.586.848a.314.314 0 0 0 .45.437zm.188-1.594c.05.063.023.028.02.016.003.012 0 .023 0 .035a.7.7 0 0 1-.07.258c-.071.168.007.36.175.43a.33.33 0 0 0 .43-.164c.152-.329.242-.747-.032-1.04a.35.35 0 0 0-.523.465m-.348.13c.11-.044.266-.11.39-.087a.35.35 0 0 0 .493-.047.346.346 0 0 0-.012-.46c-.293-.32-.77-.231-1.129-.102a.37.37 0 0 0 .25.695zm-.992.687c.285-.282.613-.543.992-.688a.371.371 0 0 0-.258-.695c-.48.176-.898.488-1.261.84a.38.38 0 0 0-.008.535.38.38 0 0 0 .535.008zm-.883 1.105c.242-.406.547-.773.883-1.105a.377.377 0 0 0 .004-.535.376.376 0 0 0-.531-.008c-.387.375-.73.793-1.008 1.254a.381.381 0 0 0 .652.394m-.433 1.028a3.2 3.2 0 0 1 .433-1.028.381.381 0 0 0-.652-.395c-.238.395-.438.821-.527 1.274a.375.375 0 0 0 .296.445.38.38 0 0 0 .45-.296m-.364.996a.37.37 0 0 0 .52-.098.373.373 0 0 0-.09-.516c-.117-.086-.094-.261-.066-.382a.385.385 0 0 0-.301-.45.38.38 0 0 0-.445.297v.004c-.086.426.004.887.382 1.145m0 0c.36.246.82.234 1.227.136a.355.355 0 0 0 .262-.43.35.35 0 0 0-.414-.265c-.2.04-.465.074-.645-.055a.375.375 0 0 0-.437.61q.004.002.008.004zm1.227.136c.531-.129 1.012-.422 1.441-.75a.32.32 0 0 0 .063-.453.323.323 0 0 0-.445-.07c-.364.254-.77.492-1.211.578a.355.355 0 0 0-.282.414.36.36 0 0 0 .418.285q.008-.005.016-.004m1.441-.75a13.3 13.3 0 0 0 1.559-1.41.296.296 0 0 0-.418-.418 12 12 0 0 1-1.524 1.305.326.326 0 1 0 .376.531zm1.559-1.41q.839-.875 1.555-1.844a.28.28 0 0 0-.063-.398.286.286 0 0 0-.398.059c-.457.629-.961 1.222-1.512 1.765a.296.296 0 0 0 .414.422zm1.555-1.844c.453-.617.847-1.285 1.12-2a.3.3 0 0 0-.171-.386.3.3 0 0 0-.387.172q-.002.004-.004.007a7.6 7.6 0 0 1-1.02 1.868.28.28 0 0 0 .063.398.286.286 0 0 0 .399-.059m1.12-2c.204-.535.384-1.117.352-1.699a.323.323 0 0 0-.343-.3.32.32 0 0 0-.301.34v.015c.05.484-.106.988-.27 1.437a.305.305 0 0 0 .18.383.3.3 0 0 0 .383-.176m-.585-2.171c.207.09.27.32.293.527a.32.32 0 0 0 .355.285.323.323 0 0 0 .29-.34c-.028-.449-.216-.89-.637-1.101a.349.349 0 0 0-.316.621c.007.004.01.004.015.008m-.82-.188c.28.016.562.074.82.188.18.078.383 0 .46-.18a.343.343 0 0 0-.16-.45 3 3 0 0 0-1.058-.304.374.374 0 1 0-.082.742c.008 0 .012.004.02.004m-.625.047c.19-.074.425-.059.625-.047a.375.375 0 0 0 .062-.746c-.32-.035-.664-.047-.969.066-.199.079-.3.301-.222.504.074.2.296.301.5.227q.002-.005.004-.004m-.075.11c.008-.055.024-.09.075-.11a.39.39 0 0 0-.282-.727.91.91 0 0 0-.566.707.393.393 0 0 0 .773.13m-.789.84a.383.383 0 0 0 .41.362.385.385 0 0 0 .364-.406c-.012-.265-.028-.535.015-.797a.39.39 0 0 0-.32-.449.394.394 0 0 0-.453.32c-.051.32-.035.649-.016.97m0 0c.028.464.086.929.153 1.39.027.21.222.355.433.324a.384.384 0 0 0 .328-.434 15 15 0 0 1-.14-1.324.386.386 0 0 0-.407-.367.386.386 0 0 0-.367.406zm.153 1.39c.078.539.128 1.086.168 1.629a.38.38 0 1 0 .762-.047 22 22 0 0 0-.169-1.692.384.384 0 1 0-.762.11m.875 3.472a10.6 10.6 0 0 0 .054-1.89.38.38 0 1 0-.762.047c.04.586.016 1.172-.05 1.754a.38.38 0 0 0 .336.421.384.384 0 0 0 .422-.332m-.73 1.942c.39-.582.648-1.246.73-1.942a.381.381 0 1 0-.758-.09 3.64 3.64 0 0 1-.606 1.61.38.38 0 0 0 .102.527c.176.118.414.07.531-.105m-1.532 1.484a5.1 5.1 0 0 0 1.531-1.484.38.38 0 1 0-.633-.422 4.3 4.3 0 0 1-1.304 1.258.385.385 0 0 0-.121.527c.113.18.347.235.527.121m-3.055 1.004a6.9 6.9 0 0 0 3.055-1.004.385.385 0 0 0 .121-.527.39.39 0 0 0-.527-.121 9.8 9.8 0 0 1-2.735 1.168.25.25 0 0 0-.176.3.25.25 0 0 0 .262.184m0 0"/></svg>